%TF.GenerationSoftware,KiCad,Pcbnew,7.0.2*%
%TF.CreationDate,2023-05-27T02:32:33-07:00*%
%TF.ProjectId,n76e003-ufo-target-board,6e373665-3030-4332-9d75-666f2d746172,rev?*%
%TF.SameCoordinates,Original*%
%TF.FileFunction,Copper,L2,Bot*%
%TF.FilePolarity,Positive*%
%FSLAX46Y46*%
G04 Gerber Fmt 4.6, Leading zero omitted, Abs format (unit mm)*
G04 Created by KiCad (PCBNEW 7.0.2) date 2023-05-27 02:32:33*
%MOMM*%
%LPD*%
G01*
G04 APERTURE LIST*
%TA.AperFunction,ComponentPad*%
%ADD10C,1.700000*%
%TD*%
%TA.AperFunction,ComponentPad*%
%ADD11O,1.700000X1.700000*%
%TD*%
%TA.AperFunction,ComponentPad*%
%ADD12R,1.700000X1.700000*%
%TD*%
%TA.AperFunction,ComponentPad*%
%ADD13O,2.997200X1.498600*%
%TD*%
%TA.AperFunction,ComponentPad*%
%ADD14O,1.498600X2.997200*%
%TD*%
%TA.AperFunction,ComponentPad*%
%ADD15C,6.350000*%
%TD*%
%TA.AperFunction,ViaPad*%
%ADD16C,1.270000*%
%TD*%
%TA.AperFunction,ViaPad*%
%ADD17C,0.635000*%
%TD*%
%TA.AperFunction,ViaPad*%
%ADD18C,0.600000*%
%TD*%
%TA.AperFunction,Conductor*%
%ADD19C,0.254000*%
%TD*%
%TA.AperFunction,Conductor*%
%ADD20C,0.508000*%
%TD*%
%TA.AperFunction,Conductor*%
%ADD21C,0.635000*%
%TD*%
G04 APERTURE END LIST*
D10*
%TO.P,JP1,1,A1*%
%TO.N,VCC*%
X163325000Y-106304200D03*
D11*
%TO.P,JP1,2,B1*%
%TO.N,+2V5*%
X165865000Y-106304200D03*
%TO.P,JP1,3,A2*%
%TO.N,VCC*%
X163325000Y-108844200D03*
%TO.P,JP1,4,B2*%
%TO.N,+3.3V*%
X165865000Y-108844200D03*
%TO.P,JP1,5,A3*%
%TO.N,VCC*%
X163325000Y-111384200D03*
%TO.P,JP1,6,B3*%
%TO.N,+5V*%
X165865000Y-111384200D03*
%TD*%
D12*
%TO.P,JP3,1,A*%
%TO.N,GPI04*%
X133375000Y-97650000D03*
D11*
%TO.P,JP3,2,B*%
%TO.N,Net-(J1-GPIO4)*%
X130835000Y-97650000D03*
%TD*%
D13*
%TO.P,J1,A1,SPARE1*%
%TO.N,unconnected-(J1-SPARE1-PadA1)*%
X124579500Y-75824200D03*
%TO.P,J1,A2,GND*%
%TO.N,GND*%
X124579500Y-78364200D03*
%TO.P,J1,A3,CLKOUT*%
%TO.N,Net-(J1-CLKOUT)*%
X124579500Y-80904200D03*
%TO.P,J1,A4,GND*%
%TO.N,GND*%
X124579500Y-83444200D03*
%TO.P,J1,A5,CLKIN*%
%TO.N,CLKOUT*%
X124579500Y-85984200D03*
%TO.P,J1,A6,GND*%
%TO.N,GND*%
X124579500Y-88524200D03*
%TO.P,J1,A7,GPIO1*%
%TO.N,GPI01*%
X124579500Y-91064200D03*
%TO.P,J1,A8,GPIO2*%
%TO.N,GPI02*%
X124579500Y-93604200D03*
%TO.P,J1,A9,GPIO3*%
%TO.N,GPI03*%
X124579500Y-96144200D03*
%TO.P,J1,A10,GPIO4*%
%TO.N,Net-(J1-GPIO4)*%
X124579500Y-98684200D03*
%TO.P,J1,A11,NRST*%
%TO.N,RST*%
X124579500Y-101224200D03*
%TO.P,J1,A12,SCK*%
%TO.N,SCK*%
X124579500Y-103764200D03*
%TO.P,J1,A13,MISO*%
%TO.N,MISO*%
X124579500Y-106304200D03*
%TO.P,J1,A14,MOSI*%
%TO.N,MOSI*%
X124579500Y-108844200D03*
%TO.P,J1,A15,GND*%
%TO.N,GND*%
X124579500Y-111384200D03*
%TO.P,J1,A16,GND*%
X124579500Y-113924200D03*
%TO.P,J1,A17,PDIC*%
%TO.N,PDIC*%
X124579500Y-116464200D03*
%TO.P,J1,A18,PDID*%
%TO.N,PDID*%
X124579500Y-119004200D03*
%TO.P,J1,A19,SPARE2*%
%TO.N,unconnected-(J1-SPARE2-PadA19)*%
X124579500Y-121544200D03*
%TO.P,J1,A20,VREF*%
%TO.N,VCC*%
X124579500Y-124084200D03*
D14*
%TO.P,J1,B1,GND*%
%TO.N,GND*%
X124579500Y-129164200D03*
%TO.P,J1,B2,JTAG_TRST*%
%TO.N,unconnected-(J1-JTAG_TRST-PadB2)*%
X127119500Y-129164200D03*
%TO.P,J1,B3,JTAG_TDI*%
%TO.N,unconnected-(J1-JTAG_TDI-PadB3)*%
X129659500Y-129164200D03*
%TO.P,J1,B4,JTAG_TDO*%
%TO.N,unconnected-(J1-JTAG_TDO-PadB4)*%
X132199500Y-129164200D03*
%TO.P,J1,B5,JTAG_TMS*%
%TO.N,unconnected-(J1-JTAG_TMS-PadB5)*%
X134739500Y-129164200D03*
%TO.P,J1,B6,JTAG_TCK*%
%TO.N,unconnected-(J1-JTAG_TCK-PadB6)*%
X137279500Y-129164200D03*
%TO.P,J1,B7,JTAG_VREF*%
%TO.N,unconnected-(J1-JTAG_VREF-PadB7)*%
X139819500Y-129164200D03*
%TO.P,J1,B8,JTAG_NRST*%
%TO.N,unconnected-(J1-JTAG_NRST-PadB8)*%
X142359500Y-129164200D03*
%TO.P,J1,B9,GND*%
%TO.N,unconnected-(J1-GND-PadB9)*%
X144899500Y-129164200D03*
%TO.P,J1,B10,GND*%
%TO.N,GND*%
X147439500Y-129164200D03*
%TO.P,J1,B11,HDR1*%
%TO.N,unconnected-(J1-HDR1-PadB11)*%
X149979500Y-129164200D03*
%TO.P,J1,B12,HDR2*%
%TO.N,VCC*%
X152519500Y-129164200D03*
%TO.P,J1,B13,HDR3*%
%TO.N,unconnected-(J1-HDR3-PadB13)*%
X155059500Y-129164200D03*
%TO.P,J1,B14,HDR4*%
%TO.N,PDID*%
X157599500Y-129164200D03*
%TO.P,J1,B15,HDR5*%
%TO.N,unconnected-(J1-HDR5-PadB15)*%
X160139500Y-129164200D03*
%TO.P,J1,B16,HDR6*%
%TO.N,PDIC*%
X162679500Y-129164200D03*
%TO.P,J1,B17,HDR7*%
%TO.N,GPI02*%
X165219500Y-129164200D03*
%TO.P,J1,B18,HDR8*%
%TO.N,RST*%
X167759500Y-129164200D03*
%TO.P,J1,B19,HDR9*%
%TO.N,GPI01*%
X170299500Y-129164200D03*
%TO.P,J1,B20,HDR10*%
%TO.N,GND*%
X172839500Y-129164200D03*
D13*
%TO.P,J1,C1,GND*%
X172839500Y-75824200D03*
%TO.P,J1,C2,SHUNTL*%
%TO.N,VBUS*%
X172839500Y-78364200D03*
%TO.P,J1,C3,SHUNTH*%
%TO.N,Net-(J1-FILT_LP)*%
X172839500Y-80904200D03*
%TO.P,J1,C4,GND*%
%TO.N,GND*%
X172839500Y-83444200D03*
%TO.P,J1,C5,FILT_LP*%
%TO.N,Net-(J1-FILT_LP)*%
X172839500Y-85984200D03*
%TO.P,J1,C6,FILT_HP*%
%TO.N,unconnected-(J1-FILT_HP-PadC6)*%
X172839500Y-88524200D03*
%TO.P,J1,C7,GND*%
%TO.N,GND*%
X172839500Y-91064200D03*
%TO.P,J1,C8,FILTIN*%
%TO.N,VCC*%
X172839500Y-93604200D03*
%TO.P,J1,C9,GND*%
%TO.N,GND*%
X172839500Y-96144200D03*
%TO.P,J1,C10,GND*%
X172839500Y-98684200D03*
%TO.P,J1,C11,VCC1.2V*%
%TO.N,unconnected-(J1-VCC1.2V-PadC11)*%
X172839500Y-101224200D03*
%TO.P,J1,C12,VCC1.8V*%
%TO.N,unconnected-(J1-VCC1.8V-PadC12)*%
X172839500Y-103764200D03*
%TO.P,J1,C13,VCC2.5V*%
%TO.N,+2V5*%
X172839500Y-106304200D03*
%TO.P,J1,C14,VCC3.3V*%
%TO.N,+3.3V*%
X172839500Y-108844200D03*
%TO.P,J1,C15,VCC5.0V*%
%TO.N,+5V*%
X172839500Y-111384200D03*
%TO.P,J1,C16,GND*%
%TO.N,GND*%
X172839500Y-113924200D03*
%TO.P,J1,C17,GND*%
X172839500Y-116464200D03*
%TO.P,J1,C18,LED1*%
%TO.N,LED1*%
X172839500Y-119004200D03*
%TO.P,J1,C19,LED2*%
%TO.N,LED2*%
X172839500Y-121544200D03*
%TO.P,J1,C20,LED3*%
%TO.N,LED3*%
X172839500Y-124084200D03*
D15*
%TO.P,J1,MH1,MH1*%
%TO.N,unconnected-(J1-PadMH1)*%
X129659500Y-70744200D03*
%TO.P,J1,MH2,MH2*%
%TO.N,unconnected-(J1-PadMH2)*%
X167759500Y-70744200D03*
%TO.P,J1,MH3,MH3*%
%TO.N,unconnected-(J1-PadMH3)*%
X147439500Y-121544200D03*
%TD*%
D16*
%TO.N,VCC*%
X156550000Y-111350000D03*
X152475000Y-117655500D03*
D17*
%TO.N,GND*%
X147122000Y-68115000D03*
X152552000Y-64215000D03*
X142042000Y-68115000D03*
X146890000Y-76750000D03*
D16*
X160000000Y-85800000D03*
D17*
X161602000Y-94685000D03*
X136730000Y-76750000D03*
X142632000Y-110585000D03*
X137312000Y-64215000D03*
X138990000Y-106750000D03*
X132232000Y-64215000D03*
X144472000Y-72435000D03*
X151970000Y-76750000D03*
X128610000Y-83400000D03*
X166850000Y-99600000D03*
X146250000Y-80950000D03*
X134312000Y-72435000D03*
X163390000Y-86640000D03*
X143240000Y-124220000D03*
X157632000Y-64215000D03*
X145050000Y-114900000D03*
X166682000Y-94685000D03*
X152850000Y-82950000D03*
X141652000Y-102435000D03*
X157050000Y-76750000D03*
D16*
X153910000Y-91090000D03*
D17*
X136962000Y-68115000D03*
X159712000Y-72435000D03*
X149900000Y-85650000D03*
X167550000Y-90600000D03*
X137552000Y-110585000D03*
X154632000Y-72435000D03*
X149600000Y-81000000D03*
D16*
X156300000Y-85800000D03*
D17*
X163150000Y-98800000D03*
X149890000Y-89070000D03*
X162130000Y-76750000D03*
X157282000Y-68115000D03*
X157390000Y-90600000D03*
X131650000Y-76750000D03*
X130080000Y-88590000D03*
X162362000Y-68115000D03*
X128600000Y-108050000D03*
X142392000Y-64215000D03*
X134450000Y-106200000D03*
X129300000Y-114250000D03*
X139300000Y-72000000D03*
X144070000Y-106750000D03*
X152202000Y-68115000D03*
X139970000Y-114900000D03*
X134890000Y-114900000D03*
X149552000Y-72435000D03*
X133690000Y-83400000D03*
X131150000Y-109650000D03*
X147472000Y-64215000D03*
X143200000Y-84000000D03*
%TO.N,GPI01*%
X140300000Y-93050000D03*
X153458414Y-93106537D03*
X158600000Y-94100000D03*
%TO.N,GPI02*%
X153390000Y-94180000D03*
X139600000Y-93750000D03*
X158550000Y-95550000D03*
%TO.N,GPI03*%
X130150000Y-93350000D03*
X150000000Y-87550000D03*
%TO.N,GPI04*%
X145950000Y-96300000D03*
%TO.N,RST*%
X132130000Y-101224200D03*
X149800000Y-101224200D03*
X161300000Y-123425000D03*
X148850000Y-111400000D03*
%TO.N,MOSI*%
X128525000Y-105500000D03*
%TO.N,PDIC*%
X155437500Y-122287500D03*
X159012500Y-123912500D03*
%TO.N,unconnected-(J1-PadMH3)*%
X148995140Y-123099840D03*
X147439500Y-123744200D03*
X148995140Y-119988560D03*
X145883860Y-123099840D03*
X145239500Y-121544200D03*
X145883860Y-119988560D03*
X147439500Y-119344200D03*
X149639500Y-121544200D03*
D18*
%TO.N,unconnected-(J1-PadMH2)*%
X166203860Y-69188560D03*
X169315140Y-72299840D03*
X169315140Y-69188560D03*
X169959500Y-70744200D03*
X166203860Y-72299840D03*
X167759500Y-68544200D03*
X167759500Y-72944200D03*
X165559500Y-70744200D03*
D17*
%TO.N,LED1*%
X162600000Y-114400000D03*
X146050000Y-98500000D03*
%TO.N,LED2*%
X162775000Y-117525000D03*
X147300000Y-105550000D03*
%TO.N,LED3*%
X158450000Y-97150000D03*
X153290000Y-95250000D03*
X163700000Y-120500000D03*
X159175000Y-118625000D03*
D18*
%TO.N,unconnected-(J1-PadMH1)*%
X131215140Y-69188560D03*
X131215140Y-72299840D03*
X129659500Y-72944200D03*
X129659500Y-68544200D03*
X127459500Y-70744200D03*
X128103860Y-72299840D03*
X131859500Y-70744200D03*
X128103860Y-69188560D03*
%TD*%
D19*
%TO.N,LED1*%
X156650000Y-114400000D02*
X162600000Y-114400000D01*
X153750000Y-111500000D02*
X156650000Y-114400000D01*
X146050000Y-98500000D02*
X150350000Y-98500000D01*
X153750000Y-101900000D02*
X153750000Y-111500000D01*
X150350000Y-98500000D02*
X153750000Y-101900000D01*
%TO.N,GPI03*%
X130150000Y-93350000D02*
X135950000Y-87550000D01*
X135950000Y-87550000D02*
X150000000Y-87550000D01*
%TO.N,GPI02*%
X152960000Y-93750000D02*
X153390000Y-94180000D01*
X139600000Y-93750000D02*
X152960000Y-93750000D01*
%TO.N,GPI01*%
X140300000Y-93050000D02*
X153401877Y-93050000D01*
X153401877Y-93050000D02*
X153458414Y-93106537D01*
D20*
%TO.N,VCC*%
X152519500Y-117700000D02*
X152519500Y-129164200D01*
D21*
X152475000Y-117655500D02*
X152519500Y-117700000D01*
D20*
X156584200Y-111384200D02*
X163325000Y-111384200D01*
D21*
X156550000Y-111350000D02*
X156584200Y-111384200D01*
D19*
%TO.N,GPI01*%
X157606537Y-93106537D02*
X153458414Y-93106537D01*
X158600000Y-94100000D02*
X157606537Y-93106537D01*
%TO.N,GPI02*%
X156250000Y-95550000D02*
X158550000Y-95550000D01*
X154880000Y-94180000D02*
X156250000Y-95550000D01*
X153390000Y-94180000D02*
X154880000Y-94180000D01*
%TO.N,GPI04*%
X142950000Y-97650000D02*
X133375000Y-97650000D01*
X144300000Y-96300000D02*
X142950000Y-97650000D01*
X145950000Y-96300000D02*
X144300000Y-96300000D01*
%TO.N,RST*%
X161300000Y-123425000D02*
X161275000Y-123450000D01*
X132130000Y-101224200D02*
X149800000Y-101224200D01*
X161275000Y-123450000D02*
X161150000Y-123450000D01*
X149100000Y-111400000D02*
X161125000Y-123425000D01*
X148850000Y-111400000D02*
X149100000Y-111400000D01*
X161125000Y-123425000D02*
X161300000Y-123425000D01*
%TO.N,MOSI*%
X128525000Y-105500000D02*
X125905800Y-108119200D01*
X125905800Y-108119200D02*
X125905800Y-108844200D01*
%TO.N,PDIC*%
X155437500Y-122287500D02*
X157062500Y-123912500D01*
X157062500Y-123912500D02*
X159012500Y-123912500D01*
%TO.N,LED2*%
X161475000Y-116225000D02*
X162775000Y-117525000D01*
X147300000Y-107400000D02*
X156125000Y-116225000D01*
X147300000Y-105550000D02*
X147300000Y-107400000D01*
X156125000Y-116225000D02*
X161475000Y-116225000D01*
%TO.N,LED3*%
X161175000Y-120500000D02*
X159300000Y-118625000D01*
X163700000Y-120500000D02*
X161175000Y-120500000D01*
X159300000Y-118625000D02*
X159175000Y-118625000D01*
X154150000Y-95250000D02*
X156150000Y-97250000D01*
X158350000Y-97250000D02*
X158450000Y-97150000D01*
X153290000Y-95250000D02*
X154150000Y-95250000D01*
X156150000Y-97250000D02*
X158350000Y-97250000D01*
D20*
%TO.N,+5V*%
X165865000Y-111384200D02*
X172839500Y-111384200D01*
%TO.N,+3.3V*%
X172839500Y-108844200D02*
X165865000Y-108844200D01*
%TO.N,+2V5*%
X165865000Y-106304200D02*
X172839500Y-106304200D01*
%TD*%
%TA.AperFunction,Conductor*%
%TO.N,GND*%
G36*
X174061539Y-63907685D02*
G01*
X174107294Y-63960489D01*
X174118500Y-64012000D01*
X174118500Y-74771584D01*
X174098815Y-74838623D01*
X174046011Y-74884378D01*
X173976853Y-74894322D01*
X173945600Y-74885535D01*
X173890700Y-74861975D01*
X173690825Y-74820900D01*
X172966500Y-74820900D01*
X172966500Y-75342066D01*
X172874923Y-75328900D01*
X172804077Y-75328900D01*
X172712500Y-75342066D01*
X172712500Y-74820900D01*
X172042463Y-74820900D01*
X172036197Y-74821217D01*
X171887191Y-74836370D01*
X171692503Y-74897453D01*
X171514093Y-74996478D01*
X171359262Y-75129398D01*
X171234364Y-75290751D01*
X171144501Y-75473951D01*
X171093355Y-75671490D01*
X171092051Y-75697200D01*
X172360581Y-75697200D01*
X172344200Y-75752987D01*
X172344200Y-75895413D01*
X172360581Y-75951200D01*
X171094651Y-75951200D01*
X171113918Y-76076977D01*
X171184785Y-76268324D01*
X171292724Y-76441495D01*
X171433306Y-76589386D01*
X171600785Y-76705955D01*
X171788299Y-76786424D01*
X171988175Y-76827500D01*
X172712500Y-76827500D01*
X172712500Y-76306333D01*
X172804077Y-76319500D01*
X172874923Y-76319500D01*
X172966500Y-76306333D01*
X172966500Y-76827500D01*
X173636537Y-76827500D01*
X173642802Y-76827182D01*
X173791806Y-76812029D01*
X173957379Y-76760081D01*
X174027237Y-76758793D01*
X174086701Y-76795479D01*
X174116892Y-76858489D01*
X174118500Y-76878394D01*
X174118500Y-77358920D01*
X174098815Y-77425959D01*
X174046011Y-77471714D01*
X173976853Y-77481658D01*
X173945603Y-77472871D01*
X173877611Y-77443694D01*
X173686402Y-77404400D01*
X172041521Y-77404400D01*
X172038410Y-77404716D01*
X172038397Y-77404717D01*
X171895994Y-77419198D01*
X171709745Y-77477635D01*
X171539068Y-77572368D01*
X171390955Y-77699519D01*
X171271469Y-77853881D01*
X171185505Y-78029133D01*
X171185503Y-78029137D01*
X171185504Y-78029137D01*
X171152572Y-78156329D01*
X171136575Y-78218111D01*
X171126687Y-78413064D01*
X171156247Y-78606017D01*
X171224041Y-78789067D01*
X171224043Y-78789070D01*
X171327299Y-78954729D01*
X171461788Y-79096212D01*
X171622005Y-79207726D01*
X171801389Y-79284706D01*
X171992598Y-79324000D01*
X171992600Y-79324000D01*
X173634337Y-79324000D01*
X173637479Y-79324000D01*
X173783003Y-79309202D01*
X173957382Y-79254489D01*
X174027236Y-79253202D01*
X174086700Y-79289887D01*
X174116892Y-79352897D01*
X174118500Y-79372803D01*
X174118500Y-79898920D01*
X174098815Y-79965959D01*
X174046011Y-80011714D01*
X173976853Y-80021658D01*
X173945603Y-80012871D01*
X173877611Y-79983694D01*
X173686402Y-79944400D01*
X172041521Y-79944400D01*
X172038410Y-79944716D01*
X172038397Y-79944717D01*
X171895994Y-79959198D01*
X171709745Y-80017635D01*
X171539068Y-80112368D01*
X171390955Y-80239519D01*
X171271469Y-80393881D01*
X171185505Y-80569133D01*
X171136575Y-80758111D01*
X171126687Y-80953064D01*
X171156247Y-81146017D01*
X171224041Y-81329067D01*
X171224043Y-81329070D01*
X171327299Y-81494729D01*
X171461788Y-81636212D01*
X171622005Y-81747726D01*
X171801389Y-81824706D01*
X171992598Y-81864000D01*
X171992600Y-81864000D01*
X173634337Y-81864000D01*
X173637479Y-81864000D01*
X173783003Y-81849202D01*
X173957382Y-81794489D01*
X174027236Y-81793202D01*
X174086700Y-81829887D01*
X174116892Y-81892897D01*
X174118500Y-81912803D01*
X174118500Y-82391584D01*
X174098815Y-82458623D01*
X174046011Y-82504378D01*
X173976853Y-82514322D01*
X173945600Y-82505535D01*
X173890700Y-82481975D01*
X173690825Y-82440900D01*
X172966500Y-82440900D01*
X172966500Y-82962066D01*
X172874923Y-82948900D01*
X172804077Y-82948900D01*
X172712500Y-82962066D01*
X172712500Y-82440900D01*
X172042463Y-82440900D01*
X172036197Y-82441217D01*
X171887191Y-82456370D01*
X171692503Y-82517453D01*
X171514093Y-82616478D01*
X171359262Y-82749398D01*
X171234364Y-82910751D01*
X171144501Y-83093951D01*
X171093355Y-83291490D01*
X171092051Y-83317200D01*
X172360581Y-83317200D01*
X172344200Y-83372987D01*
X172344200Y-83515413D01*
X172360581Y-83571200D01*
X171094651Y-83571200D01*
X171113918Y-83696977D01*
X171184785Y-83888324D01*
X171292724Y-84061495D01*
X171433306Y-84209386D01*
X171600785Y-84325955D01*
X171788299Y-84406424D01*
X171988175Y-84447500D01*
X172712500Y-84447500D01*
X172712500Y-83926333D01*
X172804077Y-83939500D01*
X172874923Y-83939500D01*
X172966500Y-83926333D01*
X172966500Y-84447500D01*
X173636537Y-84447500D01*
X173642802Y-84447182D01*
X173791806Y-84432029D01*
X173957379Y-84380081D01*
X174027237Y-84378793D01*
X174086701Y-84415479D01*
X174116892Y-84478489D01*
X174118500Y-84498394D01*
X174118500Y-84978920D01*
X174098815Y-85045959D01*
X174046011Y-85091714D01*
X173976853Y-85101658D01*
X173945603Y-85092871D01*
X173877611Y-85063694D01*
X173686402Y-85024400D01*
X172041521Y-85024400D01*
X172038410Y-85024716D01*
X172038397Y-85024717D01*
X171895994Y-85039198D01*
X171709745Y-85097635D01*
X171539068Y-85192368D01*
X171390955Y-85319519D01*
X171271469Y-85473881D01*
X171185505Y-85649133D01*
X171136575Y-85838111D01*
X171126687Y-86033064D01*
X171156247Y-86226017D01*
X171224041Y-86409067D01*
X171224043Y-86409070D01*
X171327299Y-86574729D01*
X171461788Y-86716212D01*
X171622005Y-86827726D01*
X171801389Y-86904706D01*
X171992598Y-86944000D01*
X171992600Y-86944000D01*
X173634337Y-86944000D01*
X173637479Y-86944000D01*
X173783003Y-86929202D01*
X173957382Y-86874489D01*
X174027236Y-86873202D01*
X174086700Y-86909887D01*
X174116892Y-86972897D01*
X174118500Y-86992803D01*
X174118500Y-87518920D01*
X174098815Y-87585959D01*
X174046011Y-87631714D01*
X173976853Y-87641658D01*
X173945603Y-87632871D01*
X173877611Y-87603694D01*
X173686402Y-87564400D01*
X172041521Y-87564400D01*
X172038410Y-87564716D01*
X172038397Y-87564717D01*
X171895994Y-87579198D01*
X171709745Y-87637635D01*
X171539068Y-87732368D01*
X171390955Y-87859519D01*
X171271469Y-88013881D01*
X171185505Y-88189133D01*
X171185503Y-88189137D01*
X171185504Y-88189137D01*
X171152572Y-88316329D01*
X171136575Y-88378111D01*
X171126687Y-88573064D01*
X171156247Y-88766017D01*
X171224041Y-88949067D01*
X171224043Y-88949070D01*
X171327299Y-89114729D01*
X171461788Y-89256212D01*
X171622005Y-89367726D01*
X171801389Y-89444706D01*
X171992598Y-89484000D01*
X171992600Y-89484000D01*
X173634337Y-89484000D01*
X173637479Y-89484000D01*
X173783003Y-89469202D01*
X173957382Y-89414489D01*
X174027236Y-89413202D01*
X174086700Y-89449887D01*
X174116892Y-89512897D01*
X174118500Y-89532803D01*
X174118500Y-90011584D01*
X174098815Y-90078623D01*
X174046011Y-90124378D01*
X173976853Y-90134322D01*
X173945600Y-90125535D01*
X173890700Y-90101975D01*
X173690825Y-90060900D01*
X172966500Y-90060900D01*
X172966500Y-90582066D01*
X172874923Y-90568900D01*
X172804077Y-90568900D01*
X172712500Y-90582066D01*
X172712500Y-90060900D01*
X172042463Y-90060900D01*
X172036197Y-90061217D01*
X171887191Y-90076370D01*
X171692503Y-90137453D01*
X171514093Y-90236478D01*
X171359262Y-90369398D01*
X171234364Y-90530751D01*
X171144501Y-90713951D01*
X171093355Y-90911490D01*
X171092051Y-90937200D01*
X172360581Y-90937200D01*
X172344200Y-90992987D01*
X172344200Y-91135413D01*
X172360581Y-91191200D01*
X171094651Y-91191200D01*
X171113918Y-91316977D01*
X171184785Y-91508324D01*
X171292724Y-91681495D01*
X171433306Y-91829386D01*
X171600785Y-91945955D01*
X171788299Y-92026424D01*
X171988175Y-92067500D01*
X172712500Y-92067500D01*
X172712500Y-91546333D01*
X172804077Y-91559500D01*
X172874923Y-91559500D01*
X172966500Y-91546333D01*
X172966500Y-92067500D01*
X173636537Y-92067500D01*
X173642802Y-92067182D01*
X173791806Y-92052029D01*
X173957379Y-92000081D01*
X174027237Y-91998793D01*
X174086701Y-92035479D01*
X174116892Y-92098489D01*
X174118500Y-92118394D01*
X174118500Y-92598920D01*
X174098815Y-92665959D01*
X174046011Y-92711714D01*
X173976853Y-92721658D01*
X173945603Y-92712871D01*
X173877611Y-92683694D01*
X173686402Y-92644400D01*
X172041521Y-92644400D01*
X172038410Y-92644716D01*
X172038397Y-92644717D01*
X171895994Y-92659198D01*
X171709745Y-92717635D01*
X171539068Y-92812368D01*
X171390955Y-92939519D01*
X171271469Y-93093881D01*
X171185505Y-93269133D01*
X171185503Y-93269137D01*
X171185504Y-93269137D01*
X171148385Y-93412500D01*
X171136575Y-93458111D01*
X171126687Y-93653064D01*
X171156247Y-93846017D01*
X171224041Y-94029067D01*
X171224043Y-94029070D01*
X171327299Y-94194729D01*
X171461788Y-94336212D01*
X171622005Y-94447726D01*
X171801389Y-94524706D01*
X171992598Y-94564000D01*
X171992600Y-94564000D01*
X173634337Y-94564000D01*
X173637479Y-94564000D01*
X173783003Y-94549202D01*
X173957382Y-94494489D01*
X174027236Y-94493202D01*
X174086700Y-94529887D01*
X174116892Y-94592897D01*
X174118500Y-94612803D01*
X174118500Y-95091584D01*
X174098815Y-95158623D01*
X174046011Y-95204378D01*
X173976853Y-95214322D01*
X173945600Y-95205535D01*
X173890700Y-95181975D01*
X173690825Y-95140900D01*
X172966500Y-95140900D01*
X172966500Y-95662066D01*
X172874923Y-95648900D01*
X172804077Y-95648900D01*
X172712500Y-95662066D01*
X172712500Y-95140900D01*
X172042463Y-95140900D01*
X172036197Y-95141217D01*
X171887191Y-95156370D01*
X171692503Y-95217453D01*
X171514093Y-95316478D01*
X171359262Y-95449398D01*
X171234364Y-95610751D01*
X171144501Y-95793951D01*
X171093355Y-95991490D01*
X171092051Y-96017200D01*
X172360581Y-96017200D01*
X172344200Y-96072987D01*
X172344200Y-96215413D01*
X172360581Y-96271200D01*
X171094651Y-96271200D01*
X171113918Y-96396977D01*
X171184785Y-96588324D01*
X171292724Y-96761495D01*
X171433306Y-96909386D01*
X171600785Y-97025955D01*
X171788299Y-97106424D01*
X171988175Y-97147500D01*
X172712500Y-97147500D01*
X172712500Y-96626333D01*
X172804077Y-96639500D01*
X172874923Y-96639500D01*
X172966500Y-96626333D01*
X172966500Y-97147500D01*
X173636537Y-97147500D01*
X173642802Y-97147182D01*
X173791806Y-97132029D01*
X173957379Y-97080081D01*
X174027237Y-97078793D01*
X174086701Y-97115479D01*
X174116892Y-97178489D01*
X174118500Y-97198394D01*
X174118500Y-97631584D01*
X174098815Y-97698623D01*
X174046011Y-97744378D01*
X173976853Y-97754322D01*
X173945600Y-97745535D01*
X173890700Y-97721975D01*
X173690825Y-97680900D01*
X172966500Y-97680900D01*
X172966500Y-98202066D01*
X172874923Y-98188900D01*
X172804077Y-98188900D01*
X172712500Y-98202066D01*
X172712500Y-97680900D01*
X172042463Y-97680900D01*
X172036197Y-97681217D01*
X171887191Y-97696370D01*
X171692503Y-97757453D01*
X171514093Y-97856478D01*
X171359262Y-97989398D01*
X171234364Y-98150751D01*
X171144501Y-98333951D01*
X171093355Y-98531490D01*
X171092051Y-98557200D01*
X172360581Y-98557200D01*
X172344200Y-98612987D01*
X172344200Y-98755413D01*
X172360581Y-98811200D01*
X171094651Y-98811200D01*
X171113918Y-98936977D01*
X171184785Y-99128324D01*
X171292724Y-99301495D01*
X171433306Y-99449386D01*
X171600785Y-99565955D01*
X171788299Y-99646424D01*
X171988175Y-99687500D01*
X172712500Y-99687500D01*
X172712500Y-99166333D01*
X172804077Y-99179500D01*
X172874923Y-99179500D01*
X172966500Y-99166333D01*
X172966500Y-99687500D01*
X173636537Y-99687500D01*
X173642802Y-99687182D01*
X173791806Y-99672029D01*
X173957379Y-99620081D01*
X174027237Y-99618793D01*
X174086701Y-99655479D01*
X174116892Y-99718489D01*
X174118500Y-99738394D01*
X174118500Y-100218920D01*
X174098815Y-100285959D01*
X174046011Y-100331714D01*
X173976853Y-100341658D01*
X173945603Y-100332871D01*
X173877611Y-100303694D01*
X173686402Y-100264400D01*
X172041521Y-100264400D01*
X172038410Y-100264716D01*
X172038397Y-100264717D01*
X171895994Y-100279198D01*
X171709745Y-100337635D01*
X171539068Y-100432368D01*
X171390955Y-100559519D01*
X171271469Y-100713881D01*
X171185505Y-100889133D01*
X171136575Y-101078111D01*
X171126687Y-101273064D01*
X171156247Y-101466017D01*
X171224041Y-101649067D01*
X171224043Y-101649070D01*
X171327299Y-101814729D01*
X171461788Y-101956212D01*
X171622005Y-102067726D01*
X171801389Y-102144706D01*
X171992598Y-102184000D01*
X171992600Y-102184000D01*
X173634337Y-102184000D01*
X173637479Y-102184000D01*
X173783003Y-102169202D01*
X173957382Y-102114489D01*
X174027236Y-102113202D01*
X174086700Y-102149887D01*
X174116892Y-102212897D01*
X174118500Y-102232803D01*
X174118500Y-102758920D01*
X174098815Y-102825959D01*
X174046011Y-102871714D01*
X173976853Y-102881658D01*
X173945603Y-102872871D01*
X173877611Y-102843694D01*
X173686402Y-102804400D01*
X172041521Y-102804400D01*
X172038410Y-102804716D01*
X172038397Y-102804717D01*
X171895994Y-102819198D01*
X171709745Y-102877635D01*
X171539068Y-102972368D01*
X171390955Y-103099519D01*
X171271469Y-103253881D01*
X171185505Y-103429133D01*
X171136575Y-103618111D01*
X171126687Y-103813064D01*
X171156247Y-104006017D01*
X171224041Y-104189067D01*
X171224043Y-104189070D01*
X171327299Y-104354729D01*
X171461788Y-104496212D01*
X171622005Y-104607726D01*
X171801389Y-104684706D01*
X171992598Y-104724000D01*
X171992600Y-104724000D01*
X173634337Y-104724000D01*
X173637479Y-104724000D01*
X173783003Y-104709202D01*
X173957382Y-104654489D01*
X174027236Y-104653202D01*
X174086700Y-104689887D01*
X174116892Y-104752897D01*
X174118500Y-104772803D01*
X174118500Y-105298920D01*
X174098815Y-105365959D01*
X174046011Y-105411714D01*
X173976853Y-105421658D01*
X173945603Y-105412871D01*
X173877611Y-105383694D01*
X173686402Y-105344400D01*
X172041521Y-105344400D01*
X172038410Y-105344716D01*
X172038397Y-105344717D01*
X171895994Y-105359198D01*
X171709745Y-105417635D01*
X171539068Y-105512368D01*
X171390955Y-105639519D01*
X171334722Y-105712167D01*
X171286742Y-105774153D01*
X171273236Y-105791601D01*
X171216635Y-105832565D01*
X171175180Y-105839700D01*
X166893530Y-105839700D01*
X166826491Y-105820015D01*
X166784174Y-105774156D01*
X166751040Y-105712167D01*
X166618515Y-105550685D01*
X166485988Y-105441923D01*
X166457032Y-105418159D01*
X166272801Y-105319686D01*
X166272800Y-105319685D01*
X166272799Y-105319685D01*
X166154241Y-105283721D01*
X166072892Y-105259044D01*
X165887711Y-105240805D01*
X165865000Y-105238569D01*
X165864999Y-105238569D01*
X165657107Y-105259044D01*
X165457198Y-105319686D01*
X165272967Y-105418159D01*
X165111485Y-105550685D01*
X164978959Y-105712167D01*
X164880486Y-105896398D01*
X164819844Y-106096307D01*
X164799369Y-106304199D01*
X164819844Y-106512092D01*
X164880486Y-106712001D01*
X164978959Y-106896232D01*
X165002723Y-106925189D01*
X165111485Y-107057715D01*
X165272967Y-107190240D01*
X165457201Y-107288715D01*
X165657106Y-107349355D01*
X165865000Y-107369831D01*
X166072894Y-107349355D01*
X166272799Y-107288715D01*
X166457033Y-107190240D01*
X166618515Y-107057715D01*
X166751040Y-106896233D01*
X166784173Y-106834244D01*
X166833134Y-106784403D01*
X166893530Y-106768700D01*
X171179919Y-106768700D01*
X171246958Y-106788385D01*
X171285150Y-106827107D01*
X171327299Y-106894729D01*
X171461788Y-107036212D01*
X171622005Y-107147726D01*
X171801389Y-107224706D01*
X171992598Y-107264000D01*
X171992600Y-107264000D01*
X173634337Y-107264000D01*
X173637479Y-107264000D01*
X173783003Y-107249202D01*
X173957382Y-107194489D01*
X174027236Y-107193202D01*
X174086700Y-107229887D01*
X174116892Y-107292897D01*
X174118500Y-107312803D01*
X174118500Y-107838920D01*
X174098815Y-107905959D01*
X174046011Y-107951714D01*
X173976853Y-107961658D01*
X173945603Y-107952871D01*
X173877611Y-107923694D01*
X173686402Y-107884400D01*
X172041521Y-107884400D01*
X172038410Y-107884716D01*
X172038397Y-107884717D01*
X171895994Y-107899198D01*
X171709745Y-107957635D01*
X171539068Y-108052368D01*
X171390955Y-108179519D01*
X171334722Y-108252167D01*
X171286742Y-108314153D01*
X171273236Y-108331601D01*
X171216635Y-108372565D01*
X171175180Y-108379700D01*
X166893530Y-108379700D01*
X166826491Y-108360015D01*
X166784174Y-108314156D01*
X166751040Y-108252167D01*
X166618515Y-108090685D01*
X166485988Y-107981923D01*
X166457032Y-107958159D01*
X166272801Y-107859686D01*
X166272800Y-107859685D01*
X166272799Y-107859685D01*
X166172846Y-107829364D01*
X166072892Y-107799044D01*
X165887711Y-107780805D01*
X165865000Y-107778569D01*
X165864999Y-107778569D01*
X165657107Y-107799044D01*
X165457198Y-107859686D01*
X165272967Y-107958159D01*
X165111485Y-108090685D01*
X164978959Y-108252167D01*
X164880486Y-108436398D01*
X164819844Y-108636307D01*
X164799369Y-108844199D01*
X164819844Y-109052092D01*
X164880486Y-109252001D01*
X164978959Y-109436232D01*
X165002723Y-109465189D01*
X165111485Y-109597715D01*
X165272967Y-109730240D01*
X165457201Y-109828715D01*
X165657106Y-109889355D01*
X165865000Y-109909831D01*
X166072894Y-109889355D01*
X166272799Y-109828715D01*
X166457033Y-109730240D01*
X166618515Y-109597715D01*
X166751040Y-109436233D01*
X166784173Y-109374244D01*
X166833134Y-109324403D01*
X166893530Y-109308700D01*
X171179919Y-109308700D01*
X171246958Y-109328385D01*
X171285150Y-109367107D01*
X171327299Y-109434729D01*
X171461788Y-109576212D01*
X171622005Y-109687726D01*
X171801389Y-109764706D01*
X171992598Y-109804000D01*
X171992600Y-109804000D01*
X173634337Y-109804000D01*
X173637479Y-109804000D01*
X173783003Y-109789202D01*
X173957382Y-109734489D01*
X174027236Y-109733202D01*
X174086700Y-109769887D01*
X174116892Y-109832897D01*
X174118500Y-109852803D01*
X174118500Y-110378920D01*
X174098815Y-110445959D01*
X174046011Y-110491714D01*
X173976853Y-110501658D01*
X173945603Y-110492871D01*
X173877611Y-110463694D01*
X173686402Y-110424400D01*
X172041521Y-110424400D01*
X172038410Y-110424716D01*
X172038397Y-110424717D01*
X171895994Y-110439198D01*
X171709745Y-110497635D01*
X171539068Y-110592368D01*
X171390955Y-110719519D01*
X171334722Y-110792167D01*
X171276454Y-110867444D01*
X171273236Y-110871601D01*
X171216635Y-110912565D01*
X171175180Y-110919700D01*
X166893530Y-110919700D01*
X166826491Y-110900015D01*
X166784174Y-110854156D01*
X166751040Y-110792167D01*
X166618515Y-110630685D01*
X166462253Y-110502444D01*
X166457032Y-110498159D01*
X166272801Y-110399686D01*
X166272800Y-110399685D01*
X166272799Y-110399685D01*
X166172846Y-110369365D01*
X166072892Y-110339044D01*
X165887711Y-110320805D01*
X165865000Y-110318569D01*
X165864999Y-110318569D01*
X165657107Y-110339044D01*
X165457198Y-110399686D01*
X165272967Y-110498159D01*
X165111485Y-110630685D01*
X164978959Y-110792167D01*
X164880486Y-110976398D01*
X164819844Y-111176307D01*
X164799369Y-111384200D01*
X164819844Y-111592092D01*
X164880486Y-111792001D01*
X164978959Y-111976232D01*
X165002723Y-112005188D01*
X165111485Y-112137715D01*
X165272967Y-112270240D01*
X165457201Y-112368715D01*
X165657106Y-112429355D01*
X165865000Y-112449831D01*
X166072894Y-112429355D01*
X166272799Y-112368715D01*
X166457033Y-112270240D01*
X166618515Y-112137715D01*
X166751040Y-111976233D01*
X166784173Y-111914244D01*
X166833134Y-111864403D01*
X166893530Y-111848700D01*
X171179919Y-111848700D01*
X171246958Y-111868385D01*
X171285150Y-111907107D01*
X171327299Y-111974729D01*
X171433315Y-112086258D01*
X171461789Y-112116213D01*
X171522614Y-112158548D01*
X171622005Y-112227726D01*
X171801389Y-112304706D01*
X171992598Y-112344000D01*
X171992600Y-112344000D01*
X173634337Y-112344000D01*
X173637479Y-112344000D01*
X173783003Y-112329202D01*
X173957382Y-112274489D01*
X174027236Y-112273202D01*
X174086700Y-112309887D01*
X174116892Y-112372897D01*
X174118500Y-112392803D01*
X174118500Y-112871584D01*
X174098815Y-112938623D01*
X174046011Y-112984378D01*
X173976853Y-112994322D01*
X173945600Y-112985535D01*
X173890700Y-112961975D01*
X173690825Y-112920900D01*
X172966500Y-112920900D01*
X172966500Y-113442066D01*
X172874923Y-113428900D01*
X172804077Y-113428900D01*
X172712500Y-113442066D01*
X172712500Y-112920900D01*
X172042463Y-112920900D01*
X172036197Y-112921217D01*
X171887191Y-112936370D01*
X171692503Y-112997453D01*
X171514093Y-113096478D01*
X171359262Y-113229398D01*
X171234364Y-113390751D01*
X171144501Y-113573951D01*
X171093355Y-113771490D01*
X171092051Y-113797200D01*
X172360581Y-113797200D01*
X172344200Y-113852987D01*
X172344200Y-113995413D01*
X172360581Y-114051200D01*
X171094651Y-114051200D01*
X171113918Y-114176977D01*
X171184785Y-114368324D01*
X171292724Y-114541495D01*
X171433306Y-114689386D01*
X171600785Y-114805955D01*
X171788299Y-114886424D01*
X171988175Y-114927500D01*
X172712500Y-114927500D01*
X172712500Y-114406333D01*
X172804077Y-114419500D01*
X172874923Y-114419500D01*
X172966500Y-114406333D01*
X172966500Y-114927500D01*
X173636537Y-114927500D01*
X173642802Y-114927182D01*
X173791806Y-114912029D01*
X173957379Y-114860081D01*
X174027237Y-114858793D01*
X174086701Y-114895479D01*
X174116892Y-114958489D01*
X174118500Y-114978394D01*
X174118500Y-115411584D01*
X174098815Y-115478623D01*
X174046011Y-115524378D01*
X173976853Y-115534322D01*
X173945600Y-115525535D01*
X173890700Y-115501975D01*
X173690825Y-115460900D01*
X172966500Y-115460900D01*
X172966500Y-115982066D01*
X172874923Y-115968900D01*
X172804077Y-115968900D01*
X172712500Y-115982066D01*
X172712500Y-115460900D01*
X172042463Y-115460900D01*
X172036197Y-115461217D01*
X171887191Y-115476370D01*
X171692503Y-115537453D01*
X171514093Y-115636478D01*
X171359262Y-115769398D01*
X171234364Y-115930751D01*
X171144501Y-116113951D01*
X171093355Y-116311490D01*
X171092051Y-116337200D01*
X172360581Y-116337200D01*
X172344200Y-116392987D01*
X172344200Y-116535413D01*
X172360581Y-116591200D01*
X171094651Y-116591200D01*
X171113918Y-116716977D01*
X171184785Y-116908324D01*
X171292724Y-117081495D01*
X171433306Y-117229386D01*
X171600785Y-117345955D01*
X171788299Y-117426424D01*
X171988175Y-117467500D01*
X172712500Y-117467500D01*
X172712500Y-116946333D01*
X172804077Y-116959500D01*
X172874923Y-116959500D01*
X172966500Y-116946333D01*
X172966500Y-117467500D01*
X173636537Y-117467500D01*
X173642802Y-117467182D01*
X173791806Y-117452029D01*
X173957379Y-117400081D01*
X174027237Y-117398793D01*
X174086701Y-117435479D01*
X174116892Y-117498489D01*
X174118500Y-117518394D01*
X174118500Y-117998920D01*
X174098815Y-118065959D01*
X174046011Y-118111714D01*
X173976853Y-118121658D01*
X173945603Y-118112871D01*
X173877611Y-118083694D01*
X173686402Y-118044400D01*
X172041521Y-118044400D01*
X172038410Y-118044716D01*
X172038397Y-118044717D01*
X171895994Y-118059198D01*
X171709745Y-118117635D01*
X171539068Y-118212368D01*
X171390955Y-118339519D01*
X171271469Y-118493881D01*
X171185505Y-118669133D01*
X171185503Y-118669137D01*
X171185504Y-118669137D01*
X171161244Y-118762836D01*
X171136575Y-118858111D01*
X171126687Y-119053064D01*
X171156247Y-119246017D01*
X171224041Y-119429067D01*
X171224043Y-119429070D01*
X171327299Y-119594729D01*
X171461788Y-119736212D01*
X171622005Y-119847726D01*
X171801389Y-119924706D01*
X171992598Y-119964000D01*
X171992600Y-119964000D01*
X173634337Y-119964000D01*
X173637479Y-119964000D01*
X173783003Y-119949202D01*
X173957382Y-119894489D01*
X174027236Y-119893202D01*
X174086700Y-119929887D01*
X174116892Y-119992897D01*
X174118500Y-120012803D01*
X174118500Y-120538920D01*
X174098815Y-120605959D01*
X174046011Y-120651714D01*
X173976853Y-120661658D01*
X173945603Y-120652871D01*
X173877611Y-120623694D01*
X173686402Y-120584400D01*
X172041521Y-120584400D01*
X172038410Y-120584716D01*
X172038397Y-120584717D01*
X171895994Y-120599198D01*
X171709745Y-120657635D01*
X171539068Y-120752368D01*
X171390955Y-120879519D01*
X171271469Y-121033881D01*
X171185505Y-121209133D01*
X171136575Y-121398111D01*
X171126687Y-121593064D01*
X171156247Y-121786017D01*
X171224041Y-121969067D01*
X171224043Y-121969070D01*
X171327299Y-122134729D01*
X171455628Y-122269732D01*
X171461789Y-122276213D01*
X171541896Y-122331969D01*
X171622005Y-122387726D01*
X171801389Y-122464706D01*
X171992598Y-122504000D01*
X171992600Y-122504000D01*
X173634337Y-122504000D01*
X173637479Y-122504000D01*
X173783003Y-122489202D01*
X173957382Y-122434489D01*
X174027236Y-122433202D01*
X174086700Y-122469887D01*
X174116892Y-122532897D01*
X174118500Y-122552803D01*
X174118500Y-123078920D01*
X174098815Y-123145959D01*
X174046011Y-123191714D01*
X173976853Y-123201658D01*
X173945603Y-123192871D01*
X173877611Y-123163694D01*
X173686402Y-123124400D01*
X172041521Y-123124400D01*
X172038410Y-123124716D01*
X172038397Y-123124717D01*
X171895994Y-123139198D01*
X171709745Y-123197635D01*
X171539068Y-123292368D01*
X171390955Y-123419519D01*
X171271469Y-123573881D01*
X171185505Y-123749133D01*
X171136575Y-123938111D01*
X171126687Y-124133064D01*
X171156247Y-124326017D01*
X171224041Y-124509067D01*
X171224043Y-124509070D01*
X171327299Y-124674729D01*
X171461788Y-124816212D01*
X171622005Y-124927726D01*
X171801389Y-125004706D01*
X171992598Y-125044000D01*
X171992600Y-125044000D01*
X173634337Y-125044000D01*
X173637479Y-125044000D01*
X173783003Y-125029202D01*
X173957382Y-124974489D01*
X174027236Y-124973202D01*
X174086700Y-125009887D01*
X174116892Y-125072897D01*
X174118500Y-125092803D01*
X174118500Y-130312000D01*
X174098815Y-130379039D01*
X174046011Y-130424794D01*
X173994500Y-130436000D01*
X173895206Y-130436000D01*
X173828167Y-130416315D01*
X173782412Y-130363511D01*
X173772468Y-130294353D01*
X173781255Y-130263100D01*
X173801724Y-130215400D01*
X173842800Y-130015524D01*
X173842800Y-129291200D01*
X173318419Y-129291200D01*
X173334800Y-129235413D01*
X173334800Y-129092987D01*
X173318419Y-129037200D01*
X173842800Y-129037200D01*
X173842800Y-128367162D01*
X173842482Y-128360897D01*
X173827329Y-128211891D01*
X173766246Y-128017203D01*
X173667221Y-127838793D01*
X173534301Y-127683962D01*
X173372948Y-127559064D01*
X173189748Y-127469201D01*
X172992209Y-127418055D01*
X172966500Y-127416751D01*
X172966500Y-128682066D01*
X172874923Y-128668900D01*
X172804077Y-128668900D01*
X172712500Y-128682066D01*
X172712500Y-127419349D01*
X172586721Y-127438618D01*
X172395376Y-127509485D01*
X172222204Y-127617424D01*
X172074313Y-127758006D01*
X171957744Y-127925485D01*
X171877275Y-128112999D01*
X171836200Y-128312875D01*
X171836200Y-129037200D01*
X172360581Y-129037200D01*
X172344200Y-129092987D01*
X172344200Y-129235413D01*
X172360581Y-129291200D01*
X171836200Y-129291200D01*
X171836200Y-129961237D01*
X171836517Y-129967502D01*
X171851670Y-130116506D01*
X171901360Y-130274879D01*
X171902648Y-130344737D01*
X171865962Y-130404201D01*
X171802952Y-130434392D01*
X171783047Y-130436000D01*
X171307870Y-130436000D01*
X171240831Y-130416315D01*
X171195076Y-130363511D01*
X171185132Y-130294353D01*
X171193919Y-130263100D01*
X171220006Y-130202311D01*
X171259300Y-130011102D01*
X171259300Y-128366221D01*
X171244502Y-128220697D01*
X171186065Y-128034445D01*
X171091332Y-127863769D01*
X170964181Y-127715656D01*
X170923236Y-127683962D01*
X170809818Y-127596169D01*
X170634566Y-127510205D01*
X170634563Y-127510204D01*
X170445590Y-127461275D01*
X170426768Y-127460320D01*
X170250635Y-127451387D01*
X170057682Y-127480947D01*
X169874632Y-127548741D01*
X169708972Y-127651998D01*
X169567486Y-127786489D01*
X169455974Y-127946704D01*
X169418322Y-128034445D01*
X169378994Y-128126089D01*
X169339700Y-128317298D01*
X169339700Y-129962179D01*
X169340016Y-129965290D01*
X169340017Y-129965302D01*
X169354498Y-130107705D01*
X169406950Y-130274879D01*
X169408238Y-130344737D01*
X169371553Y-130404201D01*
X169308543Y-130434392D01*
X169288637Y-130436000D01*
X168767870Y-130436000D01*
X168700831Y-130416315D01*
X168655076Y-130363511D01*
X168645132Y-130294353D01*
X168653919Y-130263100D01*
X168680006Y-130202311D01*
X168719300Y-130011102D01*
X168719300Y-128366221D01*
X168704502Y-128220697D01*
X168646065Y-128034445D01*
X168551332Y-127863769D01*
X168424181Y-127715656D01*
X168383236Y-127683962D01*
X168269818Y-127596169D01*
X168094566Y-127510205D01*
X168094563Y-127510204D01*
X167905590Y-127461275D01*
X167886768Y-127460320D01*
X167710635Y-127451387D01*
X167517682Y-127480947D01*
X167334632Y-127548741D01*
X167168972Y-127651998D01*
X167027486Y-127786489D01*
X166915974Y-127946704D01*
X166878322Y-128034445D01*
X166838994Y-128126089D01*
X166799700Y-128317298D01*
X166799700Y-129962179D01*
X166800016Y-129965290D01*
X166800017Y-129965302D01*
X166814498Y-130107705D01*
X166866950Y-130274879D01*
X166868238Y-130344737D01*
X166831553Y-130404201D01*
X166768543Y-130434392D01*
X166748637Y-130436000D01*
X166227870Y-130436000D01*
X166160831Y-130416315D01*
X166115076Y-130363511D01*
X166105132Y-130294353D01*
X166113919Y-130263100D01*
X166140006Y-130202311D01*
X166179300Y-130011102D01*
X166179300Y-128366221D01*
X166164502Y-128220697D01*
X166106065Y-128034445D01*
X166011332Y-127863769D01*
X165884181Y-127715656D01*
X165843236Y-127683962D01*
X165729818Y-127596169D01*
X165554566Y-127510205D01*
X165554563Y-127510204D01*
X165365590Y-127461275D01*
X165346768Y-127460320D01*
X165170635Y-127451387D01*
X164977682Y-127480947D01*
X164794632Y-127548741D01*
X164628972Y-127651998D01*
X164487486Y-127786489D01*
X164375974Y-127946704D01*
X164338322Y-128034445D01*
X164298994Y-128126089D01*
X164259700Y-128317298D01*
X164259700Y-129962179D01*
X164260016Y-129965290D01*
X164260017Y-129965302D01*
X164274498Y-130107705D01*
X164326950Y-130274879D01*
X164328238Y-130344737D01*
X164291553Y-130404201D01*
X164228543Y-130434392D01*
X164208637Y-130436000D01*
X163687870Y-130436000D01*
X163620831Y-130416315D01*
X163575076Y-130363511D01*
X163565132Y-130294353D01*
X163573919Y-130263100D01*
X163600006Y-130202311D01*
X163639300Y-130011102D01*
X163639300Y-128366221D01*
X163624502Y-128220697D01*
X163566065Y-128034445D01*
X163471332Y-127863769D01*
X163344181Y-127715656D01*
X163303236Y-127683962D01*
X163189818Y-127596169D01*
X163014566Y-127510205D01*
X163014563Y-127510204D01*
X162825590Y-127461275D01*
X162806768Y-127460320D01*
X162630635Y-127451387D01*
X162437682Y-127480947D01*
X162254632Y-127548741D01*
X162088972Y-127651998D01*
X161947486Y-127786489D01*
X161835974Y-127946704D01*
X161798322Y-128034445D01*
X161758994Y-128126089D01*
X161719700Y-128317298D01*
X161719700Y-129962179D01*
X161720016Y-129965290D01*
X161720017Y-129965302D01*
X161734498Y-130107705D01*
X161786950Y-130274879D01*
X161788238Y-130344737D01*
X161751553Y-130404201D01*
X161688543Y-130434392D01*
X161668637Y-130436000D01*
X161147870Y-130436000D01*
X161080831Y-130416315D01*
X161035076Y-130363511D01*
X161025132Y-130294353D01*
X161033919Y-130263100D01*
X161060006Y-130202311D01*
X161099300Y-130011102D01*
X161099300Y-128366221D01*
X161084502Y-128220697D01*
X161026065Y-128034445D01*
X160931332Y-127863769D01*
X160804181Y-127715656D01*
X160763236Y-127683962D01*
X160649818Y-127596169D01*
X160474566Y-127510205D01*
X160474563Y-127510204D01*
X160285590Y-127461275D01*
X160266768Y-127460320D01*
X160090635Y-127451387D01*
X159897682Y-127480947D01*
X159714632Y-127548741D01*
X159548972Y-127651998D01*
X159407486Y-127786489D01*
X159295974Y-127946704D01*
X159258322Y-128034445D01*
X159218994Y-128126089D01*
X159179700Y-128317298D01*
X159179700Y-129962179D01*
X159180016Y-129965290D01*
X159180017Y-129965302D01*
X159194498Y-130107705D01*
X159246950Y-130274879D01*
X159248238Y-130344737D01*
X159211553Y-130404201D01*
X159148543Y-130434392D01*
X159128637Y-130436000D01*
X158607870Y-130436000D01*
X158540831Y-130416315D01*
X158495076Y-130363511D01*
X158485132Y-130294353D01*
X158493919Y-130263100D01*
X158520006Y-130202311D01*
X158559300Y-130011102D01*
X158559300Y-128366221D01*
X158544502Y-128220697D01*
X158486065Y-128034445D01*
X158391332Y-127863769D01*
X158264181Y-127715656D01*
X158223236Y-127683962D01*
X158109818Y-127596169D01*
X157934566Y-127510205D01*
X157934563Y-127510204D01*
X157745590Y-127461275D01*
X157726768Y-127460320D01*
X157550635Y-127451387D01*
X157357682Y-127480947D01*
X157174632Y-127548741D01*
X157008972Y-127651998D01*
X156867486Y-127786489D01*
X156755974Y-127946704D01*
X156718322Y-128034445D01*
X156678994Y-128126089D01*
X156639700Y-128317298D01*
X156639700Y-129962179D01*
X156640016Y-129965290D01*
X156640017Y-129965302D01*
X156654498Y-130107705D01*
X156706950Y-130274879D01*
X156708238Y-130344737D01*
X156671553Y-130404201D01*
X156608543Y-130434392D01*
X156588637Y-130436000D01*
X156067870Y-130436000D01*
X156000831Y-130416315D01*
X155955076Y-130363511D01*
X155945132Y-130294353D01*
X155953919Y-130263100D01*
X155980006Y-130202311D01*
X156019300Y-130011102D01*
X156019300Y-128366221D01*
X156004502Y-128220697D01*
X155946065Y-128034445D01*
X155851332Y-127863769D01*
X155724181Y-127715656D01*
X155683236Y-127683962D01*
X155569818Y-127596169D01*
X155394566Y-127510205D01*
X155394563Y-127510204D01*
X155205590Y-127461275D01*
X155186768Y-127460320D01*
X155010635Y-127451387D01*
X154817682Y-127480947D01*
X154634632Y-127548741D01*
X154468972Y-127651998D01*
X154327486Y-127786489D01*
X154215974Y-127946704D01*
X154178322Y-128034445D01*
X154138994Y-128126089D01*
X154099700Y-128317298D01*
X154099700Y-129962179D01*
X154100016Y-129965290D01*
X154100017Y-129965302D01*
X154114498Y-130107705D01*
X154166950Y-130274879D01*
X154168238Y-130344737D01*
X154131553Y-130404201D01*
X154068543Y-130434392D01*
X154048637Y-130436000D01*
X153527870Y-130436000D01*
X153460831Y-130416315D01*
X153415076Y-130363511D01*
X153405132Y-130294353D01*
X153413919Y-130263100D01*
X153440006Y-130202311D01*
X153479300Y-130011102D01*
X153479300Y-128366221D01*
X153464502Y-128220697D01*
X153406065Y-128034445D01*
X153311332Y-127863769D01*
X153184181Y-127715656D01*
X153143236Y-127683962D01*
X153032099Y-127597935D01*
X152991135Y-127541334D01*
X152984000Y-127499879D01*
X152984000Y-122287499D01*
X154904943Y-122287499D01*
X154918139Y-122387726D01*
X154923090Y-122425336D01*
X154949943Y-122490164D01*
X154976293Y-122553778D01*
X155060925Y-122664074D01*
X155145558Y-122729014D01*
X155171222Y-122748707D01*
X155299664Y-122801910D01*
X155437500Y-122820056D01*
X155453686Y-122822187D01*
X155453197Y-122825896D01*
X155494731Y-122832371D01*
X155529570Y-122856867D01*
X156809606Y-124136903D01*
X156816914Y-124144878D01*
X156842213Y-124175028D01*
X156872028Y-124192241D01*
X156876293Y-124194704D01*
X156885415Y-124200515D01*
X156898298Y-124209535D01*
X156917666Y-124223097D01*
X156917667Y-124223097D01*
X156918284Y-124223529D01*
X156944547Y-124234407D01*
X156945287Y-124234537D01*
X156945288Y-124234538D01*
X156984038Y-124241370D01*
X156994598Y-124243710D01*
X157032631Y-124253902D01*
X157071834Y-124250472D01*
X157082642Y-124250000D01*
X158544794Y-124250000D01*
X158611833Y-124269685D01*
X158622616Y-124279604D01*
X158622976Y-124279136D01*
X158635923Y-124289071D01*
X158635926Y-124289074D01*
X158746222Y-124373707D01*
X158874664Y-124426910D01*
X158996464Y-124442944D01*
X159012499Y-124445056D01*
X159012499Y-124445055D01*
X159012500Y-124445056D01*
X159150336Y-124426910D01*
X159278778Y-124373707D01*
X159389074Y-124289074D01*
X159473707Y-124178778D01*
X159526910Y-124050336D01*
X159545056Y-123912500D01*
X159526910Y-123774664D01*
X159473707Y-123646222D01*
X159437153Y-123598584D01*
X159389074Y-123535925D01*
X159278778Y-123451293D01*
X159278776Y-123451292D01*
X159150336Y-123398090D01*
X159132189Y-123395700D01*
X159012499Y-123379943D01*
X158874664Y-123398090D01*
X158746223Y-123451292D01*
X158746221Y-123451293D01*
X158746222Y-123451293D01*
X158635926Y-123535926D01*
X158635924Y-123535928D01*
X158622976Y-123545864D01*
X158620697Y-123542895D01*
X158586739Y-123567690D01*
X158544794Y-123575000D01*
X157253659Y-123575000D01*
X157186620Y-123555315D01*
X157165978Y-123538681D01*
X156006867Y-122379570D01*
X155973382Y-122318247D01*
X155972772Y-122303608D01*
X155972187Y-122303686D01*
X155967717Y-122269732D01*
X155951910Y-122149664D01*
X155898707Y-122021222D01*
X155879014Y-121995557D01*
X155814074Y-121910925D01*
X155703778Y-121826293D01*
X155703777Y-121826293D01*
X155575336Y-121773090D01*
X155559300Y-121770978D01*
X155437500Y-121754943D01*
X155299664Y-121773090D01*
X155171221Y-121826293D01*
X155060925Y-121910925D01*
X154976293Y-122021221D01*
X154923090Y-122149664D01*
X154904943Y-122287499D01*
X152984000Y-122287499D01*
X152984000Y-118393966D01*
X153003685Y-118326927D01*
X153035115Y-118293647D01*
X153043866Y-118287290D01*
X153162791Y-118155210D01*
X153251657Y-118001290D01*
X153306579Y-117832258D01*
X153325157Y-117655500D01*
X153306579Y-117478742D01*
X153251657Y-117309710D01*
X153251657Y-117309709D01*
X153162791Y-117155790D01*
X153043867Y-117023711D01*
X153025808Y-117010590D01*
X152900079Y-116919242D01*
X152900077Y-116919241D01*
X152737710Y-116846951D01*
X152563867Y-116810000D01*
X152563866Y-116810000D01*
X152386134Y-116810000D01*
X152386133Y-116810000D01*
X152212289Y-116846951D01*
X152049920Y-116919242D01*
X151906134Y-117023708D01*
X151787208Y-117155789D01*
X151698342Y-117309709D01*
X151643421Y-117478740D01*
X151624843Y-117655500D01*
X151643421Y-117832259D01*
X151698342Y-118001290D01*
X151787208Y-118155209D01*
X151787209Y-118155210D01*
X151906134Y-118287290D01*
X152003886Y-118358311D01*
X152046551Y-118413642D01*
X152055000Y-118458629D01*
X152055000Y-127504618D01*
X152035315Y-127571657D01*
X151996592Y-127609850D01*
X151928968Y-127652000D01*
X151787489Y-127786486D01*
X151675974Y-127946704D01*
X151638322Y-128034445D01*
X151598994Y-128126089D01*
X151559700Y-128317298D01*
X151559700Y-129962179D01*
X151560016Y-129965290D01*
X151560017Y-129965302D01*
X151574498Y-130107705D01*
X151626950Y-130274879D01*
X151628238Y-130344737D01*
X151591553Y-130404201D01*
X151528543Y-130434392D01*
X151508637Y-130436000D01*
X150987870Y-130436000D01*
X150920831Y-130416315D01*
X150875076Y-130363511D01*
X150865132Y-130294353D01*
X150873919Y-130263100D01*
X150900006Y-130202311D01*
X150939300Y-130011102D01*
X150939300Y-128366221D01*
X150924502Y-128220697D01*
X150866065Y-128034445D01*
X150771332Y-127863769D01*
X150644181Y-127715656D01*
X150603236Y-127683962D01*
X150489818Y-127596169D01*
X150314566Y-127510205D01*
X150314563Y-127510204D01*
X150125590Y-127461275D01*
X150106768Y-127460320D01*
X149930635Y-127451387D01*
X149737682Y-127480947D01*
X149554632Y-127548741D01*
X149388972Y-127651998D01*
X149247486Y-127786489D01*
X149135974Y-127946704D01*
X149098322Y-128034445D01*
X149058994Y-128126089D01*
X149019700Y-128317298D01*
X149019700Y-129962179D01*
X149020016Y-129965290D01*
X149020017Y-129965302D01*
X149034498Y-130107705D01*
X149086950Y-130274879D01*
X149088238Y-130344737D01*
X149051553Y-130404201D01*
X148988543Y-130434392D01*
X148968637Y-130436000D01*
X148495206Y-130436000D01*
X148428167Y-130416315D01*
X148382412Y-130363511D01*
X148372468Y-130294353D01*
X148381255Y-130263100D01*
X148401724Y-130215400D01*
X148442800Y-130015524D01*
X148442800Y-129291200D01*
X147918419Y-129291200D01*
X147934800Y-129235413D01*
X147934800Y-129092987D01*
X147918419Y-129037200D01*
X148442800Y-129037200D01*
X148442800Y-128367162D01*
X148442482Y-128360897D01*
X148427329Y-128211891D01*
X148366246Y-128017203D01*
X148267221Y-127838793D01*
X148134301Y-127683962D01*
X147972948Y-127559064D01*
X147789748Y-127469201D01*
X147592209Y-127418055D01*
X147566500Y-127416751D01*
X147566500Y-128682066D01*
X147474923Y-128668900D01*
X147404077Y-128668900D01*
X147312500Y-128682066D01*
X147312500Y-127419349D01*
X147186721Y-127438618D01*
X146995376Y-127509485D01*
X146822204Y-127617424D01*
X146674313Y-127758006D01*
X146557744Y-127925485D01*
X146477275Y-128112999D01*
X146436200Y-128312875D01*
X146436200Y-129037200D01*
X146960581Y-129037200D01*
X146944200Y-129092987D01*
X146944200Y-129235413D01*
X146960581Y-129291200D01*
X146436200Y-129291200D01*
X146436200Y-129961237D01*
X146436517Y-129967502D01*
X146451670Y-130116506D01*
X146501360Y-130274879D01*
X146502648Y-130344737D01*
X146465962Y-130404201D01*
X146402952Y-130434392D01*
X146383047Y-130436000D01*
X145907870Y-130436000D01*
X145840831Y-130416315D01*
X145795076Y-130363511D01*
X145785132Y-130294353D01*
X145793919Y-130263100D01*
X145820006Y-130202311D01*
X145859300Y-130011102D01*
X145859300Y-128366221D01*
X145844502Y-128220697D01*
X145786065Y-128034445D01*
X145691332Y-127863769D01*
X145564181Y-127715656D01*
X145523236Y-127683962D01*
X145409818Y-127596169D01*
X145234566Y-127510205D01*
X145234563Y-127510204D01*
X145045590Y-127461275D01*
X145026768Y-127460320D01*
X144850635Y-127451387D01*
X144657682Y-127480947D01*
X144474632Y-127548741D01*
X144308972Y-127651998D01*
X144167486Y-127786489D01*
X144055974Y-127946704D01*
X144018322Y-128034445D01*
X143978994Y-128126089D01*
X143939700Y-128317298D01*
X143939700Y-129962179D01*
X143940016Y-129965290D01*
X143940017Y-129965302D01*
X143954498Y-130107705D01*
X144006950Y-130274879D01*
X144008238Y-130344737D01*
X143971553Y-130404201D01*
X143908543Y-130434392D01*
X143888637Y-130436000D01*
X143367870Y-130436000D01*
X143300831Y-130416315D01*
X143255076Y-130363511D01*
X143245132Y-130294353D01*
X143253919Y-130263100D01*
X143280006Y-130202311D01*
X143319300Y-130011102D01*
X143319300Y-128366221D01*
X143304502Y-128220697D01*
X143246065Y-128034445D01*
X143151332Y-127863769D01*
X143024181Y-127715656D01*
X142983236Y-127683962D01*
X142869818Y-127596169D01*
X142694566Y-127510205D01*
X142694563Y-127510204D01*
X142505590Y-127461275D01*
X142486768Y-127460320D01*
X142310635Y-127451387D01*
X142117682Y-127480947D01*
X141934632Y-127548741D01*
X141768972Y-127651998D01*
X141627486Y-127786489D01*
X141515974Y-127946704D01*
X141478322Y-128034445D01*
X141438994Y-128126089D01*
X141399700Y-128317298D01*
X141399700Y-129962179D01*
X141400016Y-129965290D01*
X141400017Y-129965302D01*
X141414498Y-130107705D01*
X141466950Y-130274879D01*
X141468238Y-130344737D01*
X141431553Y-130404201D01*
X141368543Y-130434392D01*
X141348637Y-130436000D01*
X140827870Y-130436000D01*
X140760831Y-130416315D01*
X140715076Y-130363511D01*
X140705132Y-130294353D01*
X140713919Y-130263100D01*
X140740006Y-130202311D01*
X140779300Y-130011102D01*
X140779300Y-128366221D01*
X140764502Y-128220697D01*
X140706065Y-128034445D01*
X140611332Y-127863769D01*
X140484181Y-127715656D01*
X140443236Y-127683962D01*
X140329818Y-127596169D01*
X140154566Y-127510205D01*
X140154563Y-127510204D01*
X139965590Y-127461275D01*
X139946768Y-127460320D01*
X139770635Y-127451387D01*
X139577682Y-127480947D01*
X139394632Y-127548741D01*
X139228972Y-127651998D01*
X139087486Y-127786489D01*
X138975974Y-127946704D01*
X138938322Y-128034445D01*
X138898994Y-128126089D01*
X138859700Y-128317298D01*
X138859700Y-129962179D01*
X138860016Y-129965290D01*
X138860017Y-129965302D01*
X138874498Y-130107705D01*
X138926950Y-130274879D01*
X138928238Y-130344737D01*
X138891553Y-130404201D01*
X138828543Y-130434392D01*
X138808637Y-130436000D01*
X138287870Y-130436000D01*
X138220831Y-130416315D01*
X138175076Y-130363511D01*
X138165132Y-130294353D01*
X138173919Y-130263100D01*
X138200006Y-130202311D01*
X138239300Y-130011102D01*
X138239300Y-128366221D01*
X138224502Y-128220697D01*
X138166065Y-128034445D01*
X138071332Y-127863769D01*
X137944181Y-127715656D01*
X137903236Y-127683962D01*
X137789818Y-127596169D01*
X137614566Y-127510205D01*
X137614563Y-127510204D01*
X137425590Y-127461275D01*
X137406768Y-127460320D01*
X137230635Y-127451387D01*
X137037682Y-127480947D01*
X136854632Y-127548741D01*
X136688972Y-127651998D01*
X136547486Y-127786489D01*
X136435974Y-127946704D01*
X136398322Y-128034445D01*
X136358994Y-128126089D01*
X136319700Y-128317298D01*
X136319700Y-129962179D01*
X136320016Y-129965290D01*
X136320017Y-129965302D01*
X136334498Y-130107705D01*
X136386950Y-130274879D01*
X136388238Y-130344737D01*
X136351553Y-130404201D01*
X136288543Y-130434392D01*
X136268637Y-130436000D01*
X135747870Y-130436000D01*
X135680831Y-130416315D01*
X135635076Y-130363511D01*
X135625132Y-130294353D01*
X135633919Y-130263100D01*
X135660006Y-130202311D01*
X135699300Y-130011102D01*
X135699300Y-128366221D01*
X135684502Y-128220697D01*
X135626065Y-128034445D01*
X135531332Y-127863769D01*
X135404181Y-127715656D01*
X135363236Y-127683962D01*
X135249818Y-127596169D01*
X135074566Y-127510205D01*
X135074563Y-127510204D01*
X134885590Y-127461275D01*
X134866768Y-127460320D01*
X134690635Y-127451387D01*
X134497682Y-127480947D01*
X134314632Y-127548741D01*
X134148972Y-127651998D01*
X134007486Y-127786489D01*
X133895974Y-127946704D01*
X133858322Y-128034445D01*
X133818994Y-128126089D01*
X133779700Y-128317298D01*
X133779700Y-129962179D01*
X133780016Y-129965290D01*
X133780017Y-129965302D01*
X133794498Y-130107705D01*
X133846950Y-130274879D01*
X133848238Y-130344737D01*
X133811553Y-130404201D01*
X133748543Y-130434392D01*
X133728637Y-130436000D01*
X133207870Y-130436000D01*
X133140831Y-130416315D01*
X133095076Y-130363511D01*
X133085132Y-130294353D01*
X133093919Y-130263100D01*
X133120006Y-130202311D01*
X133159300Y-130011102D01*
X133159300Y-128366221D01*
X133144502Y-128220697D01*
X133086065Y-128034445D01*
X132991332Y-127863769D01*
X132864181Y-127715656D01*
X132823236Y-127683962D01*
X132709818Y-127596169D01*
X132534566Y-127510205D01*
X132534563Y-127510204D01*
X132345590Y-127461275D01*
X132326768Y-127460320D01*
X132150635Y-127451387D01*
X131957682Y-127480947D01*
X131774632Y-127548741D01*
X131608972Y-127651998D01*
X131467486Y-127786489D01*
X131355974Y-127946704D01*
X131318322Y-128034445D01*
X131278994Y-128126089D01*
X131239700Y-128317298D01*
X131239700Y-129962179D01*
X131240016Y-129965290D01*
X131240017Y-129965302D01*
X131254498Y-130107705D01*
X131306950Y-130274879D01*
X131308238Y-130344737D01*
X131271553Y-130404201D01*
X131208543Y-130434392D01*
X131188637Y-130436000D01*
X130667870Y-130436000D01*
X130600831Y-130416315D01*
X130555076Y-130363511D01*
X130545132Y-130294353D01*
X130553919Y-130263100D01*
X130580006Y-130202311D01*
X130619300Y-130011102D01*
X130619300Y-128366221D01*
X130604502Y-128220697D01*
X130546065Y-128034445D01*
X130451332Y-127863769D01*
X130324181Y-127715656D01*
X130283236Y-127683962D01*
X130169818Y-127596169D01*
X129994566Y-127510205D01*
X129994563Y-127510204D01*
X129805590Y-127461275D01*
X129786768Y-127460320D01*
X129610635Y-127451387D01*
X129417682Y-127480947D01*
X129234632Y-127548741D01*
X129068972Y-127651998D01*
X128927486Y-127786489D01*
X128815974Y-127946704D01*
X128738994Y-128126088D01*
X128699699Y-128317299D01*
X128699700Y-129235413D01*
X128699700Y-129962179D01*
X128700016Y-129965290D01*
X128700017Y-129965302D01*
X128714498Y-130107705D01*
X128766950Y-130274879D01*
X128768238Y-130344737D01*
X128731553Y-130404201D01*
X128668543Y-130434392D01*
X128648637Y-130436000D01*
X128127870Y-130436000D01*
X128060831Y-130416315D01*
X128015076Y-130363511D01*
X128005132Y-130294353D01*
X128013919Y-130263100D01*
X128040006Y-130202311D01*
X128079300Y-130011102D01*
X128079300Y-128366221D01*
X128064502Y-128220697D01*
X128006065Y-128034445D01*
X127911332Y-127863769D01*
X127784181Y-127715656D01*
X127743236Y-127683962D01*
X127629818Y-127596169D01*
X127454566Y-127510205D01*
X127454563Y-127510204D01*
X127265590Y-127461275D01*
X127246768Y-127460320D01*
X127070635Y-127451387D01*
X126877682Y-127480947D01*
X126694632Y-127548741D01*
X126528972Y-127651998D01*
X126387486Y-127786489D01*
X126275974Y-127946704D01*
X126198994Y-128126088D01*
X126159699Y-128317299D01*
X126159700Y-129235413D01*
X126159700Y-129962179D01*
X126160016Y-129965290D01*
X126160017Y-129965302D01*
X126174498Y-130107705D01*
X126226950Y-130274879D01*
X126228238Y-130344737D01*
X126191553Y-130404201D01*
X126128543Y-130434392D01*
X126108637Y-130436000D01*
X125635206Y-130436000D01*
X125568167Y-130416315D01*
X125522412Y-130363511D01*
X125512468Y-130294353D01*
X125521255Y-130263100D01*
X125541724Y-130215400D01*
X125582800Y-130015524D01*
X125582800Y-129291200D01*
X125058419Y-129291200D01*
X125074800Y-129235413D01*
X125074800Y-129092987D01*
X125058419Y-129037200D01*
X125582800Y-129037200D01*
X125582800Y-128367162D01*
X125582482Y-128360897D01*
X125567329Y-128211891D01*
X125506246Y-128017203D01*
X125407221Y-127838793D01*
X125274301Y-127683962D01*
X125112948Y-127559064D01*
X124929748Y-127469201D01*
X124732209Y-127418055D01*
X124706499Y-127416751D01*
X124706499Y-128682066D01*
X124614923Y-128668900D01*
X124544077Y-128668900D01*
X124452500Y-128682066D01*
X124452500Y-127419349D01*
X124326721Y-127438618D01*
X124135376Y-127509485D01*
X123962204Y-127617424D01*
X123814313Y-127758006D01*
X123697744Y-127925485D01*
X123617275Y-128112999D01*
X123576200Y-128312875D01*
X123576200Y-129037200D01*
X124100581Y-129037200D01*
X124084200Y-129092987D01*
X124084200Y-129235413D01*
X124100581Y-129291200D01*
X123576200Y-129291200D01*
X123576200Y-129961237D01*
X123576517Y-129967502D01*
X123591670Y-130116506D01*
X123641360Y-130274879D01*
X123642648Y-130344737D01*
X123605962Y-130404201D01*
X123542952Y-130434392D01*
X123523047Y-130436000D01*
X123442500Y-130436000D01*
X123375461Y-130416315D01*
X123329706Y-130363511D01*
X123318500Y-130312000D01*
X123318500Y-127715655D01*
X123318499Y-125097199D01*
X123338184Y-125030164D01*
X123390988Y-124984409D01*
X123460146Y-124974465D01*
X123491393Y-124983251D01*
X123541389Y-125004706D01*
X123732598Y-125044000D01*
X123732600Y-125044000D01*
X125374337Y-125044000D01*
X125377479Y-125044000D01*
X125523003Y-125029202D01*
X125709255Y-124970765D01*
X125879931Y-124876032D01*
X126028044Y-124748881D01*
X126147530Y-124594518D01*
X126233496Y-124419263D01*
X126282425Y-124230290D01*
X126292312Y-124035336D01*
X126267876Y-123875826D01*
X126262752Y-123842382D01*
X126194958Y-123659332D01*
X126194957Y-123659330D01*
X126091701Y-123493671D01*
X125957212Y-123352188D01*
X125957211Y-123352187D01*
X125957210Y-123352186D01*
X125796995Y-123240674D01*
X125617611Y-123163694D01*
X125426402Y-123124400D01*
X123781521Y-123124400D01*
X123778410Y-123124716D01*
X123778397Y-123124717D01*
X123635997Y-123139198D01*
X123479619Y-123188261D01*
X123409761Y-123189547D01*
X123350297Y-123152862D01*
X123320107Y-123089852D01*
X123318499Y-123069959D01*
X123318499Y-122557199D01*
X123338184Y-122490164D01*
X123390988Y-122444409D01*
X123460146Y-122434465D01*
X123491393Y-122443251D01*
X123541389Y-122464706D01*
X123732598Y-122504000D01*
X123732600Y-122504000D01*
X125374337Y-122504000D01*
X125377479Y-122504000D01*
X125523003Y-122489202D01*
X125709255Y-122430765D01*
X125879931Y-122336032D01*
X126028044Y-122208881D01*
X126147530Y-122054518D01*
X126233496Y-121879263D01*
X126282425Y-121690290D01*
X126289834Y-121544200D01*
X144049028Y-121544200D01*
X144049210Y-121547556D01*
X144068720Y-121907411D01*
X144068721Y-121907422D01*
X144068903Y-121910775D01*
X144069447Y-121914096D01*
X144069448Y-121914101D01*
X144127750Y-122269732D01*
X144127753Y-122269747D01*
X144128295Y-122273051D01*
X144129193Y-122276288D01*
X144129194Y-122276289D01*
X144192417Y-122504000D01*
X144226508Y-122626783D01*
X144227756Y-122629915D01*
X144360785Y-122963793D01*
X144362391Y-122967822D01*
X144363961Y-122970784D01*
X144363966Y-122970794D01*
X144421291Y-123078920D01*
X144534350Y-123292171D01*
X144536237Y-123294954D01*
X144536240Y-123294959D01*
X144721157Y-123567690D01*
X144740369Y-123596026D01*
X144742542Y-123598584D01*
X144870422Y-123749137D01*
X144978033Y-123875826D01*
X144980464Y-123878129D01*
X144980470Y-123878135D01*
X145064314Y-123957556D01*
X145244555Y-124128289D01*
X145536811Y-124350456D01*
X145851374Y-124539723D01*
X146184557Y-124693870D01*
X146532453Y-124811089D01*
X146890983Y-124890008D01*
X147255944Y-124929700D01*
X147259302Y-124929700D01*
X147619698Y-124929700D01*
X147623056Y-124929700D01*
X147988017Y-124890008D01*
X148346547Y-124811089D01*
X148694443Y-124693870D01*
X149027626Y-124539723D01*
X149342189Y-124350456D01*
X149634445Y-124128289D01*
X149900967Y-123875826D01*
X150138631Y-123596026D01*
X150344650Y-123292171D01*
X150516609Y-122967822D01*
X150652492Y-122626783D01*
X150750705Y-122273051D01*
X150810097Y-121910775D01*
X150829972Y-121544200D01*
X150810097Y-121177625D01*
X150750705Y-120815349D01*
X150652492Y-120461617D01*
X150516609Y-120120578D01*
X150344650Y-119796229D01*
X150138631Y-119492374D01*
X149900967Y-119212574D01*
X149898534Y-119210269D01*
X149898529Y-119210264D01*
X149636875Y-118962413D01*
X149634445Y-118960111D01*
X149342189Y-118737944D01*
X149339315Y-118736215D01*
X149339311Y-118736212D01*
X149030508Y-118550411D01*
X149030507Y-118550410D01*
X149027626Y-118548677D01*
X149018997Y-118544685D01*
X148735818Y-118413672D01*
X148694443Y-118394530D01*
X148586948Y-118358311D01*
X148349722Y-118278380D01*
X148349708Y-118278376D01*
X148346547Y-118277311D01*
X148343280Y-118276592D01*
X148343277Y-118276591D01*
X147991298Y-118199114D01*
X147991294Y-118199113D01*
X147988017Y-118198392D01*
X147984678Y-118198028D01*
X147984673Y-118198028D01*
X147626394Y-118159063D01*
X147626393Y-118159062D01*
X147623056Y-118158700D01*
X147255944Y-118158700D01*
X147252607Y-118159062D01*
X147252605Y-118159063D01*
X146894326Y-118198028D01*
X146894318Y-118198029D01*
X146890983Y-118198392D01*
X146887708Y-118199112D01*
X146887701Y-118199114D01*
X146535722Y-118276591D01*
X146535714Y-118276593D01*
X146532453Y-118277311D01*
X146529295Y-118278374D01*
X146529277Y-118278380D01*
X146187744Y-118393456D01*
X146187741Y-118393457D01*
X146184557Y-118394530D01*
X146181508Y-118395940D01*
X146181502Y-118395943D01*
X145854429Y-118547263D01*
X145854420Y-118547267D01*
X145851374Y-118548677D01*
X145848500Y-118550406D01*
X145848491Y-118550411D01*
X145539688Y-118736212D01*
X145539675Y-118736220D01*
X145536811Y-118737944D01*
X145534153Y-118739964D01*
X145534142Y-118739972D01*
X145247214Y-118958089D01*
X145247206Y-118958095D01*
X145244555Y-118960111D01*
X145242131Y-118962406D01*
X145242124Y-118962413D01*
X144980470Y-119210264D01*
X144980455Y-119210279D01*
X144978033Y-119212574D01*
X144975870Y-119215119D01*
X144975859Y-119215132D01*
X144742542Y-119489815D01*
X144742536Y-119489822D01*
X144740369Y-119492374D01*
X144738488Y-119495146D01*
X144738482Y-119495156D01*
X144536240Y-119793440D01*
X144536232Y-119793452D01*
X144534350Y-119796229D01*
X144532775Y-119799199D01*
X144532773Y-119799203D01*
X144363966Y-120117605D01*
X144363957Y-120117622D01*
X144362391Y-120120578D01*
X144361150Y-120123690D01*
X144361146Y-120123701D01*
X144227756Y-120458484D01*
X144226508Y-120461617D01*
X144225607Y-120464861D01*
X144225605Y-120464868D01*
X144129494Y-120811029D01*
X144128295Y-120815349D01*
X144127754Y-120818648D01*
X144127750Y-120818667D01*
X144069448Y-121174298D01*
X144068903Y-121177625D01*
X144068721Y-121180975D01*
X144068720Y-121180988D01*
X144051677Y-121495335D01*
X144049028Y-121544200D01*
X126289834Y-121544200D01*
X126292312Y-121495336D01*
X126262752Y-121302383D01*
X126228216Y-121209133D01*
X126194958Y-121119332D01*
X126194957Y-121119330D01*
X126091701Y-120953671D01*
X125957212Y-120812188D01*
X125957211Y-120812187D01*
X125957210Y-120812186D01*
X125796995Y-120700674D01*
X125617611Y-120623694D01*
X125564901Y-120612862D01*
X125426402Y-120584400D01*
X123781521Y-120584400D01*
X123778410Y-120584716D01*
X123778397Y-120584717D01*
X123635997Y-120599198D01*
X123479619Y-120648261D01*
X123409761Y-120649547D01*
X123350297Y-120612862D01*
X123320107Y-120549852D01*
X123318499Y-120529959D01*
X123318499Y-120017199D01*
X123338184Y-119950164D01*
X123390988Y-119904409D01*
X123460146Y-119894465D01*
X123491393Y-119903251D01*
X123541389Y-119924706D01*
X123732598Y-119964000D01*
X123732600Y-119964000D01*
X125374337Y-119964000D01*
X125377479Y-119964000D01*
X125523003Y-119949202D01*
X125709255Y-119890765D01*
X125879931Y-119796032D01*
X126028044Y-119668881D01*
X126147530Y-119514518D01*
X126233496Y-119339263D01*
X126282425Y-119150290D01*
X126292312Y-118955336D01*
X126282499Y-118891278D01*
X126262752Y-118762382D01*
X126194958Y-118579332D01*
X126194957Y-118579330D01*
X126091701Y-118413671D01*
X125957212Y-118272188D01*
X125957211Y-118272187D01*
X125957210Y-118272186D01*
X125796995Y-118160674D01*
X125617611Y-118083694D01*
X125564901Y-118072862D01*
X125426402Y-118044400D01*
X123781521Y-118044400D01*
X123778410Y-118044716D01*
X123778397Y-118044717D01*
X123635997Y-118059198D01*
X123479619Y-118108261D01*
X123409761Y-118109547D01*
X123350297Y-118072862D01*
X123320107Y-118009852D01*
X123318499Y-117989959D01*
X123318499Y-117477199D01*
X123338184Y-117410164D01*
X123390988Y-117364409D01*
X123460146Y-117354465D01*
X123491393Y-117363251D01*
X123541389Y-117384706D01*
X123732598Y-117424000D01*
X123732600Y-117424000D01*
X125374337Y-117424000D01*
X125377479Y-117424000D01*
X125523003Y-117409202D01*
X125709255Y-117350765D01*
X125879931Y-117256032D01*
X126028044Y-117128881D01*
X126147530Y-116974518D01*
X126233496Y-116799263D01*
X126282425Y-116610290D01*
X126292312Y-116415336D01*
X126267953Y-116256329D01*
X126262752Y-116222382D01*
X126194958Y-116039332D01*
X126170817Y-116000601D01*
X126091701Y-115873671D01*
X125957212Y-115732188D01*
X125957211Y-115732187D01*
X125957210Y-115732186D01*
X125796995Y-115620674D01*
X125617611Y-115543694D01*
X125617610Y-115543693D01*
X125426402Y-115504400D01*
X123781521Y-115504400D01*
X123778410Y-115504716D01*
X123778397Y-115504717D01*
X123635992Y-115519198D01*
X123479620Y-115568260D01*
X123409763Y-115569547D01*
X123350299Y-115532862D01*
X123320108Y-115469852D01*
X123318500Y-115449947D01*
X123318500Y-114984540D01*
X123338185Y-114917501D01*
X123390989Y-114871746D01*
X123460147Y-114861802D01*
X123491401Y-114870590D01*
X123528297Y-114886423D01*
X123728175Y-114927500D01*
X124452500Y-114927500D01*
X124452500Y-114406333D01*
X124544077Y-114419500D01*
X124614923Y-114419500D01*
X124706500Y-114406333D01*
X124706500Y-114927500D01*
X125376537Y-114927500D01*
X125382802Y-114927182D01*
X125531808Y-114912029D01*
X125726496Y-114850946D01*
X125904906Y-114751921D01*
X126059737Y-114619001D01*
X126184635Y-114457648D01*
X126274498Y-114274448D01*
X126325644Y-114076909D01*
X126326949Y-114051200D01*
X125058419Y-114051200D01*
X125074800Y-113995413D01*
X125074800Y-113852987D01*
X125058419Y-113797200D01*
X126324349Y-113797200D01*
X126324348Y-113797199D01*
X126305081Y-113671422D01*
X126234214Y-113480075D01*
X126126275Y-113306904D01*
X125985693Y-113159013D01*
X125818214Y-113042444D01*
X125630700Y-112961975D01*
X125430825Y-112920900D01*
X124706500Y-112920900D01*
X124706500Y-113442066D01*
X124614923Y-113428900D01*
X124544077Y-113428900D01*
X124452500Y-113442066D01*
X124452500Y-112920900D01*
X123782463Y-112920900D01*
X123776197Y-112921217D01*
X123627196Y-112936370D01*
X123479620Y-112982671D01*
X123409762Y-112983957D01*
X123350298Y-112947272D01*
X123320108Y-112884261D01*
X123318500Y-112864357D01*
X123318500Y-112444540D01*
X123338185Y-112377501D01*
X123390989Y-112331746D01*
X123460147Y-112321802D01*
X123491401Y-112330590D01*
X123528297Y-112346423D01*
X123728175Y-112387500D01*
X124452500Y-112387500D01*
X124452500Y-111866333D01*
X124544077Y-111879500D01*
X124614923Y-111879500D01*
X124706500Y-111866333D01*
X124706500Y-112387500D01*
X125376537Y-112387500D01*
X125382802Y-112387182D01*
X125531808Y-112372029D01*
X125726496Y-112310946D01*
X125904906Y-112211921D01*
X126059737Y-112079001D01*
X126184635Y-111917648D01*
X126274498Y-111734448D01*
X126325644Y-111536909D01*
X126326949Y-111511200D01*
X125058419Y-111511200D01*
X125074800Y-111455413D01*
X125074800Y-111400000D01*
X148317443Y-111400000D01*
X148335590Y-111537835D01*
X148388793Y-111666278D01*
X148473425Y-111776574D01*
X148510676Y-111805157D01*
X148583722Y-111861207D01*
X148712164Y-111914410D01*
X148833964Y-111930444D01*
X148849999Y-111932556D01*
X148849999Y-111932555D01*
X148850000Y-111932556D01*
X148987836Y-111914410D01*
X149016842Y-111902394D01*
X149086311Y-111894925D01*
X149148791Y-111926199D01*
X149151977Y-111929274D01*
X160768184Y-123545481D01*
X160795064Y-123585709D01*
X160838792Y-123691278D01*
X160923425Y-123801574D01*
X160976608Y-123842382D01*
X161033722Y-123886207D01*
X161162164Y-123939410D01*
X161300000Y-123957556D01*
X161437836Y-123939410D01*
X161566278Y-123886207D01*
X161676574Y-123801574D01*
X161761207Y-123691278D01*
X161814410Y-123562836D01*
X161832556Y-123425000D01*
X161814410Y-123287164D01*
X161761207Y-123158722D01*
X161734871Y-123124400D01*
X161676574Y-123048425D01*
X161566278Y-122963793D01*
X161566278Y-122963792D01*
X161437836Y-122910590D01*
X161419689Y-122908200D01*
X161299999Y-122892443D01*
X161157154Y-122911249D01*
X161088118Y-122900483D01*
X161053288Y-122875991D01*
X156802297Y-118625000D01*
X158642443Y-118625000D01*
X158660590Y-118762835D01*
X158713793Y-118891278D01*
X158798425Y-119001574D01*
X158865529Y-119053064D01*
X158908722Y-119086207D01*
X159037164Y-119139410D01*
X159158114Y-119155333D01*
X159174999Y-119157556D01*
X159174999Y-119157555D01*
X159175000Y-119157556D01*
X159273662Y-119144567D01*
X159342697Y-119155333D01*
X159377528Y-119179825D01*
X160922106Y-120724403D01*
X160929414Y-120732378D01*
X160946187Y-120752368D01*
X160954713Y-120762528D01*
X160988814Y-120782216D01*
X160997930Y-120788024D01*
X161030784Y-120811029D01*
X161057043Y-120821905D01*
X161057783Y-120822035D01*
X161057788Y-120822038D01*
X161096575Y-120828877D01*
X161107113Y-120831214D01*
X161145129Y-120841401D01*
X161145130Y-120841400D01*
X161145131Y-120841401D01*
X161184326Y-120837971D01*
X161195133Y-120837500D01*
X163232294Y-120837500D01*
X163299333Y-120857185D01*
X163310116Y-120867104D01*
X163310476Y-120866636D01*
X163323423Y-120876571D01*
X163323426Y-120876574D01*
X163433722Y-120961207D01*
X163562164Y-121014410D01*
X163700000Y-121032556D01*
X163837836Y-121014410D01*
X163966278Y-120961207D01*
X164076574Y-120876574D01*
X164161207Y-120766278D01*
X164214410Y-120637836D01*
X164232556Y-120500000D01*
X164214410Y-120362164D01*
X164161207Y-120233722D01*
X164106557Y-120162500D01*
X164076574Y-120123425D01*
X163966278Y-120038793D01*
X163855476Y-119992897D01*
X163837836Y-119985590D01*
X163821800Y-119983478D01*
X163700000Y-119967443D01*
X163562164Y-119985590D01*
X163433723Y-120038792D01*
X163433721Y-120038793D01*
X163433722Y-120038793D01*
X163323426Y-120123426D01*
X163323424Y-120123428D01*
X163310476Y-120133364D01*
X163308197Y-120130395D01*
X163274239Y-120155190D01*
X163232294Y-120162500D01*
X161366159Y-120162500D01*
X161299120Y-120142815D01*
X161278478Y-120126181D01*
X159726746Y-118574449D01*
X159693261Y-118513126D01*
X159691490Y-118502966D01*
X159689410Y-118487164D01*
X159689409Y-118487161D01*
X159636207Y-118358721D01*
X159551574Y-118248425D01*
X159441278Y-118163793D01*
X159429859Y-118159063D01*
X159312836Y-118110590D01*
X159294689Y-118108200D01*
X159174999Y-118092443D01*
X159037164Y-118110590D01*
X158908721Y-118163793D01*
X158798425Y-118248425D01*
X158713793Y-118358721D01*
X158660590Y-118487164D01*
X158642443Y-118625000D01*
X156802297Y-118625000D01*
X149352898Y-111175601D01*
X149345590Y-111167626D01*
X149310558Y-111125877D01*
X149294137Y-111111476D01*
X149226574Y-111023426D01*
X149226572Y-111023425D01*
X149226572Y-111023424D01*
X149116278Y-110938793D01*
X149070184Y-110919700D01*
X148987836Y-110885590D01*
X148971800Y-110883478D01*
X148850000Y-110867443D01*
X148712164Y-110885590D01*
X148583721Y-110938793D01*
X148473425Y-111023425D01*
X148388793Y-111133721D01*
X148335590Y-111262164D01*
X148317443Y-111400000D01*
X125074800Y-111400000D01*
X125074800Y-111312987D01*
X125058419Y-111257200D01*
X126324349Y-111257200D01*
X126324348Y-111257199D01*
X126305081Y-111131422D01*
X126234214Y-110940075D01*
X126126275Y-110766904D01*
X125985693Y-110619013D01*
X125818214Y-110502444D01*
X125630700Y-110421975D01*
X125430825Y-110380900D01*
X124706500Y-110380900D01*
X124706500Y-110902066D01*
X124614923Y-110888900D01*
X124544077Y-110888900D01*
X124452500Y-110902066D01*
X124452500Y-110380900D01*
X123782463Y-110380900D01*
X123776197Y-110381217D01*
X123627196Y-110396370D01*
X123479620Y-110442671D01*
X123409762Y-110443957D01*
X123350298Y-110407272D01*
X123320108Y-110344261D01*
X123318500Y-110324357D01*
X123318500Y-109857204D01*
X123338185Y-109790165D01*
X123390989Y-109744410D01*
X123460147Y-109734466D01*
X123491393Y-109743251D01*
X123541389Y-109764706D01*
X123732598Y-109804000D01*
X123732600Y-109804000D01*
X125374337Y-109804000D01*
X125377479Y-109804000D01*
X125523003Y-109789202D01*
X125709255Y-109730765D01*
X125879931Y-109636032D01*
X126028044Y-109508881D01*
X126147530Y-109354518D01*
X126233496Y-109179263D01*
X126282425Y-108990290D01*
X126292312Y-108795336D01*
X126262752Y-108602383D01*
X126262752Y-108602382D01*
X126251018Y-108570698D01*
X126243300Y-108527635D01*
X126243300Y-108419330D01*
X126243300Y-108310355D01*
X126262983Y-108243319D01*
X126279609Y-108222687D01*
X128432930Y-106069365D01*
X128494251Y-106035882D01*
X128508891Y-106035271D01*
X128508814Y-106034687D01*
X128525000Y-106032556D01*
X128662836Y-106014410D01*
X128791278Y-105961207D01*
X128901574Y-105876574D01*
X128986207Y-105766278D01*
X129039410Y-105637836D01*
X129050974Y-105549999D01*
X146767443Y-105549999D01*
X146779229Y-105639519D01*
X146785590Y-105687836D01*
X146796292Y-105713672D01*
X146838793Y-105816278D01*
X146933364Y-105939526D01*
X146930395Y-105941804D01*
X146955183Y-105975740D01*
X146962500Y-106017706D01*
X146962500Y-107379854D01*
X146962028Y-107390662D01*
X146958597Y-107429870D01*
X146968785Y-107467892D01*
X146971126Y-107478449D01*
X146978092Y-107517953D01*
X146988971Y-107544218D01*
X147011976Y-107577072D01*
X147017788Y-107586195D01*
X147037471Y-107620287D01*
X147067625Y-107645589D01*
X147075601Y-107652898D01*
X155872106Y-116449403D01*
X155879414Y-116457378D01*
X155904713Y-116487528D01*
X155934528Y-116504741D01*
X155938793Y-116507204D01*
X155947915Y-116513015D01*
X155960798Y-116522035D01*
X155980166Y-116535597D01*
X155980167Y-116535597D01*
X155980784Y-116536029D01*
X156007047Y-116546907D01*
X156007787Y-116547037D01*
X156007788Y-116547038D01*
X156046538Y-116553870D01*
X156057093Y-116556209D01*
X156095131Y-116566402D01*
X156095131Y-116566401D01*
X156095132Y-116566402D01*
X156117143Y-116564476D01*
X156134338Y-116562971D01*
X156145145Y-116562500D01*
X161283841Y-116562500D01*
X161350880Y-116582185D01*
X161371522Y-116598819D01*
X162205632Y-117432929D01*
X162239117Y-117494252D01*
X162239728Y-117508892D01*
X162240313Y-117508816D01*
X162260590Y-117662835D01*
X162313793Y-117791278D01*
X162398425Y-117901574D01*
X162483058Y-117966514D01*
X162508722Y-117986207D01*
X162637164Y-118039410D01*
X162758964Y-118055444D01*
X162774999Y-118057556D01*
X162774999Y-118057555D01*
X162775000Y-118057556D01*
X162912836Y-118039410D01*
X163041278Y-117986207D01*
X163151574Y-117901574D01*
X163236207Y-117791278D01*
X163289410Y-117662836D01*
X163307556Y-117525000D01*
X163289410Y-117387164D01*
X163236207Y-117258722D01*
X163213697Y-117229386D01*
X163151574Y-117148425D01*
X163041278Y-117063793D01*
X163019396Y-117054729D01*
X162912836Y-117010590D01*
X162873908Y-117005465D01*
X162758816Y-116990313D01*
X162759304Y-116986604D01*
X162717733Y-116980112D01*
X162682929Y-116955632D01*
X161727898Y-116000601D01*
X161720589Y-115992625D01*
X161695287Y-115962471D01*
X161661195Y-115942788D01*
X161652072Y-115936976D01*
X161619218Y-115913971D01*
X161592953Y-115903092D01*
X161553449Y-115896126D01*
X161542892Y-115893785D01*
X161504870Y-115883597D01*
X161468394Y-115886788D01*
X161465661Y-115887028D01*
X161454855Y-115887500D01*
X156316159Y-115887500D01*
X156249120Y-115867815D01*
X156228478Y-115851181D01*
X147673819Y-107296522D01*
X147640334Y-107235199D01*
X147637500Y-107208841D01*
X147637500Y-106017706D01*
X147657185Y-105950667D01*
X147667104Y-105939885D01*
X147666636Y-105939526D01*
X147694025Y-105903830D01*
X147761207Y-105816278D01*
X147814410Y-105687836D01*
X147832556Y-105550000D01*
X147814410Y-105412164D01*
X147761207Y-105283722D01*
X147722840Y-105233721D01*
X147676574Y-105173425D01*
X147566278Y-105088793D01*
X147566278Y-105088792D01*
X147437836Y-105035590D01*
X147421800Y-105033478D01*
X147300000Y-105017443D01*
X147162164Y-105035590D01*
X147033721Y-105088793D01*
X146923425Y-105173425D01*
X146838793Y-105283721D01*
X146785590Y-105412164D01*
X146767443Y-105549999D01*
X129050974Y-105549999D01*
X129057556Y-105500000D01*
X129039410Y-105362164D01*
X128986207Y-105233722D01*
X128966514Y-105208057D01*
X128901574Y-105123425D01*
X128791278Y-105038793D01*
X128783545Y-105035590D01*
X128662836Y-104985590D01*
X128646800Y-104983478D01*
X128525000Y-104967443D01*
X128387164Y-104985590D01*
X128258721Y-105038793D01*
X128148425Y-105123425D01*
X128063793Y-105233721D01*
X128010590Y-105362164D01*
X127990313Y-105516184D01*
X127986604Y-105515695D01*
X127980115Y-105557259D01*
X127955632Y-105592069D01*
X125681393Y-107866308D01*
X125673419Y-107873615D01*
X125660434Y-107884511D01*
X125596426Y-107912525D01*
X125555767Y-107910985D01*
X125426402Y-107884400D01*
X123781521Y-107884400D01*
X123778410Y-107884716D01*
X123778397Y-107884717D01*
X123635992Y-107899198D01*
X123479620Y-107948260D01*
X123409763Y-107949547D01*
X123350299Y-107912862D01*
X123320108Y-107849852D01*
X123318500Y-107829947D01*
X123318500Y-107317204D01*
X123338185Y-107250165D01*
X123390989Y-107204410D01*
X123460147Y-107194466D01*
X123491393Y-107203251D01*
X123541389Y-107224706D01*
X123732598Y-107264000D01*
X123732600Y-107264000D01*
X125374337Y-107264000D01*
X125377479Y-107264000D01*
X125523003Y-107249202D01*
X125709255Y-107190765D01*
X125879931Y-107096032D01*
X126028044Y-106968881D01*
X126147530Y-106814518D01*
X126233496Y-106639263D01*
X126282425Y-106450290D01*
X126292312Y-106255336D01*
X126262752Y-106062383D01*
X126252937Y-106035882D01*
X126194958Y-105879332D01*
X126165808Y-105832565D01*
X126091701Y-105713671D01*
X125957212Y-105572188D01*
X125957211Y-105572187D01*
X125957210Y-105572186D01*
X125796995Y-105460674D01*
X125617611Y-105383694D01*
X125564901Y-105372862D01*
X125426402Y-105344400D01*
X123781521Y-105344400D01*
X123778410Y-105344716D01*
X123778397Y-105344717D01*
X123635992Y-105359198D01*
X123479620Y-105408260D01*
X123409763Y-105409547D01*
X123350299Y-105372862D01*
X123320108Y-105309852D01*
X123318500Y-105289947D01*
X123318500Y-104777204D01*
X123338185Y-104710165D01*
X123390989Y-104664410D01*
X123460147Y-104654466D01*
X123491393Y-104663251D01*
X123541389Y-104684706D01*
X123732598Y-104724000D01*
X123732600Y-104724000D01*
X125374337Y-104724000D01*
X125377479Y-104724000D01*
X125523003Y-104709202D01*
X125709255Y-104650765D01*
X125879931Y-104556032D01*
X126028044Y-104428881D01*
X126147530Y-104274518D01*
X126233496Y-104099263D01*
X126282425Y-103910290D01*
X126292312Y-103715336D01*
X126262752Y-103522383D01*
X126228216Y-103429133D01*
X126194958Y-103339332D01*
X126194957Y-103339330D01*
X126091701Y-103173671D01*
X125957212Y-103032188D01*
X125957211Y-103032187D01*
X125957210Y-103032186D01*
X125796995Y-102920674D01*
X125617611Y-102843694D01*
X125564901Y-102832862D01*
X125426402Y-102804400D01*
X123781521Y-102804400D01*
X123778410Y-102804716D01*
X123778397Y-102804717D01*
X123635992Y-102819198D01*
X123479620Y-102868260D01*
X123409763Y-102869547D01*
X123350299Y-102832862D01*
X123320108Y-102769852D01*
X123318500Y-102749947D01*
X123318500Y-102237204D01*
X123338185Y-102170165D01*
X123390989Y-102124410D01*
X123460147Y-102114466D01*
X123491393Y-102123251D01*
X123541389Y-102144706D01*
X123732598Y-102184000D01*
X123732600Y-102184000D01*
X125374337Y-102184000D01*
X125377479Y-102184000D01*
X125523003Y-102169202D01*
X125709255Y-102110765D01*
X125879931Y-102016032D01*
X126028044Y-101888881D01*
X126147530Y-101734518D01*
X126233496Y-101559263D01*
X126282425Y-101370290D01*
X126289834Y-101224200D01*
X131597443Y-101224200D01*
X131613478Y-101346000D01*
X131615590Y-101362036D01*
X131619009Y-101370290D01*
X131668793Y-101490478D01*
X131753425Y-101600774D01*
X131818798Y-101650936D01*
X131863722Y-101685407D01*
X131992164Y-101738610D01*
X132130000Y-101756756D01*
X132267836Y-101738610D01*
X132396278Y-101685407D01*
X132506574Y-101600774D01*
X132506576Y-101600771D01*
X132519524Y-101590836D01*
X132521802Y-101593804D01*
X132555761Y-101569010D01*
X132597706Y-101561700D01*
X149332294Y-101561700D01*
X149399333Y-101581385D01*
X149410116Y-101591304D01*
X149410476Y-101590836D01*
X149423423Y-101600771D01*
X149423426Y-101600774D01*
X149533722Y-101685407D01*
X149662164Y-101738610D01*
X149800000Y-101756756D01*
X149937836Y-101738610D01*
X150066278Y-101685407D01*
X150176574Y-101600774D01*
X150261207Y-101490478D01*
X150314410Y-101362036D01*
X150332556Y-101224200D01*
X150314410Y-101086364D01*
X150261207Y-100957922D01*
X150241514Y-100932257D01*
X150176574Y-100847625D01*
X150066278Y-100762993D01*
X150066277Y-100762992D01*
X149937836Y-100709790D01*
X149921800Y-100707678D01*
X149800000Y-100691643D01*
X149662164Y-100709790D01*
X149533723Y-100762992D01*
X149533721Y-100762993D01*
X149533722Y-100762993D01*
X149423426Y-100847626D01*
X149423424Y-100847628D01*
X149410476Y-100857564D01*
X149408197Y-100854595D01*
X149374239Y-100879390D01*
X149332294Y-100886700D01*
X132597706Y-100886700D01*
X132530667Y-100867015D01*
X132519883Y-100857095D01*
X132519524Y-100857564D01*
X132506575Y-100847628D01*
X132506574Y-100847626D01*
X132396278Y-100762993D01*
X132267836Y-100709790D01*
X132251800Y-100707678D01*
X132130000Y-100691643D01*
X131992164Y-100709790D01*
X131863721Y-100762993D01*
X131753425Y-100847625D01*
X131668793Y-100957921D01*
X131615590Y-101086364D01*
X131597443Y-101224200D01*
X126289834Y-101224200D01*
X126292312Y-101175336D01*
X126262752Y-100982383D01*
X126253692Y-100957921D01*
X126194958Y-100799332D01*
X126172307Y-100762992D01*
X126091701Y-100633671D01*
X125957212Y-100492188D01*
X125957211Y-100492187D01*
X125957210Y-100492186D01*
X125796995Y-100380674D01*
X125617611Y-100303694D01*
X125564901Y-100292862D01*
X125426402Y-100264400D01*
X123781521Y-100264400D01*
X123778410Y-100264716D01*
X123778397Y-100264717D01*
X123635992Y-100279198D01*
X123479620Y-100328260D01*
X123409763Y-100329547D01*
X123350299Y-100292862D01*
X123320108Y-100229852D01*
X123318500Y-100209947D01*
X123318500Y-99697204D01*
X123338185Y-99630165D01*
X123390989Y-99584410D01*
X123460147Y-99574466D01*
X123491393Y-99583251D01*
X123541389Y-99604706D01*
X123732598Y-99644000D01*
X123732600Y-99644000D01*
X125374337Y-99644000D01*
X125377479Y-99644000D01*
X125523003Y-99629202D01*
X125709255Y-99570765D01*
X125879931Y-99476032D01*
X126028044Y-99348881D01*
X126147530Y-99194518D01*
X126233496Y-99019263D01*
X126282425Y-98830290D01*
X126292312Y-98635336D01*
X126284162Y-98582133D01*
X126262752Y-98442382D01*
X126194958Y-98259332D01*
X126194957Y-98259330D01*
X126091701Y-98093671D01*
X125957212Y-97952188D01*
X125957211Y-97952187D01*
X125957210Y-97952186D01*
X125796995Y-97840674D01*
X125617611Y-97763694D01*
X125426402Y-97724400D01*
X123781521Y-97724400D01*
X123778410Y-97724716D01*
X123778397Y-97724717D01*
X123635992Y-97739198D01*
X123479620Y-97788260D01*
X123409763Y-97789547D01*
X123350299Y-97752862D01*
X123320108Y-97689852D01*
X123318500Y-97669947D01*
X123318500Y-97650000D01*
X129769369Y-97650000D01*
X129789844Y-97857892D01*
X129814150Y-97938018D01*
X129844719Y-98038792D01*
X129850486Y-98057801D01*
X129946521Y-98237471D01*
X129948960Y-98242033D01*
X130081485Y-98403515D01*
X130242967Y-98536040D01*
X130427201Y-98634515D01*
X130627106Y-98695155D01*
X130835000Y-98715631D01*
X131042894Y-98695155D01*
X131242799Y-98634515D01*
X131427033Y-98536040D01*
X131445687Y-98520731D01*
X132314500Y-98520731D01*
X132317957Y-98538110D01*
X132326713Y-98582133D01*
X132373238Y-98651762D01*
X132442867Y-98698287D01*
X132504267Y-98710500D01*
X134245732Y-98710499D01*
X134307133Y-98698287D01*
X134376762Y-98651762D01*
X134423287Y-98582133D01*
X134435500Y-98520733D01*
X134435500Y-98500000D01*
X145517443Y-98500000D01*
X145532319Y-98612987D01*
X145535590Y-98637836D01*
X145565689Y-98710500D01*
X145588793Y-98766278D01*
X145673425Y-98876574D01*
X145737861Y-98926017D01*
X145783722Y-98961207D01*
X145912164Y-99014410D01*
X146050000Y-99032556D01*
X146187836Y-99014410D01*
X146316278Y-98961207D01*
X146426574Y-98876574D01*
X146426576Y-98876571D01*
X146439524Y-98866636D01*
X146441802Y-98869604D01*
X146475761Y-98844810D01*
X146517706Y-98837500D01*
X150158841Y-98837500D01*
X150225880Y-98857185D01*
X150246522Y-98873819D01*
X153376181Y-102003478D01*
X153409666Y-102064801D01*
X153412500Y-102091159D01*
X153412500Y-111479854D01*
X153412028Y-111490662D01*
X153408597Y-111529870D01*
X153418785Y-111567892D01*
X153421126Y-111578449D01*
X153428092Y-111617953D01*
X153438971Y-111644218D01*
X153461976Y-111677072D01*
X153467788Y-111686195D01*
X153487471Y-111720287D01*
X153517625Y-111745589D01*
X153525601Y-111752898D01*
X156397106Y-114624403D01*
X156404414Y-114632378D01*
X156429713Y-114662528D01*
X156463814Y-114682216D01*
X156472930Y-114688024D01*
X156505783Y-114711029D01*
X156532051Y-114721908D01*
X156571550Y-114728873D01*
X156582114Y-114731215D01*
X156620130Y-114741402D01*
X156620130Y-114741401D01*
X156620131Y-114741402D01*
X156644419Y-114739276D01*
X156659334Y-114737972D01*
X156670142Y-114737500D01*
X162132294Y-114737500D01*
X162199333Y-114757185D01*
X162210116Y-114767104D01*
X162210476Y-114766636D01*
X162223423Y-114776571D01*
X162223426Y-114776574D01*
X162333722Y-114861207D01*
X162462164Y-114914410D01*
X162600000Y-114932556D01*
X162737836Y-114914410D01*
X162866278Y-114861207D01*
X162976574Y-114776574D01*
X163061207Y-114666278D01*
X163114410Y-114537836D01*
X163132556Y-114400000D01*
X163114410Y-114262164D01*
X163061207Y-114133722D01*
X163006557Y-114062500D01*
X162976574Y-114023425D01*
X162866278Y-113938793D01*
X162866277Y-113938792D01*
X162737836Y-113885590D01*
X162721800Y-113883478D01*
X162600000Y-113867443D01*
X162462164Y-113885590D01*
X162333723Y-113938792D01*
X162333721Y-113938793D01*
X162333722Y-113938793D01*
X162223426Y-114023426D01*
X162223424Y-114023428D01*
X162210476Y-114033364D01*
X162208197Y-114030395D01*
X162174239Y-114055190D01*
X162132294Y-114062500D01*
X156841159Y-114062500D01*
X156774120Y-114042815D01*
X156753478Y-114026181D01*
X154123819Y-111396522D01*
X154098416Y-111350000D01*
X155699843Y-111350000D01*
X155703438Y-111384200D01*
X155718421Y-111526759D01*
X155773342Y-111695790D01*
X155862208Y-111849709D01*
X155976129Y-111976232D01*
X155981134Y-111981790D01*
X156124921Y-112086258D01*
X156192200Y-112116212D01*
X156287289Y-112158548D01*
X156461133Y-112195500D01*
X156461134Y-112195500D01*
X156638867Y-112195500D01*
X156812710Y-112158548D01*
X156812711Y-112158547D01*
X156812713Y-112158547D01*
X156975079Y-112086258D01*
X157118866Y-111981790D01*
X157190353Y-111902395D01*
X157201759Y-111889728D01*
X157261246Y-111853079D01*
X157293909Y-111848700D01*
X162296470Y-111848700D01*
X162363509Y-111868385D01*
X162405825Y-111914243D01*
X162438960Y-111976233D01*
X162571485Y-112137715D01*
X162732967Y-112270240D01*
X162917201Y-112368715D01*
X163117106Y-112429355D01*
X163325000Y-112449831D01*
X163532894Y-112429355D01*
X163732799Y-112368715D01*
X163917033Y-112270240D01*
X164078515Y-112137715D01*
X164211040Y-111976233D01*
X164309515Y-111791999D01*
X164370155Y-111592094D01*
X164390631Y-111384200D01*
X164370155Y-111176306D01*
X164309515Y-110976401D01*
X164211040Y-110792167D01*
X164078515Y-110630685D01*
X163922253Y-110502444D01*
X163917032Y-110498159D01*
X163732801Y-110399686D01*
X163732800Y-110399685D01*
X163732799Y-110399685D01*
X163632846Y-110369365D01*
X163532892Y-110339044D01*
X163325000Y-110318569D01*
X163117107Y-110339044D01*
X162917198Y-110399686D01*
X162732967Y-110498159D01*
X162571485Y-110630685D01*
X162459693Y-110766904D01*
X162438960Y-110792167D01*
X162405826Y-110854155D01*
X162356866Y-110903997D01*
X162296470Y-110919700D01*
X157349457Y-110919700D01*
X157282418Y-110900015D01*
X157242071Y-110857701D01*
X157237793Y-110850291D01*
X157118867Y-110718211D01*
X157027995Y-110652188D01*
X156975079Y-110613742D01*
X156927072Y-110592368D01*
X156812710Y-110541451D01*
X156638867Y-110504500D01*
X156638866Y-110504500D01*
X156461134Y-110504500D01*
X156461133Y-110504500D01*
X156287289Y-110541451D01*
X156124920Y-110613742D01*
X155981134Y-110718208D01*
X155862208Y-110850289D01*
X155773342Y-111004209D01*
X155718421Y-111173240D01*
X155709597Y-111257199D01*
X155699843Y-111350000D01*
X154098416Y-111350000D01*
X154090334Y-111335199D01*
X154087500Y-111308841D01*
X154087500Y-108844200D01*
X162259369Y-108844200D01*
X162279844Y-109052092D01*
X162340486Y-109252001D01*
X162438959Y-109436232D01*
X162462723Y-109465189D01*
X162571485Y-109597715D01*
X162732967Y-109730240D01*
X162917201Y-109828715D01*
X163117106Y-109889355D01*
X163325000Y-109909831D01*
X163532894Y-109889355D01*
X163732799Y-109828715D01*
X163917033Y-109730240D01*
X164078515Y-109597715D01*
X164211040Y-109436233D01*
X164309515Y-109251999D01*
X164370155Y-109052094D01*
X164390631Y-108844200D01*
X164370155Y-108636306D01*
X164309515Y-108436401D01*
X164211040Y-108252167D01*
X164078515Y-108090685D01*
X163945989Y-107981923D01*
X163917032Y-107958159D01*
X163732801Y-107859686D01*
X163732800Y-107859685D01*
X163732799Y-107859685D01*
X163632846Y-107829364D01*
X163532892Y-107799044D01*
X163325000Y-107778569D01*
X163117107Y-107799044D01*
X162917198Y-107859686D01*
X162732967Y-107958159D01*
X162571485Y-108090685D01*
X162438959Y-108252167D01*
X162340486Y-108436398D01*
X162279844Y-108636307D01*
X162259369Y-108844200D01*
X154087500Y-108844200D01*
X154087500Y-106304200D01*
X162259369Y-106304200D01*
X162279844Y-106512092D01*
X162340486Y-106712001D01*
X162438959Y-106896232D01*
X162462723Y-106925189D01*
X162571485Y-107057715D01*
X162732967Y-107190240D01*
X162917201Y-107288715D01*
X163117106Y-107349355D01*
X163325000Y-107369831D01*
X163532894Y-107349355D01*
X163732799Y-107288715D01*
X163917033Y-107190240D01*
X164078515Y-107057715D01*
X164211040Y-106896233D01*
X164309515Y-106711999D01*
X164370155Y-106512094D01*
X164390631Y-106304200D01*
X164370155Y-106096306D01*
X164309515Y-105896401D01*
X164211040Y-105712167D01*
X164078515Y-105550685D01*
X163945989Y-105441923D01*
X163917032Y-105418159D01*
X163732801Y-105319686D01*
X163732800Y-105319685D01*
X163732799Y-105319685D01*
X163614241Y-105283721D01*
X163532892Y-105259044D01*
X163325000Y-105238569D01*
X163117107Y-105259044D01*
X162917198Y-105319686D01*
X162732967Y-105418159D01*
X162571485Y-105550685D01*
X162438959Y-105712167D01*
X162340486Y-105896398D01*
X162279844Y-106096307D01*
X162259369Y-106304200D01*
X154087500Y-106304200D01*
X154087500Y-101920141D01*
X154087972Y-101909332D01*
X154089761Y-101888881D01*
X154091402Y-101870131D01*
X154081210Y-101832098D01*
X154078870Y-101821536D01*
X154077670Y-101814729D01*
X154072038Y-101782788D01*
X154072037Y-101782787D01*
X154071907Y-101782047D01*
X154061029Y-101755784D01*
X154060597Y-101755167D01*
X154060597Y-101755166D01*
X154038015Y-101722915D01*
X154032204Y-101713793D01*
X154015815Y-101685407D01*
X154012528Y-101679713D01*
X153982379Y-101654414D01*
X153974403Y-101647106D01*
X150602898Y-98275601D01*
X150595589Y-98267625D01*
X150570287Y-98237471D01*
X150536195Y-98217788D01*
X150527072Y-98211976D01*
X150494218Y-98188971D01*
X150467953Y-98178092D01*
X150428449Y-98171126D01*
X150417892Y-98168785D01*
X150379870Y-98158597D01*
X150343394Y-98161788D01*
X150340661Y-98162028D01*
X150329855Y-98162500D01*
X146517706Y-98162500D01*
X146450667Y-98142815D01*
X146439883Y-98132895D01*
X146439524Y-98133364D01*
X146426575Y-98123428D01*
X146426574Y-98123426D01*
X146316278Y-98038793D01*
X146187836Y-97985590D01*
X146171800Y-97983478D01*
X146050000Y-97967443D01*
X145912164Y-97985590D01*
X145783721Y-98038793D01*
X145673425Y-98123425D01*
X145588793Y-98233721D01*
X145535590Y-98362164D01*
X145517443Y-98500000D01*
X134435500Y-98500000D01*
X134435500Y-98111499D01*
X134455185Y-98044461D01*
X134507989Y-97998706D01*
X134559500Y-97987500D01*
X142929855Y-97987500D01*
X142940661Y-97987971D01*
X142979869Y-97991402D01*
X143017919Y-97981205D01*
X143028426Y-97978876D01*
X143067212Y-97972038D01*
X143067215Y-97972035D01*
X143067958Y-97971905D01*
X143094215Y-97961029D01*
X143094830Y-97960597D01*
X143094834Y-97960597D01*
X143127100Y-97938002D01*
X143136193Y-97932211D01*
X143170287Y-97912528D01*
X143195596Y-97882364D01*
X143202884Y-97874411D01*
X144403477Y-96673819D01*
X144464801Y-96640334D01*
X144491159Y-96637500D01*
X145482294Y-96637500D01*
X145549333Y-96657185D01*
X145560116Y-96667104D01*
X145560476Y-96666636D01*
X145573423Y-96676571D01*
X145573426Y-96676574D01*
X145683722Y-96761207D01*
X145812164Y-96814410D01*
X145950000Y-96832556D01*
X146087836Y-96814410D01*
X146216278Y-96761207D01*
X146326574Y-96676574D01*
X146411207Y-96566278D01*
X146464410Y-96437836D01*
X146482556Y-96300000D01*
X146464410Y-96162164D01*
X146411207Y-96033722D01*
X146377201Y-95989404D01*
X146326574Y-95923425D01*
X146216278Y-95838793D01*
X146162487Y-95816512D01*
X146087836Y-95785590D01*
X146063438Y-95782378D01*
X145950000Y-95767443D01*
X145812164Y-95785590D01*
X145683723Y-95838792D01*
X145683721Y-95838793D01*
X145683722Y-95838793D01*
X145573426Y-95923426D01*
X145573424Y-95923428D01*
X145560476Y-95933364D01*
X145558197Y-95930395D01*
X145524239Y-95955190D01*
X145482294Y-95962500D01*
X144320142Y-95962500D01*
X144309333Y-95962028D01*
X144270130Y-95958597D01*
X144232113Y-95968784D01*
X144221558Y-95971124D01*
X144182057Y-95978090D01*
X144155776Y-95988975D01*
X144122932Y-96011973D01*
X144113813Y-96017782D01*
X144079714Y-96037469D01*
X144054414Y-96067621D01*
X144047107Y-96075594D01*
X142846522Y-97276181D01*
X142785199Y-97309666D01*
X142758841Y-97312500D01*
X134559499Y-97312500D01*
X134492460Y-97292815D01*
X134446705Y-97240011D01*
X134435499Y-97188500D01*
X134435499Y-96779268D01*
X134431907Y-96761207D01*
X134423287Y-96717867D01*
X134376762Y-96648238D01*
X134340972Y-96624324D01*
X134307133Y-96601713D01*
X134307132Y-96601713D01*
X134245733Y-96589500D01*
X134245731Y-96589500D01*
X132504268Y-96589500D01*
X132442866Y-96601713D01*
X132373237Y-96648238D01*
X132326713Y-96717866D01*
X132326712Y-96717867D01*
X132326713Y-96717867D01*
X132318093Y-96761206D01*
X132314500Y-96779268D01*
X132314500Y-98520731D01*
X131445687Y-98520731D01*
X131588515Y-98403515D01*
X131721040Y-98242033D01*
X131819515Y-98057799D01*
X131880155Y-97857894D01*
X131900631Y-97650000D01*
X131880155Y-97442106D01*
X131819515Y-97242201D01*
X131721040Y-97057967D01*
X131588515Y-96896485D01*
X131427033Y-96763960D01*
X131427032Y-96763959D01*
X131242801Y-96665486D01*
X131242800Y-96665485D01*
X131242799Y-96665485D01*
X131142846Y-96635165D01*
X131042892Y-96604844D01*
X130835000Y-96584369D01*
X130627107Y-96604844D01*
X130427198Y-96665486D01*
X130242967Y-96763959D01*
X130081485Y-96896485D01*
X129948959Y-97057967D01*
X129850486Y-97242198D01*
X129789844Y-97442107D01*
X129769369Y-97650000D01*
X123318500Y-97650000D01*
X123318500Y-97157204D01*
X123338185Y-97090165D01*
X123390989Y-97044410D01*
X123460147Y-97034466D01*
X123491393Y-97043251D01*
X123541389Y-97064706D01*
X123732598Y-97104000D01*
X123732600Y-97104000D01*
X125374337Y-97104000D01*
X125377479Y-97104000D01*
X125523003Y-97089202D01*
X125709255Y-97030765D01*
X125879931Y-96936032D01*
X126028044Y-96808881D01*
X126147530Y-96654518D01*
X126233496Y-96479263D01*
X126282425Y-96290290D01*
X126292312Y-96095336D01*
X126283448Y-96037472D01*
X126262752Y-95902382D01*
X126194958Y-95719332D01*
X126189893Y-95711206D01*
X126091701Y-95553671D01*
X125957212Y-95412188D01*
X125957211Y-95412187D01*
X125957210Y-95412186D01*
X125796995Y-95300674D01*
X125617611Y-95223694D01*
X125617611Y-95223693D01*
X125426402Y-95184400D01*
X123781521Y-95184400D01*
X123778410Y-95184716D01*
X123778397Y-95184717D01*
X123635992Y-95199198D01*
X123479620Y-95248260D01*
X123409763Y-95249547D01*
X123350299Y-95212862D01*
X123320108Y-95149852D01*
X123318500Y-95129947D01*
X123318500Y-94617204D01*
X123338185Y-94550165D01*
X123390989Y-94504410D01*
X123460147Y-94494466D01*
X123491393Y-94503251D01*
X123541389Y-94524706D01*
X123732598Y-94564000D01*
X123732600Y-94564000D01*
X125374337Y-94564000D01*
X125377479Y-94564000D01*
X125523003Y-94549202D01*
X125709255Y-94490765D01*
X125879931Y-94396032D01*
X126028044Y-94268881D01*
X126147530Y-94114518D01*
X126233496Y-93939263D01*
X126282425Y-93750290D01*
X126292312Y-93555336D01*
X126288528Y-93530632D01*
X126262752Y-93362382D01*
X126258166Y-93349999D01*
X129617443Y-93349999D01*
X129629824Y-93444037D01*
X129635590Y-93487836D01*
X129687089Y-93612164D01*
X129688793Y-93616278D01*
X129773425Y-93726574D01*
X129858058Y-93791514D01*
X129883722Y-93811207D01*
X130012164Y-93864410D01*
X130150000Y-93882556D01*
X130287836Y-93864410D01*
X130416278Y-93811207D01*
X130496046Y-93749999D01*
X139067443Y-93749999D01*
X139080757Y-93851126D01*
X139085590Y-93887836D01*
X139116378Y-93962164D01*
X139138793Y-94016278D01*
X139223425Y-94126574D01*
X139266973Y-94159989D01*
X139333722Y-94211207D01*
X139462164Y-94264410D01*
X139600000Y-94282556D01*
X139737836Y-94264410D01*
X139866278Y-94211207D01*
X139976574Y-94126574D01*
X139976576Y-94126571D01*
X139989524Y-94116636D01*
X139991802Y-94119604D01*
X140025761Y-94094810D01*
X140067706Y-94087500D01*
X152736521Y-94087500D01*
X152803560Y-94107185D01*
X152849315Y-94159989D01*
X152859460Y-94195315D01*
X152875590Y-94317835D01*
X152928793Y-94446278D01*
X153013425Y-94556574D01*
X153043181Y-94579406D01*
X153084384Y-94635834D01*
X153088539Y-94705580D01*
X153054327Y-94766500D01*
X153036312Y-94778384D01*
X153036673Y-94778855D01*
X152913425Y-94873425D01*
X152828793Y-94983721D01*
X152775590Y-95112164D01*
X152757443Y-95249999D01*
X152770921Y-95352368D01*
X152775590Y-95387836D01*
X152785677Y-95412188D01*
X152828793Y-95516278D01*
X152913425Y-95626574D01*
X152993263Y-95687835D01*
X153023722Y-95711207D01*
X153152164Y-95764410D01*
X153290000Y-95782556D01*
X153427836Y-95764410D01*
X153556278Y-95711207D01*
X153666574Y-95626574D01*
X153666576Y-95626571D01*
X153679524Y-95616636D01*
X153681802Y-95619604D01*
X153715761Y-95594810D01*
X153757706Y-95587500D01*
X153958841Y-95587500D01*
X154025880Y-95607185D01*
X154046522Y-95623819D01*
X155897106Y-97474403D01*
X155904414Y-97482378D01*
X155929713Y-97512528D01*
X155954042Y-97526574D01*
X155963793Y-97532204D01*
X155972915Y-97538015D01*
X155985798Y-97547035D01*
X156005166Y-97560597D01*
X156005167Y-97560597D01*
X156005784Y-97561029D01*
X156032047Y-97571907D01*
X156032787Y-97572037D01*
X156032788Y-97572038D01*
X156071538Y-97578870D01*
X156082098Y-97581210D01*
X156120131Y-97591402D01*
X156159334Y-97587972D01*
X156170142Y-97587500D01*
X158110734Y-97587500D01*
X158177773Y-97607185D01*
X158183165Y-97610976D01*
X158183721Y-97611206D01*
X158183722Y-97611207D01*
X158312164Y-97664410D01*
X158450000Y-97682556D01*
X158587836Y-97664410D01*
X158716278Y-97611207D01*
X158826574Y-97526574D01*
X158911207Y-97416278D01*
X158964410Y-97287836D01*
X158982556Y-97150000D01*
X158964410Y-97012164D01*
X158911207Y-96883722D01*
X158858022Y-96814410D01*
X158826574Y-96773425D01*
X158716278Y-96688793D01*
X158680128Y-96673819D01*
X158587836Y-96635590D01*
X158571800Y-96633478D01*
X158450000Y-96617443D01*
X158312164Y-96635590D01*
X158183721Y-96688793D01*
X158073425Y-96773425D01*
X158003937Y-96863986D01*
X157947509Y-96905189D01*
X157905561Y-96912500D01*
X156341159Y-96912500D01*
X156274120Y-96892815D01*
X156253478Y-96876181D01*
X154402898Y-95025601D01*
X154395589Y-95017625D01*
X154370287Y-94987471D01*
X154336195Y-94967788D01*
X154327072Y-94961976D01*
X154294218Y-94938971D01*
X154267953Y-94928092D01*
X154228449Y-94921126D01*
X154217892Y-94918785D01*
X154179870Y-94908597D01*
X154143394Y-94911788D01*
X154140661Y-94912028D01*
X154129855Y-94912500D01*
X153757706Y-94912500D01*
X153690667Y-94892815D01*
X153679884Y-94882895D01*
X153679525Y-94883364D01*
X153666572Y-94873425D01*
X153636816Y-94850592D01*
X153595614Y-94794165D01*
X153591459Y-94724419D01*
X153625671Y-94663499D01*
X153643687Y-94651616D01*
X153643326Y-94651145D01*
X153656276Y-94641207D01*
X153656278Y-94641207D01*
X153766574Y-94556574D01*
X153766575Y-94556571D01*
X153779524Y-94546636D01*
X153781802Y-94549604D01*
X153815761Y-94524810D01*
X153857706Y-94517500D01*
X154688841Y-94517500D01*
X154755880Y-94537185D01*
X154776522Y-94553819D01*
X155997106Y-95774403D01*
X156004414Y-95782378D01*
X156026867Y-95809137D01*
X156029713Y-95812528D01*
X156036614Y-95816512D01*
X156063793Y-95832204D01*
X156072915Y-95838015D01*
X156085798Y-95847035D01*
X156105166Y-95860597D01*
X156105167Y-95860597D01*
X156105784Y-95861029D01*
X156132047Y-95871907D01*
X156132787Y-95872037D01*
X156132788Y-95872038D01*
X156171538Y-95878870D01*
X156182093Y-95881209D01*
X156220131Y-95891402D01*
X156220131Y-95891401D01*
X156220132Y-95891402D01*
X156242143Y-95889476D01*
X156259338Y-95887971D01*
X156270145Y-95887500D01*
X158082294Y-95887500D01*
X158149333Y-95907185D01*
X158160116Y-95917104D01*
X158160476Y-95916636D01*
X158173423Y-95926571D01*
X158173426Y-95926574D01*
X158283722Y-96011207D01*
X158412164Y-96064410D01*
X158550000Y-96082556D01*
X158687836Y-96064410D01*
X158816278Y-96011207D01*
X158926574Y-95926574D01*
X159011207Y-95816278D01*
X159064410Y-95687836D01*
X159082556Y-95550000D01*
X159064410Y-95412164D01*
X159011207Y-95283722D01*
X158985331Y-95250000D01*
X158926574Y-95173425D01*
X158816278Y-95088793D01*
X158816276Y-95088792D01*
X158687836Y-95035590D01*
X158671800Y-95033478D01*
X158550000Y-95017443D01*
X158412164Y-95035590D01*
X158283723Y-95088792D01*
X158262631Y-95104976D01*
X158173426Y-95173426D01*
X158173424Y-95173428D01*
X158160476Y-95183364D01*
X158158197Y-95180395D01*
X158124239Y-95205190D01*
X158082294Y-95212500D01*
X156441159Y-95212500D01*
X156374120Y-95192815D01*
X156353478Y-95176181D01*
X155132898Y-93955601D01*
X155125589Y-93947625D01*
X155100287Y-93917471D01*
X155066195Y-93897788D01*
X155057072Y-93891976D01*
X155024218Y-93868971D01*
X154997953Y-93858092D01*
X154958449Y-93851126D01*
X154947892Y-93848785D01*
X154909870Y-93838597D01*
X154873394Y-93841788D01*
X154870661Y-93842028D01*
X154859855Y-93842500D01*
X153857706Y-93842500D01*
X153790667Y-93822815D01*
X153779883Y-93812895D01*
X153779524Y-93813364D01*
X153766575Y-93803428D01*
X153766574Y-93803426D01*
X153720262Y-93767890D01*
X153679062Y-93711464D01*
X153674907Y-93641718D01*
X153709120Y-93580797D01*
X153720265Y-93571140D01*
X153724689Y-93567745D01*
X153724692Y-93567744D01*
X153834988Y-93483111D01*
X153834988Y-93483109D01*
X153847939Y-93473173D01*
X153850216Y-93476141D01*
X153884175Y-93451347D01*
X153926120Y-93444037D01*
X157415378Y-93444037D01*
X157482417Y-93463722D01*
X157503059Y-93480356D01*
X158030632Y-94007929D01*
X158064117Y-94069252D01*
X158064728Y-94083892D01*
X158065313Y-94083816D01*
X158077976Y-94180000D01*
X158085590Y-94237836D01*
X158126339Y-94336212D01*
X158138793Y-94366278D01*
X158223425Y-94476574D01*
X158286153Y-94524706D01*
X158333722Y-94561207D01*
X158462164Y-94614410D01*
X158583964Y-94630444D01*
X158599999Y-94632556D01*
X158599999Y-94632555D01*
X158600000Y-94632556D01*
X158737836Y-94614410D01*
X158866278Y-94561207D01*
X158976574Y-94476574D01*
X159061207Y-94366278D01*
X159114410Y-94237836D01*
X159132556Y-94100000D01*
X159114410Y-93962164D01*
X159061207Y-93833722D01*
X159010694Y-93767892D01*
X158976574Y-93723425D01*
X158866278Y-93638793D01*
X158823194Y-93620947D01*
X158737836Y-93585590D01*
X158698908Y-93580465D01*
X158583816Y-93565313D01*
X158584304Y-93561604D01*
X158542733Y-93555112D01*
X158507929Y-93530632D01*
X157859435Y-92882138D01*
X157852126Y-92874162D01*
X157826824Y-92844008D01*
X157792732Y-92824325D01*
X157783609Y-92818513D01*
X157750755Y-92795508D01*
X157724490Y-92784629D01*
X157684986Y-92777663D01*
X157674429Y-92775322D01*
X157636407Y-92765134D01*
X157599931Y-92768325D01*
X157597198Y-92768565D01*
X157586392Y-92769037D01*
X153926120Y-92769037D01*
X153859081Y-92749352D01*
X153848297Y-92739432D01*
X153847938Y-92739901D01*
X153834989Y-92729965D01*
X153834988Y-92729963D01*
X153724692Y-92645330D01*
X153723212Y-92644717D01*
X153639041Y-92609852D01*
X153596250Y-92592127D01*
X153579691Y-92589947D01*
X153458414Y-92573980D01*
X153320578Y-92592127D01*
X153192137Y-92645329D01*
X153192135Y-92645330D01*
X153192136Y-92645330D01*
X153137990Y-92686876D01*
X153072823Y-92712070D01*
X153062506Y-92712500D01*
X140767706Y-92712500D01*
X140700667Y-92692815D01*
X140689883Y-92682895D01*
X140689524Y-92683364D01*
X140676575Y-92673428D01*
X140676574Y-92673426D01*
X140566278Y-92588793D01*
X140437836Y-92535590D01*
X140419688Y-92533200D01*
X140299999Y-92517443D01*
X140162164Y-92535590D01*
X140033721Y-92588793D01*
X139923425Y-92673425D01*
X139838793Y-92783721D01*
X139785590Y-92912164D01*
X139767443Y-93050000D01*
X139771737Y-93082614D01*
X139760971Y-93151649D01*
X139714591Y-93203904D01*
X139647321Y-93222789D01*
X139632614Y-93221737D01*
X139600000Y-93217443D01*
X139462164Y-93235590D01*
X139333721Y-93288793D01*
X139223425Y-93373425D01*
X139138793Y-93483721D01*
X139085590Y-93612164D01*
X139067443Y-93749999D01*
X130496046Y-93749999D01*
X130526574Y-93726574D01*
X130611207Y-93616278D01*
X130664410Y-93487836D01*
X130682556Y-93350000D01*
X130682555Y-93349999D01*
X130684687Y-93333814D01*
X130688396Y-93334302D01*
X130694874Y-93292760D01*
X130719364Y-93257931D01*
X136053477Y-87923819D01*
X136114801Y-87890334D01*
X136141159Y-87887500D01*
X149532294Y-87887500D01*
X149599333Y-87907185D01*
X149610116Y-87917104D01*
X149610476Y-87916636D01*
X149623423Y-87926571D01*
X149623426Y-87926574D01*
X149733722Y-88011207D01*
X149862164Y-88064410D01*
X149983964Y-88080444D01*
X149999999Y-88082556D01*
X149999999Y-88082555D01*
X150000000Y-88082556D01*
X150137836Y-88064410D01*
X150266278Y-88011207D01*
X150376574Y-87926574D01*
X150461207Y-87816278D01*
X150514410Y-87687836D01*
X150532556Y-87550000D01*
X150514410Y-87412164D01*
X150461207Y-87283722D01*
X150418421Y-87227962D01*
X150376574Y-87173425D01*
X150266278Y-87088793D01*
X150266276Y-87088792D01*
X150137836Y-87035590D01*
X150121800Y-87033478D01*
X150000000Y-87017443D01*
X149862164Y-87035590D01*
X149733723Y-87088792D01*
X149733721Y-87088793D01*
X149733722Y-87088793D01*
X149623426Y-87173426D01*
X149623424Y-87173428D01*
X149610476Y-87183364D01*
X149608197Y-87180395D01*
X149574239Y-87205190D01*
X149532294Y-87212500D01*
X135970145Y-87212500D01*
X135959338Y-87212028D01*
X135956605Y-87211788D01*
X135920130Y-87208597D01*
X135882108Y-87218785D01*
X135871552Y-87221126D01*
X135832047Y-87228092D01*
X135805780Y-87238973D01*
X135772918Y-87261982D01*
X135763801Y-87267789D01*
X135729714Y-87287469D01*
X135704414Y-87317621D01*
X135697107Y-87325594D01*
X130242069Y-92780632D01*
X130180746Y-92814117D01*
X130166107Y-92814728D01*
X130166184Y-92815313D01*
X130012164Y-92835590D01*
X129883721Y-92888793D01*
X129773425Y-92973425D01*
X129688793Y-93083721D01*
X129635590Y-93212164D01*
X129617443Y-93349999D01*
X126258166Y-93349999D01*
X126194958Y-93179332D01*
X126177703Y-93151649D01*
X126091701Y-93013671D01*
X125957212Y-92872188D01*
X125957211Y-92872187D01*
X125957210Y-92872186D01*
X125796995Y-92760674D01*
X125617611Y-92683694D01*
X125613723Y-92682895D01*
X125426402Y-92644400D01*
X123781521Y-92644400D01*
X123778410Y-92644716D01*
X123778397Y-92644717D01*
X123635992Y-92659198D01*
X123479620Y-92708260D01*
X123409763Y-92709547D01*
X123350299Y-92672862D01*
X123320108Y-92609852D01*
X123318500Y-92589947D01*
X123318500Y-92077204D01*
X123338185Y-92010165D01*
X123390989Y-91964410D01*
X123460147Y-91954466D01*
X123491393Y-91963251D01*
X123541389Y-91984706D01*
X123732598Y-92024000D01*
X123732600Y-92024000D01*
X125374337Y-92024000D01*
X125377479Y-92024000D01*
X125523003Y-92009202D01*
X125709255Y-91950765D01*
X125879931Y-91856032D01*
X126028044Y-91728881D01*
X126147530Y-91574518D01*
X126233496Y-91399263D01*
X126282425Y-91210290D01*
X126292312Y-91015336D01*
X126267953Y-90856329D01*
X126262752Y-90822382D01*
X126194958Y-90639332D01*
X126160517Y-90584076D01*
X126091701Y-90473671D01*
X125957212Y-90332188D01*
X125957211Y-90332187D01*
X125957210Y-90332186D01*
X125796995Y-90220674D01*
X125617611Y-90143694D01*
X125617611Y-90143693D01*
X125426402Y-90104400D01*
X123781521Y-90104400D01*
X123778410Y-90104716D01*
X123778397Y-90104717D01*
X123635992Y-90119198D01*
X123479620Y-90168260D01*
X123409763Y-90169547D01*
X123350299Y-90132862D01*
X123320108Y-90069852D01*
X123318500Y-90049947D01*
X123318500Y-89584540D01*
X123338185Y-89517501D01*
X123390989Y-89471746D01*
X123460147Y-89461802D01*
X123491401Y-89470590D01*
X123528297Y-89486423D01*
X123728175Y-89527500D01*
X124452500Y-89527500D01*
X124452500Y-89006333D01*
X124544077Y-89019500D01*
X124614923Y-89019500D01*
X124706500Y-89006333D01*
X124706500Y-89527500D01*
X125376537Y-89527500D01*
X125382802Y-89527182D01*
X125531808Y-89512029D01*
X125726496Y-89450946D01*
X125904906Y-89351921D01*
X126059737Y-89219001D01*
X126184635Y-89057648D01*
X126274498Y-88874448D01*
X126325644Y-88676909D01*
X126326949Y-88651200D01*
X125058419Y-88651200D01*
X125074800Y-88595413D01*
X125074800Y-88452987D01*
X125058419Y-88397200D01*
X126324349Y-88397200D01*
X126324348Y-88397199D01*
X126305081Y-88271422D01*
X126234214Y-88080075D01*
X126126275Y-87906904D01*
X125985693Y-87759013D01*
X125818214Y-87642444D01*
X125630700Y-87561975D01*
X125430825Y-87520900D01*
X124706500Y-87520900D01*
X124706500Y-88042066D01*
X124614923Y-88028900D01*
X124544077Y-88028900D01*
X124452500Y-88042066D01*
X124452500Y-87520900D01*
X123782463Y-87520900D01*
X123776197Y-87521217D01*
X123627196Y-87536370D01*
X123479620Y-87582671D01*
X123409762Y-87583957D01*
X123350298Y-87547272D01*
X123320108Y-87484261D01*
X123318500Y-87464357D01*
X123318500Y-86997204D01*
X123338185Y-86930165D01*
X123390989Y-86884410D01*
X123460147Y-86874466D01*
X123491393Y-86883251D01*
X123541389Y-86904706D01*
X123732598Y-86944000D01*
X123732600Y-86944000D01*
X125374337Y-86944000D01*
X125377479Y-86944000D01*
X125523003Y-86929202D01*
X125709255Y-86870765D01*
X125879931Y-86776032D01*
X126028044Y-86648881D01*
X126147530Y-86494518D01*
X126233496Y-86319263D01*
X126282425Y-86130290D01*
X126292312Y-85935336D01*
X126262752Y-85742383D01*
X126228216Y-85649133D01*
X126194958Y-85559332D01*
X126194957Y-85559330D01*
X126091701Y-85393671D01*
X125957212Y-85252188D01*
X125957211Y-85252187D01*
X125957210Y-85252186D01*
X125796995Y-85140674D01*
X125617611Y-85063694D01*
X125564901Y-85052862D01*
X125426402Y-85024400D01*
X123781521Y-85024400D01*
X123778410Y-85024716D01*
X123778397Y-85024717D01*
X123635992Y-85039198D01*
X123479620Y-85088260D01*
X123409763Y-85089547D01*
X123350299Y-85052862D01*
X123320108Y-84989852D01*
X123318500Y-84969947D01*
X123318500Y-84504540D01*
X123338185Y-84437501D01*
X123390989Y-84391746D01*
X123460147Y-84381802D01*
X123491401Y-84390590D01*
X123528297Y-84406423D01*
X123728175Y-84447500D01*
X124452500Y-84447500D01*
X124452500Y-83926333D01*
X124544077Y-83939500D01*
X124614923Y-83939500D01*
X124706500Y-83926333D01*
X124706500Y-84447500D01*
X125376537Y-84447500D01*
X125382802Y-84447182D01*
X125531808Y-84432029D01*
X125726496Y-84370946D01*
X125904906Y-84271921D01*
X126059737Y-84139001D01*
X126184635Y-83977648D01*
X126274498Y-83794448D01*
X126325644Y-83596909D01*
X126326949Y-83571200D01*
X125058419Y-83571200D01*
X125074800Y-83515413D01*
X125074800Y-83372987D01*
X125058419Y-83317200D01*
X126324349Y-83317200D01*
X126324348Y-83317199D01*
X126305081Y-83191422D01*
X126234214Y-83000075D01*
X126126275Y-82826904D01*
X125985693Y-82679013D01*
X125818214Y-82562444D01*
X125630700Y-82481975D01*
X125430825Y-82440900D01*
X124706500Y-82440900D01*
X124706500Y-82962066D01*
X124614923Y-82948900D01*
X124544077Y-82948900D01*
X124452500Y-82962066D01*
X124452500Y-82440900D01*
X123782463Y-82440900D01*
X123776197Y-82441217D01*
X123627196Y-82456370D01*
X123479620Y-82502671D01*
X123409762Y-82503957D01*
X123350298Y-82467272D01*
X123320108Y-82404261D01*
X123318500Y-82384357D01*
X123318500Y-81917204D01*
X123338185Y-81850165D01*
X123390989Y-81804410D01*
X123460147Y-81794466D01*
X123491393Y-81803251D01*
X123541389Y-81824706D01*
X123732598Y-81864000D01*
X123732600Y-81864000D01*
X125374337Y-81864000D01*
X125377479Y-81864000D01*
X125523003Y-81849202D01*
X125709255Y-81790765D01*
X125879931Y-81696032D01*
X126028044Y-81568881D01*
X126147530Y-81414518D01*
X126233496Y-81239263D01*
X126282425Y-81050290D01*
X126292312Y-80855336D01*
X126262752Y-80662383D01*
X126228216Y-80569133D01*
X126194958Y-80479332D01*
X126194957Y-80479330D01*
X126091701Y-80313671D01*
X125957212Y-80172188D01*
X125957211Y-80172187D01*
X125957210Y-80172186D01*
X125796995Y-80060674D01*
X125617611Y-79983694D01*
X125564901Y-79972862D01*
X125426402Y-79944400D01*
X123781521Y-79944400D01*
X123778410Y-79944716D01*
X123778397Y-79944717D01*
X123635992Y-79959198D01*
X123479620Y-80008260D01*
X123409763Y-80009547D01*
X123350299Y-79972862D01*
X123320108Y-79909852D01*
X123318500Y-79889947D01*
X123318500Y-79424540D01*
X123338185Y-79357501D01*
X123390989Y-79311746D01*
X123460147Y-79301802D01*
X123491401Y-79310590D01*
X123528297Y-79326423D01*
X123728175Y-79367500D01*
X124452500Y-79367500D01*
X124452500Y-78846333D01*
X124544077Y-78859500D01*
X124614923Y-78859500D01*
X124706500Y-78846333D01*
X124706500Y-79367500D01*
X125376537Y-79367500D01*
X125382802Y-79367182D01*
X125531808Y-79352029D01*
X125726496Y-79290946D01*
X125904906Y-79191921D01*
X126059737Y-79059001D01*
X126184635Y-78897648D01*
X126274498Y-78714448D01*
X126325644Y-78516909D01*
X126326949Y-78491200D01*
X125058419Y-78491200D01*
X125074800Y-78435413D01*
X125074800Y-78292987D01*
X125058419Y-78237200D01*
X126324349Y-78237200D01*
X126324348Y-78237199D01*
X126305081Y-78111422D01*
X126234214Y-77920075D01*
X126126275Y-77746904D01*
X125985693Y-77599013D01*
X125818214Y-77482444D01*
X125630700Y-77401975D01*
X125430825Y-77360900D01*
X124706500Y-77360900D01*
X124706500Y-77882066D01*
X124614923Y-77868900D01*
X124544077Y-77868900D01*
X124452500Y-77882066D01*
X124452500Y-77360900D01*
X123782463Y-77360900D01*
X123776197Y-77361217D01*
X123627196Y-77376370D01*
X123479620Y-77422671D01*
X123409762Y-77423957D01*
X123350298Y-77387272D01*
X123320108Y-77324261D01*
X123318500Y-77304357D01*
X123318500Y-76837204D01*
X123338185Y-76770165D01*
X123390989Y-76724410D01*
X123460147Y-76714466D01*
X123491393Y-76723251D01*
X123541389Y-76744706D01*
X123732598Y-76784000D01*
X123732600Y-76784000D01*
X125374337Y-76784000D01*
X125377479Y-76784000D01*
X125523003Y-76769202D01*
X125709255Y-76710765D01*
X125879931Y-76616032D01*
X126028044Y-76488881D01*
X126147530Y-76334518D01*
X126233496Y-76159263D01*
X126282425Y-75970290D01*
X126292312Y-75775336D01*
X126267953Y-75616329D01*
X126262752Y-75582382D01*
X126194958Y-75399332D01*
X126160517Y-75344076D01*
X126091701Y-75233671D01*
X125957212Y-75092188D01*
X125957211Y-75092187D01*
X125957210Y-75092186D01*
X125796995Y-74980674D01*
X125617611Y-74903694D01*
X125617611Y-74903693D01*
X125426402Y-74864400D01*
X123781521Y-74864400D01*
X123778410Y-74864716D01*
X123778397Y-74864717D01*
X123635992Y-74879198D01*
X123479620Y-74928260D01*
X123409763Y-74929547D01*
X123350299Y-74892862D01*
X123320108Y-74829852D01*
X123318500Y-74809947D01*
X123318500Y-70744200D01*
X126269028Y-70744200D01*
X126269210Y-70747556D01*
X126288720Y-71107411D01*
X126288721Y-71107422D01*
X126288903Y-71110775D01*
X126289447Y-71114096D01*
X126289448Y-71114101D01*
X126347750Y-71469732D01*
X126347753Y-71469747D01*
X126348295Y-71473051D01*
X126446508Y-71826783D01*
X126582391Y-72167822D01*
X126583961Y-72170784D01*
X126583966Y-72170794D01*
X126706745Y-72402379D01*
X126754350Y-72492171D01*
X126960369Y-72796026D01*
X127198033Y-73075826D01*
X127200464Y-73078129D01*
X127200470Y-73078135D01*
X127383953Y-73251939D01*
X127464555Y-73328289D01*
X127756811Y-73550456D01*
X128071374Y-73739723D01*
X128404557Y-73893870D01*
X128752453Y-74011089D01*
X129110983Y-74090008D01*
X129475944Y-74129700D01*
X129479302Y-74129700D01*
X129839698Y-74129700D01*
X129843056Y-74129700D01*
X130208017Y-74090008D01*
X130566547Y-74011089D01*
X130914443Y-73893870D01*
X131247626Y-73739723D01*
X131562189Y-73550456D01*
X131854445Y-73328289D01*
X132120967Y-73075826D01*
X132358631Y-72796026D01*
X132564650Y-72492171D01*
X132736609Y-72167822D01*
X132872492Y-71826783D01*
X132970705Y-71473051D01*
X133030097Y-71110775D01*
X133049972Y-70744200D01*
X164369028Y-70744200D01*
X164369210Y-70747556D01*
X164388720Y-71107411D01*
X164388721Y-71107422D01*
X164388903Y-71110775D01*
X164389447Y-71114096D01*
X164389448Y-71114101D01*
X164447750Y-71469732D01*
X164447753Y-71469747D01*
X164448295Y-71473051D01*
X164546508Y-71826783D01*
X164682391Y-72167822D01*
X164683961Y-72170784D01*
X164683966Y-72170794D01*
X164806745Y-72402379D01*
X164854350Y-72492171D01*
X165060369Y-72796026D01*
X165298033Y-73075826D01*
X165300464Y-73078129D01*
X165300470Y-73078135D01*
X165483953Y-73251939D01*
X165564555Y-73328289D01*
X165856811Y-73550456D01*
X166171374Y-73739723D01*
X166504557Y-73893870D01*
X166852453Y-74011089D01*
X167210983Y-74090008D01*
X167575944Y-74129700D01*
X167579302Y-74129700D01*
X167939698Y-74129700D01*
X167943056Y-74129700D01*
X168308017Y-74090008D01*
X168666547Y-74011089D01*
X169014443Y-73893870D01*
X169347626Y-73739723D01*
X169662189Y-73550456D01*
X169954445Y-73328289D01*
X170220967Y-73075826D01*
X170458631Y-72796026D01*
X170664650Y-72492171D01*
X170836609Y-72167822D01*
X170972492Y-71826783D01*
X171070705Y-71473051D01*
X171130097Y-71110775D01*
X171149972Y-70744200D01*
X171130097Y-70377625D01*
X171070705Y-70015349D01*
X170972492Y-69661617D01*
X170836609Y-69320578D01*
X170664650Y-68996229D01*
X170458631Y-68692374D01*
X170220967Y-68412574D01*
X170218534Y-68410269D01*
X170218529Y-68410264D01*
X169956875Y-68162413D01*
X169954445Y-68160111D01*
X169662189Y-67937944D01*
X169659315Y-67936215D01*
X169659311Y-67936212D01*
X169350508Y-67750411D01*
X169350507Y-67750410D01*
X169347626Y-67748677D01*
X169014443Y-67594530D01*
X168954361Y-67574286D01*
X168669722Y-67478380D01*
X168669708Y-67478376D01*
X168666547Y-67477311D01*
X168663280Y-67476592D01*
X168663277Y-67476591D01*
X168311298Y-67399114D01*
X168311294Y-67399113D01*
X168308017Y-67398392D01*
X168304678Y-67398028D01*
X168304673Y-67398028D01*
X167946394Y-67359063D01*
X167946393Y-67359062D01*
X167943056Y-67358700D01*
X167575944Y-67358700D01*
X167572607Y-67359062D01*
X167572605Y-67359063D01*
X167214326Y-67398028D01*
X167214318Y-67398029D01*
X167210983Y-67398392D01*
X167207708Y-67399112D01*
X167207701Y-67399114D01*
X166855722Y-67476591D01*
X166855714Y-67476593D01*
X166852453Y-67477311D01*
X166849295Y-67478374D01*
X166849277Y-67478380D01*
X166507744Y-67593456D01*
X166507741Y-67593457D01*
X166504557Y-67594530D01*
X166501508Y-67595940D01*
X166501502Y-67595943D01*
X166174429Y-67747263D01*
X166174420Y-67747267D01*
X166171374Y-67748677D01*
X166168500Y-67750406D01*
X166168491Y-67750411D01*
X165859688Y-67936212D01*
X165859675Y-67936220D01*
X165856811Y-67937944D01*
X165854153Y-67939964D01*
X165854142Y-67939972D01*
X165567214Y-68158089D01*
X165567206Y-68158095D01*
X165564555Y-68160111D01*
X165562131Y-68162406D01*
X165562124Y-68162413D01*
X165300470Y-68410264D01*
X165300455Y-68410279D01*
X165298033Y-68412574D01*
X165295870Y-68415119D01*
X165295859Y-68415132D01*
X165062542Y-68689815D01*
X165062536Y-68689822D01*
X165060369Y-68692374D01*
X165058488Y-68695146D01*
X165058482Y-68695156D01*
X164856240Y-68993440D01*
X164856232Y-68993452D01*
X164854350Y-68996229D01*
X164852775Y-68999199D01*
X164852773Y-68999203D01*
X164683966Y-69317605D01*
X164683957Y-69317622D01*
X164682391Y-69320578D01*
X164681150Y-69323690D01*
X164681146Y-69323701D01*
X164547756Y-69658484D01*
X164546508Y-69661617D01*
X164448295Y-70015349D01*
X164447754Y-70018648D01*
X164447750Y-70018667D01*
X164389448Y-70374298D01*
X164388903Y-70377625D01*
X164388721Y-70380975D01*
X164388720Y-70380988D01*
X164369210Y-70740843D01*
X164369028Y-70744200D01*
X133049972Y-70744200D01*
X133030097Y-70377625D01*
X132970705Y-70015349D01*
X132872492Y-69661617D01*
X132736609Y-69320578D01*
X132564650Y-68996229D01*
X132358631Y-68692374D01*
X132120967Y-68412574D01*
X132118534Y-68410269D01*
X132118529Y-68410264D01*
X131856875Y-68162413D01*
X131854445Y-68160111D01*
X131562189Y-67937944D01*
X131559315Y-67936215D01*
X131559311Y-67936212D01*
X131250508Y-67750411D01*
X131250507Y-67750410D01*
X131247626Y-67748677D01*
X130914443Y-67594530D01*
X130854361Y-67574286D01*
X130569722Y-67478380D01*
X130569708Y-67478376D01*
X130566547Y-67477311D01*
X130563280Y-67476592D01*
X130563277Y-67476591D01*
X130211298Y-67399114D01*
X130211294Y-67399113D01*
X130208017Y-67398392D01*
X130204678Y-67398028D01*
X130204673Y-67398028D01*
X129846394Y-67359063D01*
X129846393Y-67359062D01*
X129843056Y-67358700D01*
X129475944Y-67358700D01*
X129472607Y-67359062D01*
X129472605Y-67359063D01*
X129114326Y-67398028D01*
X129114318Y-67398029D01*
X129110983Y-67398392D01*
X129107708Y-67399112D01*
X129107701Y-67399114D01*
X128755722Y-67476591D01*
X128755714Y-67476593D01*
X128752453Y-67477311D01*
X128749295Y-67478374D01*
X128749277Y-67478380D01*
X128407744Y-67593456D01*
X128407741Y-67593457D01*
X128404557Y-67594530D01*
X128401508Y-67595940D01*
X128401502Y-67595943D01*
X128074429Y-67747263D01*
X128074420Y-67747267D01*
X128071374Y-67748677D01*
X128068500Y-67750406D01*
X128068491Y-67750411D01*
X127759688Y-67936212D01*
X127759675Y-67936220D01*
X127756811Y-67937944D01*
X127754153Y-67939964D01*
X127754142Y-67939972D01*
X127467214Y-68158089D01*
X127467206Y-68158095D01*
X127464555Y-68160111D01*
X127462131Y-68162406D01*
X127462124Y-68162413D01*
X127200470Y-68410264D01*
X127200455Y-68410279D01*
X127198033Y-68412574D01*
X127195870Y-68415119D01*
X127195859Y-68415132D01*
X126962542Y-68689815D01*
X126962536Y-68689822D01*
X126960369Y-68692374D01*
X126958488Y-68695146D01*
X126958482Y-68695156D01*
X126756240Y-68993440D01*
X126756232Y-68993452D01*
X126754350Y-68996229D01*
X126752775Y-68999199D01*
X126752773Y-68999203D01*
X126583966Y-69317605D01*
X126583957Y-69317622D01*
X126582391Y-69320578D01*
X126581150Y-69323690D01*
X126581146Y-69323701D01*
X126447756Y-69658484D01*
X126446508Y-69661617D01*
X126348295Y-70015349D01*
X126347754Y-70018648D01*
X126347750Y-70018667D01*
X126289448Y-70374298D01*
X126288903Y-70377625D01*
X126288721Y-70380975D01*
X126288720Y-70380988D01*
X126269210Y-70740843D01*
X126269028Y-70744200D01*
X123318500Y-70744200D01*
X123318500Y-64012000D01*
X123338185Y-63944961D01*
X123390989Y-63899206D01*
X123442500Y-63888000D01*
X173994500Y-63888000D01*
X174061539Y-63907685D01*
G37*
%TD.AperFunction*%
%TD*%
M02*
