M48
; DRILL file {KiCad 7.0.2} date Sat May 27 02:32:33 2023
; FORMAT={-:-/ absolute / inch / decimal}
; #@! TF.CreationDate,2023-05-27T02:32:33-07:00
; #@! TF.GenerationSoftware,Kicad,Pcbnew,7.0.2
; #@! TF.FileFunction,Plated,1,2,PTH
FMAT,2
INCH
; #@! TA.AperFunction,Plated,PTH,ViaDrill
T1C0.0118
; #@! TA.AperFunction,Plated,PTH,ViaDrill
T2C0.0120
; #@! TA.AperFunction,Plated,PTH,ViaDrill
T3C0.0280
; #@! TA.AperFunction,Plated,PTH,ComponentDrill
T4C0.0390
; #@! TA.AperFunction,Plated,PTH,ComponentDrill
T5C0.0394
; #@! TA.AperFunction,Plated,PTH,ComponentDrill
T6C0.1340
%
G90
G05
T1
X5.0181Y-2.7852
X5.0435Y-2.724
X5.0435Y-2.8465
X5.1047Y-2.6986
X5.1047Y-2.8718
X5.166Y-2.724
X5.166Y-2.8465
X5.1913Y-2.7852
X6.5181Y-2.7852
X6.5435Y-2.724
X6.5435Y-2.8465
X6.6047Y-2.6986
X6.6047Y-2.8718
X6.666Y-2.724
X6.666Y-2.8465
X6.6913Y-2.7852
T2
X5.06Y-4.1535
X5.063Y-4.2539
X5.0634Y-3.2835
X5.0906Y-4.498
X5.1213Y-3.4878
X5.124Y-3.6752
X5.1634Y-4.3169
X5.1831Y-3.0217
X5.202Y-3.9852
X5.206Y-2.5281
X5.2634Y-3.2835
X5.2879Y-2.8518
X5.2933Y-4.1811
X5.3106Y-4.5236
X5.3831Y-3.0217
X5.3922Y-2.6817
X5.406Y-2.5281
X5.4154Y-4.3537
X5.472Y-4.2028
X5.4843Y-2.8346
X5.4961Y-3.6909
X5.5106Y-4.5236
X5.5236Y-3.6634
X5.5769Y-4.0329
X5.5922Y-2.6817
X5.606Y-2.5281
X5.6154Y-4.3537
X5.6378Y-3.3071
X5.6394Y-4.8906
X5.672Y-4.2028
X5.6879Y-2.8518
X5.7106Y-4.5236
X5.7181Y-4.7852
X5.7435Y-4.724
X5.7435Y-4.8465
X5.7461Y-3.7913
X5.75Y-3.878
X5.7579Y-3.187
X5.7831Y-3.0217
X5.7922Y-2.6817
X5.7992Y-4.1555
X5.8047Y-4.6986
X5.8047Y-4.8718
X5.806Y-2.5281
X5.8602Y-4.3858
X5.866Y-4.724
X5.866Y-4.8465
X5.8879Y-2.8518
X5.8898Y-3.189
X5.8913Y-4.7852
X5.8976Y-3.9852
X5.9012Y-3.5067
X5.9016Y-3.372
X5.9055Y-3.4469
X5.9831Y-3.0217
X5.9922Y-2.6817
X6.006Y-2.5281
X6.0177Y-3.2657
X6.035Y-3.75
X6.039Y-3.7079
X6.0417Y-3.6656
X6.0879Y-2.8518
X6.1196Y-4.8145
X6.1831Y-3.0217
X6.1922Y-2.6817
X6.1965Y-3.5669
X6.206Y-2.5281
X6.2382Y-3.8248
X6.2421Y-3.7618
X6.2441Y-3.7047
X6.2603Y-4.8784
X6.2667Y-4.6703
X6.2879Y-2.8518
X6.3504Y-4.8593
X6.3623Y-3.7278
X6.3831Y-3.0217
X6.3922Y-2.6817
X6.4016Y-4.5039
X6.4085Y-4.627
X6.4232Y-3.8898
X6.4327Y-3.411
X6.4449Y-4.7441
X6.5623Y-3.7278
X6.5689Y-3.9213
X6.5965Y-3.5669
T3
X6.003Y-4.6321
X6.0594Y-3.5862
X6.1535Y-3.378
X6.1634Y-4.3839
X6.2992Y-3.378
T4
X4.9047Y-2.9852
X4.9047Y-3.0852
X4.9047Y-3.1852
X4.9047Y-3.2852
X4.9047Y-3.3852
X4.9047Y-3.4852
X4.9047Y-3.5852
X4.9047Y-3.6852
X4.9047Y-3.7852
X4.9047Y-3.8852
X4.9047Y-3.9852
X4.9047Y-4.0852
X4.9047Y-4.1852
X4.9047Y-4.2852
X4.9047Y-4.3852
X4.9047Y-4.4852
X4.9047Y-4.5852
X4.9047Y-4.6852
X4.9047Y-4.7852
X4.9047Y-4.8852
X4.9047Y-5.0852
X5.0047Y-5.0852
X5.1047Y-5.0852
X5.2047Y-5.0852
X5.3047Y-5.0852
X5.4047Y-5.0852
X5.5047Y-5.0852
X5.6047Y-5.0852
X5.7047Y-5.0852
X5.8047Y-5.0852
X5.9047Y-5.0852
X6.0047Y-5.0852
X6.1047Y-5.0852
X6.2047Y-5.0852
X6.3047Y-5.0852
X6.4047Y-5.0852
X6.5047Y-5.0852
X6.6047Y-5.0852
X6.7047Y-5.0852
X6.8047Y-2.9852
X6.8047Y-3.0852
X6.8047Y-3.1852
X6.8047Y-3.2852
X6.8047Y-3.3852
X6.8047Y-3.4852
X6.8047Y-3.5852
X6.8047Y-3.6852
X6.8047Y-3.7852
X6.8047Y-3.8852
X6.8047Y-3.9852
X6.8047Y-4.0852
X6.8047Y-4.1852
X6.8047Y-4.2852
X6.8047Y-4.3852
X6.8047Y-4.4852
X6.8047Y-4.5852
X6.8047Y-4.6852
X6.8047Y-4.7852
X6.8047Y-4.8852
X6.8047Y-5.0852
T5
X5.151Y-3.8445
X5.251Y-3.8445
X6.4301Y-4.1852
X6.4301Y-4.2852
X6.4301Y-4.3852
X6.5301Y-4.1852
X6.5301Y-4.2852
X6.5301Y-4.3852
T6
X5.1047Y-2.7852
X5.8047Y-4.7852
X6.6047Y-2.7852
T0
M30
