%TF.GenerationSoftware,KiCad,Pcbnew,7.0.2*%
%TF.CreationDate,2023-05-27T02:32:33-07:00*%
%TF.ProjectId,n76e003-ufo-target-board,6e373665-3030-4332-9d75-666f2d746172,rev?*%
%TF.SameCoordinates,Original*%
%TF.FileFunction,Copper,L1,Top*%
%TF.FilePolarity,Positive*%
%FSLAX46Y46*%
G04 Gerber Fmt 4.6, Leading zero omitted, Abs format (unit mm)*
G04 Created by KiCad (PCBNEW 7.0.2) date 2023-05-27 02:32:33*
%MOMM*%
%LPD*%
G01*
G04 APERTURE LIST*
G04 Aperture macros list*
%AMRoundRect*
0 Rectangle with rounded corners*
0 $1 Rounding radius*
0 $2 $3 $4 $5 $6 $7 $8 $9 X,Y pos of 4 corners*
0 Add a 4 corners polygon primitive as box body*
4,1,4,$2,$3,$4,$5,$6,$7,$8,$9,$2,$3,0*
0 Add four circle primitives for the rounded corners*
1,1,$1+$1,$2,$3*
1,1,$1+$1,$4,$5*
1,1,$1+$1,$6,$7*
1,1,$1+$1,$8,$9*
0 Add four rect primitives between the rounded corners*
20,1,$1+$1,$2,$3,$4,$5,0*
20,1,$1+$1,$4,$5,$6,$7,0*
20,1,$1+$1,$6,$7,$8,$9,0*
20,1,$1+$1,$8,$9,$2,$3,0*%
%AMFreePoly0*
4,1,19,0.500000,-0.750000,0.000000,-0.750000,0.000000,-0.744911,-0.071157,-0.744911,-0.207708,-0.704816,-0.327430,-0.627875,-0.420627,-0.520320,-0.479746,-0.390866,-0.500000,-0.250000,-0.500000,0.250000,-0.479746,0.390866,-0.420627,0.520320,-0.327430,0.627875,-0.207708,0.704816,-0.071157,0.744911,0.000000,0.744911,0.000000,0.750000,0.500000,0.750000,0.500000,-0.750000,0.500000,-0.750000,
$1*%
%AMFreePoly1*
4,1,19,0.000000,0.744911,0.071157,0.744911,0.207708,0.704816,0.327430,0.627875,0.420627,0.520320,0.479746,0.390866,0.500000,0.250000,0.500000,-0.250000,0.479746,-0.390866,0.420627,-0.520320,0.327430,-0.627875,0.207708,-0.704816,0.071157,-0.744911,0.000000,-0.744911,0.000000,-0.750000,-0.500000,-0.750000,-0.500000,0.750000,0.000000,0.750000,0.000000,0.744911,0.000000,0.744911,
$1*%
G04 Aperture macros list end*
%TA.AperFunction,SMDPad,CuDef*%
%ADD10RoundRect,0.008200X0.731800X0.196800X-0.731800X0.196800X-0.731800X-0.196800X0.731800X-0.196800X0*%
%TD*%
%TA.AperFunction,SMDPad,CuDef*%
%ADD11RoundRect,0.008200X-0.731800X-0.196800X0.731800X-0.196800X0.731800X0.196800X-0.731800X0.196800X0*%
%TD*%
%TA.AperFunction,SMDPad,CuDef*%
%ADD12RoundRect,0.250000X-0.475000X0.337500X-0.475000X-0.337500X0.475000X-0.337500X0.475000X0.337500X0*%
%TD*%
%TA.AperFunction,SMDPad,CuDef*%
%ADD13RoundRect,0.250000X-0.450000X0.350000X-0.450000X-0.350000X0.450000X-0.350000X0.450000X0.350000X0*%
%TD*%
%TA.AperFunction,ComponentPad*%
%ADD14C,1.700000*%
%TD*%
%TA.AperFunction,ComponentPad*%
%ADD15O,1.700000X1.700000*%
%TD*%
%TA.AperFunction,SMDPad,CuDef*%
%ADD16RoundRect,0.250000X0.350000X0.450000X-0.350000X0.450000X-0.350000X-0.450000X0.350000X-0.450000X0*%
%TD*%
%TA.AperFunction,SMDPad,CuDef*%
%ADD17FreePoly0,180.000000*%
%TD*%
%TA.AperFunction,SMDPad,CuDef*%
%ADD18FreePoly1,180.000000*%
%TD*%
%TA.AperFunction,SMDPad,CuDef*%
%ADD19FreePoly0,0.000000*%
%TD*%
%TA.AperFunction,SMDPad,CuDef*%
%ADD20FreePoly1,0.000000*%
%TD*%
%TA.AperFunction,ComponentPad*%
%ADD21R,1.700000X1.700000*%
%TD*%
%TA.AperFunction,ComponentPad*%
%ADD22O,2.997200X1.498600*%
%TD*%
%TA.AperFunction,ComponentPad*%
%ADD23O,1.498600X2.997200*%
%TD*%
%TA.AperFunction,ComponentPad*%
%ADD24C,6.350000*%
%TD*%
%TA.AperFunction,ViaPad*%
%ADD25C,1.270000*%
%TD*%
%TA.AperFunction,ViaPad*%
%ADD26C,0.635000*%
%TD*%
%TA.AperFunction,ViaPad*%
%ADD27C,0.600000*%
%TD*%
%TA.AperFunction,Conductor*%
%ADD28C,0.254000*%
%TD*%
%TA.AperFunction,Conductor*%
%ADD29C,0.508000*%
%TD*%
%TA.AperFunction,Conductor*%
%ADD30C,0.635000*%
%TD*%
G04 APERTURE END LIST*
D10*
%TO.P,U2,1,P0.5/PWM2/IC6/T0/AIN4*%
%TO.N,LED3*%
X151757500Y-94375000D03*
%TO.P,U2,2,P0.6/TXD/AIN3*%
%TO.N,GPI02*%
X151757500Y-93725000D03*
%TO.P,U2,3,P0.7/RXD/AIN2*%
%TO.N,GPI01*%
X151757500Y-93075000D03*
%TO.P,U2,4,P2.0/~{RST}*%
%TO.N,RST*%
X151757500Y-92425000D03*
%TO.P,U2,5,P3.0/~{INT0}/OSCIN/AIN1*%
%TO.N,CLK*%
X151757500Y-91775000D03*
%TO.P,U2,6,P1.7/~{INT1}/AIN0*%
%TO.N,unconnected-(U2-P1.7{slash}~{INT1}{slash}AIN0-Pad6)*%
X151757500Y-91125000D03*
%TO.P,U2,7,GND*%
%TO.N,GND*%
X151757500Y-90475000D03*
%TO.P,U2,8,P1.6/[SDA]/TXD_1/ICPDA/OCDDA*%
%TO.N,PDID*%
X151757500Y-89825000D03*
%TO.P,U2,9,VDD*%
%TO.N,VBUS*%
X151757500Y-89175000D03*
%TO.P,U2,10,P1.5/PWM5/IC7/~{SS}*%
%TO.N,GPI03*%
X151757500Y-88525000D03*
D11*
%TO.P,U2,11,P1.4/SDA/FB/PWM1*%
%TO.N,SDA*%
X146027500Y-88525000D03*
%TO.P,U2,12,P1.3/SCL/[STADC]*%
%TO.N,SCL*%
X146027500Y-89175000D03*
%TO.P,U2,13,P1.2/PWM0/IC0*%
%TO.N,LED2*%
X146027500Y-89825000D03*
%TO.P,U2,14,P1.1/PWM1/IC1/AIN7/CLO*%
%TO.N,CLKOUT*%
X146027500Y-90475000D03*
%TO.P,U2,15,P1.0/PWM2/IC2/SPCLK*%
%TO.N,SCK*%
X146027500Y-91125000D03*
%TO.P,U2,16,P0.0/PWM3/IC3/MOSI/T1*%
%TO.N,MOSI*%
X146027500Y-91775000D03*
%TO.P,U2,17,P0.1/PWM4/IC4/MISO*%
%TO.N,MISO*%
X146027500Y-92425000D03*
%TO.P,U2,18,P0.2/ICPCK/OCDCK/RXD_1/[SCL]*%
%TO.N,PDIC*%
X146027500Y-93075000D03*
%TO.P,U2,19,P0.3/PWM5/IC5/AIN6*%
%TO.N,LED1*%
X146027500Y-93725000D03*
%TO.P,U2,20,P0.4/AIN5/STADC/PWM3/IC3*%
%TO.N,GPI04*%
X146027500Y-94375000D03*
%TD*%
D12*
%TO.P,C2,2*%
%TO.N,GND*%
X156300000Y-84037500D03*
%TO.P,C2,1*%
%TO.N,Net-(J1-FILT_LP)*%
X156300000Y-81962500D03*
%TD*%
D13*
%TO.P,R3,1*%
%TO.N,RST*%
X150050000Y-103200000D03*
%TO.P,R3,2*%
%TO.N,VCC*%
X150050000Y-105200000D03*
%TD*%
D14*
%TO.P,JP1,1,A1*%
%TO.N,VCC*%
X163325000Y-106304200D03*
D15*
%TO.P,JP1,2,B1*%
%TO.N,+2V5*%
X165865000Y-106304200D03*
%TO.P,JP1,3,A2*%
%TO.N,VCC*%
X163325000Y-108844200D03*
%TO.P,JP1,4,B2*%
%TO.N,+3.3V*%
X165865000Y-108844200D03*
%TO.P,JP1,5,A3*%
%TO.N,VCC*%
X163325000Y-111384200D03*
%TO.P,JP1,6,B3*%
%TO.N,+5V*%
X165865000Y-111384200D03*
%TD*%
D16*
%TO.P,R1,1*%
%TO.N,CLK*%
X136240000Y-80530000D03*
%TO.P,R1,2*%
%TO.N,Net-(J1-CLKOUT)*%
X134240000Y-80530000D03*
%TD*%
D13*
%TO.P,R2,2*%
%TO.N,Net-(J1-FILT_LP)*%
X163102500Y-81965000D03*
%TO.P,R2,1*%
%TO.N,VBUS*%
X163102500Y-79965000D03*
%TD*%
D17*
%TO.P,JP4,1,A*%
%TO.N,GPI04*%
X133300000Y-94150000D03*
D18*
%TO.P,JP4,2,B*%
%TO.N,Net-(J1-GPIO4)*%
X132000000Y-94150000D03*
%TD*%
D19*
%TO.P,JP2,1,A*%
%TO.N,VCC*%
X163650000Y-101350000D03*
D20*
%TO.P,JP2,2,B*%
%TO.N,+3.3V*%
X164950000Y-101350000D03*
%TD*%
D21*
%TO.P,JP3,1,A*%
%TO.N,GPI04*%
X133375000Y-97650000D03*
D15*
%TO.P,JP3,2,B*%
%TO.N,Net-(J1-GPIO4)*%
X130835000Y-97650000D03*
%TD*%
D12*
%TO.P,C1,2*%
%TO.N,GND*%
X160000000Y-84037500D03*
%TO.P,C1,1*%
%TO.N,Net-(J1-FILT_LP)*%
X160000000Y-81962500D03*
%TD*%
D22*
%TO.P,J1,A1,SPARE1*%
%TO.N,unconnected-(J1-SPARE1-PadA1)*%
X124579500Y-75824200D03*
%TO.P,J1,A2,GND*%
%TO.N,GND*%
X124579500Y-78364200D03*
%TO.P,J1,A3,CLKOUT*%
%TO.N,Net-(J1-CLKOUT)*%
X124579500Y-80904200D03*
%TO.P,J1,A4,GND*%
%TO.N,GND*%
X124579500Y-83444200D03*
%TO.P,J1,A5,CLKIN*%
%TO.N,CLKOUT*%
X124579500Y-85984200D03*
%TO.P,J1,A6,GND*%
%TO.N,GND*%
X124579500Y-88524200D03*
%TO.P,J1,A7,GPIO1*%
%TO.N,GPI01*%
X124579500Y-91064200D03*
%TO.P,J1,A8,GPIO2*%
%TO.N,GPI02*%
X124579500Y-93604200D03*
%TO.P,J1,A9,GPIO3*%
%TO.N,GPI03*%
X124579500Y-96144200D03*
%TO.P,J1,A10,GPIO4*%
%TO.N,Net-(J1-GPIO4)*%
X124579500Y-98684200D03*
%TO.P,J1,A11,NRST*%
%TO.N,RST*%
X124579500Y-101224200D03*
%TO.P,J1,A12,SCK*%
%TO.N,SCK*%
X124579500Y-103764200D03*
%TO.P,J1,A13,MISO*%
%TO.N,MISO*%
X124579500Y-106304200D03*
%TO.P,J1,A14,MOSI*%
%TO.N,MOSI*%
X124579500Y-108844200D03*
%TO.P,J1,A15,GND*%
%TO.N,GND*%
X124579500Y-111384200D03*
%TO.P,J1,A16,GND*%
X124579500Y-113924200D03*
%TO.P,J1,A17,PDIC*%
%TO.N,PDIC*%
X124579500Y-116464200D03*
%TO.P,J1,A18,PDID*%
%TO.N,PDID*%
X124579500Y-119004200D03*
%TO.P,J1,A19,SPARE2*%
%TO.N,unconnected-(J1-SPARE2-PadA19)*%
X124579500Y-121544200D03*
%TO.P,J1,A20,VREF*%
%TO.N,VCC*%
X124579500Y-124084200D03*
D23*
%TO.P,J1,B1,GND*%
%TO.N,GND*%
X124579500Y-129164200D03*
%TO.P,J1,B2,JTAG_TRST*%
%TO.N,unconnected-(J1-JTAG_TRST-PadB2)*%
X127119500Y-129164200D03*
%TO.P,J1,B3,JTAG_TDI*%
%TO.N,unconnected-(J1-JTAG_TDI-PadB3)*%
X129659500Y-129164200D03*
%TO.P,J1,B4,JTAG_TDO*%
%TO.N,unconnected-(J1-JTAG_TDO-PadB4)*%
X132199500Y-129164200D03*
%TO.P,J1,B5,JTAG_TMS*%
%TO.N,unconnected-(J1-JTAG_TMS-PadB5)*%
X134739500Y-129164200D03*
%TO.P,J1,B6,JTAG_TCK*%
%TO.N,unconnected-(J1-JTAG_TCK-PadB6)*%
X137279500Y-129164200D03*
%TO.P,J1,B7,JTAG_VREF*%
%TO.N,unconnected-(J1-JTAG_VREF-PadB7)*%
X139819500Y-129164200D03*
%TO.P,J1,B8,JTAG_NRST*%
%TO.N,unconnected-(J1-JTAG_NRST-PadB8)*%
X142359500Y-129164200D03*
%TO.P,J1,B9,GND*%
%TO.N,unconnected-(J1-GND-PadB9)*%
X144899500Y-129164200D03*
%TO.P,J1,B10,GND*%
%TO.N,GND*%
X147439500Y-129164200D03*
%TO.P,J1,B11,HDR1*%
%TO.N,unconnected-(J1-HDR1-PadB11)*%
X149979500Y-129164200D03*
%TO.P,J1,B12,HDR2*%
%TO.N,VCC*%
X152519500Y-129164200D03*
%TO.P,J1,B13,HDR3*%
%TO.N,unconnected-(J1-HDR3-PadB13)*%
X155059500Y-129164200D03*
%TO.P,J1,B14,HDR4*%
%TO.N,PDID*%
X157599500Y-129164200D03*
%TO.P,J1,B15,HDR5*%
%TO.N,unconnected-(J1-HDR5-PadB15)*%
X160139500Y-129164200D03*
%TO.P,J1,B16,HDR6*%
%TO.N,PDIC*%
X162679500Y-129164200D03*
%TO.P,J1,B17,HDR7*%
%TO.N,GPI02*%
X165219500Y-129164200D03*
%TO.P,J1,B18,HDR8*%
%TO.N,RST*%
X167759500Y-129164200D03*
%TO.P,J1,B19,HDR9*%
%TO.N,GPI01*%
X170299500Y-129164200D03*
%TO.P,J1,B20,HDR10*%
%TO.N,GND*%
X172839500Y-129164200D03*
D22*
%TO.P,J1,C1,GND*%
X172839500Y-75824200D03*
%TO.P,J1,C2,SHUNTL*%
%TO.N,VBUS*%
X172839500Y-78364200D03*
%TO.P,J1,C3,SHUNTH*%
%TO.N,Net-(J1-FILT_LP)*%
X172839500Y-80904200D03*
%TO.P,J1,C4,GND*%
%TO.N,GND*%
X172839500Y-83444200D03*
%TO.P,J1,C5,FILT_LP*%
%TO.N,Net-(J1-FILT_LP)*%
X172839500Y-85984200D03*
%TO.P,J1,C6,FILT_HP*%
%TO.N,unconnected-(J1-FILT_HP-PadC6)*%
X172839500Y-88524200D03*
%TO.P,J1,C7,GND*%
%TO.N,GND*%
X172839500Y-91064200D03*
%TO.P,J1,C8,FILTIN*%
%TO.N,VCC*%
X172839500Y-93604200D03*
%TO.P,J1,C9,GND*%
%TO.N,GND*%
X172839500Y-96144200D03*
%TO.P,J1,C10,GND*%
X172839500Y-98684200D03*
%TO.P,J1,C11,VCC1.2V*%
%TO.N,unconnected-(J1-VCC1.2V-PadC11)*%
X172839500Y-101224200D03*
%TO.P,J1,C12,VCC1.8V*%
%TO.N,unconnected-(J1-VCC1.8V-PadC12)*%
X172839500Y-103764200D03*
%TO.P,J1,C13,VCC2.5V*%
%TO.N,+2V5*%
X172839500Y-106304200D03*
%TO.P,J1,C14,VCC3.3V*%
%TO.N,+3.3V*%
X172839500Y-108844200D03*
%TO.P,J1,C15,VCC5.0V*%
%TO.N,+5V*%
X172839500Y-111384200D03*
%TO.P,J1,C16,GND*%
%TO.N,GND*%
X172839500Y-113924200D03*
%TO.P,J1,C17,GND*%
X172839500Y-116464200D03*
%TO.P,J1,C18,LED1*%
%TO.N,LED1*%
X172839500Y-119004200D03*
%TO.P,J1,C19,LED2*%
%TO.N,LED2*%
X172839500Y-121544200D03*
%TO.P,J1,C20,LED3*%
%TO.N,LED3*%
X172839500Y-124084200D03*
D24*
%TO.P,J1,MH1,MH1*%
%TO.N,unconnected-(J1-PadMH1)*%
X129659500Y-70744200D03*
%TO.P,J1,MH2,MH2*%
%TO.N,unconnected-(J1-PadMH2)*%
X167759500Y-70744200D03*
%TO.P,J1,MH3,MH3*%
%TO.N,unconnected-(J1-PadMH3)*%
X147439500Y-121544200D03*
%TD*%
D25*
%TO.N,VCC*%
X156550000Y-111350000D03*
X152475000Y-117655500D03*
D26*
%TO.N,GND*%
X147122000Y-68115000D03*
X152552000Y-64215000D03*
X142042000Y-68115000D03*
X146890000Y-76750000D03*
D25*
X160000000Y-85800000D03*
D26*
X161602000Y-94685000D03*
X136730000Y-76750000D03*
X142632000Y-110585000D03*
X137312000Y-64215000D03*
X138990000Y-106750000D03*
X132232000Y-64215000D03*
X144472000Y-72435000D03*
X151970000Y-76750000D03*
X128610000Y-83400000D03*
X166850000Y-99600000D03*
X146250000Y-80950000D03*
X134312000Y-72435000D03*
X163390000Y-86640000D03*
X143240000Y-124220000D03*
X157632000Y-64215000D03*
X145050000Y-114900000D03*
X166682000Y-94685000D03*
X152850000Y-82950000D03*
X141652000Y-102435000D03*
X157050000Y-76750000D03*
D25*
X153910000Y-91090000D03*
D26*
X136962000Y-68115000D03*
X159712000Y-72435000D03*
X149900000Y-85650000D03*
X167550000Y-90600000D03*
X137552000Y-110585000D03*
X154632000Y-72435000D03*
X149600000Y-81000000D03*
D25*
X156300000Y-85800000D03*
D26*
X163150000Y-98800000D03*
X149890000Y-89070000D03*
X162130000Y-76750000D03*
X157282000Y-68115000D03*
X157390000Y-90600000D03*
X131650000Y-76750000D03*
X130080000Y-88590000D03*
X162362000Y-68115000D03*
X128600000Y-108050000D03*
X142392000Y-64215000D03*
X134450000Y-106200000D03*
X129300000Y-114250000D03*
X139300000Y-72000000D03*
X144070000Y-106750000D03*
X152202000Y-68115000D03*
X139970000Y-114900000D03*
X134890000Y-114900000D03*
X149552000Y-72435000D03*
X133690000Y-83400000D03*
X131150000Y-109650000D03*
X147472000Y-64215000D03*
X143200000Y-84000000D03*
%TO.N,GPI01*%
X140300000Y-93050000D03*
X153458414Y-93106537D03*
X158600000Y-94100000D03*
%TO.N,GPI02*%
X153390000Y-94180000D03*
X139600000Y-93750000D03*
X158550000Y-95550000D03*
%TO.N,GPI03*%
X130150000Y-93350000D03*
X150000000Y-87550000D03*
%TO.N,GPI04*%
X145950000Y-96300000D03*
%TO.N,RST*%
X132130000Y-101224200D03*
X149800000Y-101224200D03*
X161300000Y-123425000D03*
X148850000Y-111400000D03*
%TO.N,MOSI*%
X128525000Y-105500000D03*
%TO.N,PDIC*%
X155437500Y-122287500D03*
X159012500Y-123912500D03*
%TO.N,unconnected-(J1-PadMH3)*%
X148995140Y-123099840D03*
X147439500Y-123744200D03*
X148995140Y-119988560D03*
X145883860Y-123099840D03*
X145239500Y-121544200D03*
X145883860Y-119988560D03*
X147439500Y-119344200D03*
X149639500Y-121544200D03*
D27*
%TO.N,unconnected-(J1-PadMH2)*%
X166203860Y-69188560D03*
X169315140Y-72299840D03*
X169315140Y-69188560D03*
X169959500Y-70744200D03*
X166203860Y-72299840D03*
X167759500Y-68544200D03*
X167759500Y-72944200D03*
X165559500Y-70744200D03*
D26*
%TO.N,LED1*%
X162600000Y-114400000D03*
X146050000Y-98500000D03*
%TO.N,LED2*%
X162775000Y-117525000D03*
X147300000Y-105550000D03*
%TO.N,LED3*%
X158450000Y-97150000D03*
X153290000Y-95250000D03*
X163700000Y-120500000D03*
X159175000Y-118625000D03*
D27*
%TO.N,unconnected-(J1-PadMH1)*%
X131215140Y-69188560D03*
X131215140Y-72299840D03*
X129659500Y-72944200D03*
X129659500Y-68544200D03*
X127459500Y-70744200D03*
X128103860Y-72299840D03*
X131859500Y-70744200D03*
X128103860Y-69188560D03*
%TD*%
D28*
%TO.N,LED1*%
X144819500Y-94128600D02*
X145223100Y-93725000D01*
X145223100Y-93725000D02*
X146027500Y-93725000D01*
X144819500Y-97269500D02*
X144819500Y-94128600D01*
X146050000Y-98500000D02*
X144819500Y-97269500D01*
%TO.N,GPI03*%
X130120000Y-93350000D02*
X127325800Y-96144200D01*
X130150000Y-93350000D02*
X130120000Y-93350000D01*
X127325800Y-96144200D02*
X125755800Y-96144200D01*
%TO.N,GPI02*%
X138212700Y-92362700D02*
X127137300Y-92362700D01*
X139600000Y-93750000D02*
X138212700Y-92362700D01*
X127137300Y-92362700D02*
X125895800Y-93604200D01*
X125895800Y-93604200D02*
X124579500Y-93604200D01*
%TO.N,GPI01*%
X140300000Y-93050000D02*
X138125000Y-90875000D01*
X138125000Y-90875000D02*
X124768700Y-90875000D01*
D29*
%TO.N,VCC*%
X152475000Y-107625000D02*
X150050000Y-105200000D01*
X150475000Y-126175000D02*
X152519500Y-128219500D01*
D30*
X170688800Y-93604200D02*
X163650000Y-100643000D01*
D29*
X152475000Y-117655500D02*
X152475000Y-107625000D01*
D30*
X163325000Y-108844200D02*
X163325000Y-111384200D01*
X163450000Y-101550000D02*
X163450000Y-106179200D01*
X163650000Y-101350000D02*
X163450000Y-101550000D01*
X163650000Y-100643000D02*
X163650000Y-101350000D01*
X172839500Y-93604200D02*
X170688800Y-93604200D01*
D29*
X129875000Y-126175000D02*
X150475000Y-126175000D01*
X152500000Y-111300000D02*
X156500000Y-111300000D01*
D30*
X156500000Y-111300000D02*
X156550000Y-111350000D01*
D29*
X124579500Y-124084200D02*
X127784200Y-124084200D01*
D30*
X163325000Y-106304200D02*
X163325000Y-108844200D01*
D29*
X127784200Y-124084200D02*
X129875000Y-126175000D01*
%TO.N,Net-(J1-FILT_LP)*%
X164800000Y-85600000D02*
X172455300Y-85600000D01*
X156300000Y-81962500D02*
X159995000Y-81962500D01*
X169785800Y-80904200D02*
X168640000Y-82050000D01*
X163102500Y-81965000D02*
X163102500Y-83902500D01*
X163102500Y-83902500D02*
X164800000Y-85600000D01*
X172839500Y-80904200D02*
X169785800Y-80904200D01*
X168640000Y-82050000D02*
X163187500Y-82050000D01*
X163102500Y-81965000D02*
X159975000Y-81965000D01*
D28*
%TO.N,Net-(J1-CLKOUT)*%
X125033700Y-80450000D02*
X133769100Y-80450000D01*
%TO.N,GPI01*%
X153458414Y-93106537D02*
X153401877Y-93050000D01*
X167500000Y-126800000D02*
X169100000Y-126800000D01*
X158700000Y-94100000D02*
X160300000Y-95700000D01*
X160300000Y-119600000D02*
X167500000Y-126800000D01*
X160300000Y-95700000D02*
X160300000Y-119600000D01*
X153401877Y-93050000D02*
X151782500Y-93050000D01*
X158600000Y-94100000D02*
X158700000Y-94100000D01*
X169100000Y-126800000D02*
X170299500Y-127999500D01*
%TO.N,GPI02*%
X152935000Y-93725000D02*
X151757500Y-93725000D01*
X159797300Y-118367234D02*
X159797300Y-118882766D01*
X159500000Y-118069934D02*
X159797300Y-118367234D01*
X158550000Y-95550000D02*
X159500000Y-96500000D01*
X159500000Y-122875000D02*
X165219500Y-128594500D01*
X159797300Y-118882766D02*
X159500000Y-119180066D01*
X159500000Y-119180066D02*
X159500000Y-122875000D01*
X159500000Y-96500000D02*
X159500000Y-118069934D01*
X153390000Y-94180000D02*
X152935000Y-93725000D01*
%TO.N,GPI03*%
X150782500Y-87550000D02*
X151757500Y-88525000D01*
X150000000Y-87550000D02*
X150782500Y-87550000D01*
%TO.N,GPI04*%
X133300000Y-94800000D02*
X133375000Y-94725000D01*
X145950000Y-96300000D02*
X146027500Y-96222500D01*
X146027500Y-96222500D02*
X146027500Y-94375000D01*
X133300000Y-97575000D02*
X133300000Y-94800000D01*
%TO.N,RST*%
X132130000Y-101224200D02*
X124579500Y-101224200D01*
X150525000Y-92425000D02*
X151757500Y-92425000D01*
X149750000Y-101174200D02*
X149750000Y-93200000D01*
X149800000Y-101224200D02*
X149800000Y-102950000D01*
X162475000Y-123425000D02*
X167759500Y-128709500D01*
X148800000Y-104150000D02*
X149950000Y-103000000D01*
X148850000Y-111400000D02*
X148800000Y-111350000D01*
X149750000Y-93200000D02*
X150525000Y-92425000D01*
X149800000Y-101224200D02*
X149750000Y-101174200D01*
X148800000Y-111350000D02*
X148800000Y-104150000D01*
X161300000Y-123425000D02*
X162475000Y-123425000D01*
%TO.N,SCK*%
X124579500Y-103764200D02*
X131285800Y-103764200D01*
X131285800Y-103764200D02*
X143925000Y-91125000D01*
X143925000Y-91125000D02*
X146027500Y-91125000D01*
%TO.N,MISO*%
X144489342Y-92500000D02*
X145952500Y-92500000D01*
X130685142Y-106304200D02*
X144489342Y-92500000D01*
X124579500Y-106304200D02*
X130685142Y-106304200D01*
%TO.N,MOSI*%
X144275000Y-91775000D02*
X146027500Y-91775000D01*
X130550000Y-105500000D02*
X144275000Y-91775000D01*
X128525000Y-105500000D02*
X130550000Y-105500000D01*
%TO.N,PDIC*%
X155437500Y-122287500D02*
X155187500Y-122287500D01*
X149364200Y-116464200D02*
X124579500Y-116464200D01*
X155187500Y-122287500D02*
X149364200Y-116464200D01*
X143327700Y-94272300D02*
X144525000Y-93075000D01*
X144525000Y-93075000D02*
X146027500Y-93075000D01*
X159012500Y-123912500D02*
X162679500Y-127579500D01*
X162679500Y-127579500D02*
X162679500Y-129164200D01*
X143327700Y-116464200D02*
X143327700Y-94272300D01*
X124579500Y-116464200D02*
X143327700Y-116464200D01*
%TO.N,PDID*%
X125295800Y-119004200D02*
X126900000Y-117400000D01*
X157725000Y-92775000D02*
X157725000Y-129038700D01*
X157725000Y-125850000D02*
X157725000Y-129038700D01*
X149275000Y-117400000D02*
X157725000Y-125850000D01*
X126900000Y-117400000D02*
X149275000Y-117400000D01*
X151757500Y-89825000D02*
X154775000Y-89825000D01*
X154775000Y-89825000D02*
X157725000Y-92775000D01*
%TO.N,CLK*%
X148400000Y-86000000D02*
X148400000Y-89138749D01*
X136250000Y-80540000D02*
X142940000Y-80540000D01*
X151036251Y-91775000D02*
X151757500Y-91775000D01*
X142940000Y-80540000D02*
X148400000Y-86000000D01*
X148400000Y-89138749D02*
X151036251Y-91775000D01*
D29*
%TO.N,VBUS*%
X164703300Y-78364200D02*
X163102500Y-79965000D01*
X152500000Y-89175000D02*
X153125000Y-89175000D01*
X172839500Y-78364200D02*
X164703300Y-78364200D01*
X154200000Y-80850000D02*
X155350000Y-79700000D01*
X155350000Y-79700000D02*
X162837500Y-79700000D01*
X153125000Y-89175000D02*
X154200000Y-88100000D01*
X154200000Y-88100000D02*
X154200000Y-80850000D01*
D28*
%TO.N,LED1*%
X165600000Y-114400000D02*
X170204200Y-119004200D01*
X170204200Y-119004200D02*
X172839500Y-119004200D01*
X162600000Y-114400000D02*
X165600000Y-114400000D01*
%TO.N,LED2*%
X147300000Y-90319000D02*
X146806000Y-89825000D01*
X146806000Y-89825000D02*
X146027500Y-89825000D01*
X171144200Y-121544200D02*
X172839500Y-121544200D01*
X163550000Y-118300000D02*
X167900000Y-118300000D01*
X147300000Y-105550000D02*
X147300000Y-90319000D01*
X162775000Y-117525000D02*
X163550000Y-118300000D01*
X167900000Y-118300000D02*
X171144200Y-121544200D01*
%TO.N,LED3*%
X159175000Y-118625000D02*
X158600000Y-118050000D01*
X158600000Y-97300000D02*
X158450000Y-97150000D01*
X152632500Y-95250000D02*
X151757500Y-94375000D01*
X158600000Y-118050000D02*
X158600000Y-97300000D01*
X167300000Y-124100000D02*
X172823700Y-124100000D01*
X153290000Y-95250000D02*
X152632500Y-95250000D01*
X163700000Y-120500000D02*
X167300000Y-124100000D01*
%TO.N,CLKOUT*%
X125013700Y-86350000D02*
X135770000Y-86350000D01*
X139895000Y-90475000D02*
X146027500Y-90475000D01*
X135770000Y-86350000D02*
X139895000Y-90475000D01*
D30*
%TO.N,+3.3V*%
X167210400Y-108844200D02*
X167884500Y-108170100D01*
X165865000Y-108844200D02*
X167210400Y-108844200D01*
X167884500Y-108170100D02*
X167884500Y-104284500D01*
X167884500Y-104284500D02*
X164950000Y-101350000D01*
D28*
%TO.N,Net-(J1-GPIO4)*%
X127417200Y-97650000D02*
X130835000Y-97650000D01*
X126383000Y-98684200D02*
X127417200Y-97650000D01*
X132000000Y-96485000D02*
X130835000Y-97650000D01*
X124579500Y-98684200D02*
X126383000Y-98684200D01*
X132000000Y-94250000D02*
X132000000Y-96485000D01*
%TD*%
%TA.AperFunction,Conductor*%
%TO.N,GND*%
G36*
X127607475Y-124568385D02*
G01*
X127628117Y-124585019D01*
X129523173Y-126480075D01*
X129532439Y-126490444D01*
X129555488Y-126519347D01*
X129604245Y-126552588D01*
X129608029Y-126555273D01*
X129660189Y-126593769D01*
X129665615Y-126596508D01*
X129671180Y-126598224D01*
X129671184Y-126598227D01*
X129727620Y-126615634D01*
X129731920Y-126617050D01*
X129787669Y-126636558D01*
X129787672Y-126636558D01*
X129793162Y-126638479D01*
X129799167Y-126639500D01*
X129804988Y-126639500D01*
X129863995Y-126639500D01*
X129868631Y-126639587D01*
X129927596Y-126641793D01*
X129927597Y-126641792D01*
X129933407Y-126642010D01*
X129952478Y-126639500D01*
X150231236Y-126639500D01*
X150298275Y-126659185D01*
X150318917Y-126675819D01*
X151590704Y-127947606D01*
X151624189Y-128008929D01*
X151619205Y-128078621D01*
X151616975Y-128084185D01*
X151598993Y-128126088D01*
X151572196Y-128256489D01*
X151559700Y-128317298D01*
X151559700Y-129962179D01*
X151560016Y-129965290D01*
X151560017Y-129965302D01*
X151574498Y-130107705D01*
X151626950Y-130274879D01*
X151628238Y-130344737D01*
X151591553Y-130404201D01*
X151528543Y-130434392D01*
X151508637Y-130436000D01*
X150987870Y-130436000D01*
X150920831Y-130416315D01*
X150875076Y-130363511D01*
X150865132Y-130294353D01*
X150873919Y-130263100D01*
X150900006Y-130202311D01*
X150939300Y-130011102D01*
X150939300Y-128366221D01*
X150924502Y-128220697D01*
X150866065Y-128034445D01*
X150771332Y-127863769D01*
X150644181Y-127715656D01*
X150603236Y-127683962D01*
X150489818Y-127596169D01*
X150314566Y-127510205D01*
X150314563Y-127510204D01*
X150125590Y-127461275D01*
X150106768Y-127460320D01*
X149930635Y-127451387D01*
X149737682Y-127480947D01*
X149554632Y-127548741D01*
X149388972Y-127651998D01*
X149247486Y-127786489D01*
X149135974Y-127946704D01*
X149058994Y-128126088D01*
X149044798Y-128195166D01*
X149019700Y-128317298D01*
X149019700Y-129962179D01*
X149020016Y-129965290D01*
X149020017Y-129965302D01*
X149034498Y-130107705D01*
X149086950Y-130274879D01*
X149088238Y-130344737D01*
X149051553Y-130404201D01*
X148988543Y-130434392D01*
X148968637Y-130436000D01*
X148495206Y-130436000D01*
X148428167Y-130416315D01*
X148382412Y-130363511D01*
X148372468Y-130294353D01*
X148381255Y-130263100D01*
X148401724Y-130215400D01*
X148442800Y-130015524D01*
X148442800Y-129291200D01*
X147918419Y-129291200D01*
X147934800Y-129235413D01*
X147934800Y-129092987D01*
X147918419Y-129037200D01*
X148442800Y-129037200D01*
X148442800Y-128367162D01*
X148442482Y-128360897D01*
X148427329Y-128211891D01*
X148366246Y-128017203D01*
X148267221Y-127838793D01*
X148134301Y-127683962D01*
X147972948Y-127559064D01*
X147789748Y-127469201D01*
X147592209Y-127418055D01*
X147566500Y-127416751D01*
X147566500Y-128682066D01*
X147474923Y-128668900D01*
X147404077Y-128668900D01*
X147312500Y-128682066D01*
X147312500Y-127419349D01*
X147186721Y-127438618D01*
X146995376Y-127509485D01*
X146822204Y-127617424D01*
X146674313Y-127758006D01*
X146557744Y-127925485D01*
X146477275Y-128112999D01*
X146436200Y-128312875D01*
X146436200Y-129037200D01*
X146960581Y-129037200D01*
X146944200Y-129092987D01*
X146944200Y-129235413D01*
X146960581Y-129291200D01*
X146436200Y-129291200D01*
X146436200Y-129961237D01*
X146436517Y-129967502D01*
X146451670Y-130116506D01*
X146501360Y-130274879D01*
X146502648Y-130344737D01*
X146465962Y-130404201D01*
X146402952Y-130434392D01*
X146383047Y-130436000D01*
X145907870Y-130436000D01*
X145840831Y-130416315D01*
X145795076Y-130363511D01*
X145785132Y-130294353D01*
X145793919Y-130263100D01*
X145820006Y-130202311D01*
X145859300Y-130011102D01*
X145859300Y-128366221D01*
X145844502Y-128220697D01*
X145786065Y-128034445D01*
X145691332Y-127863769D01*
X145564181Y-127715656D01*
X145523236Y-127683962D01*
X145409818Y-127596169D01*
X145234566Y-127510205D01*
X145234563Y-127510204D01*
X145045590Y-127461275D01*
X145026768Y-127460320D01*
X144850635Y-127451387D01*
X144657682Y-127480947D01*
X144474632Y-127548741D01*
X144308972Y-127651998D01*
X144167486Y-127786489D01*
X144055974Y-127946704D01*
X143978994Y-128126088D01*
X143964798Y-128195166D01*
X143939700Y-128317298D01*
X143939700Y-129962179D01*
X143940016Y-129965290D01*
X143940017Y-129965302D01*
X143954498Y-130107705D01*
X144006950Y-130274879D01*
X144008238Y-130344737D01*
X143971553Y-130404201D01*
X143908543Y-130434392D01*
X143888637Y-130436000D01*
X143367870Y-130436000D01*
X143300831Y-130416315D01*
X143255076Y-130363511D01*
X143245132Y-130294353D01*
X143253919Y-130263100D01*
X143280006Y-130202311D01*
X143319300Y-130011102D01*
X143319300Y-128366221D01*
X143304502Y-128220697D01*
X143246065Y-128034445D01*
X143151332Y-127863769D01*
X143024181Y-127715656D01*
X142983236Y-127683962D01*
X142869818Y-127596169D01*
X142694566Y-127510205D01*
X142694563Y-127510204D01*
X142505590Y-127461275D01*
X142486768Y-127460320D01*
X142310635Y-127451387D01*
X142117682Y-127480947D01*
X141934632Y-127548741D01*
X141768972Y-127651998D01*
X141627486Y-127786489D01*
X141515974Y-127946704D01*
X141438994Y-128126088D01*
X141424798Y-128195166D01*
X141399700Y-128317298D01*
X141399700Y-129962179D01*
X141400016Y-129965290D01*
X141400017Y-129965302D01*
X141414498Y-130107705D01*
X141466950Y-130274879D01*
X141468238Y-130344737D01*
X141431553Y-130404201D01*
X141368543Y-130434392D01*
X141348637Y-130436000D01*
X140827870Y-130436000D01*
X140760831Y-130416315D01*
X140715076Y-130363511D01*
X140705132Y-130294353D01*
X140713919Y-130263100D01*
X140740006Y-130202311D01*
X140779300Y-130011102D01*
X140779300Y-128366221D01*
X140764502Y-128220697D01*
X140706065Y-128034445D01*
X140611332Y-127863769D01*
X140484181Y-127715656D01*
X140443236Y-127683962D01*
X140329818Y-127596169D01*
X140154566Y-127510205D01*
X140154563Y-127510204D01*
X139965590Y-127461275D01*
X139946768Y-127460320D01*
X139770635Y-127451387D01*
X139577682Y-127480947D01*
X139394632Y-127548741D01*
X139228972Y-127651998D01*
X139087486Y-127786489D01*
X138975974Y-127946704D01*
X138898994Y-128126088D01*
X138884798Y-128195166D01*
X138859700Y-128317298D01*
X138859700Y-129962179D01*
X138860016Y-129965290D01*
X138860017Y-129965302D01*
X138874498Y-130107705D01*
X138926950Y-130274879D01*
X138928238Y-130344737D01*
X138891553Y-130404201D01*
X138828543Y-130434392D01*
X138808637Y-130436000D01*
X138287870Y-130436000D01*
X138220831Y-130416315D01*
X138175076Y-130363511D01*
X138165132Y-130294353D01*
X138173919Y-130263100D01*
X138200006Y-130202311D01*
X138239300Y-130011102D01*
X138239300Y-128366221D01*
X138224502Y-128220697D01*
X138166065Y-128034445D01*
X138071332Y-127863769D01*
X137944181Y-127715656D01*
X137903236Y-127683962D01*
X137789818Y-127596169D01*
X137614566Y-127510205D01*
X137614563Y-127510204D01*
X137425590Y-127461275D01*
X137406768Y-127460320D01*
X137230635Y-127451387D01*
X137037682Y-127480947D01*
X136854632Y-127548741D01*
X136688972Y-127651998D01*
X136547486Y-127786489D01*
X136435974Y-127946704D01*
X136358994Y-128126088D01*
X136344798Y-128195166D01*
X136319700Y-128317298D01*
X136319700Y-129962179D01*
X136320016Y-129965290D01*
X136320017Y-129965302D01*
X136334498Y-130107705D01*
X136386950Y-130274879D01*
X136388238Y-130344737D01*
X136351553Y-130404201D01*
X136288543Y-130434392D01*
X136268637Y-130436000D01*
X135747870Y-130436000D01*
X135680831Y-130416315D01*
X135635076Y-130363511D01*
X135625132Y-130294353D01*
X135633919Y-130263100D01*
X135660006Y-130202311D01*
X135699300Y-130011102D01*
X135699300Y-128366221D01*
X135684502Y-128220697D01*
X135626065Y-128034445D01*
X135531332Y-127863769D01*
X135404181Y-127715656D01*
X135363236Y-127683962D01*
X135249818Y-127596169D01*
X135074566Y-127510205D01*
X135074563Y-127510204D01*
X134885590Y-127461275D01*
X134866768Y-127460320D01*
X134690635Y-127451387D01*
X134497682Y-127480947D01*
X134314632Y-127548741D01*
X134148972Y-127651998D01*
X134007486Y-127786489D01*
X133895974Y-127946704D01*
X133818994Y-128126088D01*
X133804798Y-128195166D01*
X133779700Y-128317298D01*
X133779700Y-129962179D01*
X133780016Y-129965290D01*
X133780017Y-129965302D01*
X133794498Y-130107705D01*
X133846950Y-130274879D01*
X133848238Y-130344737D01*
X133811553Y-130404201D01*
X133748543Y-130434392D01*
X133728637Y-130436000D01*
X133207870Y-130436000D01*
X133140831Y-130416315D01*
X133095076Y-130363511D01*
X133085132Y-130294353D01*
X133093919Y-130263100D01*
X133120006Y-130202311D01*
X133159300Y-130011102D01*
X133159300Y-128366221D01*
X133144502Y-128220697D01*
X133086065Y-128034445D01*
X132991332Y-127863769D01*
X132864181Y-127715656D01*
X132823236Y-127683962D01*
X132709818Y-127596169D01*
X132534566Y-127510205D01*
X132534563Y-127510204D01*
X132345590Y-127461275D01*
X132326768Y-127460320D01*
X132150635Y-127451387D01*
X131957682Y-127480947D01*
X131774632Y-127548741D01*
X131608972Y-127651998D01*
X131467486Y-127786489D01*
X131355974Y-127946704D01*
X131278994Y-128126088D01*
X131264798Y-128195166D01*
X131239700Y-128317298D01*
X131239700Y-129962179D01*
X131240016Y-129965290D01*
X131240017Y-129965302D01*
X131254498Y-130107705D01*
X131306950Y-130274879D01*
X131308238Y-130344737D01*
X131271553Y-130404201D01*
X131208543Y-130434392D01*
X131188637Y-130436000D01*
X130667870Y-130436000D01*
X130600831Y-130416315D01*
X130555076Y-130363511D01*
X130545132Y-130294353D01*
X130553919Y-130263100D01*
X130580006Y-130202311D01*
X130619300Y-130011102D01*
X130619300Y-128366221D01*
X130604502Y-128220697D01*
X130546065Y-128034445D01*
X130451332Y-127863769D01*
X130324181Y-127715656D01*
X130283236Y-127683962D01*
X130169818Y-127596169D01*
X129994566Y-127510205D01*
X129994563Y-127510204D01*
X129805590Y-127461275D01*
X129786768Y-127460320D01*
X129610635Y-127451387D01*
X129417682Y-127480947D01*
X129234632Y-127548741D01*
X129068972Y-127651998D01*
X128927486Y-127786489D01*
X128815974Y-127946704D01*
X128738994Y-128126088D01*
X128699699Y-128317299D01*
X128699700Y-129235413D01*
X128699700Y-129962179D01*
X128700016Y-129965290D01*
X128700017Y-129965302D01*
X128714498Y-130107705D01*
X128766950Y-130274879D01*
X128768238Y-130344737D01*
X128731553Y-130404201D01*
X128668543Y-130434392D01*
X128648637Y-130436000D01*
X128127870Y-130436000D01*
X128060831Y-130416315D01*
X128015076Y-130363511D01*
X128005132Y-130294353D01*
X128013919Y-130263100D01*
X128040006Y-130202311D01*
X128079300Y-130011102D01*
X128079300Y-128366221D01*
X128064502Y-128220697D01*
X128006065Y-128034445D01*
X127911332Y-127863769D01*
X127784181Y-127715656D01*
X127743236Y-127683962D01*
X127629818Y-127596169D01*
X127454566Y-127510205D01*
X127454563Y-127510204D01*
X127265590Y-127461275D01*
X127246768Y-127460320D01*
X127070635Y-127451387D01*
X126877682Y-127480947D01*
X126694632Y-127548741D01*
X126528972Y-127651998D01*
X126387486Y-127786489D01*
X126275974Y-127946704D01*
X126198994Y-128126088D01*
X126159699Y-128317299D01*
X126159700Y-129235413D01*
X126159700Y-129962179D01*
X126160016Y-129965290D01*
X126160017Y-129965302D01*
X126174498Y-130107705D01*
X126226950Y-130274879D01*
X126228238Y-130344737D01*
X126191553Y-130404201D01*
X126128543Y-130434392D01*
X126108637Y-130436000D01*
X125635206Y-130436000D01*
X125568167Y-130416315D01*
X125522412Y-130363511D01*
X125512468Y-130294353D01*
X125521255Y-130263100D01*
X125541724Y-130215400D01*
X125582800Y-130015524D01*
X125582800Y-129291200D01*
X125058419Y-129291200D01*
X125074800Y-129235413D01*
X125074800Y-129092987D01*
X125058419Y-129037200D01*
X125582800Y-129037200D01*
X125582800Y-128367162D01*
X125582482Y-128360897D01*
X125567329Y-128211891D01*
X125506246Y-128017203D01*
X125407221Y-127838793D01*
X125274301Y-127683962D01*
X125112948Y-127559064D01*
X124929748Y-127469201D01*
X124732209Y-127418055D01*
X124706499Y-127416751D01*
X124706499Y-128682066D01*
X124614923Y-128668900D01*
X124544077Y-128668900D01*
X124452500Y-128682066D01*
X124452500Y-127419349D01*
X124326721Y-127438618D01*
X124135376Y-127509485D01*
X123962204Y-127617424D01*
X123814313Y-127758006D01*
X123697744Y-127925485D01*
X123617275Y-128112999D01*
X123576200Y-128312875D01*
X123576200Y-129037200D01*
X124100581Y-129037200D01*
X124084200Y-129092987D01*
X124084200Y-129235413D01*
X124100581Y-129291200D01*
X123576200Y-129291200D01*
X123576200Y-129961237D01*
X123576517Y-129967502D01*
X123591670Y-130116506D01*
X123641360Y-130274879D01*
X123642648Y-130344737D01*
X123605962Y-130404201D01*
X123542952Y-130434392D01*
X123523047Y-130436000D01*
X123442500Y-130436000D01*
X123375461Y-130416315D01*
X123329706Y-130363511D01*
X123318500Y-130312000D01*
X123318500Y-127715655D01*
X123318499Y-125097199D01*
X123338184Y-125030164D01*
X123390988Y-124984409D01*
X123460146Y-124974465D01*
X123491393Y-124983251D01*
X123541389Y-125004706D01*
X123732598Y-125044000D01*
X123732600Y-125044000D01*
X125374337Y-125044000D01*
X125377479Y-125044000D01*
X125523003Y-125029202D01*
X125709255Y-124970765D01*
X125879931Y-124876032D01*
X126028044Y-124748881D01*
X126145764Y-124596798D01*
X126202365Y-124555835D01*
X126243820Y-124548700D01*
X127540436Y-124548700D01*
X127607475Y-124568385D01*
G37*
%TD.AperFunction*%
%TA.AperFunction,Conductor*%
G36*
X149150880Y-117757185D02*
G01*
X149171522Y-117773819D01*
X157351182Y-125953479D01*
X157384666Y-126014800D01*
X157387500Y-126041158D01*
X157387500Y-127383598D01*
X157367815Y-127450637D01*
X157315011Y-127496392D01*
X157306566Y-127499879D01*
X157174632Y-127548741D01*
X157008972Y-127651998D01*
X156867486Y-127786489D01*
X156755974Y-127946704D01*
X156678994Y-128126088D01*
X156664798Y-128195166D01*
X156639700Y-128317298D01*
X156639700Y-129962179D01*
X156640016Y-129965290D01*
X156640017Y-129965302D01*
X156654498Y-130107705D01*
X156706950Y-130274879D01*
X156708238Y-130344737D01*
X156671553Y-130404201D01*
X156608543Y-130434392D01*
X156588637Y-130436000D01*
X156067870Y-130436000D01*
X156000831Y-130416315D01*
X155955076Y-130363511D01*
X155945132Y-130294353D01*
X155953919Y-130263100D01*
X155980006Y-130202311D01*
X156019300Y-130011102D01*
X156019300Y-128366221D01*
X156004502Y-128220697D01*
X155946065Y-128034445D01*
X155851332Y-127863769D01*
X155724181Y-127715656D01*
X155683236Y-127683962D01*
X155569818Y-127596169D01*
X155394566Y-127510205D01*
X155394563Y-127510204D01*
X155205590Y-127461275D01*
X155186768Y-127460320D01*
X155010635Y-127451387D01*
X154817682Y-127480947D01*
X154634632Y-127548741D01*
X154468972Y-127651998D01*
X154327486Y-127786489D01*
X154215974Y-127946704D01*
X154138994Y-128126088D01*
X154124798Y-128195166D01*
X154099700Y-128317298D01*
X154099700Y-129962179D01*
X154100016Y-129965290D01*
X154100017Y-129965302D01*
X154114498Y-130107705D01*
X154166950Y-130274879D01*
X154168238Y-130344737D01*
X154131553Y-130404201D01*
X154068543Y-130434392D01*
X154048637Y-130436000D01*
X153527870Y-130436000D01*
X153460831Y-130416315D01*
X153415076Y-130363511D01*
X153405132Y-130294353D01*
X153413919Y-130263100D01*
X153440006Y-130202311D01*
X153479300Y-130011102D01*
X153479300Y-128366221D01*
X153464502Y-128220697D01*
X153406065Y-128034445D01*
X153311332Y-127863769D01*
X153184181Y-127715656D01*
X153143236Y-127683962D01*
X153029818Y-127596169D01*
X152854566Y-127510205D01*
X152854563Y-127510204D01*
X152665590Y-127461275D01*
X152470636Y-127451388D01*
X152470632Y-127451388D01*
X152458043Y-127450750D01*
X152458211Y-127447419D01*
X152409383Y-127440855D01*
X152372176Y-127415274D01*
X150826821Y-125869919D01*
X150817563Y-125859560D01*
X150794509Y-125830651D01*
X150745728Y-125797393D01*
X150741970Y-125794726D01*
X150689819Y-125756236D01*
X150684376Y-125753489D01*
X150678818Y-125751774D01*
X150678816Y-125751773D01*
X150622415Y-125734375D01*
X150618019Y-125732928D01*
X150556853Y-125711525D01*
X150550822Y-125710500D01*
X150545012Y-125710500D01*
X150486005Y-125710500D01*
X150481369Y-125710413D01*
X150416593Y-125707989D01*
X150397523Y-125710500D01*
X130118764Y-125710500D01*
X130051725Y-125690815D01*
X130031083Y-125674181D01*
X128136021Y-123779119D01*
X128126763Y-123768760D01*
X128103709Y-123739851D01*
X128054928Y-123706593D01*
X128051170Y-123703926D01*
X127999019Y-123665436D01*
X127993576Y-123662689D01*
X127988018Y-123660974D01*
X127988016Y-123660973D01*
X127931615Y-123643575D01*
X127927219Y-123642128D01*
X127866053Y-123620725D01*
X127860022Y-123619700D01*
X127854212Y-123619700D01*
X127795205Y-123619700D01*
X127790569Y-123619613D01*
X127725793Y-123617189D01*
X127706723Y-123619700D01*
X126239081Y-123619700D01*
X126172042Y-123600015D01*
X126133849Y-123561292D01*
X126122799Y-123543564D01*
X126091701Y-123493671D01*
X125957212Y-123352188D01*
X125957211Y-123352187D01*
X125957210Y-123352186D01*
X125796995Y-123240674D01*
X125617611Y-123163694D01*
X125611660Y-123162471D01*
X125426402Y-123124400D01*
X123781521Y-123124400D01*
X123778410Y-123124716D01*
X123778397Y-123124717D01*
X123635997Y-123139198D01*
X123479619Y-123188261D01*
X123409761Y-123189547D01*
X123350297Y-123152862D01*
X123320107Y-123089852D01*
X123318499Y-123069959D01*
X123318499Y-122557199D01*
X123338184Y-122490164D01*
X123390988Y-122444409D01*
X123460146Y-122434465D01*
X123491393Y-122443251D01*
X123541389Y-122464706D01*
X123732598Y-122504000D01*
X123732600Y-122504000D01*
X125374337Y-122504000D01*
X125377479Y-122504000D01*
X125523003Y-122489202D01*
X125709255Y-122430765D01*
X125879931Y-122336032D01*
X126028044Y-122208881D01*
X126147530Y-122054518D01*
X126233496Y-121879263D01*
X126282425Y-121690290D01*
X126289834Y-121544200D01*
X144049028Y-121544200D01*
X144049210Y-121547556D01*
X144068720Y-121907411D01*
X144068721Y-121907422D01*
X144068903Y-121910775D01*
X144069447Y-121914096D01*
X144069448Y-121914101D01*
X144127750Y-122269732D01*
X144127753Y-122269747D01*
X144128295Y-122273051D01*
X144129193Y-122276288D01*
X144129194Y-122276289D01*
X144192417Y-122504000D01*
X144226508Y-122626783D01*
X144227756Y-122629915D01*
X144360785Y-122963793D01*
X144362391Y-122967822D01*
X144363961Y-122970784D01*
X144363966Y-122970794D01*
X144438034Y-123110500D01*
X144534350Y-123292171D01*
X144536237Y-123294954D01*
X144536240Y-123294959D01*
X144725354Y-123573881D01*
X144740369Y-123596026D01*
X144796993Y-123662689D01*
X144870422Y-123749137D01*
X144978033Y-123875826D01*
X144980464Y-123878129D01*
X144980470Y-123878135D01*
X145113946Y-124004570D01*
X145244555Y-124128289D01*
X145536811Y-124350456D01*
X145851374Y-124539723D01*
X146184557Y-124693870D01*
X146532453Y-124811089D01*
X146890983Y-124890008D01*
X147255944Y-124929700D01*
X147259302Y-124929700D01*
X147619698Y-124929700D01*
X147623056Y-124929700D01*
X147988017Y-124890008D01*
X148346547Y-124811089D01*
X148694443Y-124693870D01*
X149027626Y-124539723D01*
X149342189Y-124350456D01*
X149634445Y-124128289D01*
X149900967Y-123875826D01*
X150138631Y-123596026D01*
X150344650Y-123292171D01*
X150516609Y-122967822D01*
X150652492Y-122626783D01*
X150750705Y-122273051D01*
X150810097Y-121910775D01*
X150829972Y-121544200D01*
X150810097Y-121177625D01*
X150750705Y-120815349D01*
X150652492Y-120461617D01*
X150516609Y-120120578D01*
X150344650Y-119796229D01*
X150138631Y-119492374D01*
X149921356Y-119236578D01*
X149903140Y-119215132D01*
X149903137Y-119215129D01*
X149900967Y-119212574D01*
X149898534Y-119210269D01*
X149898529Y-119210264D01*
X149636875Y-118962413D01*
X149634445Y-118960111D01*
X149342189Y-118737944D01*
X149339315Y-118736215D01*
X149339311Y-118736212D01*
X149030508Y-118550411D01*
X149030507Y-118550410D01*
X149027626Y-118548677D01*
X148993587Y-118532929D01*
X148766936Y-118428069D01*
X148694443Y-118394530D01*
X148634361Y-118374286D01*
X148349722Y-118278380D01*
X148349708Y-118278376D01*
X148346547Y-118277311D01*
X148343280Y-118276592D01*
X148343277Y-118276591D01*
X147991298Y-118199114D01*
X147991294Y-118199113D01*
X147988017Y-118198392D01*
X147984678Y-118198028D01*
X147984673Y-118198028D01*
X147626394Y-118159063D01*
X147626393Y-118159062D01*
X147623056Y-118158700D01*
X147255944Y-118158700D01*
X147252607Y-118159062D01*
X147252605Y-118159063D01*
X146894326Y-118198028D01*
X146894318Y-118198029D01*
X146890983Y-118198392D01*
X146887708Y-118199112D01*
X146887701Y-118199114D01*
X146535722Y-118276591D01*
X146535714Y-118276593D01*
X146532453Y-118277311D01*
X146529295Y-118278374D01*
X146529277Y-118278380D01*
X146187744Y-118393456D01*
X146187741Y-118393457D01*
X146184557Y-118394530D01*
X146181508Y-118395940D01*
X146181502Y-118395943D01*
X145854429Y-118547263D01*
X145854420Y-118547267D01*
X145851374Y-118548677D01*
X145848500Y-118550406D01*
X145848491Y-118550411D01*
X145539688Y-118736212D01*
X145539675Y-118736220D01*
X145536811Y-118737944D01*
X145534153Y-118739964D01*
X145534142Y-118739972D01*
X145247214Y-118958089D01*
X145247206Y-118958095D01*
X145244555Y-118960111D01*
X145242131Y-118962406D01*
X145242124Y-118962413D01*
X144980470Y-119210264D01*
X144980455Y-119210279D01*
X144978033Y-119212574D01*
X144975870Y-119215119D01*
X144975859Y-119215132D01*
X144742542Y-119489815D01*
X144742536Y-119489822D01*
X144740369Y-119492374D01*
X144738488Y-119495146D01*
X144738482Y-119495156D01*
X144536240Y-119793440D01*
X144536232Y-119793452D01*
X144534350Y-119796229D01*
X144532775Y-119799199D01*
X144532773Y-119799203D01*
X144363966Y-120117605D01*
X144363957Y-120117622D01*
X144362391Y-120120578D01*
X144361150Y-120123690D01*
X144361146Y-120123701D01*
X144227756Y-120458484D01*
X144226508Y-120461617D01*
X144225607Y-120464861D01*
X144225605Y-120464868D01*
X144141919Y-120766278D01*
X144128295Y-120815349D01*
X144127754Y-120818648D01*
X144127750Y-120818667D01*
X144074838Y-121141422D01*
X144068903Y-121177625D01*
X144068721Y-121180975D01*
X144068720Y-121180988D01*
X144051677Y-121495335D01*
X144049028Y-121544200D01*
X126289834Y-121544200D01*
X126292312Y-121495336D01*
X126262752Y-121302383D01*
X126217792Y-121180988D01*
X126194958Y-121119332D01*
X126194957Y-121119330D01*
X126091701Y-120953671D01*
X125957212Y-120812188D01*
X125957211Y-120812187D01*
X125957210Y-120812186D01*
X125796995Y-120700674D01*
X125617611Y-120623694D01*
X125564901Y-120612862D01*
X125426402Y-120584400D01*
X123781521Y-120584400D01*
X123778410Y-120584716D01*
X123778397Y-120584717D01*
X123635997Y-120599198D01*
X123479619Y-120648261D01*
X123409761Y-120649547D01*
X123350297Y-120612862D01*
X123320107Y-120549852D01*
X123318499Y-120529959D01*
X123318499Y-120017199D01*
X123338184Y-119950164D01*
X123390988Y-119904409D01*
X123460146Y-119894465D01*
X123491393Y-119903251D01*
X123541389Y-119924706D01*
X123732598Y-119964000D01*
X123732600Y-119964000D01*
X125374337Y-119964000D01*
X125377479Y-119964000D01*
X125523003Y-119949202D01*
X125709255Y-119890765D01*
X125879931Y-119796032D01*
X126028044Y-119668881D01*
X126147530Y-119514518D01*
X126233496Y-119339263D01*
X126282425Y-119150290D01*
X126292312Y-118955336D01*
X126262752Y-118762383D01*
X126223375Y-118656063D01*
X126218552Y-118586364D01*
X126251974Y-118525321D01*
X127003477Y-117773819D01*
X127064801Y-117740334D01*
X127091159Y-117737500D01*
X149083841Y-117737500D01*
X149150880Y-117757185D01*
G37*
%TD.AperFunction*%
%TA.AperFunction,Conductor*%
G36*
X174061539Y-63907685D02*
G01*
X174107294Y-63960489D01*
X174118500Y-64012000D01*
X174118500Y-74771584D01*
X174098815Y-74838623D01*
X174046011Y-74884378D01*
X173976853Y-74894322D01*
X173945600Y-74885535D01*
X173890700Y-74861975D01*
X173690825Y-74820900D01*
X172966500Y-74820900D01*
X172966500Y-75342066D01*
X172874923Y-75328900D01*
X172804077Y-75328900D01*
X172712500Y-75342066D01*
X172712500Y-74820900D01*
X172042463Y-74820900D01*
X172036197Y-74821217D01*
X171887191Y-74836370D01*
X171692503Y-74897453D01*
X171514093Y-74996478D01*
X171359262Y-75129398D01*
X171234364Y-75290751D01*
X171144501Y-75473951D01*
X171093355Y-75671490D01*
X171092051Y-75697200D01*
X172360581Y-75697200D01*
X172344200Y-75752987D01*
X172344200Y-75895413D01*
X172360581Y-75951200D01*
X171094651Y-75951200D01*
X171113918Y-76076977D01*
X171184785Y-76268324D01*
X171292724Y-76441495D01*
X171433306Y-76589386D01*
X171600785Y-76705955D01*
X171788299Y-76786424D01*
X171988175Y-76827500D01*
X172712500Y-76827500D01*
X172712500Y-76306333D01*
X172804077Y-76319500D01*
X172874923Y-76319500D01*
X172966500Y-76306333D01*
X172966500Y-76827500D01*
X173636537Y-76827500D01*
X173642802Y-76827182D01*
X173791806Y-76812029D01*
X173957379Y-76760081D01*
X174027237Y-76758793D01*
X174086701Y-76795479D01*
X174116892Y-76858489D01*
X174118500Y-76878394D01*
X174118500Y-77358920D01*
X174098815Y-77425959D01*
X174046011Y-77471714D01*
X173976853Y-77481658D01*
X173945603Y-77472871D01*
X173877611Y-77443694D01*
X173686402Y-77404400D01*
X172041521Y-77404400D01*
X172038410Y-77404716D01*
X172038397Y-77404717D01*
X171895994Y-77419198D01*
X171709745Y-77477635D01*
X171539068Y-77572368D01*
X171390955Y-77699519D01*
X171273236Y-77851601D01*
X171216635Y-77892565D01*
X171175180Y-77899700D01*
X164736345Y-77899700D01*
X164722461Y-77898920D01*
X164685734Y-77894781D01*
X164627771Y-77905749D01*
X164623200Y-77906526D01*
X164559107Y-77916186D01*
X164553280Y-77918103D01*
X164495997Y-77948377D01*
X164491864Y-77950464D01*
X164433457Y-77978593D01*
X164428458Y-77982140D01*
X164382641Y-78027956D01*
X164379305Y-78031169D01*
X164331777Y-78075270D01*
X164320066Y-78090530D01*
X163292415Y-79118181D01*
X163231092Y-79151666D01*
X163204734Y-79154500D01*
X162599930Y-79154500D01*
X162599908Y-79154500D01*
X162597028Y-79154501D01*
X162594154Y-79154770D01*
X162594141Y-79154771D01*
X162565922Y-79157416D01*
X162434891Y-79203266D01*
X162428850Y-79207725D01*
X162424044Y-79211271D01*
X162358417Y-79235241D01*
X162350413Y-79235500D01*
X155383055Y-79235500D01*
X155369171Y-79234720D01*
X155332437Y-79230580D01*
X155274432Y-79241555D01*
X155269876Y-79242329D01*
X155211540Y-79251123D01*
X155211539Y-79251123D01*
X155205789Y-79251990D01*
X155199988Y-79253899D01*
X155142665Y-79284194D01*
X155138529Y-79286281D01*
X155080160Y-79314390D01*
X155075158Y-79317940D01*
X155029341Y-79363756D01*
X155026005Y-79366969D01*
X154978477Y-79411070D01*
X154966766Y-79426330D01*
X153894921Y-80498175D01*
X153884555Y-80507439D01*
X153855652Y-80530489D01*
X153822415Y-80579238D01*
X153819734Y-80583016D01*
X153781238Y-80635178D01*
X153778485Y-80640631D01*
X153759379Y-80702569D01*
X153757931Y-80706969D01*
X153736525Y-80768144D01*
X153735500Y-80774181D01*
X153735500Y-80838994D01*
X153735413Y-80843630D01*
X153732989Y-80908407D01*
X153735500Y-80927477D01*
X153735500Y-87856235D01*
X153715815Y-87923274D01*
X153699181Y-87943916D01*
X152968917Y-88674181D01*
X152907594Y-88707666D01*
X152881236Y-88710500D01*
X152832000Y-88710500D01*
X152764961Y-88690815D01*
X152719206Y-88638011D01*
X152708000Y-88586500D01*
X152708000Y-88306657D01*
X152695311Y-88242867D01*
X152646974Y-88170525D01*
X152574632Y-88122188D01*
X152510843Y-88109500D01*
X152510842Y-88109500D01*
X151870659Y-88109500D01*
X151803620Y-88089815D01*
X151782978Y-88073181D01*
X151035398Y-87325601D01*
X151028089Y-87317625D01*
X151002787Y-87287471D01*
X150968695Y-87267788D01*
X150959572Y-87261976D01*
X150926718Y-87238971D01*
X150900453Y-87228092D01*
X150860949Y-87221126D01*
X150850392Y-87218785D01*
X150812370Y-87208597D01*
X150775894Y-87211788D01*
X150773161Y-87212028D01*
X150762355Y-87212500D01*
X150467706Y-87212500D01*
X150400667Y-87192815D01*
X150389883Y-87182895D01*
X150389524Y-87183364D01*
X150376575Y-87173428D01*
X150376574Y-87173426D01*
X150266278Y-87088793D01*
X150137836Y-87035590D01*
X150121800Y-87033478D01*
X150000000Y-87017443D01*
X149862164Y-87035590D01*
X149733721Y-87088793D01*
X149623425Y-87173425D01*
X149538793Y-87283721D01*
X149485590Y-87412164D01*
X149467443Y-87550000D01*
X149479614Y-87642444D01*
X149485590Y-87687836D01*
X149538793Y-87816278D01*
X149623425Y-87926574D01*
X149708058Y-87991514D01*
X149733722Y-88011207D01*
X149862164Y-88064410D01*
X149983964Y-88080444D01*
X149999999Y-88082556D01*
X149999999Y-88082555D01*
X150000000Y-88082556D01*
X150137836Y-88064410D01*
X150266278Y-88011207D01*
X150376574Y-87926574D01*
X150376576Y-87926571D01*
X150389524Y-87916636D01*
X150391802Y-87919604D01*
X150425761Y-87894810D01*
X150467706Y-87887500D01*
X150591341Y-87887500D01*
X150658380Y-87907185D01*
X150679022Y-87923819D01*
X150819180Y-88063977D01*
X150852665Y-88125300D01*
X150847681Y-88194992D01*
X150834602Y-88220548D01*
X150819688Y-88242867D01*
X150807000Y-88306657D01*
X150807000Y-88743344D01*
X150823403Y-88825809D01*
X150823403Y-88874191D01*
X150807000Y-88956655D01*
X150807000Y-89393344D01*
X150823403Y-89475809D01*
X150823403Y-89524191D01*
X150807000Y-89606655D01*
X150807000Y-90043344D01*
X150810808Y-90062488D01*
X150804581Y-90132079D01*
X150792295Y-90155567D01*
X150778713Y-90175894D01*
X150763500Y-90252374D01*
X150763500Y-90348000D01*
X152751499Y-90348000D01*
X152751499Y-90286500D01*
X152771184Y-90219461D01*
X152823988Y-90173706D01*
X152875499Y-90162500D01*
X154583841Y-90162500D01*
X154650880Y-90182185D01*
X154671522Y-90198818D01*
X157351182Y-92878479D01*
X157384666Y-92939800D01*
X157387500Y-92966158D01*
X157387500Y-110693527D01*
X157367815Y-110760566D01*
X157315011Y-110806321D01*
X157245853Y-110816265D01*
X157182297Y-110787240D01*
X157171351Y-110776500D01*
X157148661Y-110751300D01*
X157118866Y-110718210D01*
X156975079Y-110613742D01*
X156927072Y-110592368D01*
X156812710Y-110541451D01*
X156638867Y-110504500D01*
X156638866Y-110504500D01*
X156461134Y-110504500D01*
X156461133Y-110504500D01*
X156287289Y-110541451D01*
X156124923Y-110613741D01*
X156053027Y-110665975D01*
X155981134Y-110718210D01*
X155918980Y-110787240D01*
X155912468Y-110794472D01*
X155852981Y-110831121D01*
X155820318Y-110835500D01*
X153063500Y-110835500D01*
X152996461Y-110815815D01*
X152950706Y-110763011D01*
X152939500Y-110711500D01*
X152939500Y-107658053D01*
X152940280Y-107644168D01*
X152944419Y-107607436D01*
X152933438Y-107549404D01*
X152932676Y-107544916D01*
X152923877Y-107486540D01*
X152923876Y-107486538D01*
X152923009Y-107480785D01*
X152921104Y-107474996D01*
X152918386Y-107469853D01*
X152890806Y-107417669D01*
X152888737Y-107413571D01*
X152863123Y-107360382D01*
X152863122Y-107360381D01*
X152860600Y-107355143D01*
X152857069Y-107350167D01*
X152811245Y-107304343D01*
X152808028Y-107301004D01*
X152763928Y-107253475D01*
X152748665Y-107241763D01*
X150996818Y-105489916D01*
X150963333Y-105428593D01*
X150960499Y-105402235D01*
X150960499Y-104797430D01*
X150960499Y-104797429D01*
X150960499Y-104794528D01*
X150957583Y-104763421D01*
X150911734Y-104632392D01*
X150855378Y-104556032D01*
X150829301Y-104520698D01*
X150717608Y-104438266D01*
X150586577Y-104392416D01*
X150558358Y-104389770D01*
X150558346Y-104389769D01*
X150555473Y-104389500D01*
X150552578Y-104389500D01*
X149547430Y-104389500D01*
X149547408Y-104389500D01*
X149544528Y-104389501D01*
X149541654Y-104389770D01*
X149541641Y-104389771D01*
X149513420Y-104392417D01*
X149382391Y-104438265D01*
X149335133Y-104473144D01*
X149269504Y-104497114D01*
X149201334Y-104481798D01*
X149152266Y-104432058D01*
X149137500Y-104373373D01*
X149137500Y-104341158D01*
X149157185Y-104274119D01*
X149173819Y-104253477D01*
X149267960Y-104159336D01*
X149388911Y-104038384D01*
X149450232Y-104004901D01*
X149498182Y-104007840D01*
X149498339Y-104006169D01*
X149519032Y-104008109D01*
X149544527Y-104010500D01*
X150555472Y-104010499D01*
X150586579Y-104007583D01*
X150717608Y-103961734D01*
X150829301Y-103879301D01*
X150911734Y-103767608D01*
X150957583Y-103636579D01*
X150960500Y-103605473D01*
X150960499Y-102794528D01*
X150957583Y-102763421D01*
X150911734Y-102632392D01*
X150890138Y-102603131D01*
X150829301Y-102520698D01*
X150717608Y-102438266D01*
X150586577Y-102392416D01*
X150558358Y-102389770D01*
X150558346Y-102389769D01*
X150555473Y-102389500D01*
X150552579Y-102389500D01*
X150261500Y-102389500D01*
X150194461Y-102369815D01*
X150148706Y-102317011D01*
X150137500Y-102265500D01*
X150137500Y-101691906D01*
X150157185Y-101624867D01*
X150167104Y-101614085D01*
X150166636Y-101613726D01*
X150201573Y-101568195D01*
X150261207Y-101490478D01*
X150314410Y-101362036D01*
X150332556Y-101224200D01*
X150314410Y-101086364D01*
X150261207Y-100957922D01*
X150213123Y-100895258D01*
X150176573Y-100847624D01*
X150136013Y-100816501D01*
X150094810Y-100760073D01*
X150087500Y-100718126D01*
X150087500Y-93391159D01*
X150107185Y-93324120D01*
X150123819Y-93303478D01*
X150372131Y-93055166D01*
X150595320Y-92831976D01*
X150656642Y-92798493D01*
X150726334Y-92803477D01*
X150782267Y-92845349D01*
X150806684Y-92910813D01*
X150807000Y-92919659D01*
X150807000Y-93293344D01*
X150823403Y-93375808D01*
X150823403Y-93424190D01*
X150807000Y-93506655D01*
X150807000Y-93943344D01*
X150823403Y-94025809D01*
X150823403Y-94074191D01*
X150807000Y-94156655D01*
X150807000Y-94593342D01*
X150819688Y-94657132D01*
X150868025Y-94729474D01*
X150940367Y-94777811D01*
X151004157Y-94790500D01*
X151004158Y-94790500D01*
X151644341Y-94790500D01*
X151711380Y-94810185D01*
X151732022Y-94826819D01*
X152379606Y-95474403D01*
X152386914Y-95482378D01*
X152412213Y-95512528D01*
X152430204Y-95522915D01*
X152446293Y-95532204D01*
X152455415Y-95538015D01*
X152468298Y-95547035D01*
X152487666Y-95560597D01*
X152487667Y-95560597D01*
X152488284Y-95561029D01*
X152514547Y-95571907D01*
X152515287Y-95572037D01*
X152515288Y-95572038D01*
X152554038Y-95578870D01*
X152564593Y-95581209D01*
X152602631Y-95591402D01*
X152602631Y-95591401D01*
X152602632Y-95591402D01*
X152624643Y-95589476D01*
X152641838Y-95587971D01*
X152652645Y-95587500D01*
X152822294Y-95587500D01*
X152889333Y-95607185D01*
X152900116Y-95617104D01*
X152900476Y-95616636D01*
X152913423Y-95626571D01*
X152913426Y-95626574D01*
X153023722Y-95711207D01*
X153152164Y-95764410D01*
X153290000Y-95782556D01*
X153427836Y-95764410D01*
X153556278Y-95711207D01*
X153666574Y-95626574D01*
X153751207Y-95516278D01*
X153804410Y-95387836D01*
X153822556Y-95250000D01*
X153804410Y-95112164D01*
X153751207Y-94983722D01*
X153731514Y-94958057D01*
X153666574Y-94873425D01*
X153636818Y-94850593D01*
X153595615Y-94794165D01*
X153591460Y-94724419D01*
X153625672Y-94663499D01*
X153643688Y-94651615D01*
X153643327Y-94651145D01*
X153766574Y-94556574D01*
X153781211Y-94537499D01*
X153851207Y-94446278D01*
X153904410Y-94317836D01*
X153922556Y-94180000D01*
X153904410Y-94042164D01*
X153851207Y-93913722D01*
X153766574Y-93803426D01*
X153720264Y-93767891D01*
X153679063Y-93711464D01*
X153674908Y-93641718D01*
X153709121Y-93580797D01*
X153720266Y-93571140D01*
X153798373Y-93511207D01*
X153834988Y-93483111D01*
X153919621Y-93372815D01*
X153972824Y-93244373D01*
X153990970Y-93106537D01*
X153972824Y-92968701D01*
X153919621Y-92840259D01*
X153887573Y-92798493D01*
X153834988Y-92729962D01*
X153724692Y-92645330D01*
X153639041Y-92609852D01*
X153596250Y-92592127D01*
X153579691Y-92589947D01*
X153458414Y-92573980D01*
X153320578Y-92592127D01*
X153192137Y-92645329D01*
X153192135Y-92645330D01*
X153192136Y-92645330D01*
X153137990Y-92686876D01*
X153072823Y-92712070D01*
X153062506Y-92712500D01*
X152832000Y-92712500D01*
X152764961Y-92692815D01*
X152719206Y-92640011D01*
X152708000Y-92588500D01*
X152708000Y-92206657D01*
X152691596Y-92124191D01*
X152691596Y-92075807D01*
X152696312Y-92052103D01*
X152708000Y-91993342D01*
X152708000Y-91556658D01*
X152695311Y-91492867D01*
X152695310Y-91492866D01*
X152691596Y-91474191D01*
X152691596Y-91425807D01*
X152708000Y-91343342D01*
X152708000Y-90906660D01*
X152706032Y-90896766D01*
X152704191Y-90887510D01*
X152710417Y-90817921D01*
X152722708Y-90794426D01*
X152736287Y-90774104D01*
X152751500Y-90697625D01*
X152751500Y-90602000D01*
X150763501Y-90602000D01*
X150763501Y-90697627D01*
X150765030Y-90705316D01*
X150758800Y-90774907D01*
X150715935Y-90830083D01*
X150650044Y-90853325D01*
X150582048Y-90837254D01*
X150555731Y-90817183D01*
X148773819Y-89035271D01*
X148740334Y-88973948D01*
X148737500Y-88947590D01*
X148737500Y-86020141D01*
X148737972Y-86009332D01*
X148739417Y-85992815D01*
X148741402Y-85970131D01*
X148731210Y-85932098D01*
X148728870Y-85921536D01*
X148726356Y-85907277D01*
X148722038Y-85882788D01*
X148722037Y-85882787D01*
X148721907Y-85882047D01*
X148711029Y-85855784D01*
X148710597Y-85855167D01*
X148710597Y-85855166D01*
X148688015Y-85822915D01*
X148682204Y-85813793D01*
X148662527Y-85779712D01*
X148632378Y-85754414D01*
X148624403Y-85747106D01*
X143192898Y-80315601D01*
X143185589Y-80307625D01*
X143160287Y-80277471D01*
X143126195Y-80257788D01*
X143117072Y-80251976D01*
X143084218Y-80228971D01*
X143057953Y-80218092D01*
X143018449Y-80211126D01*
X143007892Y-80208785D01*
X142969870Y-80198597D01*
X142933394Y-80201788D01*
X142930661Y-80202028D01*
X142919855Y-80202500D01*
X137174499Y-80202500D01*
X137107460Y-80182815D01*
X137061705Y-80130011D01*
X137050499Y-80078500D01*
X137050499Y-80027430D01*
X137050499Y-80027421D01*
X137050499Y-80024528D01*
X137047583Y-79993421D01*
X137001734Y-79862392D01*
X136928205Y-79762763D01*
X136919301Y-79750698D01*
X136807608Y-79668266D01*
X136676577Y-79622416D01*
X136648358Y-79619770D01*
X136648346Y-79619769D01*
X136645473Y-79619500D01*
X136642579Y-79619500D01*
X135837430Y-79619500D01*
X135837408Y-79619500D01*
X135834528Y-79619501D01*
X135831654Y-79619770D01*
X135831641Y-79619771D01*
X135803420Y-79622417D01*
X135672391Y-79668266D01*
X135560698Y-79750698D01*
X135478266Y-79862391D01*
X135432416Y-79993422D01*
X135429770Y-80021641D01*
X135429769Y-80021654D01*
X135429500Y-80024527D01*
X135429500Y-80027420D01*
X135429500Y-80027421D01*
X135429500Y-81032569D01*
X135429500Y-81032590D01*
X135429501Y-81035472D01*
X135429770Y-81038346D01*
X135429771Y-81038358D01*
X135432417Y-81066579D01*
X135478266Y-81197608D01*
X135560698Y-81309301D01*
X135641182Y-81368700D01*
X135672392Y-81391734D01*
X135803421Y-81437583D01*
X135834527Y-81440500D01*
X136645472Y-81440499D01*
X136676579Y-81437583D01*
X136807608Y-81391734D01*
X136919301Y-81309301D01*
X137001734Y-81197608D01*
X137047583Y-81066579D01*
X137050500Y-81035473D01*
X137050500Y-81001500D01*
X137070185Y-80934461D01*
X137122989Y-80888706D01*
X137174500Y-80877500D01*
X142748841Y-80877500D01*
X142815880Y-80897185D01*
X142836522Y-80913819D01*
X148026181Y-86103477D01*
X148059666Y-86164800D01*
X148062500Y-86191158D01*
X148062500Y-89118603D01*
X148062028Y-89129411D01*
X148058597Y-89168619D01*
X148068785Y-89206641D01*
X148071126Y-89217198D01*
X148078092Y-89256702D01*
X148088971Y-89282967D01*
X148111976Y-89315821D01*
X148117788Y-89324944D01*
X148137471Y-89359036D01*
X148167625Y-89384338D01*
X148175601Y-89391647D01*
X150659773Y-91875819D01*
X150693258Y-91937142D01*
X150688274Y-92006834D01*
X150646402Y-92062767D01*
X150580938Y-92087184D01*
X150572092Y-92087500D01*
X150545145Y-92087500D01*
X150534338Y-92087028D01*
X150531605Y-92086788D01*
X150495130Y-92083597D01*
X150457108Y-92093785D01*
X150446552Y-92096126D01*
X150433153Y-92098489D01*
X150407788Y-92102962D01*
X150407787Y-92102962D01*
X150407046Y-92103093D01*
X150380778Y-92113973D01*
X150347915Y-92136983D01*
X150338801Y-92142789D01*
X150304712Y-92162471D01*
X150279419Y-92192614D01*
X150272113Y-92200587D01*
X149525594Y-92947107D01*
X149517621Y-92954414D01*
X149487469Y-92979714D01*
X149467789Y-93013801D01*
X149461982Y-93022918D01*
X149438973Y-93055780D01*
X149428092Y-93082047D01*
X149421126Y-93121552D01*
X149418785Y-93132108D01*
X149408597Y-93170130D01*
X149412028Y-93209336D01*
X149412500Y-93220144D01*
X149412500Y-100819772D01*
X149392815Y-100886811D01*
X149386876Y-100895258D01*
X149338793Y-100957921D01*
X149285590Y-101086364D01*
X149267443Y-101224200D01*
X149276490Y-101292914D01*
X149285590Y-101362036D01*
X149311179Y-101423813D01*
X149338793Y-101490478D01*
X149433364Y-101613726D01*
X149430395Y-101616004D01*
X149455183Y-101649940D01*
X149462500Y-101691906D01*
X149462500Y-102322251D01*
X149442815Y-102389290D01*
X149390011Y-102435045D01*
X149382853Y-102437925D01*
X149270698Y-102520698D01*
X149188266Y-102632391D01*
X149142416Y-102763422D01*
X149139770Y-102791641D01*
X149139769Y-102791654D01*
X149139500Y-102794527D01*
X149139500Y-102797420D01*
X149139500Y-102797421D01*
X149139500Y-103281840D01*
X149119815Y-103348879D01*
X149103181Y-103369521D01*
X148575594Y-103897107D01*
X148567621Y-103904414D01*
X148537469Y-103929714D01*
X148517789Y-103963801D01*
X148511982Y-103972918D01*
X148488973Y-104005780D01*
X148478092Y-104032047D01*
X148471126Y-104071552D01*
X148468785Y-104082108D01*
X148458597Y-104120130D01*
X148462028Y-104159336D01*
X148462500Y-104170144D01*
X148462500Y-110995572D01*
X148442815Y-111062611D01*
X148436876Y-111071058D01*
X148388793Y-111133721D01*
X148335590Y-111262164D01*
X148317443Y-111400000D01*
X148335590Y-111537835D01*
X148388793Y-111666278D01*
X148473425Y-111776574D01*
X148531924Y-111821461D01*
X148583722Y-111861207D01*
X148712164Y-111914410D01*
X148833964Y-111930444D01*
X148849999Y-111932556D01*
X148849999Y-111932555D01*
X148850000Y-111932556D01*
X148987836Y-111914410D01*
X149116278Y-111861207D01*
X149226574Y-111776574D01*
X149311207Y-111666278D01*
X149364410Y-111537836D01*
X149382556Y-111400000D01*
X149364410Y-111262164D01*
X149311207Y-111133722D01*
X149237500Y-111037665D01*
X149226573Y-111023424D01*
X149186013Y-110992301D01*
X149144810Y-110935873D01*
X149137500Y-110893926D01*
X149137500Y-106026626D01*
X149157185Y-105959587D01*
X149209989Y-105913832D01*
X149279147Y-105903888D01*
X149335133Y-105926855D01*
X149382392Y-105961734D01*
X149513421Y-106007583D01*
X149544527Y-106010500D01*
X150152235Y-106010499D01*
X150219274Y-106030183D01*
X150239916Y-106046818D01*
X151974181Y-107781083D01*
X152007666Y-107842406D01*
X152010500Y-107868764D01*
X152010500Y-116884702D01*
X151990815Y-116951741D01*
X151959387Y-116985019D01*
X151906134Y-117023710D01*
X151787208Y-117155790D01*
X151698342Y-117309709D01*
X151643421Y-117478740D01*
X151639253Y-117518394D01*
X151624843Y-117655500D01*
X151643421Y-117832258D01*
X151643422Y-117832261D01*
X151692636Y-117983729D01*
X151694631Y-118053570D01*
X151658550Y-118113402D01*
X151595849Y-118144230D01*
X151526435Y-118136265D01*
X151487024Y-118109727D01*
X149617098Y-116239801D01*
X149609789Y-116231825D01*
X149584487Y-116201671D01*
X149550395Y-116181988D01*
X149541272Y-116176176D01*
X149508418Y-116153171D01*
X149482153Y-116142292D01*
X149442649Y-116135326D01*
X149432092Y-116132985D01*
X149394070Y-116122797D01*
X149357594Y-116125988D01*
X149354861Y-116126228D01*
X149344055Y-116126700D01*
X143789200Y-116126700D01*
X143722161Y-116107015D01*
X143676406Y-116054211D01*
X143665200Y-116002700D01*
X143665200Y-94463459D01*
X143684885Y-94396420D01*
X143701519Y-94375778D01*
X144628478Y-93448819D01*
X144689801Y-93415334D01*
X144716159Y-93412500D01*
X144758940Y-93412500D01*
X144825979Y-93432185D01*
X144871734Y-93484989D01*
X144881678Y-93554147D01*
X144852653Y-93617703D01*
X144846621Y-93624181D01*
X144595094Y-93875707D01*
X144587121Y-93883014D01*
X144556969Y-93908314D01*
X144537289Y-93942401D01*
X144531482Y-93951518D01*
X144508473Y-93984380D01*
X144497592Y-94010647D01*
X144490626Y-94050152D01*
X144488285Y-94060708D01*
X144478097Y-94098730D01*
X144481528Y-94137936D01*
X144482000Y-94148744D01*
X144482000Y-97249354D01*
X144481528Y-97260162D01*
X144478097Y-97299370D01*
X144488285Y-97337392D01*
X144490626Y-97347949D01*
X144497592Y-97387453D01*
X144508471Y-97413718D01*
X144531476Y-97446572D01*
X144537288Y-97455695D01*
X144556971Y-97489787D01*
X144587125Y-97515089D01*
X144595101Y-97522398D01*
X145480632Y-98407929D01*
X145514117Y-98469252D01*
X145514728Y-98483892D01*
X145515313Y-98483816D01*
X145522461Y-98538110D01*
X145535590Y-98637836D01*
X145565689Y-98710500D01*
X145588793Y-98766278D01*
X145673425Y-98876574D01*
X145715163Y-98908600D01*
X145783722Y-98961207D01*
X145912164Y-99014410D01*
X146050000Y-99032556D01*
X146187836Y-99014410D01*
X146316278Y-98961207D01*
X146426574Y-98876574D01*
X146511207Y-98766278D01*
X146564410Y-98637836D01*
X146582556Y-98500000D01*
X146564410Y-98362164D01*
X146511207Y-98233722D01*
X146476814Y-98188900D01*
X146426574Y-98123425D01*
X146316278Y-98038793D01*
X146239970Y-98007185D01*
X146187836Y-97985590D01*
X146148908Y-97980465D01*
X146033816Y-97965313D01*
X146034304Y-97961604D01*
X145992733Y-97955112D01*
X145957929Y-97930632D01*
X145193319Y-97166022D01*
X145159834Y-97104699D01*
X145157000Y-97078341D01*
X145157000Y-94914500D01*
X145176685Y-94847461D01*
X145229489Y-94801706D01*
X145281000Y-94790500D01*
X145566000Y-94790500D01*
X145633039Y-94810185D01*
X145678794Y-94862989D01*
X145690000Y-94914500D01*
X145690000Y-95772825D01*
X145670315Y-95839864D01*
X145641487Y-95871201D01*
X145573424Y-95923427D01*
X145488793Y-96033721D01*
X145435590Y-96162164D01*
X145417443Y-96300000D01*
X145427525Y-96376578D01*
X145435590Y-96437836D01*
X145468386Y-96517011D01*
X145488793Y-96566278D01*
X145573425Y-96676574D01*
X145627240Y-96717867D01*
X145683722Y-96761207D01*
X145812164Y-96814410D01*
X145950000Y-96832556D01*
X146087836Y-96814410D01*
X146216278Y-96761207D01*
X146326574Y-96676574D01*
X146411207Y-96566278D01*
X146464410Y-96437836D01*
X146482556Y-96300000D01*
X146464410Y-96162164D01*
X146411207Y-96033722D01*
X146390624Y-96006897D01*
X146365430Y-95941728D01*
X146365000Y-95931411D01*
X146365000Y-94914500D01*
X146384685Y-94847461D01*
X146437489Y-94801706D01*
X146489000Y-94790500D01*
X146780843Y-94790500D01*
X146802842Y-94786123D01*
X146814308Y-94783843D01*
X146883899Y-94790070D01*
X146939077Y-94832932D01*
X146962322Y-94898822D01*
X146962500Y-94905460D01*
X146962500Y-105082294D01*
X146942815Y-105149333D01*
X146932895Y-105160116D01*
X146933364Y-105160476D01*
X146923428Y-105173424D01*
X146923426Y-105173426D01*
X146873440Y-105238569D01*
X146838792Y-105283723D01*
X146785590Y-105412164D01*
X146767443Y-105549999D01*
X146779229Y-105639519D01*
X146785590Y-105687836D01*
X146818633Y-105767608D01*
X146838793Y-105816278D01*
X146923425Y-105926574D01*
X146969246Y-105961733D01*
X147033722Y-106011207D01*
X147162164Y-106064410D01*
X147300000Y-106082556D01*
X147437836Y-106064410D01*
X147566278Y-106011207D01*
X147676574Y-105926574D01*
X147761207Y-105816278D01*
X147814410Y-105687836D01*
X147832556Y-105550000D01*
X147814410Y-105412164D01*
X147761207Y-105283722D01*
X147676574Y-105173426D01*
X147676571Y-105173423D01*
X147666636Y-105160476D01*
X147669604Y-105158197D01*
X147644810Y-105124239D01*
X147637500Y-105082294D01*
X147637500Y-90339132D01*
X147637972Y-90328324D01*
X147641401Y-90289129D01*
X147631214Y-90251113D01*
X147628877Y-90240575D01*
X147622038Y-90201788D01*
X147622035Y-90201783D01*
X147621905Y-90201043D01*
X147611029Y-90174784D01*
X147588024Y-90141930D01*
X147582216Y-90132814D01*
X147562528Y-90098713D01*
X147532379Y-90073414D01*
X147524403Y-90066106D01*
X147058898Y-89600601D01*
X147051589Y-89592625D01*
X147014869Y-89548864D01*
X146981533Y-89513900D01*
X146968312Y-89445292D01*
X146970133Y-89432891D01*
X146974050Y-89413202D01*
X146978000Y-89393342D01*
X146978000Y-88956658D01*
X146977999Y-88956655D01*
X146961596Y-88874192D01*
X146961596Y-88825808D01*
X146978000Y-88743342D01*
X146978000Y-88306657D01*
X146965311Y-88242867D01*
X146916974Y-88170525D01*
X146844632Y-88122188D01*
X146780843Y-88109500D01*
X146780842Y-88109500D01*
X145274158Y-88109500D01*
X145274157Y-88109500D01*
X145210367Y-88122188D01*
X145138025Y-88170525D01*
X145089688Y-88242867D01*
X145077000Y-88306657D01*
X145077000Y-88743344D01*
X145093403Y-88825809D01*
X145093403Y-88874191D01*
X145077000Y-88956655D01*
X145077000Y-89393344D01*
X145093403Y-89475809D01*
X145093403Y-89524191D01*
X145077000Y-89606655D01*
X145077000Y-90013500D01*
X145057315Y-90080539D01*
X145004511Y-90126294D01*
X144953000Y-90137500D01*
X140086159Y-90137500D01*
X140019120Y-90117815D01*
X139998478Y-90101181D01*
X136022898Y-86125601D01*
X136015589Y-86117625D01*
X135990287Y-86087471D01*
X135956195Y-86067788D01*
X135947072Y-86061976D01*
X135914218Y-86038971D01*
X135887953Y-86028092D01*
X135848449Y-86021126D01*
X135837892Y-86018785D01*
X135799870Y-86008597D01*
X135763394Y-86011788D01*
X135760661Y-86012028D01*
X135749855Y-86012500D01*
X126410583Y-86012500D01*
X126343544Y-85992815D01*
X126297789Y-85940011D01*
X126288013Y-85907277D01*
X126287676Y-85905080D01*
X126262752Y-85742383D01*
X126194957Y-85559330D01*
X126091701Y-85393671D01*
X125957212Y-85252188D01*
X125957211Y-85252187D01*
X125957210Y-85252186D01*
X125796995Y-85140674D01*
X125617611Y-85063694D01*
X125564901Y-85052862D01*
X125426402Y-85024400D01*
X123781521Y-85024400D01*
X123778410Y-85024716D01*
X123778397Y-85024717D01*
X123635992Y-85039198D01*
X123479620Y-85088260D01*
X123409763Y-85089547D01*
X123350299Y-85052862D01*
X123320108Y-84989852D01*
X123318500Y-84969947D01*
X123318500Y-84504540D01*
X123338185Y-84437501D01*
X123390989Y-84391746D01*
X123460147Y-84381802D01*
X123491401Y-84390590D01*
X123528297Y-84406423D01*
X123728175Y-84447500D01*
X124452500Y-84447500D01*
X124452500Y-83926333D01*
X124544077Y-83939500D01*
X124614923Y-83939500D01*
X124706500Y-83926333D01*
X124706500Y-84447500D01*
X125376537Y-84447500D01*
X125382802Y-84447182D01*
X125531808Y-84432029D01*
X125726496Y-84370946D01*
X125904906Y-84271921D01*
X126059737Y-84139001D01*
X126184635Y-83977648D01*
X126274498Y-83794448D01*
X126325644Y-83596909D01*
X126326949Y-83571200D01*
X125058419Y-83571200D01*
X125074800Y-83515413D01*
X125074800Y-83372987D01*
X125058419Y-83317200D01*
X126324349Y-83317200D01*
X126324348Y-83317199D01*
X126305081Y-83191422D01*
X126234214Y-83000075D01*
X126126275Y-82826904D01*
X125985693Y-82679013D01*
X125818214Y-82562444D01*
X125630700Y-82481975D01*
X125430825Y-82440900D01*
X124706500Y-82440900D01*
X124706500Y-82962066D01*
X124614923Y-82948900D01*
X124544077Y-82948900D01*
X124452500Y-82962066D01*
X124452500Y-82440900D01*
X123782463Y-82440900D01*
X123776197Y-82441217D01*
X123627196Y-82456370D01*
X123479620Y-82502671D01*
X123409762Y-82503957D01*
X123350298Y-82467272D01*
X123320108Y-82404261D01*
X123318500Y-82384357D01*
X123318500Y-81917204D01*
X123338185Y-81850165D01*
X123390989Y-81804410D01*
X123460147Y-81794466D01*
X123491393Y-81803251D01*
X123541389Y-81824706D01*
X123732598Y-81864000D01*
X123732600Y-81864000D01*
X125374337Y-81864000D01*
X125377479Y-81864000D01*
X125523003Y-81849202D01*
X125709255Y-81790765D01*
X125879931Y-81696032D01*
X126028044Y-81568881D01*
X126147530Y-81414518D01*
X126233496Y-81239263D01*
X126282425Y-81050290D01*
X126289782Y-80905218D01*
X126312837Y-80839263D01*
X126367891Y-80796241D01*
X126413623Y-80787500D01*
X133305501Y-80787500D01*
X133372540Y-80807185D01*
X133418295Y-80859989D01*
X133429501Y-80911499D01*
X133429501Y-81035472D01*
X133429770Y-81038346D01*
X133429771Y-81038358D01*
X133432417Y-81066579D01*
X133478266Y-81197608D01*
X133560698Y-81309301D01*
X133641182Y-81368700D01*
X133672392Y-81391734D01*
X133803421Y-81437583D01*
X133834527Y-81440500D01*
X134645472Y-81440499D01*
X134676579Y-81437583D01*
X134807608Y-81391734D01*
X134919301Y-81309301D01*
X135001734Y-81197608D01*
X135047583Y-81066579D01*
X135050500Y-81035473D01*
X135050499Y-80024528D01*
X135047583Y-79993421D01*
X135001734Y-79862392D01*
X134928205Y-79762763D01*
X134919301Y-79750698D01*
X134807608Y-79668266D01*
X134676577Y-79622416D01*
X134648358Y-79619770D01*
X134648346Y-79619769D01*
X134645473Y-79619500D01*
X134642579Y-79619500D01*
X133837430Y-79619500D01*
X133837408Y-79619500D01*
X133834528Y-79619501D01*
X133831654Y-79619770D01*
X133831641Y-79619771D01*
X133803420Y-79622417D01*
X133672391Y-79668266D01*
X133560698Y-79750698D01*
X133478266Y-79862391D01*
X133478265Y-79862392D01*
X133478266Y-79862392D01*
X133432417Y-79993421D01*
X133431792Y-80000078D01*
X133405937Y-80064984D01*
X133349092Y-80105610D01*
X133308335Y-80112500D01*
X125910361Y-80112500D01*
X125843322Y-80092815D01*
X125839524Y-80090275D01*
X125822606Y-80078500D01*
X125796995Y-80060674D01*
X125617611Y-79983694D01*
X125426402Y-79944400D01*
X123781521Y-79944400D01*
X123778410Y-79944716D01*
X123778397Y-79944717D01*
X123635992Y-79959198D01*
X123479620Y-80008260D01*
X123409763Y-80009547D01*
X123350299Y-79972862D01*
X123320108Y-79909852D01*
X123318500Y-79889947D01*
X123318500Y-79424540D01*
X123338185Y-79357501D01*
X123390989Y-79311746D01*
X123460147Y-79301802D01*
X123491401Y-79310590D01*
X123528297Y-79326423D01*
X123728175Y-79367500D01*
X124452500Y-79367500D01*
X124452500Y-78846333D01*
X124544077Y-78859500D01*
X124614923Y-78859500D01*
X124706500Y-78846333D01*
X124706500Y-79367500D01*
X125376537Y-79367500D01*
X125382802Y-79367182D01*
X125531808Y-79352029D01*
X125726496Y-79290946D01*
X125904906Y-79191921D01*
X126059737Y-79059001D01*
X126184635Y-78897648D01*
X126274498Y-78714448D01*
X126325644Y-78516909D01*
X126326949Y-78491200D01*
X125058419Y-78491200D01*
X125074800Y-78435413D01*
X125074800Y-78292987D01*
X125058419Y-78237200D01*
X126324349Y-78237200D01*
X126324348Y-78237199D01*
X126305081Y-78111422D01*
X126234214Y-77920075D01*
X126126275Y-77746904D01*
X125985693Y-77599013D01*
X125818214Y-77482444D01*
X125630700Y-77401975D01*
X125430825Y-77360900D01*
X124706500Y-77360900D01*
X124706500Y-77882066D01*
X124614923Y-77868900D01*
X124544077Y-77868900D01*
X124452500Y-77882066D01*
X124452500Y-77360900D01*
X123782463Y-77360900D01*
X123776197Y-77361217D01*
X123627196Y-77376370D01*
X123479620Y-77422671D01*
X123409762Y-77423957D01*
X123350298Y-77387272D01*
X123320108Y-77324261D01*
X123318500Y-77304357D01*
X123318500Y-76837204D01*
X123338185Y-76770165D01*
X123390989Y-76724410D01*
X123460147Y-76714466D01*
X123491393Y-76723251D01*
X123541389Y-76744706D01*
X123732598Y-76784000D01*
X123732600Y-76784000D01*
X125374337Y-76784000D01*
X125377479Y-76784000D01*
X125523003Y-76769202D01*
X125709255Y-76710765D01*
X125879931Y-76616032D01*
X126028044Y-76488881D01*
X126147530Y-76334518D01*
X126233496Y-76159263D01*
X126282425Y-75970290D01*
X126292312Y-75775336D01*
X126267953Y-75616329D01*
X126262752Y-75582382D01*
X126194958Y-75399332D01*
X126160517Y-75344076D01*
X126091701Y-75233671D01*
X125957212Y-75092188D01*
X125957211Y-75092187D01*
X125957210Y-75092186D01*
X125796995Y-74980674D01*
X125617611Y-74903694D01*
X125617611Y-74903693D01*
X125426402Y-74864400D01*
X123781521Y-74864400D01*
X123778410Y-74864716D01*
X123778397Y-74864717D01*
X123635992Y-74879198D01*
X123479620Y-74928260D01*
X123409763Y-74929547D01*
X123350299Y-74892862D01*
X123320108Y-74829852D01*
X123318500Y-74809947D01*
X123318500Y-70744200D01*
X126269028Y-70744200D01*
X126269210Y-70747556D01*
X126288720Y-71107411D01*
X126288721Y-71107422D01*
X126288903Y-71110775D01*
X126289447Y-71114096D01*
X126289448Y-71114101D01*
X126347750Y-71469732D01*
X126347753Y-71469747D01*
X126348295Y-71473051D01*
X126446508Y-71826783D01*
X126582391Y-72167822D01*
X126583961Y-72170784D01*
X126583966Y-72170794D01*
X126706745Y-72402379D01*
X126754350Y-72492171D01*
X126960369Y-72796026D01*
X127198033Y-73075826D01*
X127200464Y-73078129D01*
X127200470Y-73078135D01*
X127383953Y-73251939D01*
X127464555Y-73328289D01*
X127756811Y-73550456D01*
X128071374Y-73739723D01*
X128404557Y-73893870D01*
X128752453Y-74011089D01*
X129110983Y-74090008D01*
X129475944Y-74129700D01*
X129479302Y-74129700D01*
X129839698Y-74129700D01*
X129843056Y-74129700D01*
X130208017Y-74090008D01*
X130566547Y-74011089D01*
X130914443Y-73893870D01*
X131247626Y-73739723D01*
X131562189Y-73550456D01*
X131854445Y-73328289D01*
X132120967Y-73075826D01*
X132358631Y-72796026D01*
X132564650Y-72492171D01*
X132736609Y-72167822D01*
X132872492Y-71826783D01*
X132970705Y-71473051D01*
X133030097Y-71110775D01*
X133049972Y-70744200D01*
X164369028Y-70744200D01*
X164369210Y-70747556D01*
X164388720Y-71107411D01*
X164388721Y-71107422D01*
X164388903Y-71110775D01*
X164389447Y-71114096D01*
X164389448Y-71114101D01*
X164447750Y-71469732D01*
X164447753Y-71469747D01*
X164448295Y-71473051D01*
X164546508Y-71826783D01*
X164682391Y-72167822D01*
X164683961Y-72170784D01*
X164683966Y-72170794D01*
X164806745Y-72402379D01*
X164854350Y-72492171D01*
X165060369Y-72796026D01*
X165298033Y-73075826D01*
X165300464Y-73078129D01*
X165300470Y-73078135D01*
X165483953Y-73251939D01*
X165564555Y-73328289D01*
X165856811Y-73550456D01*
X166171374Y-73739723D01*
X166504557Y-73893870D01*
X166852453Y-74011089D01*
X167210983Y-74090008D01*
X167575944Y-74129700D01*
X167579302Y-74129700D01*
X167939698Y-74129700D01*
X167943056Y-74129700D01*
X168308017Y-74090008D01*
X168666547Y-74011089D01*
X169014443Y-73893870D01*
X169347626Y-73739723D01*
X169662189Y-73550456D01*
X169954445Y-73328289D01*
X170220967Y-73075826D01*
X170458631Y-72796026D01*
X170664650Y-72492171D01*
X170836609Y-72167822D01*
X170972492Y-71826783D01*
X171070705Y-71473051D01*
X171130097Y-71110775D01*
X171149972Y-70744200D01*
X171130097Y-70377625D01*
X171070705Y-70015349D01*
X170972492Y-69661617D01*
X170836609Y-69320578D01*
X170664650Y-68996229D01*
X170458631Y-68692374D01*
X170220967Y-68412574D01*
X170218534Y-68410269D01*
X170218529Y-68410264D01*
X169956875Y-68162413D01*
X169954445Y-68160111D01*
X169662189Y-67937944D01*
X169659315Y-67936215D01*
X169659311Y-67936212D01*
X169350508Y-67750411D01*
X169350507Y-67750410D01*
X169347626Y-67748677D01*
X169014443Y-67594530D01*
X168954361Y-67574286D01*
X168669722Y-67478380D01*
X168669708Y-67478376D01*
X168666547Y-67477311D01*
X168663280Y-67476592D01*
X168663277Y-67476591D01*
X168311298Y-67399114D01*
X168311294Y-67399113D01*
X168308017Y-67398392D01*
X168304678Y-67398028D01*
X168304673Y-67398028D01*
X167946394Y-67359063D01*
X167946393Y-67359062D01*
X167943056Y-67358700D01*
X167575944Y-67358700D01*
X167572607Y-67359062D01*
X167572605Y-67359063D01*
X167214326Y-67398028D01*
X167214318Y-67398029D01*
X167210983Y-67398392D01*
X167207708Y-67399112D01*
X167207701Y-67399114D01*
X166855722Y-67476591D01*
X166855714Y-67476593D01*
X166852453Y-67477311D01*
X166849295Y-67478374D01*
X166849277Y-67478380D01*
X166507744Y-67593456D01*
X166507741Y-67593457D01*
X166504557Y-67594530D01*
X166501508Y-67595940D01*
X166501502Y-67595943D01*
X166174429Y-67747263D01*
X166174420Y-67747267D01*
X166171374Y-67748677D01*
X166168500Y-67750406D01*
X166168491Y-67750411D01*
X165859688Y-67936212D01*
X165859675Y-67936220D01*
X165856811Y-67937944D01*
X165854153Y-67939964D01*
X165854142Y-67939972D01*
X165567214Y-68158089D01*
X165567206Y-68158095D01*
X165564555Y-68160111D01*
X165562131Y-68162406D01*
X165562124Y-68162413D01*
X165300470Y-68410264D01*
X165300455Y-68410279D01*
X165298033Y-68412574D01*
X165295870Y-68415119D01*
X165295859Y-68415132D01*
X165062542Y-68689815D01*
X165062536Y-68689822D01*
X165060369Y-68692374D01*
X165058488Y-68695146D01*
X165058482Y-68695156D01*
X164856240Y-68993440D01*
X164856232Y-68993452D01*
X164854350Y-68996229D01*
X164852775Y-68999199D01*
X164852773Y-68999203D01*
X164683966Y-69317605D01*
X164683957Y-69317622D01*
X164682391Y-69320578D01*
X164681150Y-69323690D01*
X164681146Y-69323701D01*
X164547756Y-69658484D01*
X164546508Y-69661617D01*
X164448295Y-70015349D01*
X164447754Y-70018648D01*
X164447750Y-70018667D01*
X164389448Y-70374298D01*
X164388903Y-70377625D01*
X164388721Y-70380975D01*
X164388720Y-70380988D01*
X164369210Y-70740843D01*
X164369028Y-70744200D01*
X133049972Y-70744200D01*
X133030097Y-70377625D01*
X132970705Y-70015349D01*
X132872492Y-69661617D01*
X132736609Y-69320578D01*
X132564650Y-68996229D01*
X132358631Y-68692374D01*
X132120967Y-68412574D01*
X132118534Y-68410269D01*
X132118529Y-68410264D01*
X131856875Y-68162413D01*
X131854445Y-68160111D01*
X131562189Y-67937944D01*
X131559315Y-67936215D01*
X131559311Y-67936212D01*
X131250508Y-67750411D01*
X131250507Y-67750410D01*
X131247626Y-67748677D01*
X130914443Y-67594530D01*
X130854361Y-67574286D01*
X130569722Y-67478380D01*
X130569708Y-67478376D01*
X130566547Y-67477311D01*
X130563280Y-67476592D01*
X130563277Y-67476591D01*
X130211298Y-67399114D01*
X130211294Y-67399113D01*
X130208017Y-67398392D01*
X130204678Y-67398028D01*
X130204673Y-67398028D01*
X129846394Y-67359063D01*
X129846393Y-67359062D01*
X129843056Y-67358700D01*
X129475944Y-67358700D01*
X129472607Y-67359062D01*
X129472605Y-67359063D01*
X129114326Y-67398028D01*
X129114318Y-67398029D01*
X129110983Y-67398392D01*
X129107708Y-67399112D01*
X129107701Y-67399114D01*
X128755722Y-67476591D01*
X128755714Y-67476593D01*
X128752453Y-67477311D01*
X128749295Y-67478374D01*
X128749277Y-67478380D01*
X128407744Y-67593456D01*
X128407741Y-67593457D01*
X128404557Y-67594530D01*
X128401508Y-67595940D01*
X128401502Y-67595943D01*
X128074429Y-67747263D01*
X128074420Y-67747267D01*
X128071374Y-67748677D01*
X128068500Y-67750406D01*
X128068491Y-67750411D01*
X127759688Y-67936212D01*
X127759675Y-67936220D01*
X127756811Y-67937944D01*
X127754153Y-67939964D01*
X127754142Y-67939972D01*
X127467214Y-68158089D01*
X127467206Y-68158095D01*
X127464555Y-68160111D01*
X127462131Y-68162406D01*
X127462124Y-68162413D01*
X127200470Y-68410264D01*
X127200455Y-68410279D01*
X127198033Y-68412574D01*
X127195870Y-68415119D01*
X127195859Y-68415132D01*
X126962542Y-68689815D01*
X126962536Y-68689822D01*
X126960369Y-68692374D01*
X126958488Y-68695146D01*
X126958482Y-68695156D01*
X126756240Y-68993440D01*
X126756232Y-68993452D01*
X126754350Y-68996229D01*
X126752775Y-68999199D01*
X126752773Y-68999203D01*
X126583966Y-69317605D01*
X126583957Y-69317622D01*
X126582391Y-69320578D01*
X126581150Y-69323690D01*
X126581146Y-69323701D01*
X126447756Y-69658484D01*
X126446508Y-69661617D01*
X126348295Y-70015349D01*
X126347754Y-70018648D01*
X126347750Y-70018667D01*
X126289448Y-70374298D01*
X126288903Y-70377625D01*
X126288721Y-70380975D01*
X126288720Y-70380988D01*
X126269210Y-70740843D01*
X126269028Y-70744200D01*
X123318500Y-70744200D01*
X123318500Y-64012000D01*
X123338185Y-63944961D01*
X123390989Y-63899206D01*
X123442500Y-63888000D01*
X173994500Y-63888000D01*
X174061539Y-63907685D01*
G37*
%TD.AperFunction*%
%TA.AperFunction,Conductor*%
G36*
X171246958Y-78848385D02*
G01*
X171285150Y-78887107D01*
X171327299Y-78954729D01*
X171461788Y-79096212D01*
X171622005Y-79207726D01*
X171801389Y-79284706D01*
X171992598Y-79324000D01*
X171992600Y-79324000D01*
X173634337Y-79324000D01*
X173637479Y-79324000D01*
X173783003Y-79309202D01*
X173957382Y-79254489D01*
X174027236Y-79253202D01*
X174086700Y-79289887D01*
X174116892Y-79352897D01*
X174118500Y-79372803D01*
X174118500Y-79898920D01*
X174098815Y-79965959D01*
X174046011Y-80011714D01*
X173976853Y-80021658D01*
X173945603Y-80012871D01*
X173877611Y-79983694D01*
X173686402Y-79944400D01*
X172041521Y-79944400D01*
X172038410Y-79944716D01*
X172038397Y-79944717D01*
X171895994Y-79959198D01*
X171709745Y-80017635D01*
X171539068Y-80112368D01*
X171390955Y-80239519D01*
X171273236Y-80391601D01*
X171216635Y-80432565D01*
X171175180Y-80439700D01*
X169818855Y-80439700D01*
X169804971Y-80438920D01*
X169768235Y-80434780D01*
X169710270Y-80445748D01*
X169705702Y-80446525D01*
X169641599Y-80456188D01*
X169635783Y-80458102D01*
X169578499Y-80488377D01*
X169574362Y-80490465D01*
X169515960Y-80518590D01*
X169510958Y-80522140D01*
X169465141Y-80567956D01*
X169461805Y-80571169D01*
X169414277Y-80615270D01*
X169402566Y-80630530D01*
X168483917Y-81549181D01*
X168422594Y-81582666D01*
X168396236Y-81585500D01*
X164118039Y-81585500D01*
X164051000Y-81565815D01*
X164005245Y-81513011D01*
X164000997Y-81502455D01*
X163999438Y-81498000D01*
X163964234Y-81397392D01*
X163964233Y-81397390D01*
X163881801Y-81285698D01*
X163770108Y-81203266D01*
X163639077Y-81157416D01*
X163610858Y-81154770D01*
X163610846Y-81154769D01*
X163607973Y-81154500D01*
X163605078Y-81154500D01*
X162599930Y-81154500D01*
X162599908Y-81154500D01*
X162597028Y-81154501D01*
X162594154Y-81154770D01*
X162594141Y-81154771D01*
X162565920Y-81157417D01*
X162434891Y-81203266D01*
X162323198Y-81285698D01*
X162240766Y-81397391D01*
X162233746Y-81417454D01*
X162193024Y-81474230D01*
X162128072Y-81499978D01*
X162116704Y-81500500D01*
X161007297Y-81500500D01*
X160940258Y-81480815D01*
X160894503Y-81428011D01*
X160890255Y-81417454D01*
X160889380Y-81414954D01*
X160886734Y-81407392D01*
X160814340Y-81309301D01*
X160804301Y-81295698D01*
X160692608Y-81213266D01*
X160561577Y-81167416D01*
X160533358Y-81164770D01*
X160533346Y-81164769D01*
X160530473Y-81164500D01*
X160527578Y-81164500D01*
X159472430Y-81164500D01*
X159472408Y-81164500D01*
X159469528Y-81164501D01*
X159466654Y-81164770D01*
X159466641Y-81164771D01*
X159438420Y-81167417D01*
X159307391Y-81213266D01*
X159195698Y-81295698D01*
X159113266Y-81407390D01*
X159110620Y-81414954D01*
X159069899Y-81471730D01*
X159004946Y-81497478D01*
X158993578Y-81498000D01*
X157306422Y-81498000D01*
X157239383Y-81478315D01*
X157193628Y-81425511D01*
X157189380Y-81414954D01*
X157186733Y-81407390D01*
X157104301Y-81295698D01*
X156992608Y-81213266D01*
X156861577Y-81167416D01*
X156833358Y-81164770D01*
X156833346Y-81164769D01*
X156830473Y-81164500D01*
X156827578Y-81164500D01*
X155772430Y-81164500D01*
X155772408Y-81164500D01*
X155769528Y-81164501D01*
X155766654Y-81164770D01*
X155766641Y-81164771D01*
X155738420Y-81167417D01*
X155607391Y-81213266D01*
X155495698Y-81295698D01*
X155413266Y-81407391D01*
X155367416Y-81538422D01*
X155364770Y-81566641D01*
X155364769Y-81566654D01*
X155364500Y-81569527D01*
X155364500Y-81572419D01*
X155364500Y-81572420D01*
X155364500Y-82352569D01*
X155364500Y-82352590D01*
X155364501Y-82355472D01*
X155364770Y-82358346D01*
X155364771Y-82358358D01*
X155367417Y-82386579D01*
X155413266Y-82517608D01*
X155495698Y-82629301D01*
X155578131Y-82690138D01*
X155607392Y-82711734D01*
X155738421Y-82757583D01*
X155769527Y-82760500D01*
X156830472Y-82760499D01*
X156861579Y-82757583D01*
X156992608Y-82711734D01*
X157104301Y-82629301D01*
X157186734Y-82517608D01*
X157189380Y-82510045D01*
X157230101Y-82453270D01*
X157295054Y-82427522D01*
X157306422Y-82427000D01*
X158993578Y-82427000D01*
X159060617Y-82446685D01*
X159106372Y-82499489D01*
X159110620Y-82510046D01*
X159113266Y-82517609D01*
X159195698Y-82629301D01*
X159278130Y-82690138D01*
X159307392Y-82711734D01*
X159438421Y-82757583D01*
X159469527Y-82760500D01*
X160530472Y-82760499D01*
X160561579Y-82757583D01*
X160692608Y-82711734D01*
X160804301Y-82629301D01*
X160886734Y-82517608D01*
X160888505Y-82512548D01*
X160929225Y-82455771D01*
X160994178Y-82430022D01*
X161005547Y-82429500D01*
X162116704Y-82429500D01*
X162183743Y-82449185D01*
X162229498Y-82501989D01*
X162233746Y-82512546D01*
X162240766Y-82532608D01*
X162323198Y-82644301D01*
X162370232Y-82679013D01*
X162434892Y-82726734D01*
X162554955Y-82768745D01*
X162611730Y-82809467D01*
X162637478Y-82874419D01*
X162638000Y-82885787D01*
X162638000Y-83869453D01*
X162637220Y-83883337D01*
X162633081Y-83920065D01*
X162644049Y-83978028D01*
X162644826Y-83982598D01*
X162654488Y-84046700D01*
X162656403Y-84052519D01*
X162686687Y-84109820D01*
X162688776Y-84113958D01*
X162716895Y-84172348D01*
X162720435Y-84177337D01*
X162766254Y-84223156D01*
X162769471Y-84226495D01*
X162809618Y-84269763D01*
X162809619Y-84269763D01*
X162813578Y-84274030D01*
X162828834Y-84285736D01*
X163640732Y-85097635D01*
X164448177Y-85905080D01*
X164457443Y-85915449D01*
X164480489Y-85944348D01*
X164529235Y-85977581D01*
X164532995Y-85980248D01*
X164580502Y-86015310D01*
X164580504Y-86015310D01*
X164585190Y-86018769D01*
X164590616Y-86021508D01*
X164596179Y-86023224D01*
X164596184Y-86023227D01*
X164652620Y-86040634D01*
X164656920Y-86042050D01*
X164712669Y-86061558D01*
X164712672Y-86061558D01*
X164718162Y-86063479D01*
X164724167Y-86064500D01*
X164729988Y-86064500D01*
X164788995Y-86064500D01*
X164793631Y-86064587D01*
X164852596Y-86066793D01*
X164852597Y-86066792D01*
X164858407Y-86067010D01*
X164877478Y-86064500D01*
X171025054Y-86064500D01*
X171092093Y-86084185D01*
X171137848Y-86136989D01*
X171147624Y-86169724D01*
X171156247Y-86226016D01*
X171224041Y-86409067D01*
X171224043Y-86409070D01*
X171327299Y-86574729D01*
X171461788Y-86716212D01*
X171622005Y-86827726D01*
X171801389Y-86904706D01*
X171992598Y-86944000D01*
X171992600Y-86944000D01*
X173634337Y-86944000D01*
X173637479Y-86944000D01*
X173783003Y-86929202D01*
X173957382Y-86874489D01*
X174027236Y-86873202D01*
X174086700Y-86909887D01*
X174116892Y-86972897D01*
X174118500Y-86992803D01*
X174118500Y-87518920D01*
X174098815Y-87585959D01*
X174046011Y-87631714D01*
X173976853Y-87641658D01*
X173945603Y-87632871D01*
X173877611Y-87603694D01*
X173686402Y-87564400D01*
X172041521Y-87564400D01*
X172038410Y-87564716D01*
X172038397Y-87564717D01*
X171895994Y-87579198D01*
X171709745Y-87637635D01*
X171539068Y-87732368D01*
X171390955Y-87859519D01*
X171271469Y-88013881D01*
X171185505Y-88189133D01*
X171185503Y-88189137D01*
X171185504Y-88189137D01*
X171138483Y-88370743D01*
X171136575Y-88378111D01*
X171126687Y-88573064D01*
X171156247Y-88766017D01*
X171224041Y-88949067D01*
X171255135Y-88998952D01*
X171327299Y-89114729D01*
X171461788Y-89256212D01*
X171622005Y-89367726D01*
X171801389Y-89444706D01*
X171992598Y-89484000D01*
X171992600Y-89484000D01*
X173634337Y-89484000D01*
X173637479Y-89484000D01*
X173783003Y-89469202D01*
X173957382Y-89414489D01*
X174027236Y-89413202D01*
X174086700Y-89449887D01*
X174116892Y-89512897D01*
X174118500Y-89532803D01*
X174118500Y-90011584D01*
X174098815Y-90078623D01*
X174046011Y-90124378D01*
X173976853Y-90134322D01*
X173945600Y-90125535D01*
X173890700Y-90101975D01*
X173690825Y-90060900D01*
X172966500Y-90060900D01*
X172966500Y-90582066D01*
X172874923Y-90568900D01*
X172804077Y-90568900D01*
X172712500Y-90582066D01*
X172712500Y-90060900D01*
X172042463Y-90060900D01*
X172036197Y-90061217D01*
X171887191Y-90076370D01*
X171692503Y-90137453D01*
X171514093Y-90236478D01*
X171359262Y-90369398D01*
X171234364Y-90530751D01*
X171144501Y-90713951D01*
X171093355Y-90911490D01*
X171092051Y-90937200D01*
X172360581Y-90937200D01*
X172344200Y-90992987D01*
X172344200Y-91135413D01*
X172360581Y-91191200D01*
X171094651Y-91191200D01*
X171113918Y-91316977D01*
X171184785Y-91508324D01*
X171292724Y-91681495D01*
X171433306Y-91829386D01*
X171600785Y-91945955D01*
X171788299Y-92026424D01*
X171988175Y-92067500D01*
X172712500Y-92067500D01*
X172712500Y-91546333D01*
X172804077Y-91559500D01*
X172874923Y-91559500D01*
X172966500Y-91546333D01*
X172966500Y-92067500D01*
X173636537Y-92067500D01*
X173642802Y-92067182D01*
X173791806Y-92052029D01*
X173957379Y-92000081D01*
X174027237Y-91998793D01*
X174086701Y-92035479D01*
X174116892Y-92098489D01*
X174118500Y-92118394D01*
X174118500Y-92598920D01*
X174098815Y-92665959D01*
X174046011Y-92711714D01*
X173976853Y-92721658D01*
X173945603Y-92712871D01*
X173877611Y-92683694D01*
X173686402Y-92644400D01*
X172041521Y-92644400D01*
X172038410Y-92644716D01*
X172038397Y-92644717D01*
X171895994Y-92659198D01*
X171709745Y-92717635D01*
X171539068Y-92812368D01*
X171390955Y-92939519D01*
X171322388Y-93028101D01*
X171265787Y-93069065D01*
X171224332Y-93076200D01*
X170699931Y-93076200D01*
X170695700Y-93076128D01*
X170688902Y-93075895D01*
X170634297Y-93074031D01*
X170634296Y-93074031D01*
X170634295Y-93074031D01*
X170596264Y-93083298D01*
X170583797Y-93085668D01*
X170545004Y-93091000D01*
X170529619Y-93097683D01*
X170509584Y-93104420D01*
X170493283Y-93108392D01*
X170459153Y-93127583D01*
X170447782Y-93133230D01*
X170411878Y-93148825D01*
X170398862Y-93159414D01*
X170381391Y-93171305D01*
X170366765Y-93179529D01*
X170339076Y-93207217D01*
X170329657Y-93215717D01*
X170299290Y-93240424D01*
X170289612Y-93254134D01*
X170275993Y-93270300D01*
X163284517Y-100261776D01*
X163281474Y-100264717D01*
X163236573Y-100306652D01*
X163216232Y-100340102D01*
X163209091Y-100350595D01*
X163185436Y-100381790D01*
X163179280Y-100397399D01*
X163169878Y-100416328D01*
X163161159Y-100430666D01*
X163150597Y-100468360D01*
X163146552Y-100480389D01*
X163132187Y-100516817D01*
X163130471Y-100533508D01*
X163126525Y-100554272D01*
X163122000Y-100570424D01*
X163122000Y-100571832D01*
X163102315Y-100638871D01*
X163091715Y-100653033D01*
X163062843Y-100686354D01*
X163029818Y-100737741D01*
X162970091Y-100868522D01*
X162952880Y-100927141D01*
X162932418Y-101069456D01*
X162932418Y-101130544D01*
X162934114Y-101142340D01*
X162935376Y-101159986D01*
X162935376Y-101392165D01*
X162932609Y-101406728D01*
X162933931Y-101406864D01*
X162930471Y-101440508D01*
X162926525Y-101461272D01*
X162922000Y-101477424D01*
X162922000Y-101516574D01*
X162921350Y-101529254D01*
X162917346Y-101568195D01*
X162920197Y-101584725D01*
X162922000Y-101605795D01*
X162922000Y-105242797D01*
X162902315Y-105309836D01*
X162856453Y-105352155D01*
X162732968Y-105418159D01*
X162571485Y-105550685D01*
X162438959Y-105712167D01*
X162340486Y-105896398D01*
X162279844Y-106096307D01*
X162259369Y-106304200D01*
X162279844Y-106512092D01*
X162304150Y-106592218D01*
X162340485Y-106711999D01*
X162438960Y-106896233D01*
X162571485Y-107057715D01*
X162681164Y-107147726D01*
X162742408Y-107197988D01*
X162741405Y-107199208D01*
X162781293Y-107238383D01*
X162797000Y-107298788D01*
X162797000Y-107849610D01*
X162777315Y-107916649D01*
X162741684Y-107949530D01*
X162742408Y-107950412D01*
X162571485Y-108090685D01*
X162438959Y-108252167D01*
X162340486Y-108436398D01*
X162279844Y-108636307D01*
X162259369Y-108844200D01*
X162279844Y-109052092D01*
X162340486Y-109252001D01*
X162434448Y-109427793D01*
X162438960Y-109436233D01*
X162571485Y-109597715D01*
X162681164Y-109687726D01*
X162742408Y-109737988D01*
X162741405Y-109739208D01*
X162781293Y-109778383D01*
X162797000Y-109838788D01*
X162797000Y-110389610D01*
X162777315Y-110456649D01*
X162741684Y-110489530D01*
X162742408Y-110490412D01*
X162571485Y-110630685D01*
X162438959Y-110792167D01*
X162340486Y-110976398D01*
X162279844Y-111176307D01*
X162259369Y-111384199D01*
X162279844Y-111592092D01*
X162279845Y-111592094D01*
X162332143Y-111764500D01*
X162340486Y-111792001D01*
X162438959Y-111976232D01*
X162451214Y-111991165D01*
X162571485Y-112137715D01*
X162732967Y-112270240D01*
X162917201Y-112368715D01*
X163117106Y-112429355D01*
X163325000Y-112449831D01*
X163532894Y-112429355D01*
X163732799Y-112368715D01*
X163917033Y-112270240D01*
X164078515Y-112137715D01*
X164211040Y-111976233D01*
X164309515Y-111791999D01*
X164370155Y-111592094D01*
X164390631Y-111384200D01*
X164799369Y-111384200D01*
X164819844Y-111592092D01*
X164819845Y-111592094D01*
X164872143Y-111764500D01*
X164880486Y-111792001D01*
X164978959Y-111976232D01*
X164991214Y-111991165D01*
X165111485Y-112137715D01*
X165272967Y-112270240D01*
X165457201Y-112368715D01*
X165657106Y-112429355D01*
X165865000Y-112449831D01*
X166072894Y-112429355D01*
X166272799Y-112368715D01*
X166457033Y-112270240D01*
X166618515Y-112137715D01*
X166751040Y-111976233D01*
X166849515Y-111791999D01*
X166910155Y-111592094D01*
X166930631Y-111384200D01*
X166910155Y-111176306D01*
X166849515Y-110976401D01*
X166751040Y-110792167D01*
X166618515Y-110630685D01*
X166462253Y-110502444D01*
X166457032Y-110498159D01*
X166272801Y-110399686D01*
X166272800Y-110399685D01*
X166272799Y-110399685D01*
X166172846Y-110369365D01*
X166072892Y-110339044D01*
X165887711Y-110320805D01*
X165865000Y-110318569D01*
X165864999Y-110318569D01*
X165657107Y-110339044D01*
X165457198Y-110399686D01*
X165272967Y-110498159D01*
X165111485Y-110630685D01*
X164978959Y-110792167D01*
X164880486Y-110976398D01*
X164819844Y-111176307D01*
X164799369Y-111384200D01*
X164390631Y-111384200D01*
X164370155Y-111176306D01*
X164309515Y-110976401D01*
X164211040Y-110792167D01*
X164078515Y-110630685D01*
X163917033Y-110498160D01*
X163917032Y-110498159D01*
X163907592Y-110490412D01*
X163908592Y-110489192D01*
X163868697Y-110449996D01*
X163853000Y-110389610D01*
X163853000Y-109838788D01*
X163872685Y-109771749D01*
X163908317Y-109738871D01*
X163907592Y-109737988D01*
X163968836Y-109687726D01*
X164078515Y-109597715D01*
X164211040Y-109436233D01*
X164309515Y-109251999D01*
X164370155Y-109052094D01*
X164390631Y-108844200D01*
X164370155Y-108636306D01*
X164309515Y-108436401D01*
X164211040Y-108252167D01*
X164078515Y-108090685D01*
X163917033Y-107958160D01*
X163917032Y-107958159D01*
X163907592Y-107950412D01*
X163908592Y-107949192D01*
X163868697Y-107909996D01*
X163853000Y-107849610D01*
X163853000Y-107298788D01*
X163872685Y-107231749D01*
X163908317Y-107198871D01*
X163907592Y-107197988D01*
X163968836Y-107147726D01*
X164078515Y-107057715D01*
X164211040Y-106896233D01*
X164309515Y-106711999D01*
X164370155Y-106512094D01*
X164390631Y-106304200D01*
X164390631Y-106304199D01*
X164799369Y-106304199D01*
X164819844Y-106512092D01*
X164844150Y-106592218D01*
X164880485Y-106711999D01*
X164978960Y-106896233D01*
X165111485Y-107057715D01*
X165272967Y-107190240D01*
X165457201Y-107288715D01*
X165657106Y-107349355D01*
X165865000Y-107369831D01*
X166072894Y-107349355D01*
X166272799Y-107288715D01*
X166457033Y-107190240D01*
X166618515Y-107057715D01*
X166751040Y-106896233D01*
X166849515Y-106711999D01*
X166910155Y-106512094D01*
X166930631Y-106304200D01*
X166910155Y-106096306D01*
X166849515Y-105896401D01*
X166751040Y-105712167D01*
X166618515Y-105550685D01*
X166469746Y-105428593D01*
X166457032Y-105418159D01*
X166272801Y-105319686D01*
X166272800Y-105319685D01*
X166272799Y-105319685D01*
X166154244Y-105283722D01*
X166072892Y-105259044D01*
X165887711Y-105240805D01*
X165865000Y-105238569D01*
X165864999Y-105238569D01*
X165657107Y-105259044D01*
X165457198Y-105319686D01*
X165272967Y-105418159D01*
X165111485Y-105550685D01*
X164978959Y-105712167D01*
X164880486Y-105896398D01*
X164819844Y-106096307D01*
X164799369Y-106304199D01*
X164390631Y-106304199D01*
X164370155Y-106096306D01*
X164309515Y-105896401D01*
X164211040Y-105712167D01*
X164150037Y-105637835D01*
X164078517Y-105550687D01*
X164023334Y-105505399D01*
X163984000Y-105447653D01*
X163978000Y-105409546D01*
X163978000Y-102438624D01*
X163997685Y-102371585D01*
X164050489Y-102325830D01*
X164102000Y-102314624D01*
X164150002Y-102314624D01*
X164197881Y-102305100D01*
X164232133Y-102298287D01*
X164232133Y-102298286D01*
X164235313Y-102297654D01*
X164297786Y-102278093D01*
X164365166Y-102296577D01*
X164367808Y-102298275D01*
X164367866Y-102298286D01*
X164367867Y-102298287D01*
X164400620Y-102304802D01*
X164449998Y-102314624D01*
X164450000Y-102314624D01*
X165021887Y-102314624D01*
X165021889Y-102314624D01*
X165082355Y-102305930D01*
X165082359Y-102305928D01*
X165088123Y-102305100D01*
X165157281Y-102315043D01*
X165193452Y-102340157D01*
X167320181Y-104466886D01*
X167353666Y-104528209D01*
X167356500Y-104554567D01*
X167356500Y-107900033D01*
X167336815Y-107967072D01*
X167320181Y-107987714D01*
X167028014Y-108279881D01*
X166966691Y-108313366D01*
X166940333Y-108316200D01*
X166859589Y-108316200D01*
X166792550Y-108296515D01*
X166759671Y-108260883D01*
X166758788Y-108261608D01*
X166655190Y-108135374D01*
X166618515Y-108090685D01*
X166467892Y-107967072D01*
X166457032Y-107958159D01*
X166272801Y-107859686D01*
X166272800Y-107859685D01*
X166272799Y-107859685D01*
X166172846Y-107829364D01*
X166072892Y-107799044D01*
X165887711Y-107780805D01*
X165865000Y-107778569D01*
X165864999Y-107778569D01*
X165657107Y-107799044D01*
X165457198Y-107859686D01*
X165272967Y-107958159D01*
X165111485Y-108090685D01*
X164978959Y-108252167D01*
X164880486Y-108436398D01*
X164819844Y-108636307D01*
X164799369Y-108844199D01*
X164819844Y-109052092D01*
X164880486Y-109252001D01*
X164974448Y-109427793D01*
X164978960Y-109436233D01*
X165111485Y-109597715D01*
X165272967Y-109730240D01*
X165457201Y-109828715D01*
X165657106Y-109889355D01*
X165865000Y-109909831D01*
X166072894Y-109889355D01*
X166272799Y-109828715D01*
X166457033Y-109730240D01*
X166618515Y-109597715D01*
X166751040Y-109436233D01*
X166751040Y-109436232D01*
X166758788Y-109426792D01*
X166760008Y-109427793D01*
X166799193Y-109387902D01*
X166859589Y-109372200D01*
X167199251Y-109372200D01*
X167203483Y-109372271D01*
X167264903Y-109374370D01*
X167302949Y-109365097D01*
X167315389Y-109362732D01*
X167354192Y-109357400D01*
X167369570Y-109350719D01*
X167389612Y-109343978D01*
X167405921Y-109340005D01*
X167440061Y-109320808D01*
X167451403Y-109315175D01*
X167487320Y-109299575D01*
X167500335Y-109288985D01*
X167517813Y-109277090D01*
X167532436Y-109268869D01*
X167560120Y-109241183D01*
X167569535Y-109232685D01*
X167599909Y-109207976D01*
X167609585Y-109194267D01*
X167623202Y-109178101D01*
X168249993Y-108551309D01*
X168252977Y-108548425D01*
X168297926Y-108506447D01*
X168318276Y-108472981D01*
X168325402Y-108462512D01*
X168349063Y-108431311D01*
X168355218Y-108415700D01*
X168364619Y-108396773D01*
X168373341Y-108382433D01*
X168383902Y-108344738D01*
X168387945Y-108332714D01*
X168402311Y-108296287D01*
X168404026Y-108279593D01*
X168407975Y-108258819D01*
X168409418Y-108253672D01*
X168412500Y-108242672D01*
X168412500Y-108203525D01*
X168413150Y-108190844D01*
X168417153Y-108151904D01*
X168414303Y-108135374D01*
X168412500Y-108114305D01*
X168412500Y-104295649D01*
X168412572Y-104291416D01*
X168414670Y-104229996D01*
X168412052Y-104219256D01*
X168405397Y-104191950D01*
X168403032Y-104179507D01*
X168397700Y-104140708D01*
X168391014Y-104125317D01*
X168384277Y-104105282D01*
X168380305Y-104088980D01*
X168361117Y-104054856D01*
X168355470Y-104043485D01*
X168339875Y-104007580D01*
X168329289Y-103994568D01*
X168317391Y-103977086D01*
X168309169Y-103962463D01*
X168281487Y-103934782D01*
X168272979Y-103925355D01*
X168248276Y-103894990D01*
X168234570Y-103885316D01*
X168218398Y-103871693D01*
X165700943Y-101354237D01*
X165667458Y-101292914D01*
X165664624Y-101266556D01*
X165664624Y-101159986D01*
X165665886Y-101142340D01*
X165665946Y-101141919D01*
X165667582Y-101130544D01*
X165667581Y-101069456D01*
X165647119Y-100927141D01*
X165635961Y-100889137D01*
X165629908Y-100868522D01*
X165570181Y-100737741D01*
X165537153Y-100686349D01*
X165443004Y-100577694D01*
X165415973Y-100554272D01*
X165396832Y-100537686D01*
X165275878Y-100459954D01*
X165275875Y-100459952D01*
X165220309Y-100434576D01*
X165082357Y-100394070D01*
X165042044Y-100388273D01*
X165021889Y-100385376D01*
X165021888Y-100385376D01*
X164953691Y-100385376D01*
X164886652Y-100365691D01*
X164840897Y-100312887D01*
X164830953Y-100243729D01*
X164859978Y-100180173D01*
X164866010Y-100173695D01*
X170871186Y-94168519D01*
X170932509Y-94135034D01*
X170958867Y-94132200D01*
X171219498Y-94132200D01*
X171286537Y-94151885D01*
X171324729Y-94190607D01*
X171327298Y-94194729D01*
X171393534Y-94264409D01*
X171461788Y-94336212D01*
X171622005Y-94447726D01*
X171801389Y-94524706D01*
X171992598Y-94564000D01*
X171992600Y-94564000D01*
X173634337Y-94564000D01*
X173637479Y-94564000D01*
X173783003Y-94549202D01*
X173957382Y-94494489D01*
X174027236Y-94493202D01*
X174086700Y-94529887D01*
X174116892Y-94592897D01*
X174118500Y-94612803D01*
X174118500Y-95091584D01*
X174098815Y-95158623D01*
X174046011Y-95204378D01*
X173976853Y-95214322D01*
X173945600Y-95205535D01*
X173890700Y-95181975D01*
X173690825Y-95140900D01*
X172966500Y-95140900D01*
X172966500Y-95662066D01*
X172874923Y-95648900D01*
X172804077Y-95648900D01*
X172712500Y-95662066D01*
X172712500Y-95140900D01*
X172042463Y-95140900D01*
X172036197Y-95141217D01*
X171887191Y-95156370D01*
X171692503Y-95217453D01*
X171514093Y-95316478D01*
X171359262Y-95449398D01*
X171234364Y-95610751D01*
X171144501Y-95793951D01*
X171093355Y-95991490D01*
X171092051Y-96017200D01*
X172360581Y-96017200D01*
X172344200Y-96072987D01*
X172344200Y-96215413D01*
X172360581Y-96271200D01*
X171094651Y-96271200D01*
X171113918Y-96396977D01*
X171184785Y-96588324D01*
X171292724Y-96761495D01*
X171433306Y-96909386D01*
X171600785Y-97025955D01*
X171788299Y-97106424D01*
X171988175Y-97147500D01*
X172712500Y-97147500D01*
X172712500Y-96626333D01*
X172804077Y-96639500D01*
X172874923Y-96639500D01*
X172966500Y-96626333D01*
X172966500Y-97147500D01*
X173636537Y-97147500D01*
X173642802Y-97147182D01*
X173791806Y-97132029D01*
X173957379Y-97080081D01*
X174027237Y-97078793D01*
X174086701Y-97115479D01*
X174116892Y-97178489D01*
X174118500Y-97198394D01*
X174118500Y-97631584D01*
X174098815Y-97698623D01*
X174046011Y-97744378D01*
X173976853Y-97754322D01*
X173945600Y-97745535D01*
X173890700Y-97721975D01*
X173690825Y-97680900D01*
X172966500Y-97680900D01*
X172966500Y-98202066D01*
X172874923Y-98188900D01*
X172804077Y-98188900D01*
X172712500Y-98202066D01*
X172712500Y-97680900D01*
X172042463Y-97680900D01*
X172036197Y-97681217D01*
X171887191Y-97696370D01*
X171692503Y-97757453D01*
X171514093Y-97856478D01*
X171359262Y-97989398D01*
X171234364Y-98150751D01*
X171144501Y-98333951D01*
X171093355Y-98531490D01*
X171092051Y-98557200D01*
X172360581Y-98557200D01*
X172344200Y-98612987D01*
X172344200Y-98755413D01*
X172360581Y-98811200D01*
X171094651Y-98811200D01*
X171113918Y-98936977D01*
X171184785Y-99128324D01*
X171292724Y-99301495D01*
X171433306Y-99449386D01*
X171600785Y-99565955D01*
X171788299Y-99646424D01*
X171988175Y-99687500D01*
X172712500Y-99687500D01*
X172712500Y-99166333D01*
X172804077Y-99179500D01*
X172874923Y-99179500D01*
X172966500Y-99166333D01*
X172966500Y-99687500D01*
X173636537Y-99687500D01*
X173642802Y-99687182D01*
X173791806Y-99672029D01*
X173957379Y-99620081D01*
X174027237Y-99618793D01*
X174086701Y-99655479D01*
X174116892Y-99718489D01*
X174118500Y-99738394D01*
X174118500Y-100218920D01*
X174098815Y-100285959D01*
X174046011Y-100331714D01*
X173976853Y-100341658D01*
X173945603Y-100332871D01*
X173877611Y-100303694D01*
X173686402Y-100264400D01*
X172041521Y-100264400D01*
X172038410Y-100264716D01*
X172038397Y-100264717D01*
X171895994Y-100279198D01*
X171709745Y-100337635D01*
X171539068Y-100432368D01*
X171390955Y-100559519D01*
X171271469Y-100713881D01*
X171185505Y-100889133D01*
X171136575Y-101078111D01*
X171126687Y-101273064D01*
X171156247Y-101466017D01*
X171224041Y-101649067D01*
X171224043Y-101649070D01*
X171327299Y-101814729D01*
X171461788Y-101956212D01*
X171622005Y-102067726D01*
X171801389Y-102144706D01*
X171992598Y-102184000D01*
X171992600Y-102184000D01*
X173634337Y-102184000D01*
X173637479Y-102184000D01*
X173783003Y-102169202D01*
X173957382Y-102114489D01*
X174027236Y-102113202D01*
X174086700Y-102149887D01*
X174116892Y-102212897D01*
X174118500Y-102232803D01*
X174118500Y-102758920D01*
X174098815Y-102825959D01*
X174046011Y-102871714D01*
X173976853Y-102881658D01*
X173945603Y-102872871D01*
X173877611Y-102843694D01*
X173686402Y-102804400D01*
X172041521Y-102804400D01*
X172038410Y-102804716D01*
X172038397Y-102804717D01*
X171895994Y-102819198D01*
X171709745Y-102877635D01*
X171539068Y-102972368D01*
X171390955Y-103099519D01*
X171271469Y-103253881D01*
X171185505Y-103429133D01*
X171185503Y-103429137D01*
X171185504Y-103429137D01*
X171140597Y-103602579D01*
X171136575Y-103618111D01*
X171126687Y-103813064D01*
X171156247Y-104006017D01*
X171224041Y-104189067D01*
X171249552Y-104229996D01*
X171327299Y-104354729D01*
X171448087Y-104481798D01*
X171461789Y-104496213D01*
X171507759Y-104528209D01*
X171622005Y-104607726D01*
X171801389Y-104684706D01*
X171992598Y-104724000D01*
X171992600Y-104724000D01*
X173634337Y-104724000D01*
X173637479Y-104724000D01*
X173783003Y-104709202D01*
X173957382Y-104654489D01*
X174027236Y-104653202D01*
X174086700Y-104689887D01*
X174116892Y-104752897D01*
X174118500Y-104772803D01*
X174118500Y-105298920D01*
X174098815Y-105365959D01*
X174046011Y-105411714D01*
X173976853Y-105421658D01*
X173945603Y-105412871D01*
X173877611Y-105383694D01*
X173686402Y-105344400D01*
X172041521Y-105344400D01*
X172038410Y-105344716D01*
X172038397Y-105344717D01*
X171895994Y-105359198D01*
X171709745Y-105417635D01*
X171539068Y-105512368D01*
X171390955Y-105639519D01*
X171271469Y-105793881D01*
X171185505Y-105969133D01*
X171185503Y-105969137D01*
X171185504Y-105969137D01*
X171156138Y-106082556D01*
X171136575Y-106158111D01*
X171126687Y-106353064D01*
X171156247Y-106546017D01*
X171224041Y-106729067D01*
X171224043Y-106729070D01*
X171327299Y-106894729D01*
X171461788Y-107036212D01*
X171622005Y-107147726D01*
X171801389Y-107224706D01*
X171992598Y-107264000D01*
X171992600Y-107264000D01*
X173634337Y-107264000D01*
X173637479Y-107264000D01*
X173783003Y-107249202D01*
X173957382Y-107194489D01*
X174027236Y-107193202D01*
X174086700Y-107229887D01*
X174116892Y-107292897D01*
X174118500Y-107312803D01*
X174118500Y-107838920D01*
X174098815Y-107905959D01*
X174046011Y-107951714D01*
X173976853Y-107961658D01*
X173945603Y-107952871D01*
X173877611Y-107923694D01*
X173686402Y-107884400D01*
X172041521Y-107884400D01*
X172038410Y-107884716D01*
X172038397Y-107884717D01*
X171895994Y-107899198D01*
X171709745Y-107957635D01*
X171539068Y-108052368D01*
X171390955Y-108179519D01*
X171271469Y-108333881D01*
X171185505Y-108509133D01*
X171136575Y-108698111D01*
X171126687Y-108893064D01*
X171156247Y-109086017D01*
X171224041Y-109269067D01*
X171224043Y-109269070D01*
X171327299Y-109434729D01*
X171461788Y-109576212D01*
X171622005Y-109687726D01*
X171801389Y-109764706D01*
X171992598Y-109804000D01*
X171992600Y-109804000D01*
X173634337Y-109804000D01*
X173637479Y-109804000D01*
X173783003Y-109789202D01*
X173957382Y-109734489D01*
X174027236Y-109733202D01*
X174086700Y-109769887D01*
X174116892Y-109832897D01*
X174118500Y-109852803D01*
X174118500Y-110378920D01*
X174098815Y-110445959D01*
X174046011Y-110491714D01*
X173976853Y-110501658D01*
X173945603Y-110492871D01*
X173877611Y-110463694D01*
X173686402Y-110424400D01*
X172041521Y-110424400D01*
X172038410Y-110424716D01*
X172038397Y-110424717D01*
X171895994Y-110439198D01*
X171709745Y-110497635D01*
X171539068Y-110592368D01*
X171390955Y-110719519D01*
X171271469Y-110873881D01*
X171185505Y-111049133D01*
X171185503Y-111049137D01*
X171185504Y-111049137D01*
X171152572Y-111176329D01*
X171136575Y-111238111D01*
X171126687Y-111433064D01*
X171156247Y-111626017D01*
X171224041Y-111809067D01*
X171224043Y-111809070D01*
X171327299Y-111974729D01*
X171433315Y-112086258D01*
X171461789Y-112116213D01*
X171522614Y-112158548D01*
X171622005Y-112227726D01*
X171801389Y-112304706D01*
X171992598Y-112344000D01*
X171992600Y-112344000D01*
X173634337Y-112344000D01*
X173637479Y-112344000D01*
X173783003Y-112329202D01*
X173957382Y-112274489D01*
X174027236Y-112273202D01*
X174086700Y-112309887D01*
X174116892Y-112372897D01*
X174118500Y-112392803D01*
X174118500Y-112871584D01*
X174098815Y-112938623D01*
X174046011Y-112984378D01*
X173976853Y-112994322D01*
X173945600Y-112985535D01*
X173890700Y-112961975D01*
X173690825Y-112920900D01*
X172966500Y-112920900D01*
X172966500Y-113442066D01*
X172874923Y-113428900D01*
X172804077Y-113428900D01*
X172712500Y-113442066D01*
X172712500Y-112920900D01*
X172042463Y-112920900D01*
X172036197Y-112921217D01*
X171887191Y-112936370D01*
X171692503Y-112997453D01*
X171514093Y-113096478D01*
X171359262Y-113229398D01*
X171234364Y-113390751D01*
X171144501Y-113573951D01*
X171093355Y-113771490D01*
X171092051Y-113797200D01*
X172360581Y-113797200D01*
X172344200Y-113852987D01*
X172344200Y-113995413D01*
X172360581Y-114051200D01*
X171094651Y-114051200D01*
X171113918Y-114176977D01*
X171184785Y-114368324D01*
X171292724Y-114541495D01*
X171433306Y-114689386D01*
X171600785Y-114805955D01*
X171788299Y-114886424D01*
X171988175Y-114927500D01*
X172712500Y-114927500D01*
X172712500Y-114406333D01*
X172804077Y-114419500D01*
X172874923Y-114419500D01*
X172966500Y-114406333D01*
X172966500Y-114927500D01*
X173636537Y-114927500D01*
X173642802Y-114927182D01*
X173791806Y-114912029D01*
X173957379Y-114860081D01*
X174027237Y-114858793D01*
X174086701Y-114895479D01*
X174116892Y-114958489D01*
X174118500Y-114978394D01*
X174118500Y-115411584D01*
X174098815Y-115478623D01*
X174046011Y-115524378D01*
X173976853Y-115534322D01*
X173945600Y-115525535D01*
X173890700Y-115501975D01*
X173690825Y-115460900D01*
X172966500Y-115460900D01*
X172966500Y-115982066D01*
X172874923Y-115968900D01*
X172804077Y-115968900D01*
X172712500Y-115982066D01*
X172712500Y-115460900D01*
X172042463Y-115460900D01*
X172036197Y-115461217D01*
X171887191Y-115476370D01*
X171692503Y-115537453D01*
X171514093Y-115636478D01*
X171359262Y-115769398D01*
X171234364Y-115930751D01*
X171144501Y-116113951D01*
X171093355Y-116311490D01*
X171092051Y-116337200D01*
X172360581Y-116337200D01*
X172344200Y-116392987D01*
X172344200Y-116535413D01*
X172360581Y-116591200D01*
X171094651Y-116591200D01*
X171113918Y-116716977D01*
X171184785Y-116908324D01*
X171292724Y-117081495D01*
X171433306Y-117229386D01*
X171600785Y-117345955D01*
X171788299Y-117426424D01*
X171988175Y-117467500D01*
X172712500Y-117467500D01*
X172712500Y-116946333D01*
X172804077Y-116959500D01*
X172874923Y-116959500D01*
X172966500Y-116946333D01*
X172966500Y-117467500D01*
X173636537Y-117467500D01*
X173642802Y-117467182D01*
X173791806Y-117452029D01*
X173957379Y-117400081D01*
X174027237Y-117398793D01*
X174086701Y-117435479D01*
X174116892Y-117498489D01*
X174118500Y-117518394D01*
X174118500Y-117998920D01*
X174098815Y-118065959D01*
X174046011Y-118111714D01*
X173976853Y-118121658D01*
X173945603Y-118112871D01*
X173877611Y-118083694D01*
X173686402Y-118044400D01*
X172041521Y-118044400D01*
X172038410Y-118044716D01*
X172038397Y-118044717D01*
X171895994Y-118059198D01*
X171709745Y-118117635D01*
X171539068Y-118212368D01*
X171390955Y-118339519D01*
X171271469Y-118493881D01*
X171220737Y-118597308D01*
X171173541Y-118648828D01*
X171109409Y-118666700D01*
X170395359Y-118666700D01*
X170328320Y-118647015D01*
X170307678Y-118630381D01*
X165852898Y-114175601D01*
X165845589Y-114167625D01*
X165820287Y-114137471D01*
X165786195Y-114117788D01*
X165777072Y-114111976D01*
X165744218Y-114088971D01*
X165717953Y-114078092D01*
X165678449Y-114071126D01*
X165667892Y-114068785D01*
X165629870Y-114058597D01*
X165593394Y-114061788D01*
X165590661Y-114062028D01*
X165579855Y-114062500D01*
X163067706Y-114062500D01*
X163000667Y-114042815D01*
X162989883Y-114032895D01*
X162989524Y-114033364D01*
X162976575Y-114023428D01*
X162976574Y-114023426D01*
X162866278Y-113938793D01*
X162737836Y-113885590D01*
X162721800Y-113883478D01*
X162600000Y-113867443D01*
X162462164Y-113885590D01*
X162333721Y-113938793D01*
X162223425Y-114023425D01*
X162138793Y-114133721D01*
X162085590Y-114262164D01*
X162067443Y-114400000D01*
X162085590Y-114537835D01*
X162138793Y-114666278D01*
X162223425Y-114776574D01*
X162261716Y-114805955D01*
X162333722Y-114861207D01*
X162462164Y-114914410D01*
X162600000Y-114932556D01*
X162737836Y-114914410D01*
X162866278Y-114861207D01*
X162976574Y-114776574D01*
X162976576Y-114776571D01*
X162989524Y-114766636D01*
X162991802Y-114769604D01*
X163025761Y-114744810D01*
X163067706Y-114737500D01*
X165408841Y-114737500D01*
X165475880Y-114757185D01*
X165496522Y-114773819D01*
X169951306Y-119228603D01*
X169958614Y-119236578D01*
X169982173Y-119264655D01*
X169983913Y-119266728D01*
X170013728Y-119283941D01*
X170017993Y-119286404D01*
X170027115Y-119292215D01*
X170039998Y-119301235D01*
X170059366Y-119314797D01*
X170059367Y-119314797D01*
X170059984Y-119315229D01*
X170086247Y-119326107D01*
X170086987Y-119326237D01*
X170086988Y-119326238D01*
X170125738Y-119333070D01*
X170136298Y-119335410D01*
X170174331Y-119345602D01*
X170213534Y-119342172D01*
X170224342Y-119341700D01*
X171105378Y-119341700D01*
X171172417Y-119361385D01*
X171218172Y-119414189D01*
X171221659Y-119422633D01*
X171224043Y-119429070D01*
X171327299Y-119594729D01*
X171401816Y-119673121D01*
X171461789Y-119736213D01*
X171526872Y-119781512D01*
X171622005Y-119847726D01*
X171801389Y-119924706D01*
X171992598Y-119964000D01*
X171992600Y-119964000D01*
X173634337Y-119964000D01*
X173637479Y-119964000D01*
X173783003Y-119949202D01*
X173957382Y-119894489D01*
X174027236Y-119893202D01*
X174086700Y-119929887D01*
X174116892Y-119992897D01*
X174118500Y-120012803D01*
X174118500Y-120538920D01*
X174098815Y-120605959D01*
X174046011Y-120651714D01*
X173976853Y-120661658D01*
X173945603Y-120652871D01*
X173877611Y-120623694D01*
X173686402Y-120584400D01*
X172041521Y-120584400D01*
X172038410Y-120584716D01*
X172038397Y-120584717D01*
X171895994Y-120599198D01*
X171709745Y-120657635D01*
X171539068Y-120752368D01*
X171390957Y-120879517D01*
X171287712Y-121012899D01*
X171231110Y-121053862D01*
X171161347Y-121057722D01*
X171101975Y-121024678D01*
X168152898Y-118075601D01*
X168145589Y-118067625D01*
X168120287Y-118037471D01*
X168086195Y-118017788D01*
X168077072Y-118011976D01*
X168044218Y-117988971D01*
X168017953Y-117978092D01*
X167978449Y-117971126D01*
X167967892Y-117968785D01*
X167929870Y-117958597D01*
X167893394Y-117961788D01*
X167890661Y-117962028D01*
X167879855Y-117962500D01*
X163741160Y-117962500D01*
X163674121Y-117942815D01*
X163653479Y-117926181D01*
X163344367Y-117617070D01*
X163310882Y-117555747D01*
X163310272Y-117541108D01*
X163309687Y-117541186D01*
X163297949Y-117452029D01*
X163289410Y-117387164D01*
X163236207Y-117258722D01*
X163213697Y-117229386D01*
X163151574Y-117148425D01*
X163041278Y-117063793D01*
X162978446Y-117037767D01*
X162912836Y-117010590D01*
X162894689Y-117008200D01*
X162774999Y-116992443D01*
X162637164Y-117010590D01*
X162508721Y-117063793D01*
X162398425Y-117148425D01*
X162313793Y-117258721D01*
X162260590Y-117387164D01*
X162242443Y-117524999D01*
X162260590Y-117662835D01*
X162313793Y-117791278D01*
X162398425Y-117901574D01*
X162435650Y-117930137D01*
X162508722Y-117986207D01*
X162637164Y-118039410D01*
X162775000Y-118057556D01*
X162791186Y-118059687D01*
X162790697Y-118063396D01*
X162832231Y-118069871D01*
X162867069Y-118094366D01*
X163112221Y-118339519D01*
X163297111Y-118524409D01*
X163304419Y-118532384D01*
X163319545Y-118550411D01*
X163329713Y-118562528D01*
X163363793Y-118582204D01*
X163372914Y-118588015D01*
X163405781Y-118611028D01*
X163432045Y-118621907D01*
X163432788Y-118622038D01*
X163471538Y-118628870D01*
X163482093Y-118631209D01*
X163520131Y-118641402D01*
X163520131Y-118641401D01*
X163520132Y-118641402D01*
X163542626Y-118639434D01*
X163559338Y-118637971D01*
X163570145Y-118637500D01*
X167708841Y-118637500D01*
X167775880Y-118657185D01*
X167796522Y-118673819D01*
X170891306Y-121768603D01*
X170898614Y-121776578D01*
X170912035Y-121792573D01*
X170923913Y-121806728D01*
X170941379Y-121816812D01*
X170957993Y-121826404D01*
X170967115Y-121832215D01*
X170979998Y-121841235D01*
X170999366Y-121854797D01*
X170999367Y-121854797D01*
X170999984Y-121855229D01*
X171026247Y-121866107D01*
X171026987Y-121866237D01*
X171026988Y-121866238D01*
X171065738Y-121873070D01*
X171076293Y-121875409D01*
X171114331Y-121885602D01*
X171114331Y-121885601D01*
X171135451Y-121891261D01*
X171134497Y-121894820D01*
X171164917Y-121900933D01*
X171215102Y-121949547D01*
X171223510Y-121967632D01*
X171224043Y-121969070D01*
X171327299Y-122134729D01*
X171455628Y-122269732D01*
X171461789Y-122276213D01*
X171478006Y-122287500D01*
X171622005Y-122387726D01*
X171801389Y-122464706D01*
X171992598Y-122504000D01*
X171992600Y-122504000D01*
X173634337Y-122504000D01*
X173637479Y-122504000D01*
X173783003Y-122489202D01*
X173957382Y-122434489D01*
X174027236Y-122433202D01*
X174086700Y-122469887D01*
X174116892Y-122532897D01*
X174118500Y-122552803D01*
X174118500Y-123078920D01*
X174098815Y-123145959D01*
X174046011Y-123191714D01*
X173976853Y-123201658D01*
X173945603Y-123192871D01*
X173877611Y-123163694D01*
X173686402Y-123124400D01*
X172041521Y-123124400D01*
X172038410Y-123124716D01*
X172038397Y-123124717D01*
X171895994Y-123139198D01*
X171709745Y-123197635D01*
X171539068Y-123292368D01*
X171390955Y-123419519D01*
X171271469Y-123573881D01*
X171212987Y-123693108D01*
X171165791Y-123744628D01*
X171101659Y-123762500D01*
X167491159Y-123762500D01*
X167424120Y-123742815D01*
X167403478Y-123726181D01*
X164269367Y-120592070D01*
X164235882Y-120530747D01*
X164235272Y-120516108D01*
X164234687Y-120516186D01*
X164227090Y-120458484D01*
X164214410Y-120362164D01*
X164161207Y-120233722D01*
X164141514Y-120208057D01*
X164076574Y-120123425D01*
X163966278Y-120038793D01*
X163855476Y-119992897D01*
X163837836Y-119985590D01*
X163821800Y-119983478D01*
X163700000Y-119967443D01*
X163562164Y-119985590D01*
X163433721Y-120038793D01*
X163323425Y-120123425D01*
X163238793Y-120233721D01*
X163185590Y-120362164D01*
X163167443Y-120500000D01*
X163178555Y-120584400D01*
X163185590Y-120637836D01*
X163190441Y-120649547D01*
X163238793Y-120766278D01*
X163323425Y-120876574D01*
X163408058Y-120941514D01*
X163433722Y-120961207D01*
X163562164Y-121014410D01*
X163700000Y-121032556D01*
X163716186Y-121034687D01*
X163715697Y-121038396D01*
X163757231Y-121044871D01*
X163792070Y-121069367D01*
X167047106Y-124324403D01*
X167054414Y-124332378D01*
X167079713Y-124362528D01*
X167099074Y-124373706D01*
X167113793Y-124382204D01*
X167122915Y-124388015D01*
X167135798Y-124397035D01*
X167155166Y-124410597D01*
X167155167Y-124410597D01*
X167155784Y-124411029D01*
X167182047Y-124421907D01*
X167182787Y-124422037D01*
X167182788Y-124422038D01*
X167221538Y-124428870D01*
X167232093Y-124431209D01*
X167270131Y-124441402D01*
X167270131Y-124441401D01*
X167270132Y-124441402D01*
X167292143Y-124439476D01*
X167309338Y-124437971D01*
X167320145Y-124437500D01*
X171111230Y-124437500D01*
X171178269Y-124457185D01*
X171215153Y-124499751D01*
X171217373Y-124498368D01*
X171224042Y-124509067D01*
X171224043Y-124509070D01*
X171327299Y-124674729D01*
X171449115Y-124802880D01*
X171461789Y-124816213D01*
X171541896Y-124871969D01*
X171622005Y-124927726D01*
X171801389Y-125004706D01*
X171992598Y-125044000D01*
X171992600Y-125044000D01*
X173634337Y-125044000D01*
X173637479Y-125044000D01*
X173783003Y-125029202D01*
X173957382Y-124974489D01*
X174027236Y-124973202D01*
X174086700Y-125009887D01*
X174116892Y-125072897D01*
X174118500Y-125092803D01*
X174118500Y-130312000D01*
X174098815Y-130379039D01*
X174046011Y-130424794D01*
X173994500Y-130436000D01*
X173895206Y-130436000D01*
X173828167Y-130416315D01*
X173782412Y-130363511D01*
X173772468Y-130294353D01*
X173781255Y-130263100D01*
X173801724Y-130215400D01*
X173842800Y-130015524D01*
X173842800Y-129291200D01*
X173318419Y-129291200D01*
X173334800Y-129235413D01*
X173334800Y-129092987D01*
X173318419Y-129037200D01*
X173842800Y-129037200D01*
X173842800Y-128367162D01*
X173842482Y-128360897D01*
X173827329Y-128211891D01*
X173766246Y-128017203D01*
X173667221Y-127838793D01*
X173534301Y-127683962D01*
X173372948Y-127559064D01*
X173189748Y-127469201D01*
X172992209Y-127418055D01*
X172966500Y-127416751D01*
X172966500Y-128682066D01*
X172874923Y-128668900D01*
X172804077Y-128668900D01*
X172712500Y-128682066D01*
X172712500Y-127419349D01*
X172586721Y-127438618D01*
X172395376Y-127509485D01*
X172222204Y-127617424D01*
X172074313Y-127758006D01*
X171957744Y-127925485D01*
X171877275Y-128112999D01*
X171836200Y-128312875D01*
X171836200Y-129037200D01*
X172360581Y-129037200D01*
X172344200Y-129092987D01*
X172344200Y-129235413D01*
X172360581Y-129291200D01*
X171836200Y-129291200D01*
X171836200Y-129961237D01*
X171836517Y-129967502D01*
X171851670Y-130116506D01*
X171901360Y-130274879D01*
X171902648Y-130344737D01*
X171865962Y-130404201D01*
X171802952Y-130434392D01*
X171783047Y-130436000D01*
X171307870Y-130436000D01*
X171240831Y-130416315D01*
X171195076Y-130363511D01*
X171185132Y-130294353D01*
X171193919Y-130263100D01*
X171220006Y-130202311D01*
X171259300Y-130011102D01*
X171259300Y-128366221D01*
X171244502Y-128220697D01*
X171186065Y-128034445D01*
X171091332Y-127863769D01*
X170964181Y-127715656D01*
X170923236Y-127683962D01*
X170809818Y-127596169D01*
X170634566Y-127510205D01*
X170634563Y-127510204D01*
X170445590Y-127461275D01*
X170430932Y-127460531D01*
X170275167Y-127452631D01*
X170209211Y-127429575D01*
X170193768Y-127416471D01*
X169352898Y-126575601D01*
X169345589Y-126567625D01*
X169320287Y-126537471D01*
X169286195Y-126517788D01*
X169277072Y-126511976D01*
X169244218Y-126488971D01*
X169217953Y-126478092D01*
X169178449Y-126471126D01*
X169167892Y-126468785D01*
X169129870Y-126458597D01*
X169093394Y-126461788D01*
X169090661Y-126462028D01*
X169079855Y-126462500D01*
X167691159Y-126462500D01*
X167624120Y-126442815D01*
X167603478Y-126426181D01*
X160673819Y-119496521D01*
X160640334Y-119435198D01*
X160637500Y-119408840D01*
X160637500Y-95720144D01*
X160637972Y-95709336D01*
X160641402Y-95670132D01*
X160641402Y-95670131D01*
X160631209Y-95632093D01*
X160628870Y-95621536D01*
X160626340Y-95607185D01*
X160622038Y-95582788D01*
X160622037Y-95582787D01*
X160621907Y-95582047D01*
X160611029Y-95555784D01*
X160610597Y-95555167D01*
X160610597Y-95555166D01*
X160588015Y-95522915D01*
X160582204Y-95513793D01*
X160579741Y-95509528D01*
X160562528Y-95479713D01*
X160532379Y-95454414D01*
X160524403Y-95447106D01*
X159155536Y-94078239D01*
X159122051Y-94016916D01*
X159120281Y-94006763D01*
X159114410Y-93962164D01*
X159108165Y-93947087D01*
X159061207Y-93833721D01*
X158976574Y-93723425D01*
X158866278Y-93638793D01*
X158823194Y-93620947D01*
X158737836Y-93585590D01*
X158714790Y-93582556D01*
X158600000Y-93567443D01*
X158462164Y-93585590D01*
X158333721Y-93638793D01*
X158261986Y-93693837D01*
X158196817Y-93719031D01*
X158128372Y-93704992D01*
X158078382Y-93656178D01*
X158062500Y-93595461D01*
X158062500Y-92795141D01*
X158062972Y-92784332D01*
X158063025Y-92783722D01*
X158066402Y-92745131D01*
X158056210Y-92707098D01*
X158053870Y-92696536D01*
X158049696Y-92672862D01*
X158047038Y-92657788D01*
X158047037Y-92657787D01*
X158046907Y-92657047D01*
X158036029Y-92630784D01*
X158035597Y-92630167D01*
X158035597Y-92630166D01*
X158021373Y-92609852D01*
X158013015Y-92597915D01*
X158007204Y-92588793D01*
X157987527Y-92554712D01*
X157957378Y-92529414D01*
X157949403Y-92522106D01*
X155027898Y-89600601D01*
X155020589Y-89592625D01*
X154995287Y-89562471D01*
X154961195Y-89542788D01*
X154952072Y-89536976D01*
X154919218Y-89513971D01*
X154892953Y-89503092D01*
X154853449Y-89496126D01*
X154842892Y-89493785D01*
X154804870Y-89483597D01*
X154768394Y-89486788D01*
X154765661Y-89487028D01*
X154754855Y-89487500D01*
X153768763Y-89487500D01*
X153701724Y-89467815D01*
X153655969Y-89415011D01*
X153646025Y-89345853D01*
X153675050Y-89282297D01*
X153681082Y-89275819D01*
X154082710Y-88874191D01*
X154505083Y-88451817D01*
X154515444Y-88442559D01*
X154544349Y-88419509D01*
X154577616Y-88370712D01*
X154580241Y-88367012D01*
X154615310Y-88319498D01*
X154615311Y-88319494D01*
X154618776Y-88314800D01*
X154621507Y-88309389D01*
X154623225Y-88303818D01*
X154623227Y-88303816D01*
X154640631Y-88247390D01*
X154642043Y-88243097D01*
X154661558Y-88187331D01*
X154661558Y-88187326D01*
X154663480Y-88181834D01*
X154664500Y-88175836D01*
X154664500Y-88111003D01*
X154664587Y-88106367D01*
X154665478Y-88082556D01*
X154666793Y-88047404D01*
X154666792Y-88047402D01*
X154667010Y-88041592D01*
X154664500Y-88022522D01*
X154664500Y-84164500D01*
X155321001Y-84164500D01*
X155321001Y-84419898D01*
X155321354Y-84426498D01*
X155327453Y-84483238D01*
X155378099Y-84619021D01*
X155464953Y-84735046D01*
X155580977Y-84821899D01*
X155716762Y-84872546D01*
X155773503Y-84878646D01*
X155780099Y-84878999D01*
X156172999Y-84878999D01*
X156173000Y-84878998D01*
X156173000Y-84164500D01*
X156427000Y-84164500D01*
X156427000Y-84878999D01*
X156819898Y-84878999D01*
X156826498Y-84878645D01*
X156883238Y-84872546D01*
X157019021Y-84821900D01*
X157135046Y-84735046D01*
X157221899Y-84619022D01*
X157272546Y-84483237D01*
X157278646Y-84426496D01*
X157279000Y-84419900D01*
X157279000Y-84164500D01*
X159021001Y-84164500D01*
X159021001Y-84419898D01*
X159021354Y-84426498D01*
X159027453Y-84483238D01*
X159078099Y-84619021D01*
X159164953Y-84735046D01*
X159280977Y-84821899D01*
X159416762Y-84872546D01*
X159473503Y-84878646D01*
X159480099Y-84878999D01*
X159872999Y-84878999D01*
X159873000Y-84878998D01*
X159873000Y-84164500D01*
X160127000Y-84164500D01*
X160127000Y-84878999D01*
X160519898Y-84878999D01*
X160526498Y-84878645D01*
X160583238Y-84872546D01*
X160719021Y-84821900D01*
X160835046Y-84735046D01*
X160921899Y-84619022D01*
X160972546Y-84483237D01*
X160978646Y-84426496D01*
X160979000Y-84419900D01*
X160979000Y-84164500D01*
X160127000Y-84164500D01*
X159873000Y-84164500D01*
X159021001Y-84164500D01*
X157279000Y-84164500D01*
X156427000Y-84164500D01*
X156173000Y-84164500D01*
X155321001Y-84164500D01*
X154664500Y-84164500D01*
X154664500Y-83910500D01*
X155321000Y-83910500D01*
X156173000Y-83910500D01*
X156173000Y-83196000D01*
X156427000Y-83196000D01*
X156427000Y-83910500D01*
X157278999Y-83910500D01*
X159021000Y-83910500D01*
X159872999Y-83910500D01*
X159872999Y-83196000D01*
X160127000Y-83196000D01*
X160127000Y-83910500D01*
X160978999Y-83910500D01*
X160978999Y-83655101D01*
X160978645Y-83648501D01*
X160972546Y-83591761D01*
X160921900Y-83455978D01*
X160835046Y-83339953D01*
X160719022Y-83253100D01*
X160583237Y-83202453D01*
X160526496Y-83196353D01*
X160519901Y-83196000D01*
X160127000Y-83196000D01*
X159872999Y-83196000D01*
X159480101Y-83196000D01*
X159473501Y-83196354D01*
X159416761Y-83202453D01*
X159280978Y-83253099D01*
X159164953Y-83339953D01*
X159078100Y-83455977D01*
X159027453Y-83591762D01*
X159021353Y-83648503D01*
X159021000Y-83655099D01*
X159021000Y-83910500D01*
X157278999Y-83910500D01*
X157278999Y-83655101D01*
X157278645Y-83648501D01*
X157272546Y-83591761D01*
X157221900Y-83455978D01*
X157135046Y-83339953D01*
X157019022Y-83253100D01*
X156883237Y-83202453D01*
X156826496Y-83196353D01*
X156819901Y-83196000D01*
X156427000Y-83196000D01*
X156173000Y-83196000D01*
X155780101Y-83196000D01*
X155773501Y-83196354D01*
X155716761Y-83202453D01*
X155580978Y-83253099D01*
X155464953Y-83339953D01*
X155378100Y-83455977D01*
X155327453Y-83591762D01*
X155321353Y-83648503D01*
X155321000Y-83655099D01*
X155321000Y-83910500D01*
X154664500Y-83910500D01*
X154664500Y-81093763D01*
X154684185Y-81026724D01*
X154700819Y-81006082D01*
X155506083Y-80200819D01*
X155567406Y-80167334D01*
X155593764Y-80164500D01*
X162068001Y-80164500D01*
X162135040Y-80184185D01*
X162180795Y-80236989D01*
X162192001Y-80288500D01*
X162192001Y-80370472D01*
X162192270Y-80373346D01*
X162192271Y-80373358D01*
X162194917Y-80401579D01*
X162240766Y-80532608D01*
X162323198Y-80644301D01*
X162405145Y-80704780D01*
X162434892Y-80726734D01*
X162565921Y-80772583D01*
X162597027Y-80775500D01*
X163607972Y-80775499D01*
X163639079Y-80772583D01*
X163770108Y-80726734D01*
X163881801Y-80644301D01*
X163964234Y-80532608D01*
X164010083Y-80401579D01*
X164013000Y-80370473D01*
X164012999Y-79762762D01*
X164032683Y-79695724D01*
X164049313Y-79675087D01*
X164859382Y-78865019D01*
X164920706Y-78831534D01*
X164947064Y-78828700D01*
X171179919Y-78828700D01*
X171246958Y-78848385D01*
G37*
%TD.AperFunction*%
%TA.AperFunction,Conductor*%
G36*
X135645880Y-86707185D02*
G01*
X135666522Y-86723819D01*
X139642106Y-90699403D01*
X139649414Y-90707378D01*
X139674713Y-90737528D01*
X139704528Y-90754741D01*
X139708793Y-90757204D01*
X139717915Y-90763015D01*
X139728642Y-90770526D01*
X139750166Y-90785597D01*
X139750167Y-90785597D01*
X139750784Y-90786029D01*
X139777047Y-90796907D01*
X139777787Y-90797037D01*
X139777788Y-90797038D01*
X139816538Y-90803870D01*
X139827093Y-90806209D01*
X139865131Y-90816402D01*
X139865131Y-90816401D01*
X139865132Y-90816402D01*
X139887981Y-90814403D01*
X139904338Y-90812971D01*
X139915145Y-90812500D01*
X143460840Y-90812500D01*
X143527879Y-90832185D01*
X143573634Y-90884989D01*
X143583578Y-90954147D01*
X143554553Y-91017703D01*
X143548521Y-91024181D01*
X131182322Y-103390381D01*
X131120999Y-103423866D01*
X131094641Y-103426700D01*
X126313622Y-103426700D01*
X126246583Y-103407015D01*
X126200828Y-103354211D01*
X126197341Y-103345767D01*
X126197282Y-103345608D01*
X126194957Y-103339330D01*
X126091701Y-103173671D01*
X125957212Y-103032188D01*
X125957211Y-103032187D01*
X125957210Y-103032186D01*
X125796995Y-102920674D01*
X125617611Y-102843694D01*
X125564901Y-102832862D01*
X125426402Y-102804400D01*
X123781521Y-102804400D01*
X123778410Y-102804716D01*
X123778397Y-102804717D01*
X123635992Y-102819198D01*
X123479620Y-102868260D01*
X123409763Y-102869547D01*
X123350299Y-102832862D01*
X123320108Y-102769852D01*
X123318500Y-102749947D01*
X123318500Y-102237204D01*
X123338185Y-102170165D01*
X123390989Y-102124410D01*
X123460147Y-102114466D01*
X123491393Y-102123251D01*
X123541389Y-102144706D01*
X123732598Y-102184000D01*
X123732600Y-102184000D01*
X125374337Y-102184000D01*
X125377479Y-102184000D01*
X125523003Y-102169202D01*
X125709255Y-102110765D01*
X125879931Y-102016032D01*
X126028044Y-101888881D01*
X126147530Y-101734518D01*
X126171621Y-101685406D01*
X126198263Y-101631092D01*
X126245459Y-101579572D01*
X126309591Y-101561700D01*
X131662294Y-101561700D01*
X131729333Y-101581385D01*
X131740116Y-101591304D01*
X131740476Y-101590836D01*
X131753423Y-101600771D01*
X131753426Y-101600774D01*
X131863722Y-101685407D01*
X131992164Y-101738610D01*
X132130000Y-101756756D01*
X132267836Y-101738610D01*
X132396278Y-101685407D01*
X132506574Y-101600774D01*
X132591207Y-101490478D01*
X132644410Y-101362036D01*
X132662556Y-101224200D01*
X132644410Y-101086364D01*
X132591207Y-100957922D01*
X132567588Y-100927141D01*
X132506574Y-100847625D01*
X132396278Y-100762993D01*
X132389229Y-100760073D01*
X132267836Y-100709790D01*
X132251800Y-100707678D01*
X132130000Y-100691643D01*
X131992164Y-100709790D01*
X131863723Y-100762992D01*
X131863721Y-100762993D01*
X131863722Y-100762993D01*
X131753426Y-100847626D01*
X131753424Y-100847628D01*
X131740476Y-100857564D01*
X131738197Y-100854595D01*
X131704239Y-100879390D01*
X131662294Y-100886700D01*
X126313622Y-100886700D01*
X126246583Y-100867015D01*
X126200828Y-100814211D01*
X126197341Y-100805767D01*
X126197282Y-100805608D01*
X126194957Y-100799330D01*
X126091701Y-100633671D01*
X125957212Y-100492188D01*
X125957211Y-100492187D01*
X125957210Y-100492186D01*
X125796995Y-100380674D01*
X125617611Y-100303694D01*
X125564901Y-100292862D01*
X125426402Y-100264400D01*
X123781521Y-100264400D01*
X123778410Y-100264716D01*
X123778397Y-100264717D01*
X123635992Y-100279198D01*
X123479620Y-100328260D01*
X123409763Y-100329547D01*
X123350299Y-100292862D01*
X123320108Y-100229852D01*
X123318500Y-100209947D01*
X123318500Y-99697204D01*
X123338185Y-99630165D01*
X123390989Y-99584410D01*
X123460147Y-99574466D01*
X123491393Y-99583251D01*
X123541389Y-99604706D01*
X123732598Y-99644000D01*
X123732600Y-99644000D01*
X125374337Y-99644000D01*
X125377479Y-99644000D01*
X125523003Y-99629202D01*
X125709255Y-99570765D01*
X125879931Y-99476032D01*
X126028044Y-99348881D01*
X126147530Y-99194518D01*
X126198262Y-99091092D01*
X126245459Y-99039572D01*
X126309591Y-99021700D01*
X126362855Y-99021700D01*
X126373661Y-99022171D01*
X126412869Y-99025602D01*
X126450919Y-99015405D01*
X126461426Y-99013076D01*
X126500212Y-99006238D01*
X126500215Y-99006235D01*
X126500958Y-99006105D01*
X126527215Y-98995229D01*
X126527830Y-98994797D01*
X126527834Y-98994797D01*
X126560100Y-98972202D01*
X126569193Y-98966411D01*
X126603287Y-98946728D01*
X126628596Y-98916564D01*
X126635883Y-98908612D01*
X127520677Y-98023819D01*
X127582001Y-97990334D01*
X127608359Y-97987500D01*
X129738587Y-97987500D01*
X129805626Y-98007185D01*
X129847945Y-98053047D01*
X129944517Y-98233722D01*
X129948960Y-98242033D01*
X130081485Y-98403515D01*
X130242967Y-98536040D01*
X130427201Y-98634515D01*
X130627106Y-98695155D01*
X130835000Y-98715631D01*
X131042894Y-98695155D01*
X131242799Y-98634515D01*
X131427033Y-98536040D01*
X131588515Y-98403515D01*
X131721040Y-98242033D01*
X131819515Y-98057799D01*
X131880155Y-97857894D01*
X131900631Y-97650000D01*
X131880155Y-97442106D01*
X131819515Y-97242201D01*
X131819512Y-97242196D01*
X131817949Y-97237042D01*
X131817326Y-97167176D01*
X131848927Y-97113368D01*
X132102821Y-96859474D01*
X132164142Y-96825991D01*
X132233834Y-96830975D01*
X132289767Y-96872847D01*
X132314184Y-96938311D01*
X132314500Y-96947157D01*
X132314500Y-98520731D01*
X132317957Y-98538110D01*
X132326713Y-98582133D01*
X132373238Y-98651762D01*
X132442867Y-98698287D01*
X132504267Y-98710500D01*
X134245732Y-98710499D01*
X134307133Y-98698287D01*
X134376762Y-98651762D01*
X134423287Y-98582133D01*
X134435500Y-98520733D01*
X134435499Y-96779268D01*
X134423287Y-96717867D01*
X134376762Y-96648238D01*
X134364129Y-96639797D01*
X134307133Y-96601713D01*
X134263736Y-96593081D01*
X134245733Y-96589500D01*
X134245732Y-96589500D01*
X133761500Y-96589500D01*
X133694461Y-96569815D01*
X133648706Y-96517011D01*
X133637500Y-96465500D01*
X133637500Y-95100286D01*
X133657185Y-95033247D01*
X133694459Y-94995971D01*
X133746832Y-94962314D01*
X133793001Y-94922309D01*
X133887155Y-94813648D01*
X133920181Y-94762259D01*
X133970711Y-94651615D01*
X133979908Y-94631477D01*
X133984099Y-94617204D01*
X133997119Y-94572859D01*
X134017581Y-94430544D01*
X134017582Y-94369456D01*
X134015885Y-94357659D01*
X134014624Y-94340014D01*
X134014624Y-93959986D01*
X134015886Y-93942340D01*
X134016328Y-93939263D01*
X134017582Y-93930544D01*
X134017581Y-93869456D01*
X133997119Y-93727141D01*
X133979909Y-93668526D01*
X133979908Y-93668522D01*
X133920181Y-93537741D01*
X133887153Y-93486349D01*
X133793004Y-93377694D01*
X133790827Y-93375808D01*
X133746832Y-93337686D01*
X133641977Y-93270300D01*
X133625875Y-93259952D01*
X133570309Y-93234576D01*
X133432357Y-93194070D01*
X133388991Y-93187835D01*
X133371889Y-93185376D01*
X132800000Y-93185376D01*
X132756292Y-93194070D01*
X132714678Y-93202347D01*
X132652211Y-93221906D01*
X132584831Y-93203420D01*
X132582194Y-93201725D01*
X132543708Y-93194070D01*
X132500000Y-93185376D01*
X131928111Y-93185376D01*
X131912994Y-93187549D01*
X131867642Y-93194070D01*
X131729690Y-93234576D01*
X131674124Y-93259952D01*
X131553167Y-93337686D01*
X131506995Y-93377694D01*
X131412846Y-93486349D01*
X131379818Y-93537741D01*
X131320091Y-93668522D01*
X131302880Y-93727141D01*
X131282418Y-93869456D01*
X131282418Y-93930544D01*
X131284114Y-93942340D01*
X131285376Y-93959986D01*
X131285376Y-94340014D01*
X131284114Y-94357660D01*
X131282418Y-94369456D01*
X131282418Y-94430543D01*
X131302880Y-94572858D01*
X131320091Y-94631477D01*
X131379818Y-94762258D01*
X131412846Y-94813650D01*
X131506995Y-94922305D01*
X131506997Y-94922306D01*
X131506999Y-94922309D01*
X131553168Y-94962314D01*
X131553170Y-94962315D01*
X131553172Y-94962317D01*
X131605538Y-94995971D01*
X131651293Y-95048774D01*
X131662499Y-95100286D01*
X131662500Y-96293840D01*
X131642815Y-96360879D01*
X131626181Y-96381521D01*
X131371632Y-96636070D01*
X131310309Y-96669555D01*
X131247956Y-96667050D01*
X131242801Y-96665486D01*
X131242799Y-96665485D01*
X131084428Y-96617444D01*
X131042892Y-96604844D01*
X130835000Y-96584369D01*
X130627107Y-96604844D01*
X130427198Y-96665486D01*
X130242967Y-96763959D01*
X130081485Y-96896485D01*
X129948959Y-97057967D01*
X129847945Y-97246953D01*
X129798983Y-97296797D01*
X129738587Y-97312500D01*
X127437345Y-97312500D01*
X127426538Y-97312028D01*
X127423805Y-97311788D01*
X127387330Y-97308597D01*
X127349308Y-97318785D01*
X127338752Y-97321126D01*
X127299247Y-97328092D01*
X127272980Y-97338973D01*
X127240118Y-97361982D01*
X127231001Y-97367789D01*
X127196914Y-97387469D01*
X127171614Y-97417621D01*
X127164307Y-97425594D01*
X126357387Y-98232515D01*
X126296064Y-98266000D01*
X126226373Y-98261016D01*
X126170439Y-98219144D01*
X126164474Y-98210425D01*
X126151057Y-98188900D01*
X126091701Y-98093671D01*
X125957212Y-97952188D01*
X125957211Y-97952187D01*
X125957210Y-97952186D01*
X125796995Y-97840674D01*
X125617611Y-97763694D01*
X125426402Y-97724400D01*
X123781521Y-97724400D01*
X123778410Y-97724716D01*
X123778397Y-97724717D01*
X123635992Y-97739198D01*
X123479620Y-97788260D01*
X123409763Y-97789547D01*
X123350299Y-97752862D01*
X123320108Y-97689852D01*
X123318500Y-97669947D01*
X123318500Y-97157204D01*
X123338185Y-97090165D01*
X123390989Y-97044410D01*
X123460147Y-97034466D01*
X123491393Y-97043251D01*
X123541389Y-97064706D01*
X123732598Y-97104000D01*
X123732600Y-97104000D01*
X125374337Y-97104000D01*
X125377479Y-97104000D01*
X125523003Y-97089202D01*
X125709255Y-97030765D01*
X125879931Y-96936032D01*
X126028044Y-96808881D01*
X126147530Y-96654518D01*
X126194815Y-96558121D01*
X126198263Y-96551092D01*
X126245459Y-96499572D01*
X126309591Y-96481700D01*
X127305655Y-96481700D01*
X127316461Y-96482171D01*
X127355669Y-96485602D01*
X127393719Y-96475405D01*
X127404226Y-96473076D01*
X127443012Y-96466238D01*
X127443015Y-96466235D01*
X127443758Y-96466105D01*
X127470015Y-96455229D01*
X127470630Y-96454797D01*
X127470634Y-96454797D01*
X127502900Y-96432202D01*
X127511993Y-96426411D01*
X127546087Y-96406728D01*
X127571396Y-96376564D01*
X127578684Y-96368611D01*
X130031421Y-93915874D01*
X130092742Y-93882391D01*
X130135281Y-93880618D01*
X130150000Y-93882556D01*
X130287836Y-93864410D01*
X130416278Y-93811207D01*
X130526574Y-93726574D01*
X130611207Y-93616278D01*
X130664410Y-93487836D01*
X130682556Y-93350000D01*
X130664410Y-93212164D01*
X130611207Y-93083722D01*
X130564551Y-93022918D01*
X130526574Y-92973425D01*
X130460305Y-92922576D01*
X130419102Y-92866148D01*
X130414947Y-92796402D01*
X130449159Y-92735482D01*
X130510876Y-92702729D01*
X130535791Y-92700200D01*
X138021541Y-92700200D01*
X138088580Y-92719885D01*
X138109222Y-92736519D01*
X139030632Y-93657929D01*
X139064117Y-93719252D01*
X139064728Y-93733892D01*
X139065313Y-93733816D01*
X139075502Y-93811206D01*
X139085590Y-93887836D01*
X139110133Y-93947087D01*
X139138793Y-94016278D01*
X139223425Y-94126574D01*
X139293052Y-94180000D01*
X139333722Y-94211207D01*
X139462164Y-94264410D01*
X139600000Y-94282556D01*
X139737836Y-94264410D01*
X139866278Y-94211207D01*
X139976574Y-94126574D01*
X140061207Y-94016278D01*
X140114410Y-93887836D01*
X140132556Y-93750000D01*
X140128262Y-93717385D01*
X140139027Y-93648352D01*
X140185407Y-93596096D01*
X140252675Y-93577210D01*
X140267378Y-93578261D01*
X140300000Y-93582556D01*
X140300000Y-93582555D01*
X140300001Y-93582556D01*
X140314364Y-93580664D01*
X140437836Y-93564410D01*
X140566278Y-93511207D01*
X140676574Y-93426574D01*
X140761207Y-93316278D01*
X140814410Y-93187836D01*
X140832556Y-93050000D01*
X140814410Y-92912164D01*
X140761207Y-92783722D01*
X140724191Y-92735482D01*
X140676574Y-92673425D01*
X140566278Y-92588793D01*
X140530519Y-92573981D01*
X140437836Y-92535590D01*
X140398908Y-92530465D01*
X140283816Y-92515313D01*
X140284304Y-92511604D01*
X140242733Y-92505112D01*
X140207929Y-92480632D01*
X138377898Y-90650601D01*
X138370589Y-90642625D01*
X138345287Y-90612471D01*
X138311195Y-90592788D01*
X138302072Y-90586976D01*
X138269218Y-90563971D01*
X138242953Y-90553092D01*
X138203449Y-90546126D01*
X138192892Y-90543785D01*
X138154870Y-90533597D01*
X138118394Y-90536788D01*
X138115661Y-90537028D01*
X138104855Y-90537500D01*
X126200311Y-90537500D01*
X126133272Y-90517815D01*
X126095079Y-90479091D01*
X126091701Y-90473671D01*
X125957212Y-90332188D01*
X125957211Y-90332187D01*
X125957210Y-90332186D01*
X125796995Y-90220674D01*
X125617611Y-90143694D01*
X125587470Y-90137500D01*
X125426402Y-90104400D01*
X123781521Y-90104400D01*
X123778410Y-90104716D01*
X123778397Y-90104717D01*
X123635992Y-90119198D01*
X123479620Y-90168260D01*
X123409763Y-90169547D01*
X123350299Y-90132862D01*
X123320108Y-90069852D01*
X123318500Y-90049947D01*
X123318500Y-89584540D01*
X123338185Y-89517501D01*
X123390989Y-89471746D01*
X123460147Y-89461802D01*
X123491401Y-89470590D01*
X123528297Y-89486423D01*
X123728175Y-89527500D01*
X124452500Y-89527500D01*
X124452500Y-89006333D01*
X124544077Y-89019500D01*
X124614923Y-89019500D01*
X124706500Y-89006333D01*
X124706500Y-89527500D01*
X125376537Y-89527500D01*
X125382802Y-89527182D01*
X125531808Y-89512029D01*
X125726496Y-89450946D01*
X125904906Y-89351921D01*
X126059737Y-89219001D01*
X126184635Y-89057648D01*
X126274498Y-88874448D01*
X126325644Y-88676909D01*
X126326949Y-88651200D01*
X125058419Y-88651200D01*
X125074800Y-88595413D01*
X125074800Y-88452987D01*
X125058419Y-88397200D01*
X126324349Y-88397200D01*
X126324348Y-88397199D01*
X126305081Y-88271422D01*
X126234214Y-88080075D01*
X126126275Y-87906904D01*
X125985693Y-87759013D01*
X125818214Y-87642444D01*
X125630700Y-87561975D01*
X125430825Y-87520900D01*
X124706500Y-87520900D01*
X124706500Y-88042066D01*
X124614923Y-88028900D01*
X124544077Y-88028900D01*
X124452500Y-88042066D01*
X124452500Y-87520900D01*
X123782463Y-87520900D01*
X123776197Y-87521217D01*
X123627196Y-87536370D01*
X123479620Y-87582671D01*
X123409762Y-87583957D01*
X123350298Y-87547272D01*
X123320108Y-87484261D01*
X123318500Y-87464357D01*
X123318500Y-86997204D01*
X123338185Y-86930165D01*
X123390989Y-86884410D01*
X123460147Y-86874466D01*
X123491393Y-86883251D01*
X123541389Y-86904706D01*
X123732598Y-86944000D01*
X123732600Y-86944000D01*
X125374337Y-86944000D01*
X125377479Y-86944000D01*
X125523003Y-86929202D01*
X125709255Y-86870765D01*
X125879931Y-86776032D01*
X125948214Y-86717412D01*
X126011900Y-86688682D01*
X126028982Y-86687500D01*
X135578841Y-86687500D01*
X135645880Y-86707185D01*
G37*
%TD.AperFunction*%
%TA.AperFunction,Conductor*%
G36*
X142909534Y-94659618D02*
G01*
X142965467Y-94701490D01*
X142989884Y-94766954D01*
X142990200Y-94775800D01*
X142990200Y-116002700D01*
X142970515Y-116069739D01*
X142917711Y-116115494D01*
X142866200Y-116126700D01*
X126313622Y-116126700D01*
X126246583Y-116107015D01*
X126200828Y-116054211D01*
X126197341Y-116045767D01*
X126196406Y-116043243D01*
X126194957Y-116039330D01*
X126091701Y-115873671D01*
X125957212Y-115732188D01*
X125957211Y-115732187D01*
X125957210Y-115732186D01*
X125796995Y-115620674D01*
X125617611Y-115543694D01*
X125617610Y-115543693D01*
X125426402Y-115504400D01*
X123781521Y-115504400D01*
X123778410Y-115504716D01*
X123778397Y-115504717D01*
X123635992Y-115519198D01*
X123479620Y-115568260D01*
X123409763Y-115569547D01*
X123350299Y-115532862D01*
X123320108Y-115469852D01*
X123318500Y-115449947D01*
X123318500Y-114984540D01*
X123338185Y-114917501D01*
X123390989Y-114871746D01*
X123460147Y-114861802D01*
X123491401Y-114870590D01*
X123528297Y-114886423D01*
X123728175Y-114927500D01*
X124452500Y-114927500D01*
X124452500Y-114406333D01*
X124544077Y-114419500D01*
X124614923Y-114419500D01*
X124706500Y-114406333D01*
X124706500Y-114927500D01*
X125376537Y-114927500D01*
X125382802Y-114927182D01*
X125531808Y-114912029D01*
X125726496Y-114850946D01*
X125904906Y-114751921D01*
X126059737Y-114619001D01*
X126184635Y-114457648D01*
X126274498Y-114274448D01*
X126325644Y-114076909D01*
X126326949Y-114051200D01*
X125058419Y-114051200D01*
X125074800Y-113995413D01*
X125074800Y-113852987D01*
X125058419Y-113797200D01*
X126324349Y-113797200D01*
X126324348Y-113797199D01*
X126305081Y-113671422D01*
X126234214Y-113480075D01*
X126126275Y-113306904D01*
X125985693Y-113159013D01*
X125818214Y-113042444D01*
X125630700Y-112961975D01*
X125430825Y-112920900D01*
X124706500Y-112920900D01*
X124706500Y-113442066D01*
X124614923Y-113428900D01*
X124544077Y-113428900D01*
X124452500Y-113442066D01*
X124452500Y-112920900D01*
X123782463Y-112920900D01*
X123776197Y-112921217D01*
X123627196Y-112936370D01*
X123479620Y-112982671D01*
X123409762Y-112983957D01*
X123350298Y-112947272D01*
X123320108Y-112884261D01*
X123318500Y-112864357D01*
X123318500Y-112444540D01*
X123338185Y-112377501D01*
X123390989Y-112331746D01*
X123460147Y-112321802D01*
X123491401Y-112330590D01*
X123528297Y-112346423D01*
X123728175Y-112387500D01*
X124452500Y-112387500D01*
X124452500Y-111866333D01*
X124544077Y-111879500D01*
X124614923Y-111879500D01*
X124706500Y-111866333D01*
X124706500Y-112387500D01*
X125376537Y-112387500D01*
X125382802Y-112387182D01*
X125531808Y-112372029D01*
X125726496Y-112310946D01*
X125904906Y-112211921D01*
X126059737Y-112079001D01*
X126184635Y-111917648D01*
X126274498Y-111734448D01*
X126325644Y-111536909D01*
X126326949Y-111511200D01*
X125058419Y-111511200D01*
X125074800Y-111455413D01*
X125074800Y-111312987D01*
X125058419Y-111257200D01*
X126324349Y-111257200D01*
X126324348Y-111257199D01*
X126305081Y-111131422D01*
X126234214Y-110940075D01*
X126126275Y-110766904D01*
X125985693Y-110619013D01*
X125818214Y-110502444D01*
X125630700Y-110421975D01*
X125430825Y-110380900D01*
X124706500Y-110380900D01*
X124706500Y-110902066D01*
X124614923Y-110888900D01*
X124544077Y-110888900D01*
X124452500Y-110902066D01*
X124452500Y-110380900D01*
X123782463Y-110380900D01*
X123776197Y-110381217D01*
X123627196Y-110396370D01*
X123479620Y-110442671D01*
X123409762Y-110443957D01*
X123350298Y-110407272D01*
X123320108Y-110344261D01*
X123318500Y-110324357D01*
X123318500Y-109857204D01*
X123338185Y-109790165D01*
X123390989Y-109744410D01*
X123460147Y-109734466D01*
X123491393Y-109743251D01*
X123541389Y-109764706D01*
X123732598Y-109804000D01*
X123732600Y-109804000D01*
X125374337Y-109804000D01*
X125377479Y-109804000D01*
X125523003Y-109789202D01*
X125709255Y-109730765D01*
X125879931Y-109636032D01*
X126028044Y-109508881D01*
X126147530Y-109354518D01*
X126233496Y-109179263D01*
X126282425Y-108990290D01*
X126292312Y-108795336D01*
X126262752Y-108602383D01*
X126243291Y-108549837D01*
X126194958Y-108419332D01*
X126194957Y-108419330D01*
X126091701Y-108253671D01*
X125957212Y-108112188D01*
X125957211Y-108112187D01*
X125957210Y-108112186D01*
X125796995Y-108000674D01*
X125617611Y-107923694D01*
X125564901Y-107912862D01*
X125426402Y-107884400D01*
X123781521Y-107884400D01*
X123778410Y-107884716D01*
X123778397Y-107884717D01*
X123635992Y-107899198D01*
X123479620Y-107948260D01*
X123409763Y-107949547D01*
X123350299Y-107912862D01*
X123320108Y-107849852D01*
X123318500Y-107829947D01*
X123318500Y-107317204D01*
X123338185Y-107250165D01*
X123390989Y-107204410D01*
X123460147Y-107194466D01*
X123491393Y-107203251D01*
X123541389Y-107224706D01*
X123732598Y-107264000D01*
X123732600Y-107264000D01*
X125374337Y-107264000D01*
X125377479Y-107264000D01*
X125523003Y-107249202D01*
X125709255Y-107190765D01*
X125879931Y-107096032D01*
X126028044Y-106968881D01*
X126147530Y-106814518D01*
X126198262Y-106711092D01*
X126245459Y-106659572D01*
X126309591Y-106641700D01*
X130664997Y-106641700D01*
X130675803Y-106642171D01*
X130715011Y-106645602D01*
X130753061Y-106635405D01*
X130763568Y-106633076D01*
X130802354Y-106626238D01*
X130802357Y-106626235D01*
X130803100Y-106626105D01*
X130829357Y-106615229D01*
X130829972Y-106614797D01*
X130829976Y-106614797D01*
X130862242Y-106592202D01*
X130871335Y-106586411D01*
X130905429Y-106566728D01*
X130930738Y-106536564D01*
X130938026Y-106528611D01*
X142778519Y-94688119D01*
X142839842Y-94654634D01*
X142909534Y-94659618D01*
G37*
%TD.AperFunction*%
%TA.AperFunction,Conductor*%
G36*
X171246958Y-81388385D02*
G01*
X171285150Y-81427107D01*
X171327299Y-81494729D01*
X171461788Y-81636212D01*
X171622005Y-81747726D01*
X171801389Y-81824706D01*
X171992598Y-81864000D01*
X171992600Y-81864000D01*
X173634337Y-81864000D01*
X173637479Y-81864000D01*
X173783003Y-81849202D01*
X173957382Y-81794489D01*
X174027236Y-81793202D01*
X174086700Y-81829887D01*
X174116892Y-81892897D01*
X174118500Y-81912803D01*
X174118500Y-82391584D01*
X174098815Y-82458623D01*
X174046011Y-82504378D01*
X173976853Y-82514322D01*
X173945600Y-82505535D01*
X173890700Y-82481975D01*
X173690825Y-82440900D01*
X172966500Y-82440900D01*
X172966500Y-82962066D01*
X172874923Y-82948900D01*
X172804077Y-82948900D01*
X172712500Y-82962066D01*
X172712500Y-82440900D01*
X172042463Y-82440900D01*
X172036197Y-82441217D01*
X171887191Y-82456370D01*
X171692503Y-82517453D01*
X171514093Y-82616478D01*
X171359262Y-82749398D01*
X171234364Y-82910751D01*
X171144501Y-83093951D01*
X171093355Y-83291490D01*
X171092051Y-83317200D01*
X172360581Y-83317200D01*
X172344200Y-83372987D01*
X172344200Y-83515413D01*
X172360581Y-83571200D01*
X171094651Y-83571200D01*
X171113918Y-83696977D01*
X171184785Y-83888324D01*
X171292724Y-84061495D01*
X171433306Y-84209386D01*
X171600785Y-84325955D01*
X171788299Y-84406424D01*
X171988175Y-84447500D01*
X172712500Y-84447500D01*
X172712500Y-83926333D01*
X172804077Y-83939500D01*
X172874923Y-83939500D01*
X172966500Y-83926333D01*
X172966500Y-84447500D01*
X173636537Y-84447500D01*
X173642802Y-84447182D01*
X173791806Y-84432029D01*
X173957379Y-84380081D01*
X174027237Y-84378793D01*
X174086701Y-84415479D01*
X174116892Y-84478489D01*
X174118500Y-84498394D01*
X174118500Y-84978920D01*
X174098815Y-85045959D01*
X174046011Y-85091714D01*
X173976853Y-85101658D01*
X173945603Y-85092871D01*
X173877611Y-85063694D01*
X173686402Y-85024400D01*
X172041521Y-85024400D01*
X172038410Y-85024716D01*
X172038397Y-85024717D01*
X171895994Y-85039198D01*
X171709745Y-85097635D01*
X171669597Y-85119919D01*
X171609420Y-85135500D01*
X165043764Y-85135500D01*
X164976725Y-85115815D01*
X164956083Y-85099181D01*
X163603319Y-83746416D01*
X163569834Y-83685093D01*
X163567000Y-83658735D01*
X163567000Y-82885787D01*
X163586685Y-82818748D01*
X163639489Y-82772993D01*
X163650036Y-82768748D01*
X163770108Y-82726734D01*
X163881801Y-82644301D01*
X163940427Y-82564866D01*
X163996074Y-82522616D01*
X164040197Y-82514500D01*
X168606954Y-82514500D01*
X168620836Y-82515279D01*
X168657565Y-82519418D01*
X168715617Y-82508432D01*
X168720036Y-82507682D01*
X168778460Y-82498877D01*
X168778462Y-82498875D01*
X168784215Y-82498009D01*
X168790004Y-82496104D01*
X168847307Y-82465818D01*
X168851426Y-82463737D01*
X168904618Y-82438123D01*
X168904619Y-82438121D01*
X168909866Y-82435595D01*
X168914823Y-82432077D01*
X168918940Y-82427959D01*
X168918945Y-82427957D01*
X168960706Y-82386194D01*
X168963964Y-82383056D01*
X169007263Y-82342882D01*
X169007264Y-82342880D01*
X169011529Y-82338923D01*
X169023236Y-82323664D01*
X169941882Y-81405019D01*
X170003206Y-81371534D01*
X170029564Y-81368700D01*
X171179919Y-81368700D01*
X171246958Y-81388385D01*
G37*
%TD.AperFunction*%
%TD*%
M02*
