%TF.GenerationSoftware,KiCad,Pcbnew,7.0.2*%
%TF.CreationDate,2023-05-27T02:32:33-07:00*%
%TF.ProjectId,n76e003-ufo-target-board,6e373665-3030-4332-9d75-666f2d746172,rev?*%
%TF.SameCoordinates,Original*%
%TF.FileFunction,Legend,Top*%
%TF.FilePolarity,Positive*%
%FSLAX46Y46*%
G04 Gerber Fmt 4.6, Leading zero omitted, Abs format (unit mm)*
G04 Created by KiCad (PCBNEW 7.0.2) date 2023-05-27 02:32:33*
%MOMM*%
%LPD*%
G01*
G04 APERTURE LIST*
G04 Aperture macros list*
%AMRoundRect*
0 Rectangle with rounded corners*
0 $1 Rounding radius*
0 $2 $3 $4 $5 $6 $7 $8 $9 X,Y pos of 4 corners*
0 Add a 4 corners polygon primitive as box body*
4,1,4,$2,$3,$4,$5,$6,$7,$8,$9,$2,$3,0*
0 Add four circle primitives for the rounded corners*
1,1,$1+$1,$2,$3*
1,1,$1+$1,$4,$5*
1,1,$1+$1,$6,$7*
1,1,$1+$1,$8,$9*
0 Add four rect primitives between the rounded corners*
20,1,$1+$1,$2,$3,$4,$5,0*
20,1,$1+$1,$4,$5,$6,$7,0*
20,1,$1+$1,$6,$7,$8,$9,0*
20,1,$1+$1,$8,$9,$2,$3,0*%
%AMFreePoly0*
4,1,19,0.500000,-0.750000,0.000000,-0.750000,0.000000,-0.744911,-0.071157,-0.744911,-0.207708,-0.704816,-0.327430,-0.627875,-0.420627,-0.520320,-0.479746,-0.390866,-0.500000,-0.250000,-0.500000,0.250000,-0.479746,0.390866,-0.420627,0.520320,-0.327430,0.627875,-0.207708,0.704816,-0.071157,0.744911,0.000000,0.744911,0.000000,0.750000,0.500000,0.750000,0.500000,-0.750000,0.500000,-0.750000,
$1*%
%AMFreePoly1*
4,1,19,0.000000,0.744911,0.071157,0.744911,0.207708,0.704816,0.327430,0.627875,0.420627,0.520320,0.479746,0.390866,0.500000,0.250000,0.500000,-0.250000,0.479746,-0.390866,0.420627,-0.520320,0.327430,-0.627875,0.207708,-0.704816,0.071157,-0.744911,0.000000,-0.744911,0.000000,-0.750000,-0.500000,-0.750000,-0.500000,0.750000,0.000000,0.750000,0.000000,0.744911,0.000000,0.744911,
$1*%
G04 Aperture macros list end*
%ADD10C,0.254000*%
%ADD11C,0.150000*%
%ADD12C,0.127000*%
%ADD13C,0.200000*%
%ADD14C,0.120000*%
%ADD15RoundRect,0.008200X0.731800X0.196800X-0.731800X0.196800X-0.731800X-0.196800X0.731800X-0.196800X0*%
%ADD16RoundRect,0.008200X-0.731800X-0.196800X0.731800X-0.196800X0.731800X0.196800X-0.731800X0.196800X0*%
%ADD17RoundRect,0.250000X-0.475000X0.337500X-0.475000X-0.337500X0.475000X-0.337500X0.475000X0.337500X0*%
%ADD18RoundRect,0.250000X-0.450000X0.350000X-0.450000X-0.350000X0.450000X-0.350000X0.450000X0.350000X0*%
%ADD19C,1.700000*%
%ADD20O,1.700000X1.700000*%
%ADD21RoundRect,0.250000X0.350000X0.450000X-0.350000X0.450000X-0.350000X-0.450000X0.350000X-0.450000X0*%
%ADD22FreePoly0,180.000000*%
%ADD23FreePoly1,180.000000*%
%ADD24FreePoly0,0.000000*%
%ADD25FreePoly1,0.000000*%
%ADD26R,1.700000X1.700000*%
%ADD27O,2.997200X1.498600*%
%ADD28O,1.498600X2.997200*%
%ADD29C,6.350000*%
G04 APERTURE END LIST*
D10*
X173520840Y-72410210D02*
X173520840Y-72663950D01*
D11*
X132870000Y-118715000D02*
X132870000Y-122355000D01*
D10*
X124245090Y-73679700D02*
X124752840Y-73679700D01*
X123229350Y-72156210D02*
X123483350Y-72156210D01*
X128004000Y-125265255D02*
X127496000Y-125265255D01*
D11*
X136370000Y-118715000D02*
X136370000Y-122355000D01*
D10*
X171997350Y-72156210D02*
X171489350Y-72156210D01*
D11*
X134620000Y-118715000D02*
X134620000Y-122355000D01*
D10*
X172759090Y-73679700D02*
X172505090Y-73425700D01*
D11*
X130970000Y-118720000D02*
X140010000Y-118720000D01*
X140010000Y-122350000D01*
X130970000Y-122350000D01*
X130970000Y-118720000D01*
D10*
X173266840Y-73679700D02*
X172759090Y-73679700D01*
D11*
X130960000Y-120530000D02*
X140000000Y-120530000D01*
D10*
X171489350Y-72156210D02*
X171743350Y-72156210D01*
X171489350Y-73679700D02*
X171235600Y-73679700D01*
X127242250Y-126788745D02*
X126988250Y-126534745D01*
X123229350Y-73679700D02*
X122975600Y-73679700D01*
X127496000Y-125265255D02*
X127750000Y-125265255D01*
X129273490Y-125265255D02*
X128765740Y-125265255D01*
X173520840Y-73171950D02*
X173520840Y-73425700D01*
X127496000Y-126788745D02*
X127242250Y-126788745D01*
X171743350Y-72156210D02*
X171743350Y-73425700D01*
X123483350Y-73425700D02*
X123229350Y-73679700D01*
X124499090Y-73679700D02*
X124499090Y-72156210D01*
X128511740Y-126788745D02*
X129527490Y-125772995D01*
X128765740Y-125265255D02*
X128511740Y-125519255D01*
D11*
X138120000Y-118715000D02*
X138120000Y-122355000D01*
D10*
X171235600Y-73679700D02*
X170981600Y-73425700D01*
X123483350Y-72156210D02*
X123483350Y-73425700D01*
X173266840Y-72917950D02*
X173520840Y-73171950D01*
X129527490Y-125772995D02*
X129527490Y-125519255D01*
X173012840Y-72917950D02*
X173266840Y-72917950D01*
X123737350Y-72156210D02*
X123229350Y-72156210D01*
X122975600Y-73679700D02*
X122721600Y-73425700D01*
X129527490Y-126788745D02*
X128511740Y-126788745D01*
X172759090Y-72156210D02*
X173266840Y-72156210D01*
X173266840Y-72156210D02*
X173520840Y-72410210D01*
X127750000Y-125265255D02*
X127750000Y-126534745D01*
X124499090Y-72156210D02*
X124245090Y-72410210D01*
X173520840Y-73425700D02*
X173266840Y-73679700D01*
X173520840Y-72663950D02*
X173266840Y-72917950D01*
X171743350Y-73425700D02*
X171489350Y-73679700D01*
X172505090Y-72410210D02*
X172759090Y-72156210D01*
X127750000Y-126534745D02*
X127496000Y-126788745D01*
X129527490Y-125519255D02*
X129273490Y-125265255D01*
X173266840Y-72917950D02*
X173012840Y-72917950D01*
X124752840Y-73679700D02*
X124499090Y-73679700D01*
D11*
X131442095Y-118103809D02*
X132242095Y-117837142D01*
X132242095Y-117837142D02*
X131442095Y-117570476D01*
X132242095Y-117303809D02*
X131442095Y-117303809D01*
X131442095Y-117303809D02*
X131442095Y-117113333D01*
X131442095Y-117113333D02*
X131480190Y-116999047D01*
X131480190Y-116999047D02*
X131556380Y-116922857D01*
X131556380Y-116922857D02*
X131632571Y-116884762D01*
X131632571Y-116884762D02*
X131784952Y-116846666D01*
X131784952Y-116846666D02*
X131899238Y-116846666D01*
X131899238Y-116846666D02*
X132051619Y-116884762D01*
X132051619Y-116884762D02*
X132127809Y-116922857D01*
X132127809Y-116922857D02*
X132204000Y-116999047D01*
X132204000Y-116999047D02*
X132242095Y-117113333D01*
X132242095Y-117113333D02*
X132242095Y-117303809D01*
X132242095Y-116503809D02*
X131442095Y-116503809D01*
X131442095Y-116503809D02*
X131442095Y-116313333D01*
X131442095Y-116313333D02*
X131480190Y-116199047D01*
X131480190Y-116199047D02*
X131556380Y-116122857D01*
X131556380Y-116122857D02*
X131632571Y-116084762D01*
X131632571Y-116084762D02*
X131784952Y-116046666D01*
X131784952Y-116046666D02*
X131899238Y-116046666D01*
X131899238Y-116046666D02*
X132051619Y-116084762D01*
X132051619Y-116084762D02*
X132127809Y-116122857D01*
X132127809Y-116122857D02*
X132204000Y-116199047D01*
X132204000Y-116199047D02*
X132242095Y-116313333D01*
X132242095Y-116313333D02*
X132242095Y-116503809D01*
X129019523Y-100340190D02*
X128943333Y-100302095D01*
X128943333Y-100302095D02*
X128829047Y-100302095D01*
X128829047Y-100302095D02*
X128714761Y-100340190D01*
X128714761Y-100340190D02*
X128638571Y-100416380D01*
X128638571Y-100416380D02*
X128600476Y-100492571D01*
X128600476Y-100492571D02*
X128562380Y-100644952D01*
X128562380Y-100644952D02*
X128562380Y-100759238D01*
X128562380Y-100759238D02*
X128600476Y-100911619D01*
X128600476Y-100911619D02*
X128638571Y-100987809D01*
X128638571Y-100987809D02*
X128714761Y-101064000D01*
X128714761Y-101064000D02*
X128829047Y-101102095D01*
X128829047Y-101102095D02*
X128905238Y-101102095D01*
X128905238Y-101102095D02*
X129019523Y-101064000D01*
X129019523Y-101064000D02*
X129057619Y-101025904D01*
X129057619Y-101025904D02*
X129057619Y-100759238D01*
X129057619Y-100759238D02*
X128905238Y-100759238D01*
X129400476Y-101102095D02*
X129400476Y-100302095D01*
X129400476Y-100302095D02*
X129705238Y-100302095D01*
X129705238Y-100302095D02*
X129781428Y-100340190D01*
X129781428Y-100340190D02*
X129819523Y-100378285D01*
X129819523Y-100378285D02*
X129857619Y-100454476D01*
X129857619Y-100454476D02*
X129857619Y-100568761D01*
X129857619Y-100568761D02*
X129819523Y-100644952D01*
X129819523Y-100644952D02*
X129781428Y-100683047D01*
X129781428Y-100683047D02*
X129705238Y-100721142D01*
X129705238Y-100721142D02*
X129400476Y-100721142D01*
X130200476Y-101102095D02*
X130200476Y-100302095D01*
X130733809Y-100302095D02*
X130886190Y-100302095D01*
X130886190Y-100302095D02*
X130962380Y-100340190D01*
X130962380Y-100340190D02*
X131038571Y-100416380D01*
X131038571Y-100416380D02*
X131076666Y-100568761D01*
X131076666Y-100568761D02*
X131076666Y-100835428D01*
X131076666Y-100835428D02*
X131038571Y-100987809D01*
X131038571Y-100987809D02*
X130962380Y-101064000D01*
X130962380Y-101064000D02*
X130886190Y-101102095D01*
X130886190Y-101102095D02*
X130733809Y-101102095D01*
X130733809Y-101102095D02*
X130657618Y-101064000D01*
X130657618Y-101064000D02*
X130581428Y-100987809D01*
X130581428Y-100987809D02*
X130543332Y-100835428D01*
X130543332Y-100835428D02*
X130543332Y-100568761D01*
X130543332Y-100568761D02*
X130581428Y-100416380D01*
X130581428Y-100416380D02*
X130657618Y-100340190D01*
X130657618Y-100340190D02*
X130733809Y-100302095D01*
X131762380Y-100568761D02*
X131762380Y-101102095D01*
X131571904Y-100264000D02*
X131381427Y-100835428D01*
X131381427Y-100835428D02*
X131876666Y-100835428D01*
X133133809Y-101064000D02*
X133057618Y-101102095D01*
X133057618Y-101102095D02*
X132905237Y-101102095D01*
X132905237Y-101102095D02*
X132829047Y-101064000D01*
X132829047Y-101064000D02*
X132790952Y-101025904D01*
X132790952Y-101025904D02*
X132752856Y-100949714D01*
X132752856Y-100949714D02*
X132752856Y-100721142D01*
X132752856Y-100721142D02*
X132790952Y-100644952D01*
X132790952Y-100644952D02*
X132829047Y-100606857D01*
X132829047Y-100606857D02*
X132905237Y-100568761D01*
X132905237Y-100568761D02*
X133057618Y-100568761D01*
X133057618Y-100568761D02*
X133133809Y-100606857D01*
X133590951Y-101102095D02*
X133514761Y-101064000D01*
X133514761Y-101064000D02*
X133476666Y-101025904D01*
X133476666Y-101025904D02*
X133438570Y-100949714D01*
X133438570Y-100949714D02*
X133438570Y-100721142D01*
X133438570Y-100721142D02*
X133476666Y-100644952D01*
X133476666Y-100644952D02*
X133514761Y-100606857D01*
X133514761Y-100606857D02*
X133590951Y-100568761D01*
X133590951Y-100568761D02*
X133705237Y-100568761D01*
X133705237Y-100568761D02*
X133781428Y-100606857D01*
X133781428Y-100606857D02*
X133819523Y-100644952D01*
X133819523Y-100644952D02*
X133857618Y-100721142D01*
X133857618Y-100721142D02*
X133857618Y-100949714D01*
X133857618Y-100949714D02*
X133819523Y-101025904D01*
X133819523Y-101025904D02*
X133781428Y-101064000D01*
X133781428Y-101064000D02*
X133705237Y-101102095D01*
X133705237Y-101102095D02*
X133590951Y-101102095D01*
X134200476Y-100568761D02*
X134200476Y-101102095D01*
X134200476Y-100644952D02*
X134238571Y-100606857D01*
X134238571Y-100606857D02*
X134314761Y-100568761D01*
X134314761Y-100568761D02*
X134429047Y-100568761D01*
X134429047Y-100568761D02*
X134505238Y-100606857D01*
X134505238Y-100606857D02*
X134543333Y-100683047D01*
X134543333Y-100683047D02*
X134543333Y-101102095D01*
X134924286Y-100568761D02*
X134924286Y-101102095D01*
X134924286Y-100644952D02*
X134962381Y-100606857D01*
X134962381Y-100606857D02*
X135038571Y-100568761D01*
X135038571Y-100568761D02*
X135152857Y-100568761D01*
X135152857Y-100568761D02*
X135229048Y-100606857D01*
X135229048Y-100606857D02*
X135267143Y-100683047D01*
X135267143Y-100683047D02*
X135267143Y-101102095D01*
X135952858Y-101064000D02*
X135876667Y-101102095D01*
X135876667Y-101102095D02*
X135724286Y-101102095D01*
X135724286Y-101102095D02*
X135648096Y-101064000D01*
X135648096Y-101064000D02*
X135610000Y-100987809D01*
X135610000Y-100987809D02*
X135610000Y-100683047D01*
X135610000Y-100683047D02*
X135648096Y-100606857D01*
X135648096Y-100606857D02*
X135724286Y-100568761D01*
X135724286Y-100568761D02*
X135876667Y-100568761D01*
X135876667Y-100568761D02*
X135952858Y-100606857D01*
X135952858Y-100606857D02*
X135990953Y-100683047D01*
X135990953Y-100683047D02*
X135990953Y-100759238D01*
X135990953Y-100759238D02*
X135610000Y-100835428D01*
X136676667Y-101064000D02*
X136600476Y-101102095D01*
X136600476Y-101102095D02*
X136448095Y-101102095D01*
X136448095Y-101102095D02*
X136371905Y-101064000D01*
X136371905Y-101064000D02*
X136333810Y-101025904D01*
X136333810Y-101025904D02*
X136295714Y-100949714D01*
X136295714Y-100949714D02*
X136295714Y-100721142D01*
X136295714Y-100721142D02*
X136333810Y-100644952D01*
X136333810Y-100644952D02*
X136371905Y-100606857D01*
X136371905Y-100606857D02*
X136448095Y-100568761D01*
X136448095Y-100568761D02*
X136600476Y-100568761D01*
X136600476Y-100568761D02*
X136676667Y-100606857D01*
X136905238Y-100568761D02*
X137210000Y-100568761D01*
X137019524Y-100302095D02*
X137019524Y-100987809D01*
X137019524Y-100987809D02*
X137057619Y-101064000D01*
X137057619Y-101064000D02*
X137133809Y-101102095D01*
X137133809Y-101102095D02*
X137210000Y-101102095D01*
X157692857Y-108227619D02*
X158311904Y-108227619D01*
X158311904Y-108227619D02*
X157978571Y-108608571D01*
X157978571Y-108608571D02*
X158121428Y-108608571D01*
X158121428Y-108608571D02*
X158216666Y-108656190D01*
X158216666Y-108656190D02*
X158264285Y-108703809D01*
X158264285Y-108703809D02*
X158311904Y-108799047D01*
X158311904Y-108799047D02*
X158311904Y-109037142D01*
X158311904Y-109037142D02*
X158264285Y-109132380D01*
X158264285Y-109132380D02*
X158216666Y-109180000D01*
X158216666Y-109180000D02*
X158121428Y-109227619D01*
X158121428Y-109227619D02*
X157835714Y-109227619D01*
X157835714Y-109227619D02*
X157740476Y-109180000D01*
X157740476Y-109180000D02*
X157692857Y-109132380D01*
X158740476Y-109132380D02*
X158788095Y-109180000D01*
X158788095Y-109180000D02*
X158740476Y-109227619D01*
X158740476Y-109227619D02*
X158692857Y-109180000D01*
X158692857Y-109180000D02*
X158740476Y-109132380D01*
X158740476Y-109132380D02*
X158740476Y-109227619D01*
X159121428Y-108227619D02*
X159740475Y-108227619D01*
X159740475Y-108227619D02*
X159407142Y-108608571D01*
X159407142Y-108608571D02*
X159549999Y-108608571D01*
X159549999Y-108608571D02*
X159645237Y-108656190D01*
X159645237Y-108656190D02*
X159692856Y-108703809D01*
X159692856Y-108703809D02*
X159740475Y-108799047D01*
X159740475Y-108799047D02*
X159740475Y-109037142D01*
X159740475Y-109037142D02*
X159692856Y-109132380D01*
X159692856Y-109132380D02*
X159645237Y-109180000D01*
X159645237Y-109180000D02*
X159549999Y-109227619D01*
X159549999Y-109227619D02*
X159264285Y-109227619D01*
X159264285Y-109227619D02*
X159169047Y-109180000D01*
X159169047Y-109180000D02*
X159121428Y-109132380D01*
X160073809Y-108560952D02*
X160311904Y-109227619D01*
X160311904Y-109227619D02*
X160549999Y-108560952D01*
X138848571Y-121752095D02*
X139000952Y-121752095D01*
X139000952Y-121752095D02*
X139077142Y-121714000D01*
X139077142Y-121714000D02*
X139115238Y-121675904D01*
X139115238Y-121675904D02*
X139191428Y-121561619D01*
X139191428Y-121561619D02*
X139229523Y-121409238D01*
X139229523Y-121409238D02*
X139229523Y-121104476D01*
X139229523Y-121104476D02*
X139191428Y-121028285D01*
X139191428Y-121028285D02*
X139153333Y-120990190D01*
X139153333Y-120990190D02*
X139077142Y-120952095D01*
X139077142Y-120952095D02*
X138924761Y-120952095D01*
X138924761Y-120952095D02*
X138848571Y-120990190D01*
X138848571Y-120990190D02*
X138810476Y-121028285D01*
X138810476Y-121028285D02*
X138772380Y-121104476D01*
X138772380Y-121104476D02*
X138772380Y-121294952D01*
X138772380Y-121294952D02*
X138810476Y-121371142D01*
X138810476Y-121371142D02*
X138848571Y-121409238D01*
X138848571Y-121409238D02*
X138924761Y-121447333D01*
X138924761Y-121447333D02*
X139077142Y-121447333D01*
X139077142Y-121447333D02*
X139153333Y-121409238D01*
X139153333Y-121409238D02*
X139191428Y-121371142D01*
X139191428Y-121371142D02*
X139229523Y-121294952D01*
X164882095Y-126713809D02*
X164882095Y-126256666D01*
X165682095Y-126485238D02*
X164882095Y-126485238D01*
X164882095Y-126066190D02*
X165682095Y-125532856D01*
X164882095Y-125532856D02*
X165682095Y-126066190D01*
X138440190Y-117690476D02*
X138402095Y-117766666D01*
X138402095Y-117766666D02*
X138402095Y-117880952D01*
X138402095Y-117880952D02*
X138440190Y-117995238D01*
X138440190Y-117995238D02*
X138516380Y-118071428D01*
X138516380Y-118071428D02*
X138592571Y-118109523D01*
X138592571Y-118109523D02*
X138744952Y-118147619D01*
X138744952Y-118147619D02*
X138859238Y-118147619D01*
X138859238Y-118147619D02*
X139011619Y-118109523D01*
X139011619Y-118109523D02*
X139087809Y-118071428D01*
X139087809Y-118071428D02*
X139164000Y-117995238D01*
X139164000Y-117995238D02*
X139202095Y-117880952D01*
X139202095Y-117880952D02*
X139202095Y-117804761D01*
X139202095Y-117804761D02*
X139164000Y-117690476D01*
X139164000Y-117690476D02*
X139125904Y-117652380D01*
X139125904Y-117652380D02*
X138859238Y-117652380D01*
X138859238Y-117652380D02*
X138859238Y-117804761D01*
X139202095Y-117309523D02*
X138402095Y-117309523D01*
X138402095Y-117309523D02*
X139202095Y-116852380D01*
X139202095Y-116852380D02*
X138402095Y-116852380D01*
X139202095Y-116471428D02*
X138402095Y-116471428D01*
X138402095Y-116471428D02*
X138402095Y-116280952D01*
X138402095Y-116280952D02*
X138440190Y-116166666D01*
X138440190Y-116166666D02*
X138516380Y-116090476D01*
X138516380Y-116090476D02*
X138592571Y-116052381D01*
X138592571Y-116052381D02*
X138744952Y-116014285D01*
X138744952Y-116014285D02*
X138859238Y-116014285D01*
X138859238Y-116014285D02*
X139011619Y-116052381D01*
X139011619Y-116052381D02*
X139087809Y-116090476D01*
X139087809Y-116090476D02*
X139164000Y-116166666D01*
X139164000Y-116166666D02*
X139202095Y-116280952D01*
X139202095Y-116280952D02*
X139202095Y-116471428D01*
X163052095Y-126639523D02*
X162252095Y-126639523D01*
X162975904Y-125801428D02*
X163014000Y-125839524D01*
X163014000Y-125839524D02*
X163052095Y-125953809D01*
X163052095Y-125953809D02*
X163052095Y-126030000D01*
X163052095Y-126030000D02*
X163014000Y-126144286D01*
X163014000Y-126144286D02*
X162937809Y-126220476D01*
X162937809Y-126220476D02*
X162861619Y-126258571D01*
X162861619Y-126258571D02*
X162709238Y-126296667D01*
X162709238Y-126296667D02*
X162594952Y-126296667D01*
X162594952Y-126296667D02*
X162442571Y-126258571D01*
X162442571Y-126258571D02*
X162366380Y-126220476D01*
X162366380Y-126220476D02*
X162290190Y-126144286D01*
X162290190Y-126144286D02*
X162252095Y-126030000D01*
X162252095Y-126030000D02*
X162252095Y-125953809D01*
X162252095Y-125953809D02*
X162290190Y-125839524D01*
X162290190Y-125839524D02*
X162328285Y-125801428D01*
X162633047Y-125458571D02*
X162633047Y-125191905D01*
X163052095Y-125077619D02*
X163052095Y-125458571D01*
X163052095Y-125458571D02*
X162252095Y-125458571D01*
X162252095Y-125458571D02*
X162252095Y-125077619D01*
X163128285Y-124925238D02*
X163128285Y-124315714D01*
X162975904Y-123668094D02*
X163014000Y-123706190D01*
X163014000Y-123706190D02*
X163052095Y-123820475D01*
X163052095Y-123820475D02*
X163052095Y-123896666D01*
X163052095Y-123896666D02*
X163014000Y-124010952D01*
X163014000Y-124010952D02*
X162937809Y-124087142D01*
X162937809Y-124087142D02*
X162861619Y-124125237D01*
X162861619Y-124125237D02*
X162709238Y-124163333D01*
X162709238Y-124163333D02*
X162594952Y-124163333D01*
X162594952Y-124163333D02*
X162442571Y-124125237D01*
X162442571Y-124125237D02*
X162366380Y-124087142D01*
X162366380Y-124087142D02*
X162290190Y-124010952D01*
X162290190Y-124010952D02*
X162252095Y-123896666D01*
X162252095Y-123896666D02*
X162252095Y-123820475D01*
X162252095Y-123820475D02*
X162290190Y-123706190D01*
X162290190Y-123706190D02*
X162328285Y-123668094D01*
X163052095Y-122944285D02*
X163052095Y-123325237D01*
X163052095Y-123325237D02*
X162252095Y-123325237D01*
X163052095Y-122677618D02*
X162252095Y-122677618D01*
X163052095Y-122220475D02*
X162594952Y-122563333D01*
X162252095Y-122220475D02*
X162709238Y-122677618D01*
D10*
X135323713Y-66555731D02*
X135323713Y-65031731D01*
X135323713Y-65031731D02*
X136194570Y-66555731D01*
X136194570Y-66555731D02*
X136194570Y-65031731D01*
X136775141Y-65031731D02*
X137791141Y-65031731D01*
X137791141Y-65031731D02*
X137137998Y-66555731D01*
X139024856Y-65031731D02*
X138734570Y-65031731D01*
X138734570Y-65031731D02*
X138589427Y-65104302D01*
X138589427Y-65104302D02*
X138516856Y-65176874D01*
X138516856Y-65176874D02*
X138371713Y-65394588D01*
X138371713Y-65394588D02*
X138299141Y-65684874D01*
X138299141Y-65684874D02*
X138299141Y-66265445D01*
X138299141Y-66265445D02*
X138371713Y-66410588D01*
X138371713Y-66410588D02*
X138444284Y-66483160D01*
X138444284Y-66483160D02*
X138589427Y-66555731D01*
X138589427Y-66555731D02*
X138879713Y-66555731D01*
X138879713Y-66555731D02*
X139024856Y-66483160D01*
X139024856Y-66483160D02*
X139097427Y-66410588D01*
X139097427Y-66410588D02*
X139169998Y-66265445D01*
X139169998Y-66265445D02*
X139169998Y-65902588D01*
X139169998Y-65902588D02*
X139097427Y-65757445D01*
X139097427Y-65757445D02*
X139024856Y-65684874D01*
X139024856Y-65684874D02*
X138879713Y-65612302D01*
X138879713Y-65612302D02*
X138589427Y-65612302D01*
X138589427Y-65612302D02*
X138444284Y-65684874D01*
X138444284Y-65684874D02*
X138371713Y-65757445D01*
X138371713Y-65757445D02*
X138299141Y-65902588D01*
X139823142Y-65757445D02*
X140331142Y-65757445D01*
X140548856Y-66555731D02*
X139823142Y-66555731D01*
X139823142Y-66555731D02*
X139823142Y-65031731D01*
X139823142Y-65031731D02*
X140548856Y-65031731D01*
X141492284Y-65031731D02*
X141637427Y-65031731D01*
X141637427Y-65031731D02*
X141782570Y-65104302D01*
X141782570Y-65104302D02*
X141855142Y-65176874D01*
X141855142Y-65176874D02*
X141927713Y-65322017D01*
X141927713Y-65322017D02*
X142000284Y-65612302D01*
X142000284Y-65612302D02*
X142000284Y-65975160D01*
X142000284Y-65975160D02*
X141927713Y-66265445D01*
X141927713Y-66265445D02*
X141855142Y-66410588D01*
X141855142Y-66410588D02*
X141782570Y-66483160D01*
X141782570Y-66483160D02*
X141637427Y-66555731D01*
X141637427Y-66555731D02*
X141492284Y-66555731D01*
X141492284Y-66555731D02*
X141347142Y-66483160D01*
X141347142Y-66483160D02*
X141274570Y-66410588D01*
X141274570Y-66410588D02*
X141201999Y-66265445D01*
X141201999Y-66265445D02*
X141129427Y-65975160D01*
X141129427Y-65975160D02*
X141129427Y-65612302D01*
X141129427Y-65612302D02*
X141201999Y-65322017D01*
X141201999Y-65322017D02*
X141274570Y-65176874D01*
X141274570Y-65176874D02*
X141347142Y-65104302D01*
X141347142Y-65104302D02*
X141492284Y-65031731D01*
X142943713Y-65031731D02*
X143088856Y-65031731D01*
X143088856Y-65031731D02*
X143233999Y-65104302D01*
X143233999Y-65104302D02*
X143306571Y-65176874D01*
X143306571Y-65176874D02*
X143379142Y-65322017D01*
X143379142Y-65322017D02*
X143451713Y-65612302D01*
X143451713Y-65612302D02*
X143451713Y-65975160D01*
X143451713Y-65975160D02*
X143379142Y-66265445D01*
X143379142Y-66265445D02*
X143306571Y-66410588D01*
X143306571Y-66410588D02*
X143233999Y-66483160D01*
X143233999Y-66483160D02*
X143088856Y-66555731D01*
X143088856Y-66555731D02*
X142943713Y-66555731D01*
X142943713Y-66555731D02*
X142798571Y-66483160D01*
X142798571Y-66483160D02*
X142725999Y-66410588D01*
X142725999Y-66410588D02*
X142653428Y-66265445D01*
X142653428Y-66265445D02*
X142580856Y-65975160D01*
X142580856Y-65975160D02*
X142580856Y-65612302D01*
X142580856Y-65612302D02*
X142653428Y-65322017D01*
X142653428Y-65322017D02*
X142725999Y-65176874D01*
X142725999Y-65176874D02*
X142798571Y-65104302D01*
X142798571Y-65104302D02*
X142943713Y-65031731D01*
X143959714Y-65031731D02*
X144903142Y-65031731D01*
X144903142Y-65031731D02*
X144395142Y-65612302D01*
X144395142Y-65612302D02*
X144612857Y-65612302D01*
X144612857Y-65612302D02*
X144758000Y-65684874D01*
X144758000Y-65684874D02*
X144830571Y-65757445D01*
X144830571Y-65757445D02*
X144903142Y-65902588D01*
X144903142Y-65902588D02*
X144903142Y-66265445D01*
X144903142Y-66265445D02*
X144830571Y-66410588D01*
X144830571Y-66410588D02*
X144758000Y-66483160D01*
X144758000Y-66483160D02*
X144612857Y-66555731D01*
X144612857Y-66555731D02*
X144177428Y-66555731D01*
X144177428Y-66555731D02*
X144032285Y-66483160D01*
X144032285Y-66483160D02*
X143959714Y-66410588D01*
X146499714Y-65031731D02*
X147370572Y-65031731D01*
X146935143Y-66555731D02*
X146935143Y-65031731D01*
X148531715Y-66555731D02*
X148531715Y-65757445D01*
X148531715Y-65757445D02*
X148459143Y-65612302D01*
X148459143Y-65612302D02*
X148314000Y-65539731D01*
X148314000Y-65539731D02*
X148023715Y-65539731D01*
X148023715Y-65539731D02*
X147878572Y-65612302D01*
X148531715Y-66483160D02*
X148386572Y-66555731D01*
X148386572Y-66555731D02*
X148023715Y-66555731D01*
X148023715Y-66555731D02*
X147878572Y-66483160D01*
X147878572Y-66483160D02*
X147806000Y-66338017D01*
X147806000Y-66338017D02*
X147806000Y-66192874D01*
X147806000Y-66192874D02*
X147878572Y-66047731D01*
X147878572Y-66047731D02*
X148023715Y-65975160D01*
X148023715Y-65975160D02*
X148386572Y-65975160D01*
X148386572Y-65975160D02*
X148531715Y-65902588D01*
X149257429Y-66555731D02*
X149257429Y-65539731D01*
X149257429Y-65830017D02*
X149330000Y-65684874D01*
X149330000Y-65684874D02*
X149402572Y-65612302D01*
X149402572Y-65612302D02*
X149547714Y-65539731D01*
X149547714Y-65539731D02*
X149692857Y-65539731D01*
X150854001Y-65539731D02*
X150854001Y-66773445D01*
X150854001Y-66773445D02*
X150781429Y-66918588D01*
X150781429Y-66918588D02*
X150708858Y-66991160D01*
X150708858Y-66991160D02*
X150563715Y-67063731D01*
X150563715Y-67063731D02*
X150346001Y-67063731D01*
X150346001Y-67063731D02*
X150200858Y-66991160D01*
X150854001Y-66483160D02*
X150708858Y-66555731D01*
X150708858Y-66555731D02*
X150418572Y-66555731D01*
X150418572Y-66555731D02*
X150273429Y-66483160D01*
X150273429Y-66483160D02*
X150200858Y-66410588D01*
X150200858Y-66410588D02*
X150128286Y-66265445D01*
X150128286Y-66265445D02*
X150128286Y-65830017D01*
X150128286Y-65830017D02*
X150200858Y-65684874D01*
X150200858Y-65684874D02*
X150273429Y-65612302D01*
X150273429Y-65612302D02*
X150418572Y-65539731D01*
X150418572Y-65539731D02*
X150708858Y-65539731D01*
X150708858Y-65539731D02*
X150854001Y-65612302D01*
X152160286Y-66483160D02*
X152015143Y-66555731D01*
X152015143Y-66555731D02*
X151724858Y-66555731D01*
X151724858Y-66555731D02*
X151579715Y-66483160D01*
X151579715Y-66483160D02*
X151507143Y-66338017D01*
X151507143Y-66338017D02*
X151507143Y-65757445D01*
X151507143Y-65757445D02*
X151579715Y-65612302D01*
X151579715Y-65612302D02*
X151724858Y-65539731D01*
X151724858Y-65539731D02*
X152015143Y-65539731D01*
X152015143Y-65539731D02*
X152160286Y-65612302D01*
X152160286Y-65612302D02*
X152232858Y-65757445D01*
X152232858Y-65757445D02*
X152232858Y-65902588D01*
X152232858Y-65902588D02*
X151507143Y-66047731D01*
X152668286Y-65539731D02*
X153248858Y-65539731D01*
X152886001Y-65031731D02*
X152886001Y-66338017D01*
X152886001Y-66338017D02*
X152958572Y-66483160D01*
X152958572Y-66483160D02*
X153103715Y-66555731D01*
X153103715Y-66555731D02*
X153248858Y-66555731D01*
X155426001Y-65757445D02*
X155643715Y-65830017D01*
X155643715Y-65830017D02*
X155716286Y-65902588D01*
X155716286Y-65902588D02*
X155788858Y-66047731D01*
X155788858Y-66047731D02*
X155788858Y-66265445D01*
X155788858Y-66265445D02*
X155716286Y-66410588D01*
X155716286Y-66410588D02*
X155643715Y-66483160D01*
X155643715Y-66483160D02*
X155498572Y-66555731D01*
X155498572Y-66555731D02*
X154918001Y-66555731D01*
X154918001Y-66555731D02*
X154918001Y-65031731D01*
X154918001Y-65031731D02*
X155426001Y-65031731D01*
X155426001Y-65031731D02*
X155571144Y-65104302D01*
X155571144Y-65104302D02*
X155643715Y-65176874D01*
X155643715Y-65176874D02*
X155716286Y-65322017D01*
X155716286Y-65322017D02*
X155716286Y-65467160D01*
X155716286Y-65467160D02*
X155643715Y-65612302D01*
X155643715Y-65612302D02*
X155571144Y-65684874D01*
X155571144Y-65684874D02*
X155426001Y-65757445D01*
X155426001Y-65757445D02*
X154918001Y-65757445D01*
X156659715Y-66555731D02*
X156514572Y-66483160D01*
X156514572Y-66483160D02*
X156442001Y-66410588D01*
X156442001Y-66410588D02*
X156369429Y-66265445D01*
X156369429Y-66265445D02*
X156369429Y-65830017D01*
X156369429Y-65830017D02*
X156442001Y-65684874D01*
X156442001Y-65684874D02*
X156514572Y-65612302D01*
X156514572Y-65612302D02*
X156659715Y-65539731D01*
X156659715Y-65539731D02*
X156877429Y-65539731D01*
X156877429Y-65539731D02*
X157022572Y-65612302D01*
X157022572Y-65612302D02*
X157095144Y-65684874D01*
X157095144Y-65684874D02*
X157167715Y-65830017D01*
X157167715Y-65830017D02*
X157167715Y-66265445D01*
X157167715Y-66265445D02*
X157095144Y-66410588D01*
X157095144Y-66410588D02*
X157022572Y-66483160D01*
X157022572Y-66483160D02*
X156877429Y-66555731D01*
X156877429Y-66555731D02*
X156659715Y-66555731D01*
X158474001Y-66555731D02*
X158474001Y-65757445D01*
X158474001Y-65757445D02*
X158401429Y-65612302D01*
X158401429Y-65612302D02*
X158256286Y-65539731D01*
X158256286Y-65539731D02*
X157966001Y-65539731D01*
X157966001Y-65539731D02*
X157820858Y-65612302D01*
X158474001Y-66483160D02*
X158328858Y-66555731D01*
X158328858Y-66555731D02*
X157966001Y-66555731D01*
X157966001Y-66555731D02*
X157820858Y-66483160D01*
X157820858Y-66483160D02*
X157748286Y-66338017D01*
X157748286Y-66338017D02*
X157748286Y-66192874D01*
X157748286Y-66192874D02*
X157820858Y-66047731D01*
X157820858Y-66047731D02*
X157966001Y-65975160D01*
X157966001Y-65975160D02*
X158328858Y-65975160D01*
X158328858Y-65975160D02*
X158474001Y-65902588D01*
X159199715Y-66555731D02*
X159199715Y-65539731D01*
X159199715Y-65830017D02*
X159272286Y-65684874D01*
X159272286Y-65684874D02*
X159344858Y-65612302D01*
X159344858Y-65612302D02*
X159490000Y-65539731D01*
X159490000Y-65539731D02*
X159635143Y-65539731D01*
X160796287Y-66555731D02*
X160796287Y-65031731D01*
X160796287Y-66483160D02*
X160651144Y-66555731D01*
X160651144Y-66555731D02*
X160360858Y-66555731D01*
X160360858Y-66555731D02*
X160215715Y-66483160D01*
X160215715Y-66483160D02*
X160143144Y-66410588D01*
X160143144Y-66410588D02*
X160070572Y-66265445D01*
X160070572Y-66265445D02*
X160070572Y-65830017D01*
X160070572Y-65830017D02*
X160143144Y-65684874D01*
X160143144Y-65684874D02*
X160215715Y-65612302D01*
X160215715Y-65612302D02*
X160360858Y-65539731D01*
X160360858Y-65539731D02*
X160651144Y-65539731D01*
X160651144Y-65539731D02*
X160796287Y-65612302D01*
X138553143Y-68226325D02*
X138045143Y-68226325D01*
X138045143Y-69024611D02*
X138045143Y-67500611D01*
X138045143Y-67500611D02*
X138770857Y-67500611D01*
X139569143Y-69024611D02*
X139424000Y-68952040D01*
X139424000Y-68952040D02*
X139351429Y-68879468D01*
X139351429Y-68879468D02*
X139278857Y-68734325D01*
X139278857Y-68734325D02*
X139278857Y-68298897D01*
X139278857Y-68298897D02*
X139351429Y-68153754D01*
X139351429Y-68153754D02*
X139424000Y-68081182D01*
X139424000Y-68081182D02*
X139569143Y-68008611D01*
X139569143Y-68008611D02*
X139786857Y-68008611D01*
X139786857Y-68008611D02*
X139932000Y-68081182D01*
X139932000Y-68081182D02*
X140004572Y-68153754D01*
X140004572Y-68153754D02*
X140077143Y-68298897D01*
X140077143Y-68298897D02*
X140077143Y-68734325D01*
X140077143Y-68734325D02*
X140004572Y-68879468D01*
X140004572Y-68879468D02*
X139932000Y-68952040D01*
X139932000Y-68952040D02*
X139786857Y-69024611D01*
X139786857Y-69024611D02*
X139569143Y-69024611D01*
X140730286Y-69024611D02*
X140730286Y-68008611D01*
X140730286Y-68298897D02*
X140802857Y-68153754D01*
X140802857Y-68153754D02*
X140875429Y-68081182D01*
X140875429Y-68081182D02*
X141020571Y-68008611D01*
X141020571Y-68008611D02*
X141165714Y-68008611D01*
X143705715Y-68879468D02*
X143633143Y-68952040D01*
X143633143Y-68952040D02*
X143415429Y-69024611D01*
X143415429Y-69024611D02*
X143270286Y-69024611D01*
X143270286Y-69024611D02*
X143052572Y-68952040D01*
X143052572Y-68952040D02*
X142907429Y-68806897D01*
X142907429Y-68806897D02*
X142834858Y-68661754D01*
X142834858Y-68661754D02*
X142762286Y-68371468D01*
X142762286Y-68371468D02*
X142762286Y-68153754D01*
X142762286Y-68153754D02*
X142834858Y-67863468D01*
X142834858Y-67863468D02*
X142907429Y-67718325D01*
X142907429Y-67718325D02*
X143052572Y-67573182D01*
X143052572Y-67573182D02*
X143270286Y-67500611D01*
X143270286Y-67500611D02*
X143415429Y-67500611D01*
X143415429Y-67500611D02*
X143633143Y-67573182D01*
X143633143Y-67573182D02*
X143705715Y-67645754D01*
X144358858Y-69024611D02*
X144358858Y-67500611D01*
X145012001Y-69024611D02*
X145012001Y-68226325D01*
X145012001Y-68226325D02*
X144939429Y-68081182D01*
X144939429Y-68081182D02*
X144794286Y-68008611D01*
X144794286Y-68008611D02*
X144576572Y-68008611D01*
X144576572Y-68008611D02*
X144431429Y-68081182D01*
X144431429Y-68081182D02*
X144358858Y-68153754D01*
X145737715Y-69024611D02*
X145737715Y-68008611D01*
X145737715Y-67500611D02*
X145665143Y-67573182D01*
X145665143Y-67573182D02*
X145737715Y-67645754D01*
X145737715Y-67645754D02*
X145810286Y-67573182D01*
X145810286Y-67573182D02*
X145737715Y-67500611D01*
X145737715Y-67500611D02*
X145737715Y-67645754D01*
X146463429Y-68008611D02*
X146463429Y-69532611D01*
X146463429Y-68081182D02*
X146608572Y-68008611D01*
X146608572Y-68008611D02*
X146898857Y-68008611D01*
X146898857Y-68008611D02*
X147044000Y-68081182D01*
X147044000Y-68081182D02*
X147116572Y-68153754D01*
X147116572Y-68153754D02*
X147189143Y-68298897D01*
X147189143Y-68298897D02*
X147189143Y-68734325D01*
X147189143Y-68734325D02*
X147116572Y-68879468D01*
X147116572Y-68879468D02*
X147044000Y-68952040D01*
X147044000Y-68952040D02*
X146898857Y-69024611D01*
X146898857Y-69024611D02*
X146608572Y-69024611D01*
X146608572Y-69024611D02*
X146463429Y-68952040D01*
X147697143Y-67500611D02*
X148060000Y-69024611D01*
X148060000Y-69024611D02*
X148350286Y-67936040D01*
X148350286Y-67936040D02*
X148640571Y-69024611D01*
X148640571Y-69024611D02*
X149003429Y-67500611D01*
X149584000Y-69024611D02*
X149584000Y-67500611D01*
X150237143Y-69024611D02*
X150237143Y-68226325D01*
X150237143Y-68226325D02*
X150164571Y-68081182D01*
X150164571Y-68081182D02*
X150019428Y-68008611D01*
X150019428Y-68008611D02*
X149801714Y-68008611D01*
X149801714Y-68008611D02*
X149656571Y-68081182D01*
X149656571Y-68081182D02*
X149584000Y-68153754D01*
X150962857Y-69024611D02*
X150962857Y-68008611D01*
X150962857Y-67500611D02*
X150890285Y-67573182D01*
X150890285Y-67573182D02*
X150962857Y-67645754D01*
X150962857Y-67645754D02*
X151035428Y-67573182D01*
X151035428Y-67573182D02*
X150962857Y-67500611D01*
X150962857Y-67500611D02*
X150962857Y-67645754D01*
X151615999Y-68952040D02*
X151761142Y-69024611D01*
X151761142Y-69024611D02*
X152051428Y-69024611D01*
X152051428Y-69024611D02*
X152196571Y-68952040D01*
X152196571Y-68952040D02*
X152269142Y-68806897D01*
X152269142Y-68806897D02*
X152269142Y-68734325D01*
X152269142Y-68734325D02*
X152196571Y-68589182D01*
X152196571Y-68589182D02*
X152051428Y-68516611D01*
X152051428Y-68516611D02*
X151833714Y-68516611D01*
X151833714Y-68516611D02*
X151688571Y-68444040D01*
X151688571Y-68444040D02*
X151615999Y-68298897D01*
X151615999Y-68298897D02*
X151615999Y-68226325D01*
X151615999Y-68226325D02*
X151688571Y-68081182D01*
X151688571Y-68081182D02*
X151833714Y-68008611D01*
X151833714Y-68008611D02*
X152051428Y-68008611D01*
X152051428Y-68008611D02*
X152196571Y-68081182D01*
X152922285Y-68008611D02*
X152922285Y-69532611D01*
X152922285Y-68081182D02*
X153067428Y-68008611D01*
X153067428Y-68008611D02*
X153357713Y-68008611D01*
X153357713Y-68008611D02*
X153502856Y-68081182D01*
X153502856Y-68081182D02*
X153575428Y-68153754D01*
X153575428Y-68153754D02*
X153647999Y-68298897D01*
X153647999Y-68298897D02*
X153647999Y-68734325D01*
X153647999Y-68734325D02*
X153575428Y-68879468D01*
X153575428Y-68879468D02*
X153502856Y-68952040D01*
X153502856Y-68952040D02*
X153357713Y-69024611D01*
X153357713Y-69024611D02*
X153067428Y-69024611D01*
X153067428Y-69024611D02*
X152922285Y-68952040D01*
X154881713Y-68952040D02*
X154736570Y-69024611D01*
X154736570Y-69024611D02*
X154446285Y-69024611D01*
X154446285Y-69024611D02*
X154301142Y-68952040D01*
X154301142Y-68952040D02*
X154228570Y-68806897D01*
X154228570Y-68806897D02*
X154228570Y-68226325D01*
X154228570Y-68226325D02*
X154301142Y-68081182D01*
X154301142Y-68081182D02*
X154446285Y-68008611D01*
X154446285Y-68008611D02*
X154736570Y-68008611D01*
X154736570Y-68008611D02*
X154881713Y-68081182D01*
X154881713Y-68081182D02*
X154954285Y-68226325D01*
X154954285Y-68226325D02*
X154954285Y-68371468D01*
X154954285Y-68371468D02*
X154228570Y-68516611D01*
X155607428Y-69024611D02*
X155607428Y-68008611D01*
X155607428Y-68298897D02*
X155679999Y-68153754D01*
X155679999Y-68153754D02*
X155752571Y-68081182D01*
X155752571Y-68081182D02*
X155897713Y-68008611D01*
X155897713Y-68008611D02*
X156042856Y-68008611D01*
X157131428Y-68952040D02*
X156986285Y-69024611D01*
X156986285Y-69024611D02*
X156696000Y-69024611D01*
X156696000Y-69024611D02*
X156550857Y-68952040D01*
X156550857Y-68952040D02*
X156478285Y-68806897D01*
X156478285Y-68806897D02*
X156478285Y-68226325D01*
X156478285Y-68226325D02*
X156550857Y-68081182D01*
X156550857Y-68081182D02*
X156696000Y-68008611D01*
X156696000Y-68008611D02*
X156986285Y-68008611D01*
X156986285Y-68008611D02*
X157131428Y-68081182D01*
X157131428Y-68081182D02*
X157204000Y-68226325D01*
X157204000Y-68226325D02*
X157204000Y-68371468D01*
X157204000Y-68371468D02*
X156478285Y-68516611D01*
X157857143Y-69024611D02*
X157857143Y-68008611D01*
X157857143Y-68298897D02*
X157929714Y-68153754D01*
X157929714Y-68153754D02*
X158002286Y-68081182D01*
X158002286Y-68081182D02*
X158147428Y-68008611D01*
X158147428Y-68008611D02*
X158292571Y-68008611D01*
X138770857Y-71348348D02*
X138698285Y-71420920D01*
X138698285Y-71420920D02*
X138480571Y-71493491D01*
X138480571Y-71493491D02*
X138335428Y-71493491D01*
X138335428Y-71493491D02*
X138117714Y-71420920D01*
X138117714Y-71420920D02*
X137972571Y-71275777D01*
X137972571Y-71275777D02*
X137900000Y-71130634D01*
X137900000Y-71130634D02*
X137827428Y-70840348D01*
X137827428Y-70840348D02*
X137827428Y-70622634D01*
X137827428Y-70622634D02*
X137900000Y-70332348D01*
X137900000Y-70332348D02*
X137972571Y-70187205D01*
X137972571Y-70187205D02*
X138117714Y-70042062D01*
X138117714Y-70042062D02*
X138335428Y-69969491D01*
X138335428Y-69969491D02*
X138480571Y-69969491D01*
X138480571Y-69969491D02*
X138698285Y-70042062D01*
X138698285Y-70042062D02*
X138770857Y-70114634D01*
X139278857Y-69969491D02*
X139641714Y-71493491D01*
X139641714Y-71493491D02*
X139932000Y-70404920D01*
X139932000Y-70404920D02*
X140222285Y-71493491D01*
X140222285Y-71493491D02*
X140585143Y-69969491D01*
X141020571Y-69969491D02*
X141963999Y-69969491D01*
X141963999Y-69969491D02*
X141455999Y-70550062D01*
X141455999Y-70550062D02*
X141673714Y-70550062D01*
X141673714Y-70550062D02*
X141818857Y-70622634D01*
X141818857Y-70622634D02*
X141891428Y-70695205D01*
X141891428Y-70695205D02*
X141963999Y-70840348D01*
X141963999Y-70840348D02*
X141963999Y-71203205D01*
X141963999Y-71203205D02*
X141891428Y-71348348D01*
X141891428Y-71348348D02*
X141818857Y-71420920D01*
X141818857Y-71420920D02*
X141673714Y-71493491D01*
X141673714Y-71493491D02*
X141238285Y-71493491D01*
X141238285Y-71493491D02*
X141093142Y-71420920D01*
X141093142Y-71420920D02*
X141020571Y-71348348D01*
X142907428Y-69969491D02*
X143052571Y-69969491D01*
X143052571Y-69969491D02*
X143197714Y-70042062D01*
X143197714Y-70042062D02*
X143270286Y-70114634D01*
X143270286Y-70114634D02*
X143342857Y-70259777D01*
X143342857Y-70259777D02*
X143415428Y-70550062D01*
X143415428Y-70550062D02*
X143415428Y-70912920D01*
X143415428Y-70912920D02*
X143342857Y-71203205D01*
X143342857Y-71203205D02*
X143270286Y-71348348D01*
X143270286Y-71348348D02*
X143197714Y-71420920D01*
X143197714Y-71420920D02*
X143052571Y-71493491D01*
X143052571Y-71493491D02*
X142907428Y-71493491D01*
X142907428Y-71493491D02*
X142762286Y-71420920D01*
X142762286Y-71420920D02*
X142689714Y-71348348D01*
X142689714Y-71348348D02*
X142617143Y-71203205D01*
X142617143Y-71203205D02*
X142544571Y-70912920D01*
X142544571Y-70912920D02*
X142544571Y-70550062D01*
X142544571Y-70550062D02*
X142617143Y-70259777D01*
X142617143Y-70259777D02*
X142689714Y-70114634D01*
X142689714Y-70114634D02*
X142762286Y-70042062D01*
X142762286Y-70042062D02*
X142907428Y-69969491D01*
X144286286Y-70622634D02*
X144141143Y-70550062D01*
X144141143Y-70550062D02*
X144068572Y-70477491D01*
X144068572Y-70477491D02*
X143996000Y-70332348D01*
X143996000Y-70332348D02*
X143996000Y-70259777D01*
X143996000Y-70259777D02*
X144068572Y-70114634D01*
X144068572Y-70114634D02*
X144141143Y-70042062D01*
X144141143Y-70042062D02*
X144286286Y-69969491D01*
X144286286Y-69969491D02*
X144576572Y-69969491D01*
X144576572Y-69969491D02*
X144721715Y-70042062D01*
X144721715Y-70042062D02*
X144794286Y-70114634D01*
X144794286Y-70114634D02*
X144866857Y-70259777D01*
X144866857Y-70259777D02*
X144866857Y-70332348D01*
X144866857Y-70332348D02*
X144794286Y-70477491D01*
X144794286Y-70477491D02*
X144721715Y-70550062D01*
X144721715Y-70550062D02*
X144576572Y-70622634D01*
X144576572Y-70622634D02*
X144286286Y-70622634D01*
X144286286Y-70622634D02*
X144141143Y-70695205D01*
X144141143Y-70695205D02*
X144068572Y-70767777D01*
X144068572Y-70767777D02*
X143996000Y-70912920D01*
X143996000Y-70912920D02*
X143996000Y-71203205D01*
X143996000Y-71203205D02*
X144068572Y-71348348D01*
X144068572Y-71348348D02*
X144141143Y-71420920D01*
X144141143Y-71420920D02*
X144286286Y-71493491D01*
X144286286Y-71493491D02*
X144576572Y-71493491D01*
X144576572Y-71493491D02*
X144721715Y-71420920D01*
X144721715Y-71420920D02*
X144794286Y-71348348D01*
X144794286Y-71348348D02*
X144866857Y-71203205D01*
X144866857Y-71203205D02*
X144866857Y-70912920D01*
X144866857Y-70912920D02*
X144794286Y-70767777D01*
X144794286Y-70767777D02*
X144721715Y-70695205D01*
X144721715Y-70695205D02*
X144576572Y-70622634D01*
X146681144Y-69969491D02*
X146681144Y-71203205D01*
X146681144Y-71203205D02*
X146753715Y-71348348D01*
X146753715Y-71348348D02*
X146826287Y-71420920D01*
X146826287Y-71420920D02*
X146971429Y-71493491D01*
X146971429Y-71493491D02*
X147261715Y-71493491D01*
X147261715Y-71493491D02*
X147406858Y-71420920D01*
X147406858Y-71420920D02*
X147479429Y-71348348D01*
X147479429Y-71348348D02*
X147552001Y-71203205D01*
X147552001Y-71203205D02*
X147552001Y-69969491D01*
X148785715Y-70695205D02*
X148277715Y-70695205D01*
X148277715Y-71493491D02*
X148277715Y-69969491D01*
X148277715Y-69969491D02*
X149003429Y-69969491D01*
X149874286Y-69969491D02*
X150164572Y-69969491D01*
X150164572Y-69969491D02*
X150309715Y-70042062D01*
X150309715Y-70042062D02*
X150454858Y-70187205D01*
X150454858Y-70187205D02*
X150527429Y-70477491D01*
X150527429Y-70477491D02*
X150527429Y-70985491D01*
X150527429Y-70985491D02*
X150454858Y-71275777D01*
X150454858Y-71275777D02*
X150309715Y-71420920D01*
X150309715Y-71420920D02*
X150164572Y-71493491D01*
X150164572Y-71493491D02*
X149874286Y-71493491D01*
X149874286Y-71493491D02*
X149729144Y-71420920D01*
X149729144Y-71420920D02*
X149584001Y-71275777D01*
X149584001Y-71275777D02*
X149511429Y-70985491D01*
X149511429Y-70985491D02*
X149511429Y-70477491D01*
X149511429Y-70477491D02*
X149584001Y-70187205D01*
X149584001Y-70187205D02*
X149729144Y-70042062D01*
X149729144Y-70042062D02*
X149874286Y-69969491D01*
X152849715Y-70695205D02*
X153067429Y-70767777D01*
X153067429Y-70767777D02*
X153140000Y-70840348D01*
X153140000Y-70840348D02*
X153212572Y-70985491D01*
X153212572Y-70985491D02*
X153212572Y-71203205D01*
X153212572Y-71203205D02*
X153140000Y-71348348D01*
X153140000Y-71348348D02*
X153067429Y-71420920D01*
X153067429Y-71420920D02*
X152922286Y-71493491D01*
X152922286Y-71493491D02*
X152341715Y-71493491D01*
X152341715Y-71493491D02*
X152341715Y-69969491D01*
X152341715Y-69969491D02*
X152849715Y-69969491D01*
X152849715Y-69969491D02*
X152994858Y-70042062D01*
X152994858Y-70042062D02*
X153067429Y-70114634D01*
X153067429Y-70114634D02*
X153140000Y-70259777D01*
X153140000Y-70259777D02*
X153140000Y-70404920D01*
X153140000Y-70404920D02*
X153067429Y-70550062D01*
X153067429Y-70550062D02*
X152994858Y-70622634D01*
X152994858Y-70622634D02*
X152849715Y-70695205D01*
X152849715Y-70695205D02*
X152341715Y-70695205D01*
X154083429Y-71493491D02*
X153938286Y-71420920D01*
X153938286Y-71420920D02*
X153865715Y-71348348D01*
X153865715Y-71348348D02*
X153793143Y-71203205D01*
X153793143Y-71203205D02*
X153793143Y-70767777D01*
X153793143Y-70767777D02*
X153865715Y-70622634D01*
X153865715Y-70622634D02*
X153938286Y-70550062D01*
X153938286Y-70550062D02*
X154083429Y-70477491D01*
X154083429Y-70477491D02*
X154301143Y-70477491D01*
X154301143Y-70477491D02*
X154446286Y-70550062D01*
X154446286Y-70550062D02*
X154518858Y-70622634D01*
X154518858Y-70622634D02*
X154591429Y-70767777D01*
X154591429Y-70767777D02*
X154591429Y-71203205D01*
X154591429Y-71203205D02*
X154518858Y-71348348D01*
X154518858Y-71348348D02*
X154446286Y-71420920D01*
X154446286Y-71420920D02*
X154301143Y-71493491D01*
X154301143Y-71493491D02*
X154083429Y-71493491D01*
X155897715Y-71493491D02*
X155897715Y-70695205D01*
X155897715Y-70695205D02*
X155825143Y-70550062D01*
X155825143Y-70550062D02*
X155680000Y-70477491D01*
X155680000Y-70477491D02*
X155389715Y-70477491D01*
X155389715Y-70477491D02*
X155244572Y-70550062D01*
X155897715Y-71420920D02*
X155752572Y-71493491D01*
X155752572Y-71493491D02*
X155389715Y-71493491D01*
X155389715Y-71493491D02*
X155244572Y-71420920D01*
X155244572Y-71420920D02*
X155172000Y-71275777D01*
X155172000Y-71275777D02*
X155172000Y-71130634D01*
X155172000Y-71130634D02*
X155244572Y-70985491D01*
X155244572Y-70985491D02*
X155389715Y-70912920D01*
X155389715Y-70912920D02*
X155752572Y-70912920D01*
X155752572Y-70912920D02*
X155897715Y-70840348D01*
X156623429Y-71493491D02*
X156623429Y-70477491D01*
X156623429Y-70767777D02*
X156696000Y-70622634D01*
X156696000Y-70622634D02*
X156768572Y-70550062D01*
X156768572Y-70550062D02*
X156913714Y-70477491D01*
X156913714Y-70477491D02*
X157058857Y-70477491D01*
X158220001Y-71493491D02*
X158220001Y-69969491D01*
X158220001Y-71420920D02*
X158074858Y-71493491D01*
X158074858Y-71493491D02*
X157784572Y-71493491D01*
X157784572Y-71493491D02*
X157639429Y-71420920D01*
X157639429Y-71420920D02*
X157566858Y-71348348D01*
X157566858Y-71348348D02*
X157494286Y-71203205D01*
X157494286Y-71203205D02*
X157494286Y-70767777D01*
X157494286Y-70767777D02*
X157566858Y-70622634D01*
X157566858Y-70622634D02*
X157639429Y-70550062D01*
X157639429Y-70550062D02*
X157784572Y-70477491D01*
X157784572Y-70477491D02*
X158074858Y-70477491D01*
X158074858Y-70477491D02*
X158220001Y-70550062D01*
D11*
X131782380Y-119378285D02*
X131820476Y-119340190D01*
X131820476Y-119340190D02*
X131896666Y-119302095D01*
X131896666Y-119302095D02*
X132087142Y-119302095D01*
X132087142Y-119302095D02*
X132163333Y-119340190D01*
X132163333Y-119340190D02*
X132201428Y-119378285D01*
X132201428Y-119378285D02*
X132239523Y-119454476D01*
X132239523Y-119454476D02*
X132239523Y-119530666D01*
X132239523Y-119530666D02*
X132201428Y-119644952D01*
X132201428Y-119644952D02*
X131744285Y-120102095D01*
X131744285Y-120102095D02*
X132239523Y-120102095D01*
X151033332Y-115380095D02*
X151033332Y-114580095D01*
X151033332Y-114580095D02*
X151490475Y-115380095D01*
X151490475Y-115380095D02*
X151490475Y-114580095D01*
X152023808Y-114580095D02*
X152176189Y-114580095D01*
X152176189Y-114580095D02*
X152252379Y-114618190D01*
X152252379Y-114618190D02*
X152328570Y-114694380D01*
X152328570Y-114694380D02*
X152366665Y-114846761D01*
X152366665Y-114846761D02*
X152366665Y-115113428D01*
X152366665Y-115113428D02*
X152328570Y-115265809D01*
X152328570Y-115265809D02*
X152252379Y-115342000D01*
X152252379Y-115342000D02*
X152176189Y-115380095D01*
X152176189Y-115380095D02*
X152023808Y-115380095D01*
X152023808Y-115380095D02*
X151947617Y-115342000D01*
X151947617Y-115342000D02*
X151871427Y-115265809D01*
X151871427Y-115265809D02*
X151833331Y-115113428D01*
X151833331Y-115113428D02*
X151833331Y-114846761D01*
X151833331Y-114846761D02*
X151871427Y-114694380D01*
X151871427Y-114694380D02*
X151947617Y-114618190D01*
X151947617Y-114618190D02*
X152023808Y-114580095D01*
X152595236Y-114580095D02*
X153052379Y-114580095D01*
X152823807Y-115380095D02*
X152823807Y-114580095D01*
X153319046Y-114961047D02*
X153585712Y-114961047D01*
X153699998Y-115380095D02*
X153319046Y-115380095D01*
X153319046Y-115380095D02*
X153319046Y-114580095D01*
X153319046Y-114580095D02*
X153699998Y-114580095D01*
X154042856Y-115303904D02*
X154080951Y-115342000D01*
X154080951Y-115342000D02*
X154042856Y-115380095D01*
X154042856Y-115380095D02*
X154004760Y-115342000D01*
X154004760Y-115342000D02*
X154042856Y-115303904D01*
X154042856Y-115303904D02*
X154042856Y-115380095D01*
X154042856Y-114884857D02*
X154080951Y-114922952D01*
X154080951Y-114922952D02*
X154042856Y-114961047D01*
X154042856Y-114961047D02*
X154004760Y-114922952D01*
X154004760Y-114922952D02*
X154042856Y-114884857D01*
X154042856Y-114884857D02*
X154042856Y-114961047D01*
X155490475Y-115303904D02*
X155452379Y-115342000D01*
X155452379Y-115342000D02*
X155338094Y-115380095D01*
X155338094Y-115380095D02*
X155261903Y-115380095D01*
X155261903Y-115380095D02*
X155147617Y-115342000D01*
X155147617Y-115342000D02*
X155071427Y-115265809D01*
X155071427Y-115265809D02*
X155033332Y-115189619D01*
X155033332Y-115189619D02*
X154995236Y-115037238D01*
X154995236Y-115037238D02*
X154995236Y-114922952D01*
X154995236Y-114922952D02*
X155033332Y-114770571D01*
X155033332Y-114770571D02*
X155071427Y-114694380D01*
X155071427Y-114694380D02*
X155147617Y-114618190D01*
X155147617Y-114618190D02*
X155261903Y-114580095D01*
X155261903Y-114580095D02*
X155338094Y-114580095D01*
X155338094Y-114580095D02*
X155452379Y-114618190D01*
X155452379Y-114618190D02*
X155490475Y-114656285D01*
X155757141Y-114580095D02*
X155947617Y-115380095D01*
X155947617Y-115380095D02*
X156099998Y-114808666D01*
X156099998Y-114808666D02*
X156252379Y-115380095D01*
X156252379Y-115380095D02*
X156442856Y-114580095D01*
X157357142Y-114846761D02*
X157357142Y-115646761D01*
X157357142Y-114884857D02*
X157433332Y-114846761D01*
X157433332Y-114846761D02*
X157585713Y-114846761D01*
X157585713Y-114846761D02*
X157661904Y-114884857D01*
X157661904Y-114884857D02*
X157699999Y-114922952D01*
X157699999Y-114922952D02*
X157738094Y-114999142D01*
X157738094Y-114999142D02*
X157738094Y-115227714D01*
X157738094Y-115227714D02*
X157699999Y-115303904D01*
X157699999Y-115303904D02*
X157661904Y-115342000D01*
X157661904Y-115342000D02*
X157585713Y-115380095D01*
X157585713Y-115380095D02*
X157433332Y-115380095D01*
X157433332Y-115380095D02*
X157357142Y-115342000D01*
X158080952Y-115380095D02*
X158080952Y-114846761D01*
X158080952Y-114580095D02*
X158042856Y-114618190D01*
X158042856Y-114618190D02*
X158080952Y-114656285D01*
X158080952Y-114656285D02*
X158119047Y-114618190D01*
X158119047Y-114618190D02*
X158080952Y-114580095D01*
X158080952Y-114580095D02*
X158080952Y-114656285D01*
X158461904Y-114846761D02*
X158461904Y-115380095D01*
X158461904Y-114922952D02*
X158499999Y-114884857D01*
X158499999Y-114884857D02*
X158576189Y-114846761D01*
X158576189Y-114846761D02*
X158690475Y-114846761D01*
X158690475Y-114846761D02*
X158766666Y-114884857D01*
X158766666Y-114884857D02*
X158804761Y-114961047D01*
X158804761Y-114961047D02*
X158804761Y-115380095D01*
X159147618Y-115342000D02*
X159223809Y-115380095D01*
X159223809Y-115380095D02*
X159376190Y-115380095D01*
X159376190Y-115380095D02*
X159452380Y-115342000D01*
X159452380Y-115342000D02*
X159490476Y-115265809D01*
X159490476Y-115265809D02*
X159490476Y-115227714D01*
X159490476Y-115227714D02*
X159452380Y-115151523D01*
X159452380Y-115151523D02*
X159376190Y-115113428D01*
X159376190Y-115113428D02*
X159261904Y-115113428D01*
X159261904Y-115113428D02*
X159185714Y-115075333D01*
X159185714Y-115075333D02*
X159147618Y-114999142D01*
X159147618Y-114999142D02*
X159147618Y-114961047D01*
X159147618Y-114961047D02*
X159185714Y-114884857D01*
X159185714Y-114884857D02*
X159261904Y-114846761D01*
X159261904Y-114846761D02*
X159376190Y-114846761D01*
X159376190Y-114846761D02*
X159452380Y-114884857D01*
X160785714Y-115380095D02*
X160785714Y-114961047D01*
X160785714Y-114961047D02*
X160747619Y-114884857D01*
X160747619Y-114884857D02*
X160671428Y-114846761D01*
X160671428Y-114846761D02*
X160519047Y-114846761D01*
X160519047Y-114846761D02*
X160442857Y-114884857D01*
X160785714Y-115342000D02*
X160709523Y-115380095D01*
X160709523Y-115380095D02*
X160519047Y-115380095D01*
X160519047Y-115380095D02*
X160442857Y-115342000D01*
X160442857Y-115342000D02*
X160404761Y-115265809D01*
X160404761Y-115265809D02*
X160404761Y-115189619D01*
X160404761Y-115189619D02*
X160442857Y-115113428D01*
X160442857Y-115113428D02*
X160519047Y-115075333D01*
X160519047Y-115075333D02*
X160709523Y-115075333D01*
X160709523Y-115075333D02*
X160785714Y-115037238D01*
X161166667Y-115380095D02*
X161166667Y-114846761D01*
X161166667Y-114999142D02*
X161204762Y-114922952D01*
X161204762Y-114922952D02*
X161242857Y-114884857D01*
X161242857Y-114884857D02*
X161319048Y-114846761D01*
X161319048Y-114846761D02*
X161395238Y-114846761D01*
X161966667Y-115342000D02*
X161890476Y-115380095D01*
X161890476Y-115380095D02*
X161738095Y-115380095D01*
X161738095Y-115380095D02*
X161661905Y-115342000D01*
X161661905Y-115342000D02*
X161623809Y-115265809D01*
X161623809Y-115265809D02*
X161623809Y-114961047D01*
X161623809Y-114961047D02*
X161661905Y-114884857D01*
X161661905Y-114884857D02*
X161738095Y-114846761D01*
X161738095Y-114846761D02*
X161890476Y-114846761D01*
X161890476Y-114846761D02*
X161966667Y-114884857D01*
X161966667Y-114884857D02*
X162004762Y-114961047D01*
X162004762Y-114961047D02*
X162004762Y-115037238D01*
X162004762Y-115037238D02*
X161623809Y-115113428D01*
X162880952Y-114580095D02*
X163376190Y-114580095D01*
X163376190Y-114580095D02*
X163109524Y-114884857D01*
X163109524Y-114884857D02*
X163223809Y-114884857D01*
X163223809Y-114884857D02*
X163300000Y-114922952D01*
X163300000Y-114922952D02*
X163338095Y-114961047D01*
X163338095Y-114961047D02*
X163376190Y-115037238D01*
X163376190Y-115037238D02*
X163376190Y-115227714D01*
X163376190Y-115227714D02*
X163338095Y-115303904D01*
X163338095Y-115303904D02*
X163300000Y-115342000D01*
X163300000Y-115342000D02*
X163223809Y-115380095D01*
X163223809Y-115380095D02*
X162995238Y-115380095D01*
X162995238Y-115380095D02*
X162919047Y-115342000D01*
X162919047Y-115342000D02*
X162880952Y-115303904D01*
X163719048Y-115303904D02*
X163757143Y-115342000D01*
X163757143Y-115342000D02*
X163719048Y-115380095D01*
X163719048Y-115380095D02*
X163680952Y-115342000D01*
X163680952Y-115342000D02*
X163719048Y-115303904D01*
X163719048Y-115303904D02*
X163719048Y-115380095D01*
X164023809Y-114580095D02*
X164519047Y-114580095D01*
X164519047Y-114580095D02*
X164252381Y-114884857D01*
X164252381Y-114884857D02*
X164366666Y-114884857D01*
X164366666Y-114884857D02*
X164442857Y-114922952D01*
X164442857Y-114922952D02*
X164480952Y-114961047D01*
X164480952Y-114961047D02*
X164519047Y-115037238D01*
X164519047Y-115037238D02*
X164519047Y-115227714D01*
X164519047Y-115227714D02*
X164480952Y-115303904D01*
X164480952Y-115303904D02*
X164442857Y-115342000D01*
X164442857Y-115342000D02*
X164366666Y-115380095D01*
X164366666Y-115380095D02*
X164138095Y-115380095D01*
X164138095Y-115380095D02*
X164061904Y-115342000D01*
X164061904Y-115342000D02*
X164023809Y-115303904D01*
X164785714Y-114846761D02*
X164976190Y-115380095D01*
X164976190Y-115380095D02*
X165166667Y-114846761D01*
X166195238Y-115380095D02*
X166119048Y-115342000D01*
X166119048Y-115342000D02*
X166080953Y-115303904D01*
X166080953Y-115303904D02*
X166042857Y-115227714D01*
X166042857Y-115227714D02*
X166042857Y-114999142D01*
X166042857Y-114999142D02*
X166080953Y-114922952D01*
X166080953Y-114922952D02*
X166119048Y-114884857D01*
X166119048Y-114884857D02*
X166195238Y-114846761D01*
X166195238Y-114846761D02*
X166309524Y-114846761D01*
X166309524Y-114846761D02*
X166385715Y-114884857D01*
X166385715Y-114884857D02*
X166423810Y-114922952D01*
X166423810Y-114922952D02*
X166461905Y-114999142D01*
X166461905Y-114999142D02*
X166461905Y-115227714D01*
X166461905Y-115227714D02*
X166423810Y-115303904D01*
X166423810Y-115303904D02*
X166385715Y-115342000D01*
X166385715Y-115342000D02*
X166309524Y-115380095D01*
X166309524Y-115380095D02*
X166195238Y-115380095D01*
X166804763Y-114846761D02*
X166804763Y-115380095D01*
X166804763Y-114922952D02*
X166842858Y-114884857D01*
X166842858Y-114884857D02*
X166919048Y-114846761D01*
X166919048Y-114846761D02*
X167033334Y-114846761D01*
X167033334Y-114846761D02*
X167109525Y-114884857D01*
X167109525Y-114884857D02*
X167147620Y-114961047D01*
X167147620Y-114961047D02*
X167147620Y-115380095D01*
X167642858Y-115380095D02*
X167566668Y-115342000D01*
X167566668Y-115342000D02*
X167528573Y-115265809D01*
X167528573Y-115265809D02*
X167528573Y-114580095D01*
X167871430Y-114846761D02*
X168061906Y-115380095D01*
X168252383Y-114846761D02*
X168061906Y-115380095D01*
X168061906Y-115380095D02*
X167985716Y-115570571D01*
X167985716Y-115570571D02*
X167947621Y-115608666D01*
X167947621Y-115608666D02*
X167871430Y-115646761D01*
X168595240Y-115342000D02*
X168595240Y-115380095D01*
X168595240Y-115380095D02*
X168557145Y-115456285D01*
X168557145Y-115456285D02*
X168519049Y-115494380D01*
X152480950Y-116676095D02*
X152480950Y-116142761D01*
X152480950Y-116218952D02*
X152519045Y-116180857D01*
X152519045Y-116180857D02*
X152595235Y-116142761D01*
X152595235Y-116142761D02*
X152709521Y-116142761D01*
X152709521Y-116142761D02*
X152785712Y-116180857D01*
X152785712Y-116180857D02*
X152823807Y-116257047D01*
X152823807Y-116257047D02*
X152823807Y-116676095D01*
X152823807Y-116257047D02*
X152861902Y-116180857D01*
X152861902Y-116180857D02*
X152938093Y-116142761D01*
X152938093Y-116142761D02*
X153052378Y-116142761D01*
X153052378Y-116142761D02*
X153128569Y-116180857D01*
X153128569Y-116180857D02*
X153166664Y-116257047D01*
X153166664Y-116257047D02*
X153166664Y-116676095D01*
X153890474Y-116142761D02*
X153890474Y-116676095D01*
X153547617Y-116142761D02*
X153547617Y-116561809D01*
X153547617Y-116561809D02*
X153585712Y-116638000D01*
X153585712Y-116638000D02*
X153661902Y-116676095D01*
X153661902Y-116676095D02*
X153776188Y-116676095D01*
X153776188Y-116676095D02*
X153852379Y-116638000D01*
X153852379Y-116638000D02*
X153890474Y-116599904D01*
X154233331Y-116638000D02*
X154309522Y-116676095D01*
X154309522Y-116676095D02*
X154461903Y-116676095D01*
X154461903Y-116676095D02*
X154538093Y-116638000D01*
X154538093Y-116638000D02*
X154576189Y-116561809D01*
X154576189Y-116561809D02*
X154576189Y-116523714D01*
X154576189Y-116523714D02*
X154538093Y-116447523D01*
X154538093Y-116447523D02*
X154461903Y-116409428D01*
X154461903Y-116409428D02*
X154347617Y-116409428D01*
X154347617Y-116409428D02*
X154271427Y-116371333D01*
X154271427Y-116371333D02*
X154233331Y-116295142D01*
X154233331Y-116295142D02*
X154233331Y-116257047D01*
X154233331Y-116257047D02*
X154271427Y-116180857D01*
X154271427Y-116180857D02*
X154347617Y-116142761D01*
X154347617Y-116142761D02*
X154461903Y-116142761D01*
X154461903Y-116142761D02*
X154538093Y-116180857D01*
X154804760Y-116142761D02*
X155109522Y-116142761D01*
X154919046Y-115876095D02*
X154919046Y-116561809D01*
X154919046Y-116561809D02*
X154957141Y-116638000D01*
X154957141Y-116638000D02*
X155033331Y-116676095D01*
X155033331Y-116676095D02*
X155109522Y-116676095D01*
X156328570Y-116142761D02*
X156328570Y-116676095D01*
X155985713Y-116142761D02*
X155985713Y-116561809D01*
X155985713Y-116561809D02*
X156023808Y-116638000D01*
X156023808Y-116638000D02*
X156099998Y-116676095D01*
X156099998Y-116676095D02*
X156214284Y-116676095D01*
X156214284Y-116676095D02*
X156290475Y-116638000D01*
X156290475Y-116638000D02*
X156328570Y-116599904D01*
X156671427Y-116638000D02*
X156747618Y-116676095D01*
X156747618Y-116676095D02*
X156899999Y-116676095D01*
X156899999Y-116676095D02*
X156976189Y-116638000D01*
X156976189Y-116638000D02*
X157014285Y-116561809D01*
X157014285Y-116561809D02*
X157014285Y-116523714D01*
X157014285Y-116523714D02*
X156976189Y-116447523D01*
X156976189Y-116447523D02*
X156899999Y-116409428D01*
X156899999Y-116409428D02*
X156785713Y-116409428D01*
X156785713Y-116409428D02*
X156709523Y-116371333D01*
X156709523Y-116371333D02*
X156671427Y-116295142D01*
X156671427Y-116295142D02*
X156671427Y-116257047D01*
X156671427Y-116257047D02*
X156709523Y-116180857D01*
X156709523Y-116180857D02*
X156785713Y-116142761D01*
X156785713Y-116142761D02*
X156899999Y-116142761D01*
X156899999Y-116142761D02*
X156976189Y-116180857D01*
X157661904Y-116638000D02*
X157585713Y-116676095D01*
X157585713Y-116676095D02*
X157433332Y-116676095D01*
X157433332Y-116676095D02*
X157357142Y-116638000D01*
X157357142Y-116638000D02*
X157319046Y-116561809D01*
X157319046Y-116561809D02*
X157319046Y-116257047D01*
X157319046Y-116257047D02*
X157357142Y-116180857D01*
X157357142Y-116180857D02*
X157433332Y-116142761D01*
X157433332Y-116142761D02*
X157585713Y-116142761D01*
X157585713Y-116142761D02*
X157661904Y-116180857D01*
X157661904Y-116180857D02*
X157699999Y-116257047D01*
X157699999Y-116257047D02*
X157699999Y-116333238D01*
X157699999Y-116333238D02*
X157319046Y-116409428D01*
X159109523Y-116599904D02*
X159071427Y-116638000D01*
X159071427Y-116638000D02*
X158957142Y-116676095D01*
X158957142Y-116676095D02*
X158880951Y-116676095D01*
X158880951Y-116676095D02*
X158766665Y-116638000D01*
X158766665Y-116638000D02*
X158690475Y-116561809D01*
X158690475Y-116561809D02*
X158652380Y-116485619D01*
X158652380Y-116485619D02*
X158614284Y-116333238D01*
X158614284Y-116333238D02*
X158614284Y-116218952D01*
X158614284Y-116218952D02*
X158652380Y-116066571D01*
X158652380Y-116066571D02*
X158690475Y-115990380D01*
X158690475Y-115990380D02*
X158766665Y-115914190D01*
X158766665Y-115914190D02*
X158880951Y-115876095D01*
X158880951Y-115876095D02*
X158957142Y-115876095D01*
X158957142Y-115876095D02*
X159071427Y-115914190D01*
X159071427Y-115914190D02*
X159109523Y-115952285D01*
X159376189Y-115876095D02*
X159566665Y-116676095D01*
X159566665Y-116676095D02*
X159719046Y-116104666D01*
X159719046Y-116104666D02*
X159871427Y-116676095D01*
X159871427Y-116676095D02*
X160061904Y-115876095D01*
X160747618Y-115876095D02*
X160366666Y-115876095D01*
X160366666Y-115876095D02*
X160328570Y-116257047D01*
X160328570Y-116257047D02*
X160366666Y-116218952D01*
X160366666Y-116218952D02*
X160442856Y-116180857D01*
X160442856Y-116180857D02*
X160633332Y-116180857D01*
X160633332Y-116180857D02*
X160709523Y-116218952D01*
X160709523Y-116218952D02*
X160747618Y-116257047D01*
X160747618Y-116257047D02*
X160785713Y-116333238D01*
X160785713Y-116333238D02*
X160785713Y-116523714D01*
X160785713Y-116523714D02*
X160747618Y-116599904D01*
X160747618Y-116599904D02*
X160709523Y-116638000D01*
X160709523Y-116638000D02*
X160633332Y-116676095D01*
X160633332Y-116676095D02*
X160442856Y-116676095D01*
X160442856Y-116676095D02*
X160366666Y-116638000D01*
X160366666Y-116638000D02*
X160328570Y-116599904D01*
X161280952Y-115876095D02*
X161357142Y-115876095D01*
X161357142Y-115876095D02*
X161433333Y-115914190D01*
X161433333Y-115914190D02*
X161471428Y-115952285D01*
X161471428Y-115952285D02*
X161509523Y-116028476D01*
X161509523Y-116028476D02*
X161547618Y-116180857D01*
X161547618Y-116180857D02*
X161547618Y-116371333D01*
X161547618Y-116371333D02*
X161509523Y-116523714D01*
X161509523Y-116523714D02*
X161471428Y-116599904D01*
X161471428Y-116599904D02*
X161433333Y-116638000D01*
X161433333Y-116638000D02*
X161357142Y-116676095D01*
X161357142Y-116676095D02*
X161280952Y-116676095D01*
X161280952Y-116676095D02*
X161204761Y-116638000D01*
X161204761Y-116638000D02*
X161166666Y-116599904D01*
X161166666Y-116599904D02*
X161128571Y-116523714D01*
X161128571Y-116523714D02*
X161090475Y-116371333D01*
X161090475Y-116371333D02*
X161090475Y-116180857D01*
X161090475Y-116180857D02*
X161128571Y-116028476D01*
X161128571Y-116028476D02*
X161166666Y-115952285D01*
X161166666Y-115952285D02*
X161204761Y-115914190D01*
X161204761Y-115914190D02*
X161280952Y-115876095D01*
X162233333Y-115876095D02*
X162080952Y-115876095D01*
X162080952Y-115876095D02*
X162004761Y-115914190D01*
X162004761Y-115914190D02*
X161966666Y-115952285D01*
X161966666Y-115952285D02*
X161890476Y-116066571D01*
X161890476Y-116066571D02*
X161852380Y-116218952D01*
X161852380Y-116218952D02*
X161852380Y-116523714D01*
X161852380Y-116523714D02*
X161890476Y-116599904D01*
X161890476Y-116599904D02*
X161928571Y-116638000D01*
X161928571Y-116638000D02*
X162004761Y-116676095D01*
X162004761Y-116676095D02*
X162157142Y-116676095D01*
X162157142Y-116676095D02*
X162233333Y-116638000D01*
X162233333Y-116638000D02*
X162271428Y-116599904D01*
X162271428Y-116599904D02*
X162309523Y-116523714D01*
X162309523Y-116523714D02*
X162309523Y-116333238D01*
X162309523Y-116333238D02*
X162271428Y-116257047D01*
X162271428Y-116257047D02*
X162233333Y-116218952D01*
X162233333Y-116218952D02*
X162157142Y-116180857D01*
X162157142Y-116180857D02*
X162004761Y-116180857D01*
X162004761Y-116180857D02*
X161928571Y-116218952D01*
X161928571Y-116218952D02*
X161890476Y-116257047D01*
X161890476Y-116257047D02*
X161852380Y-116333238D01*
X163261905Y-116676095D02*
X163261905Y-115876095D01*
X163261905Y-116180857D02*
X163338095Y-116142761D01*
X163338095Y-116142761D02*
X163490476Y-116142761D01*
X163490476Y-116142761D02*
X163566667Y-116180857D01*
X163566667Y-116180857D02*
X163604762Y-116218952D01*
X163604762Y-116218952D02*
X163642857Y-116295142D01*
X163642857Y-116295142D02*
X163642857Y-116523714D01*
X163642857Y-116523714D02*
X163604762Y-116599904D01*
X163604762Y-116599904D02*
X163566667Y-116638000D01*
X163566667Y-116638000D02*
X163490476Y-116676095D01*
X163490476Y-116676095D02*
X163338095Y-116676095D01*
X163338095Y-116676095D02*
X163261905Y-116638000D01*
X164100000Y-116676095D02*
X164023810Y-116638000D01*
X164023810Y-116638000D02*
X163985715Y-116599904D01*
X163985715Y-116599904D02*
X163947619Y-116523714D01*
X163947619Y-116523714D02*
X163947619Y-116295142D01*
X163947619Y-116295142D02*
X163985715Y-116218952D01*
X163985715Y-116218952D02*
X164023810Y-116180857D01*
X164023810Y-116180857D02*
X164100000Y-116142761D01*
X164100000Y-116142761D02*
X164214286Y-116142761D01*
X164214286Y-116142761D02*
X164290477Y-116180857D01*
X164290477Y-116180857D02*
X164328572Y-116218952D01*
X164328572Y-116218952D02*
X164366667Y-116295142D01*
X164366667Y-116295142D02*
X164366667Y-116523714D01*
X164366667Y-116523714D02*
X164328572Y-116599904D01*
X164328572Y-116599904D02*
X164290477Y-116638000D01*
X164290477Y-116638000D02*
X164214286Y-116676095D01*
X164214286Y-116676095D02*
X164100000Y-116676095D01*
X165052382Y-116676095D02*
X165052382Y-116257047D01*
X165052382Y-116257047D02*
X165014287Y-116180857D01*
X165014287Y-116180857D02*
X164938096Y-116142761D01*
X164938096Y-116142761D02*
X164785715Y-116142761D01*
X164785715Y-116142761D02*
X164709525Y-116180857D01*
X165052382Y-116638000D02*
X164976191Y-116676095D01*
X164976191Y-116676095D02*
X164785715Y-116676095D01*
X164785715Y-116676095D02*
X164709525Y-116638000D01*
X164709525Y-116638000D02*
X164671429Y-116561809D01*
X164671429Y-116561809D02*
X164671429Y-116485619D01*
X164671429Y-116485619D02*
X164709525Y-116409428D01*
X164709525Y-116409428D02*
X164785715Y-116371333D01*
X164785715Y-116371333D02*
X164976191Y-116371333D01*
X164976191Y-116371333D02*
X165052382Y-116333238D01*
X165433335Y-116676095D02*
X165433335Y-116142761D01*
X165433335Y-116295142D02*
X165471430Y-116218952D01*
X165471430Y-116218952D02*
X165509525Y-116180857D01*
X165509525Y-116180857D02*
X165585716Y-116142761D01*
X165585716Y-116142761D02*
X165661906Y-116142761D01*
X166271430Y-116676095D02*
X166271430Y-115876095D01*
X166271430Y-116638000D02*
X166195239Y-116676095D01*
X166195239Y-116676095D02*
X166042858Y-116676095D01*
X166042858Y-116676095D02*
X165966668Y-116638000D01*
X165966668Y-116638000D02*
X165928573Y-116599904D01*
X165928573Y-116599904D02*
X165890477Y-116523714D01*
X165890477Y-116523714D02*
X165890477Y-116295142D01*
X165890477Y-116295142D02*
X165928573Y-116218952D01*
X165928573Y-116218952D02*
X165966668Y-116180857D01*
X165966668Y-116180857D02*
X166042858Y-116142761D01*
X166042858Y-116142761D02*
X166195239Y-116142761D01*
X166195239Y-116142761D02*
X166271430Y-116180857D01*
X167261907Y-116676095D02*
X167261907Y-116142761D01*
X167261907Y-115876095D02*
X167223811Y-115914190D01*
X167223811Y-115914190D02*
X167261907Y-115952285D01*
X167261907Y-115952285D02*
X167300002Y-115914190D01*
X167300002Y-115914190D02*
X167261907Y-115876095D01*
X167261907Y-115876095D02*
X167261907Y-115952285D01*
X167528573Y-116142761D02*
X167833335Y-116142761D01*
X167642859Y-116676095D02*
X167642859Y-115990380D01*
X167642859Y-115990380D02*
X167680954Y-115914190D01*
X167680954Y-115914190D02*
X167757144Y-115876095D01*
X167757144Y-115876095D02*
X167833335Y-115876095D01*
X155376189Y-117438761D02*
X155376189Y-117972095D01*
X155033332Y-117438761D02*
X155033332Y-117857809D01*
X155033332Y-117857809D02*
X155071427Y-117934000D01*
X155071427Y-117934000D02*
X155147617Y-117972095D01*
X155147617Y-117972095D02*
X155261903Y-117972095D01*
X155261903Y-117972095D02*
X155338094Y-117934000D01*
X155338094Y-117934000D02*
X155376189Y-117895904D01*
X155719046Y-117934000D02*
X155795237Y-117972095D01*
X155795237Y-117972095D02*
X155947618Y-117972095D01*
X155947618Y-117972095D02*
X156023808Y-117934000D01*
X156023808Y-117934000D02*
X156061904Y-117857809D01*
X156061904Y-117857809D02*
X156061904Y-117819714D01*
X156061904Y-117819714D02*
X156023808Y-117743523D01*
X156023808Y-117743523D02*
X155947618Y-117705428D01*
X155947618Y-117705428D02*
X155833332Y-117705428D01*
X155833332Y-117705428D02*
X155757142Y-117667333D01*
X155757142Y-117667333D02*
X155719046Y-117591142D01*
X155719046Y-117591142D02*
X155719046Y-117553047D01*
X155719046Y-117553047D02*
X155757142Y-117476857D01*
X155757142Y-117476857D02*
X155833332Y-117438761D01*
X155833332Y-117438761D02*
X155947618Y-117438761D01*
X155947618Y-117438761D02*
X156023808Y-117476857D01*
X156404761Y-117972095D02*
X156404761Y-117438761D01*
X156404761Y-117172095D02*
X156366665Y-117210190D01*
X156366665Y-117210190D02*
X156404761Y-117248285D01*
X156404761Y-117248285D02*
X156442856Y-117210190D01*
X156442856Y-117210190D02*
X156404761Y-117172095D01*
X156404761Y-117172095D02*
X156404761Y-117248285D01*
X156785713Y-117438761D02*
X156785713Y-117972095D01*
X156785713Y-117514952D02*
X156823808Y-117476857D01*
X156823808Y-117476857D02*
X156899998Y-117438761D01*
X156899998Y-117438761D02*
X157014284Y-117438761D01*
X157014284Y-117438761D02*
X157090475Y-117476857D01*
X157090475Y-117476857D02*
X157128570Y-117553047D01*
X157128570Y-117553047D02*
X157128570Y-117972095D01*
X157852380Y-117438761D02*
X157852380Y-118086380D01*
X157852380Y-118086380D02*
X157814285Y-118162571D01*
X157814285Y-118162571D02*
X157776189Y-118200666D01*
X157776189Y-118200666D02*
X157699999Y-118238761D01*
X157699999Y-118238761D02*
X157585713Y-118238761D01*
X157585713Y-118238761D02*
X157509523Y-118200666D01*
X157852380Y-117934000D02*
X157776189Y-117972095D01*
X157776189Y-117972095D02*
X157623808Y-117972095D01*
X157623808Y-117972095D02*
X157547618Y-117934000D01*
X157547618Y-117934000D02*
X157509523Y-117895904D01*
X157509523Y-117895904D02*
X157471427Y-117819714D01*
X157471427Y-117819714D02*
X157471427Y-117591142D01*
X157471427Y-117591142D02*
X157509523Y-117514952D01*
X157509523Y-117514952D02*
X157547618Y-117476857D01*
X157547618Y-117476857D02*
X157623808Y-117438761D01*
X157623808Y-117438761D02*
X157776189Y-117438761D01*
X157776189Y-117438761D02*
X157852380Y-117476857D01*
X159223809Y-117172095D02*
X158842857Y-117172095D01*
X158842857Y-117172095D02*
X158804761Y-117553047D01*
X158804761Y-117553047D02*
X158842857Y-117514952D01*
X158842857Y-117514952D02*
X158919047Y-117476857D01*
X158919047Y-117476857D02*
X159109523Y-117476857D01*
X159109523Y-117476857D02*
X159185714Y-117514952D01*
X159185714Y-117514952D02*
X159223809Y-117553047D01*
X159223809Y-117553047D02*
X159261904Y-117629238D01*
X159261904Y-117629238D02*
X159261904Y-117819714D01*
X159261904Y-117819714D02*
X159223809Y-117895904D01*
X159223809Y-117895904D02*
X159185714Y-117934000D01*
X159185714Y-117934000D02*
X159109523Y-117972095D01*
X159109523Y-117972095D02*
X158919047Y-117972095D01*
X158919047Y-117972095D02*
X158842857Y-117934000D01*
X158842857Y-117934000D02*
X158804761Y-117895904D01*
X159528571Y-117438761D02*
X159719047Y-117972095D01*
X159719047Y-117972095D02*
X159909524Y-117438761D01*
X160938095Y-117972095D02*
X160861905Y-117934000D01*
X160861905Y-117934000D02*
X160823810Y-117895904D01*
X160823810Y-117895904D02*
X160785714Y-117819714D01*
X160785714Y-117819714D02*
X160785714Y-117591142D01*
X160785714Y-117591142D02*
X160823810Y-117514952D01*
X160823810Y-117514952D02*
X160861905Y-117476857D01*
X160861905Y-117476857D02*
X160938095Y-117438761D01*
X160938095Y-117438761D02*
X161052381Y-117438761D01*
X161052381Y-117438761D02*
X161128572Y-117476857D01*
X161128572Y-117476857D02*
X161166667Y-117514952D01*
X161166667Y-117514952D02*
X161204762Y-117591142D01*
X161204762Y-117591142D02*
X161204762Y-117819714D01*
X161204762Y-117819714D02*
X161166667Y-117895904D01*
X161166667Y-117895904D02*
X161128572Y-117934000D01*
X161128572Y-117934000D02*
X161052381Y-117972095D01*
X161052381Y-117972095D02*
X160938095Y-117972095D01*
X161547620Y-117972095D02*
X161547620Y-117438761D01*
X161547620Y-117591142D02*
X161585715Y-117514952D01*
X161585715Y-117514952D02*
X161623810Y-117476857D01*
X161623810Y-117476857D02*
X161700001Y-117438761D01*
X161700001Y-117438761D02*
X161776191Y-117438761D01*
X162614286Y-117248285D02*
X162652382Y-117210190D01*
X162652382Y-117210190D02*
X162728572Y-117172095D01*
X162728572Y-117172095D02*
X162919048Y-117172095D01*
X162919048Y-117172095D02*
X162995239Y-117210190D01*
X162995239Y-117210190D02*
X163033334Y-117248285D01*
X163033334Y-117248285D02*
X163071429Y-117324476D01*
X163071429Y-117324476D02*
X163071429Y-117400666D01*
X163071429Y-117400666D02*
X163033334Y-117514952D01*
X163033334Y-117514952D02*
X162576191Y-117972095D01*
X162576191Y-117972095D02*
X163071429Y-117972095D01*
X163414287Y-117895904D02*
X163452382Y-117934000D01*
X163452382Y-117934000D02*
X163414287Y-117972095D01*
X163414287Y-117972095D02*
X163376191Y-117934000D01*
X163376191Y-117934000D02*
X163414287Y-117895904D01*
X163414287Y-117895904D02*
X163414287Y-117972095D01*
X164176191Y-117172095D02*
X163795239Y-117172095D01*
X163795239Y-117172095D02*
X163757143Y-117553047D01*
X163757143Y-117553047D02*
X163795239Y-117514952D01*
X163795239Y-117514952D02*
X163871429Y-117476857D01*
X163871429Y-117476857D02*
X164061905Y-117476857D01*
X164061905Y-117476857D02*
X164138096Y-117514952D01*
X164138096Y-117514952D02*
X164176191Y-117553047D01*
X164176191Y-117553047D02*
X164214286Y-117629238D01*
X164214286Y-117629238D02*
X164214286Y-117819714D01*
X164214286Y-117819714D02*
X164176191Y-117895904D01*
X164176191Y-117895904D02*
X164138096Y-117934000D01*
X164138096Y-117934000D02*
X164061905Y-117972095D01*
X164061905Y-117972095D02*
X163871429Y-117972095D01*
X163871429Y-117972095D02*
X163795239Y-117934000D01*
X163795239Y-117934000D02*
X163757143Y-117895904D01*
X164480953Y-117438761D02*
X164671429Y-117972095D01*
X164671429Y-117972095D02*
X164861906Y-117438761D01*
X165166668Y-117895904D02*
X165204763Y-117934000D01*
X165204763Y-117934000D02*
X165166668Y-117972095D01*
X165166668Y-117972095D02*
X165128572Y-117934000D01*
X165128572Y-117934000D02*
X165166668Y-117895904D01*
X165166668Y-117895904D02*
X165166668Y-117972095D01*
X165166668Y-117667333D02*
X165128572Y-117210190D01*
X165128572Y-117210190D02*
X165166668Y-117172095D01*
X165166668Y-117172095D02*
X165204763Y-117210190D01*
X165204763Y-117210190D02*
X165166668Y-117667333D01*
X165166668Y-117667333D02*
X165166668Y-117172095D01*
X133484285Y-120952095D02*
X133979523Y-120952095D01*
X133979523Y-120952095D02*
X133712857Y-121256857D01*
X133712857Y-121256857D02*
X133827142Y-121256857D01*
X133827142Y-121256857D02*
X133903333Y-121294952D01*
X133903333Y-121294952D02*
X133941428Y-121333047D01*
X133941428Y-121333047D02*
X133979523Y-121409238D01*
X133979523Y-121409238D02*
X133979523Y-121599714D01*
X133979523Y-121599714D02*
X133941428Y-121675904D01*
X133941428Y-121675904D02*
X133903333Y-121714000D01*
X133903333Y-121714000D02*
X133827142Y-121752095D01*
X133827142Y-121752095D02*
X133598571Y-121752095D01*
X133598571Y-121752095D02*
X133522380Y-121714000D01*
X133522380Y-121714000D02*
X133484285Y-121675904D01*
X133913333Y-119568761D02*
X133913333Y-120102095D01*
X133722857Y-119264000D02*
X133532380Y-119835428D01*
X133532380Y-119835428D02*
X134027619Y-119835428D01*
X137184761Y-119644952D02*
X137108571Y-119606857D01*
X137108571Y-119606857D02*
X137070476Y-119568761D01*
X137070476Y-119568761D02*
X137032380Y-119492571D01*
X137032380Y-119492571D02*
X137032380Y-119454476D01*
X137032380Y-119454476D02*
X137070476Y-119378285D01*
X137070476Y-119378285D02*
X137108571Y-119340190D01*
X137108571Y-119340190D02*
X137184761Y-119302095D01*
X137184761Y-119302095D02*
X137337142Y-119302095D01*
X137337142Y-119302095D02*
X137413333Y-119340190D01*
X137413333Y-119340190D02*
X137451428Y-119378285D01*
X137451428Y-119378285D02*
X137489523Y-119454476D01*
X137489523Y-119454476D02*
X137489523Y-119492571D01*
X137489523Y-119492571D02*
X137451428Y-119568761D01*
X137451428Y-119568761D02*
X137413333Y-119606857D01*
X137413333Y-119606857D02*
X137337142Y-119644952D01*
X137337142Y-119644952D02*
X137184761Y-119644952D01*
X137184761Y-119644952D02*
X137108571Y-119683047D01*
X137108571Y-119683047D02*
X137070476Y-119721142D01*
X137070476Y-119721142D02*
X137032380Y-119797333D01*
X137032380Y-119797333D02*
X137032380Y-119949714D01*
X137032380Y-119949714D02*
X137070476Y-120025904D01*
X137070476Y-120025904D02*
X137108571Y-120064000D01*
X137108571Y-120064000D02*
X137184761Y-120102095D01*
X137184761Y-120102095D02*
X137337142Y-120102095D01*
X137337142Y-120102095D02*
X137413333Y-120064000D01*
X137413333Y-120064000D02*
X137451428Y-120025904D01*
X137451428Y-120025904D02*
X137489523Y-119949714D01*
X137489523Y-119949714D02*
X137489523Y-119797333D01*
X137489523Y-119797333D02*
X137451428Y-119721142D01*
X137451428Y-119721142D02*
X137413333Y-119683047D01*
X137413333Y-119683047D02*
X137337142Y-119644952D01*
X132229523Y-121752095D02*
X131772380Y-121752095D01*
X132000952Y-121752095D02*
X132000952Y-120952095D01*
X132000952Y-120952095D02*
X131924761Y-121066380D01*
X131924761Y-121066380D02*
X131848571Y-121142571D01*
X131848571Y-121142571D02*
X131772380Y-121180666D01*
X137442095Y-117652380D02*
X137061142Y-117919047D01*
X137442095Y-118109523D02*
X136642095Y-118109523D01*
X136642095Y-118109523D02*
X136642095Y-117804761D01*
X136642095Y-117804761D02*
X136680190Y-117728571D01*
X136680190Y-117728571D02*
X136718285Y-117690476D01*
X136718285Y-117690476D02*
X136794476Y-117652380D01*
X136794476Y-117652380D02*
X136908761Y-117652380D01*
X136908761Y-117652380D02*
X136984952Y-117690476D01*
X136984952Y-117690476D02*
X137023047Y-117728571D01*
X137023047Y-117728571D02*
X137061142Y-117804761D01*
X137061142Y-117804761D02*
X137061142Y-118109523D01*
X137023047Y-117309523D02*
X137023047Y-117042857D01*
X137442095Y-116928571D02*
X137442095Y-117309523D01*
X137442095Y-117309523D02*
X136642095Y-117309523D01*
X136642095Y-117309523D02*
X136642095Y-116928571D01*
X137404000Y-116623809D02*
X137442095Y-116509523D01*
X137442095Y-116509523D02*
X137442095Y-116319047D01*
X137442095Y-116319047D02*
X137404000Y-116242856D01*
X137404000Y-116242856D02*
X137365904Y-116204761D01*
X137365904Y-116204761D02*
X137289714Y-116166666D01*
X137289714Y-116166666D02*
X137213523Y-116166666D01*
X137213523Y-116166666D02*
X137137333Y-116204761D01*
X137137333Y-116204761D02*
X137099238Y-116242856D01*
X137099238Y-116242856D02*
X137061142Y-116319047D01*
X137061142Y-116319047D02*
X137023047Y-116471428D01*
X137023047Y-116471428D02*
X136984952Y-116547618D01*
X136984952Y-116547618D02*
X136946857Y-116585713D01*
X136946857Y-116585713D02*
X136870666Y-116623809D01*
X136870666Y-116623809D02*
X136794476Y-116623809D01*
X136794476Y-116623809D02*
X136718285Y-116585713D01*
X136718285Y-116585713D02*
X136680190Y-116547618D01*
X136680190Y-116547618D02*
X136642095Y-116471428D01*
X136642095Y-116471428D02*
X136642095Y-116280951D01*
X136642095Y-116280951D02*
X136680190Y-116166666D01*
X137023047Y-115823808D02*
X137023047Y-115557142D01*
X137442095Y-115442856D02*
X137442095Y-115823808D01*
X137442095Y-115823808D02*
X136642095Y-115823808D01*
X136642095Y-115823808D02*
X136642095Y-115442856D01*
X136642095Y-115214284D02*
X136642095Y-114757141D01*
X137442095Y-114985713D02*
X136642095Y-114985713D01*
X172300392Y-126217724D02*
X172224202Y-126179629D01*
X172224202Y-126179629D02*
X172109916Y-126179629D01*
X172109916Y-126179629D02*
X171995630Y-126217724D01*
X171995630Y-126217724D02*
X171919440Y-126293914D01*
X171919440Y-126293914D02*
X171881345Y-126370105D01*
X171881345Y-126370105D02*
X171843249Y-126522486D01*
X171843249Y-126522486D02*
X171843249Y-126636772D01*
X171843249Y-126636772D02*
X171881345Y-126789153D01*
X171881345Y-126789153D02*
X171919440Y-126865343D01*
X171919440Y-126865343D02*
X171995630Y-126941534D01*
X171995630Y-126941534D02*
X172109916Y-126979629D01*
X172109916Y-126979629D02*
X172186107Y-126979629D01*
X172186107Y-126979629D02*
X172300392Y-126941534D01*
X172300392Y-126941534D02*
X172338488Y-126903438D01*
X172338488Y-126903438D02*
X172338488Y-126636772D01*
X172338488Y-126636772D02*
X172186107Y-126636772D01*
X172681345Y-126979629D02*
X172681345Y-126179629D01*
X172681345Y-126179629D02*
X173138488Y-126979629D01*
X173138488Y-126979629D02*
X173138488Y-126179629D01*
X173519440Y-126979629D02*
X173519440Y-126179629D01*
X173519440Y-126179629D02*
X173709916Y-126179629D01*
X173709916Y-126179629D02*
X173824202Y-126217724D01*
X173824202Y-126217724D02*
X173900392Y-126293914D01*
X173900392Y-126293914D02*
X173938487Y-126370105D01*
X173938487Y-126370105D02*
X173976583Y-126522486D01*
X173976583Y-126522486D02*
X173976583Y-126636772D01*
X173976583Y-126636772D02*
X173938487Y-126789153D01*
X173938487Y-126789153D02*
X173900392Y-126865343D01*
X173900392Y-126865343D02*
X173824202Y-126941534D01*
X173824202Y-126941534D02*
X173709916Y-126979629D01*
X173709916Y-126979629D02*
X173519440Y-126979629D01*
X152302095Y-126593809D02*
X153102095Y-126327142D01*
X153102095Y-126327142D02*
X152302095Y-126060476D01*
X153102095Y-125793809D02*
X152302095Y-125793809D01*
X152302095Y-125793809D02*
X152302095Y-125603333D01*
X152302095Y-125603333D02*
X152340190Y-125489047D01*
X152340190Y-125489047D02*
X152416380Y-125412857D01*
X152416380Y-125412857D02*
X152492571Y-125374762D01*
X152492571Y-125374762D02*
X152644952Y-125336666D01*
X152644952Y-125336666D02*
X152759238Y-125336666D01*
X152759238Y-125336666D02*
X152911619Y-125374762D01*
X152911619Y-125374762D02*
X152987809Y-125412857D01*
X152987809Y-125412857D02*
X153064000Y-125489047D01*
X153064000Y-125489047D02*
X153102095Y-125603333D01*
X153102095Y-125603333D02*
X153102095Y-125793809D01*
X153102095Y-124993809D02*
X152302095Y-124993809D01*
X152302095Y-124993809D02*
X152302095Y-124803333D01*
X152302095Y-124803333D02*
X152340190Y-124689047D01*
X152340190Y-124689047D02*
X152416380Y-124612857D01*
X152416380Y-124612857D02*
X152492571Y-124574762D01*
X152492571Y-124574762D02*
X152644952Y-124536666D01*
X152644952Y-124536666D02*
X152759238Y-124536666D01*
X152759238Y-124536666D02*
X152911619Y-124574762D01*
X152911619Y-124574762D02*
X152987809Y-124612857D01*
X152987809Y-124612857D02*
X153064000Y-124689047D01*
X153064000Y-124689047D02*
X153102095Y-124803333D01*
X153102095Y-124803333D02*
X153102095Y-124993809D01*
X135663333Y-119302095D02*
X135510952Y-119302095D01*
X135510952Y-119302095D02*
X135434761Y-119340190D01*
X135434761Y-119340190D02*
X135396666Y-119378285D01*
X135396666Y-119378285D02*
X135320476Y-119492571D01*
X135320476Y-119492571D02*
X135282380Y-119644952D01*
X135282380Y-119644952D02*
X135282380Y-119949714D01*
X135282380Y-119949714D02*
X135320476Y-120025904D01*
X135320476Y-120025904D02*
X135358571Y-120064000D01*
X135358571Y-120064000D02*
X135434761Y-120102095D01*
X135434761Y-120102095D02*
X135587142Y-120102095D01*
X135587142Y-120102095D02*
X135663333Y-120064000D01*
X135663333Y-120064000D02*
X135701428Y-120025904D01*
X135701428Y-120025904D02*
X135739523Y-119949714D01*
X135739523Y-119949714D02*
X135739523Y-119759238D01*
X135739523Y-119759238D02*
X135701428Y-119683047D01*
X135701428Y-119683047D02*
X135663333Y-119644952D01*
X135663333Y-119644952D02*
X135587142Y-119606857D01*
X135587142Y-119606857D02*
X135434761Y-119606857D01*
X135434761Y-119606857D02*
X135358571Y-119644952D01*
X135358571Y-119644952D02*
X135320476Y-119683047D01*
X135320476Y-119683047D02*
X135282380Y-119759238D01*
X170662307Y-126065743D02*
X170281354Y-126332410D01*
X170662307Y-126522886D02*
X169862307Y-126522886D01*
X169862307Y-126522886D02*
X169862307Y-126218124D01*
X169862307Y-126218124D02*
X169900402Y-126141934D01*
X169900402Y-126141934D02*
X169938497Y-126103839D01*
X169938497Y-126103839D02*
X170014688Y-126065743D01*
X170014688Y-126065743D02*
X170128973Y-126065743D01*
X170128973Y-126065743D02*
X170205164Y-126103839D01*
X170205164Y-126103839D02*
X170243259Y-126141934D01*
X170243259Y-126141934D02*
X170281354Y-126218124D01*
X170281354Y-126218124D02*
X170281354Y-126522886D01*
X169862307Y-125799077D02*
X170662307Y-125265743D01*
X169862307Y-125265743D02*
X170662307Y-125799077D01*
X159292857Y-100727619D02*
X159911904Y-100727619D01*
X159911904Y-100727619D02*
X159578571Y-101108571D01*
X159578571Y-101108571D02*
X159721428Y-101108571D01*
X159721428Y-101108571D02*
X159816666Y-101156190D01*
X159816666Y-101156190D02*
X159864285Y-101203809D01*
X159864285Y-101203809D02*
X159911904Y-101299047D01*
X159911904Y-101299047D02*
X159911904Y-101537142D01*
X159911904Y-101537142D02*
X159864285Y-101632380D01*
X159864285Y-101632380D02*
X159816666Y-101680000D01*
X159816666Y-101680000D02*
X159721428Y-101727619D01*
X159721428Y-101727619D02*
X159435714Y-101727619D01*
X159435714Y-101727619D02*
X159340476Y-101680000D01*
X159340476Y-101680000D02*
X159292857Y-101632380D01*
X160340476Y-101632380D02*
X160388095Y-101680000D01*
X160388095Y-101680000D02*
X160340476Y-101727619D01*
X160340476Y-101727619D02*
X160292857Y-101680000D01*
X160292857Y-101680000D02*
X160340476Y-101632380D01*
X160340476Y-101632380D02*
X160340476Y-101727619D01*
X160721428Y-100727619D02*
X161340475Y-100727619D01*
X161340475Y-100727619D02*
X161007142Y-101108571D01*
X161007142Y-101108571D02*
X161149999Y-101108571D01*
X161149999Y-101108571D02*
X161245237Y-101156190D01*
X161245237Y-101156190D02*
X161292856Y-101203809D01*
X161292856Y-101203809D02*
X161340475Y-101299047D01*
X161340475Y-101299047D02*
X161340475Y-101537142D01*
X161340475Y-101537142D02*
X161292856Y-101632380D01*
X161292856Y-101632380D02*
X161245237Y-101680000D01*
X161245237Y-101680000D02*
X161149999Y-101727619D01*
X161149999Y-101727619D02*
X160864285Y-101727619D01*
X160864285Y-101727619D02*
X160769047Y-101680000D01*
X160769047Y-101680000D02*
X160721428Y-101632380D01*
X161673809Y-101060952D02*
X161911904Y-101727619D01*
X161911904Y-101727619D02*
X162149999Y-101060952D01*
X157740476Y-105822857D02*
X157788095Y-105775238D01*
X157788095Y-105775238D02*
X157883333Y-105727619D01*
X157883333Y-105727619D02*
X158121428Y-105727619D01*
X158121428Y-105727619D02*
X158216666Y-105775238D01*
X158216666Y-105775238D02*
X158264285Y-105822857D01*
X158264285Y-105822857D02*
X158311904Y-105918095D01*
X158311904Y-105918095D02*
X158311904Y-106013333D01*
X158311904Y-106013333D02*
X158264285Y-106156190D01*
X158264285Y-106156190D02*
X157692857Y-106727619D01*
X157692857Y-106727619D02*
X158311904Y-106727619D01*
X158740476Y-106632380D02*
X158788095Y-106680000D01*
X158788095Y-106680000D02*
X158740476Y-106727619D01*
X158740476Y-106727619D02*
X158692857Y-106680000D01*
X158692857Y-106680000D02*
X158740476Y-106632380D01*
X158740476Y-106632380D02*
X158740476Y-106727619D01*
X159692856Y-105727619D02*
X159216666Y-105727619D01*
X159216666Y-105727619D02*
X159169047Y-106203809D01*
X159169047Y-106203809D02*
X159216666Y-106156190D01*
X159216666Y-106156190D02*
X159311904Y-106108571D01*
X159311904Y-106108571D02*
X159549999Y-106108571D01*
X159549999Y-106108571D02*
X159645237Y-106156190D01*
X159645237Y-106156190D02*
X159692856Y-106203809D01*
X159692856Y-106203809D02*
X159740475Y-106299047D01*
X159740475Y-106299047D02*
X159740475Y-106537142D01*
X159740475Y-106537142D02*
X159692856Y-106632380D01*
X159692856Y-106632380D02*
X159645237Y-106680000D01*
X159645237Y-106680000D02*
X159549999Y-106727619D01*
X159549999Y-106727619D02*
X159311904Y-106727619D01*
X159311904Y-106727619D02*
X159216666Y-106680000D01*
X159216666Y-106680000D02*
X159169047Y-106632380D01*
X160073809Y-106060952D02*
X160311904Y-106727619D01*
X160311904Y-106727619D02*
X160549999Y-106060952D01*
X138949523Y-120082095D02*
X138492380Y-120082095D01*
X138720952Y-120082095D02*
X138720952Y-119282095D01*
X138720952Y-119282095D02*
X138644761Y-119396380D01*
X138644761Y-119396380D02*
X138568571Y-119472571D01*
X138568571Y-119472571D02*
X138492380Y-119510666D01*
X139444762Y-119282095D02*
X139520952Y-119282095D01*
X139520952Y-119282095D02*
X139597143Y-119320190D01*
X139597143Y-119320190D02*
X139635238Y-119358285D01*
X139635238Y-119358285D02*
X139673333Y-119434476D01*
X139673333Y-119434476D02*
X139711428Y-119586857D01*
X139711428Y-119586857D02*
X139711428Y-119777333D01*
X139711428Y-119777333D02*
X139673333Y-119929714D01*
X139673333Y-119929714D02*
X139635238Y-120005904D01*
X139635238Y-120005904D02*
X139597143Y-120044000D01*
X139597143Y-120044000D02*
X139520952Y-120082095D01*
X139520952Y-120082095D02*
X139444762Y-120082095D01*
X139444762Y-120082095D02*
X139368571Y-120044000D01*
X139368571Y-120044000D02*
X139330476Y-120005904D01*
X139330476Y-120005904D02*
X139292381Y-119929714D01*
X139292381Y-119929714D02*
X139254285Y-119777333D01*
X139254285Y-119777333D02*
X139254285Y-119586857D01*
X139254285Y-119586857D02*
X139292381Y-119434476D01*
X139292381Y-119434476D02*
X139330476Y-119358285D01*
X139330476Y-119358285D02*
X139368571Y-119320190D01*
X139368571Y-119320190D02*
X139444762Y-119282095D01*
X139432095Y-123542380D02*
X139051142Y-123809047D01*
X139432095Y-123999523D02*
X138632095Y-123999523D01*
X138632095Y-123999523D02*
X138632095Y-123694761D01*
X138632095Y-123694761D02*
X138670190Y-123618571D01*
X138670190Y-123618571D02*
X138708285Y-123580476D01*
X138708285Y-123580476D02*
X138784476Y-123542380D01*
X138784476Y-123542380D02*
X138898761Y-123542380D01*
X138898761Y-123542380D02*
X138974952Y-123580476D01*
X138974952Y-123580476D02*
X139013047Y-123618571D01*
X139013047Y-123618571D02*
X139051142Y-123694761D01*
X139051142Y-123694761D02*
X139051142Y-123999523D01*
X138632095Y-123275714D02*
X139432095Y-122742380D01*
X138632095Y-122742380D02*
X139432095Y-123275714D01*
X158314285Y-110927619D02*
X157838095Y-110927619D01*
X157838095Y-110927619D02*
X157790476Y-111403809D01*
X157790476Y-111403809D02*
X157838095Y-111356190D01*
X157838095Y-111356190D02*
X157933333Y-111308571D01*
X157933333Y-111308571D02*
X158171428Y-111308571D01*
X158171428Y-111308571D02*
X158266666Y-111356190D01*
X158266666Y-111356190D02*
X158314285Y-111403809D01*
X158314285Y-111403809D02*
X158361904Y-111499047D01*
X158361904Y-111499047D02*
X158361904Y-111737142D01*
X158361904Y-111737142D02*
X158314285Y-111832380D01*
X158314285Y-111832380D02*
X158266666Y-111880000D01*
X158266666Y-111880000D02*
X158171428Y-111927619D01*
X158171428Y-111927619D02*
X157933333Y-111927619D01*
X157933333Y-111927619D02*
X157838095Y-111880000D01*
X157838095Y-111880000D02*
X157790476Y-111832380D01*
X158790476Y-111832380D02*
X158838095Y-111880000D01*
X158838095Y-111880000D02*
X158790476Y-111927619D01*
X158790476Y-111927619D02*
X158742857Y-111880000D01*
X158742857Y-111880000D02*
X158790476Y-111832380D01*
X158790476Y-111832380D02*
X158790476Y-111927619D01*
X159457142Y-110927619D02*
X159552380Y-110927619D01*
X159552380Y-110927619D02*
X159647618Y-110975238D01*
X159647618Y-110975238D02*
X159695237Y-111022857D01*
X159695237Y-111022857D02*
X159742856Y-111118095D01*
X159742856Y-111118095D02*
X159790475Y-111308571D01*
X159790475Y-111308571D02*
X159790475Y-111546666D01*
X159790475Y-111546666D02*
X159742856Y-111737142D01*
X159742856Y-111737142D02*
X159695237Y-111832380D01*
X159695237Y-111832380D02*
X159647618Y-111880000D01*
X159647618Y-111880000D02*
X159552380Y-111927619D01*
X159552380Y-111927619D02*
X159457142Y-111927619D01*
X159457142Y-111927619D02*
X159361904Y-111880000D01*
X159361904Y-111880000D02*
X159314285Y-111832380D01*
X159314285Y-111832380D02*
X159266666Y-111737142D01*
X159266666Y-111737142D02*
X159219047Y-111546666D01*
X159219047Y-111546666D02*
X159219047Y-111308571D01*
X159219047Y-111308571D02*
X159266666Y-111118095D01*
X159266666Y-111118095D02*
X159314285Y-111022857D01*
X159314285Y-111022857D02*
X159361904Y-110975238D01*
X159361904Y-110975238D02*
X159457142Y-110927619D01*
X160123809Y-111260952D02*
X160361904Y-111927619D01*
X160361904Y-111927619D02*
X160599999Y-111260952D01*
X133962095Y-118109523D02*
X133162095Y-118109523D01*
X133885904Y-117271428D02*
X133924000Y-117309524D01*
X133924000Y-117309524D02*
X133962095Y-117423809D01*
X133962095Y-117423809D02*
X133962095Y-117500000D01*
X133962095Y-117500000D02*
X133924000Y-117614286D01*
X133924000Y-117614286D02*
X133847809Y-117690476D01*
X133847809Y-117690476D02*
X133771619Y-117728571D01*
X133771619Y-117728571D02*
X133619238Y-117766667D01*
X133619238Y-117766667D02*
X133504952Y-117766667D01*
X133504952Y-117766667D02*
X133352571Y-117728571D01*
X133352571Y-117728571D02*
X133276380Y-117690476D01*
X133276380Y-117690476D02*
X133200190Y-117614286D01*
X133200190Y-117614286D02*
X133162095Y-117500000D01*
X133162095Y-117500000D02*
X133162095Y-117423809D01*
X133162095Y-117423809D02*
X133200190Y-117309524D01*
X133200190Y-117309524D02*
X133238285Y-117271428D01*
X133543047Y-116928571D02*
X133543047Y-116661905D01*
X133962095Y-116547619D02*
X133962095Y-116928571D01*
X133962095Y-116928571D02*
X133162095Y-116928571D01*
X133162095Y-116928571D02*
X133162095Y-116547619D01*
X134038285Y-116395238D02*
X134038285Y-115785714D01*
X133962095Y-115595237D02*
X133162095Y-115595237D01*
X133162095Y-115595237D02*
X133162095Y-115404761D01*
X133162095Y-115404761D02*
X133200190Y-115290475D01*
X133200190Y-115290475D02*
X133276380Y-115214285D01*
X133276380Y-115214285D02*
X133352571Y-115176190D01*
X133352571Y-115176190D02*
X133504952Y-115138094D01*
X133504952Y-115138094D02*
X133619238Y-115138094D01*
X133619238Y-115138094D02*
X133771619Y-115176190D01*
X133771619Y-115176190D02*
X133847809Y-115214285D01*
X133847809Y-115214285D02*
X133924000Y-115290475D01*
X133924000Y-115290475D02*
X133962095Y-115404761D01*
X133962095Y-115404761D02*
X133962095Y-115595237D01*
X133733523Y-114833333D02*
X133733523Y-114452380D01*
X133962095Y-114909523D02*
X133162095Y-114642856D01*
X133162095Y-114642856D02*
X133962095Y-114376190D01*
X133162095Y-114223809D02*
X133162095Y-113766666D01*
X133962095Y-113995238D02*
X133162095Y-113995238D01*
X135691428Y-120952095D02*
X135310476Y-120952095D01*
X135310476Y-120952095D02*
X135272380Y-121333047D01*
X135272380Y-121333047D02*
X135310476Y-121294952D01*
X135310476Y-121294952D02*
X135386666Y-121256857D01*
X135386666Y-121256857D02*
X135577142Y-121256857D01*
X135577142Y-121256857D02*
X135653333Y-121294952D01*
X135653333Y-121294952D02*
X135691428Y-121333047D01*
X135691428Y-121333047D02*
X135729523Y-121409238D01*
X135729523Y-121409238D02*
X135729523Y-121599714D01*
X135729523Y-121599714D02*
X135691428Y-121675904D01*
X135691428Y-121675904D02*
X135653333Y-121714000D01*
X135653333Y-121714000D02*
X135577142Y-121752095D01*
X135577142Y-121752095D02*
X135386666Y-121752095D01*
X135386666Y-121752095D02*
X135310476Y-121714000D01*
X135310476Y-121714000D02*
X135272380Y-121675904D01*
X129117619Y-121236190D02*
X129831904Y-121236190D01*
X129831904Y-121236190D02*
X129974761Y-121283809D01*
X129974761Y-121283809D02*
X130070000Y-121379047D01*
X130070000Y-121379047D02*
X130117619Y-121521904D01*
X130117619Y-121521904D02*
X130117619Y-121617142D01*
X130117619Y-120236190D02*
X130117619Y-120807618D01*
X130117619Y-120521904D02*
X129117619Y-120521904D01*
X129117619Y-120521904D02*
X129260476Y-120617142D01*
X129260476Y-120617142D02*
X129355714Y-120712380D01*
X129355714Y-120712380D02*
X129403333Y-120807618D01*
X129117619Y-119617142D02*
X129117619Y-119521904D01*
X129117619Y-119521904D02*
X129165238Y-119426666D01*
X129165238Y-119426666D02*
X129212857Y-119379047D01*
X129212857Y-119379047D02*
X129308095Y-119331428D01*
X129308095Y-119331428D02*
X129498571Y-119283809D01*
X129498571Y-119283809D02*
X129736666Y-119283809D01*
X129736666Y-119283809D02*
X129927142Y-119331428D01*
X129927142Y-119331428D02*
X130022380Y-119379047D01*
X130022380Y-119379047D02*
X130070000Y-119426666D01*
X130070000Y-119426666D02*
X130117619Y-119521904D01*
X130117619Y-119521904D02*
X130117619Y-119617142D01*
X130117619Y-119617142D02*
X130070000Y-119712380D01*
X130070000Y-119712380D02*
X130022380Y-119759999D01*
X130022380Y-119759999D02*
X129927142Y-119807618D01*
X129927142Y-119807618D02*
X129736666Y-119855237D01*
X129736666Y-119855237D02*
X129498571Y-119855237D01*
X129498571Y-119855237D02*
X129308095Y-119807618D01*
X129308095Y-119807618D02*
X129212857Y-119759999D01*
X129212857Y-119759999D02*
X129165238Y-119712380D01*
X129165238Y-119712380D02*
X129117619Y-119617142D01*
X135702095Y-118109523D02*
X134902095Y-118109523D01*
X135625904Y-117271428D02*
X135664000Y-117309524D01*
X135664000Y-117309524D02*
X135702095Y-117423809D01*
X135702095Y-117423809D02*
X135702095Y-117500000D01*
X135702095Y-117500000D02*
X135664000Y-117614286D01*
X135664000Y-117614286D02*
X135587809Y-117690476D01*
X135587809Y-117690476D02*
X135511619Y-117728571D01*
X135511619Y-117728571D02*
X135359238Y-117766667D01*
X135359238Y-117766667D02*
X135244952Y-117766667D01*
X135244952Y-117766667D02*
X135092571Y-117728571D01*
X135092571Y-117728571D02*
X135016380Y-117690476D01*
X135016380Y-117690476D02*
X134940190Y-117614286D01*
X134940190Y-117614286D02*
X134902095Y-117500000D01*
X134902095Y-117500000D02*
X134902095Y-117423809D01*
X134902095Y-117423809D02*
X134940190Y-117309524D01*
X134940190Y-117309524D02*
X134978285Y-117271428D01*
X135283047Y-116928571D02*
X135283047Y-116661905D01*
X135702095Y-116547619D02*
X135702095Y-116928571D01*
X135702095Y-116928571D02*
X134902095Y-116928571D01*
X134902095Y-116928571D02*
X134902095Y-116547619D01*
X135778285Y-116395238D02*
X135778285Y-115785714D01*
X135625904Y-115138094D02*
X135664000Y-115176190D01*
X135664000Y-115176190D02*
X135702095Y-115290475D01*
X135702095Y-115290475D02*
X135702095Y-115366666D01*
X135702095Y-115366666D02*
X135664000Y-115480952D01*
X135664000Y-115480952D02*
X135587809Y-115557142D01*
X135587809Y-115557142D02*
X135511619Y-115595237D01*
X135511619Y-115595237D02*
X135359238Y-115633333D01*
X135359238Y-115633333D02*
X135244952Y-115633333D01*
X135244952Y-115633333D02*
X135092571Y-115595237D01*
X135092571Y-115595237D02*
X135016380Y-115557142D01*
X135016380Y-115557142D02*
X134940190Y-115480952D01*
X134940190Y-115480952D02*
X134902095Y-115366666D01*
X134902095Y-115366666D02*
X134902095Y-115290475D01*
X134902095Y-115290475D02*
X134940190Y-115176190D01*
X134940190Y-115176190D02*
X134978285Y-115138094D01*
X135702095Y-114414285D02*
X135702095Y-114795237D01*
X135702095Y-114795237D02*
X134902095Y-114795237D01*
X135702095Y-114147618D02*
X134902095Y-114147618D01*
X135702095Y-113690475D02*
X135244952Y-114033333D01*
X134902095Y-113690475D02*
X135359238Y-114147618D01*
X136882095Y-124113809D02*
X136882095Y-123656666D01*
X137682095Y-123885238D02*
X136882095Y-123885238D01*
X136882095Y-123466190D02*
X137682095Y-122932856D01*
X136882095Y-122932856D02*
X137682095Y-123466190D01*
X157952095Y-126639523D02*
X157152095Y-126639523D01*
X157875904Y-125801428D02*
X157914000Y-125839524D01*
X157914000Y-125839524D02*
X157952095Y-125953809D01*
X157952095Y-125953809D02*
X157952095Y-126030000D01*
X157952095Y-126030000D02*
X157914000Y-126144286D01*
X157914000Y-126144286D02*
X157837809Y-126220476D01*
X157837809Y-126220476D02*
X157761619Y-126258571D01*
X157761619Y-126258571D02*
X157609238Y-126296667D01*
X157609238Y-126296667D02*
X157494952Y-126296667D01*
X157494952Y-126296667D02*
X157342571Y-126258571D01*
X157342571Y-126258571D02*
X157266380Y-126220476D01*
X157266380Y-126220476D02*
X157190190Y-126144286D01*
X157190190Y-126144286D02*
X157152095Y-126030000D01*
X157152095Y-126030000D02*
X157152095Y-125953809D01*
X157152095Y-125953809D02*
X157190190Y-125839524D01*
X157190190Y-125839524D02*
X157228285Y-125801428D01*
X157533047Y-125458571D02*
X157533047Y-125191905D01*
X157952095Y-125077619D02*
X157952095Y-125458571D01*
X157952095Y-125458571D02*
X157152095Y-125458571D01*
X157152095Y-125458571D02*
X157152095Y-125077619D01*
X158028285Y-124925238D02*
X158028285Y-124315714D01*
X157952095Y-124125237D02*
X157152095Y-124125237D01*
X157152095Y-124125237D02*
X157152095Y-123934761D01*
X157152095Y-123934761D02*
X157190190Y-123820475D01*
X157190190Y-123820475D02*
X157266380Y-123744285D01*
X157266380Y-123744285D02*
X157342571Y-123706190D01*
X157342571Y-123706190D02*
X157494952Y-123668094D01*
X157494952Y-123668094D02*
X157609238Y-123668094D01*
X157609238Y-123668094D02*
X157761619Y-123706190D01*
X157761619Y-123706190D02*
X157837809Y-123744285D01*
X157837809Y-123744285D02*
X157914000Y-123820475D01*
X157914000Y-123820475D02*
X157952095Y-123934761D01*
X157952095Y-123934761D02*
X157952095Y-124125237D01*
X157723523Y-123363333D02*
X157723523Y-122982380D01*
X157952095Y-123439523D02*
X157152095Y-123172856D01*
X157152095Y-123172856D02*
X157952095Y-122906190D01*
X157152095Y-122753809D02*
X157152095Y-122296666D01*
X157952095Y-122525238D02*
X157152095Y-122525238D01*
X168113113Y-126146670D02*
X167732160Y-126413337D01*
X168113113Y-126603813D02*
X167313113Y-126603813D01*
X167313113Y-126603813D02*
X167313113Y-126299051D01*
X167313113Y-126299051D02*
X167351208Y-126222861D01*
X167351208Y-126222861D02*
X167389303Y-126184766D01*
X167389303Y-126184766D02*
X167465494Y-126146670D01*
X167465494Y-126146670D02*
X167579779Y-126146670D01*
X167579779Y-126146670D02*
X167655970Y-126184766D01*
X167655970Y-126184766D02*
X167694065Y-126222861D01*
X167694065Y-126222861D02*
X167732160Y-126299051D01*
X167732160Y-126299051D02*
X167732160Y-126603813D01*
X167694065Y-125803813D02*
X167694065Y-125537147D01*
X168113113Y-125422861D02*
X168113113Y-125803813D01*
X168113113Y-125803813D02*
X167313113Y-125803813D01*
X167313113Y-125803813D02*
X167313113Y-125422861D01*
X168075018Y-125118099D02*
X168113113Y-125003813D01*
X168113113Y-125003813D02*
X168113113Y-124813337D01*
X168113113Y-124813337D02*
X168075018Y-124737146D01*
X168075018Y-124737146D02*
X168036922Y-124699051D01*
X168036922Y-124699051D02*
X167960732Y-124660956D01*
X167960732Y-124660956D02*
X167884541Y-124660956D01*
X167884541Y-124660956D02*
X167808351Y-124699051D01*
X167808351Y-124699051D02*
X167770256Y-124737146D01*
X167770256Y-124737146D02*
X167732160Y-124813337D01*
X167732160Y-124813337D02*
X167694065Y-124965718D01*
X167694065Y-124965718D02*
X167655970Y-125041908D01*
X167655970Y-125041908D02*
X167617875Y-125080003D01*
X167617875Y-125080003D02*
X167541684Y-125118099D01*
X167541684Y-125118099D02*
X167465494Y-125118099D01*
X167465494Y-125118099D02*
X167389303Y-125080003D01*
X167389303Y-125080003D02*
X167351208Y-125041908D01*
X167351208Y-125041908D02*
X167313113Y-124965718D01*
X167313113Y-124965718D02*
X167313113Y-124775241D01*
X167313113Y-124775241D02*
X167351208Y-124660956D01*
X167694065Y-124318098D02*
X167694065Y-124051432D01*
X168113113Y-123937146D02*
X168113113Y-124318098D01*
X168113113Y-124318098D02*
X167313113Y-124318098D01*
X167313113Y-124318098D02*
X167313113Y-123937146D01*
X167313113Y-123708574D02*
X167313113Y-123251431D01*
X168113113Y-123480003D02*
X167313113Y-123480003D01*
X136984285Y-120952095D02*
X137517619Y-120952095D01*
X137517619Y-120952095D02*
X137174761Y-121752095D01*
%TO.C,U2*%
X148742878Y-95230587D02*
X148742878Y-95878633D01*
X148742878Y-95878633D02*
X148780999Y-95954874D01*
X148780999Y-95954874D02*
X148819119Y-95992995D01*
X148819119Y-95992995D02*
X148895360Y-96031115D01*
X148895360Y-96031115D02*
X149047841Y-96031115D01*
X149047841Y-96031115D02*
X149124082Y-95992995D01*
X149124082Y-95992995D02*
X149162203Y-95954874D01*
X149162203Y-95954874D02*
X149200323Y-95878633D01*
X149200323Y-95878633D02*
X149200323Y-95230587D01*
X149543406Y-95306828D02*
X149581526Y-95268707D01*
X149581526Y-95268707D02*
X149657767Y-95230587D01*
X149657767Y-95230587D02*
X149848369Y-95230587D01*
X149848369Y-95230587D02*
X149924610Y-95268707D01*
X149924610Y-95268707D02*
X149962730Y-95306828D01*
X149962730Y-95306828D02*
X150000851Y-95383068D01*
X150000851Y-95383068D02*
X150000851Y-95459309D01*
X150000851Y-95459309D02*
X149962730Y-95573670D01*
X149962730Y-95573670D02*
X149505286Y-96031115D01*
X149505286Y-96031115D02*
X150000851Y-96031115D01*
%TO.C,C2*%
X154867380Y-83166666D02*
X154915000Y-83214285D01*
X154915000Y-83214285D02*
X154962619Y-83357142D01*
X154962619Y-83357142D02*
X154962619Y-83452380D01*
X154962619Y-83452380D02*
X154915000Y-83595237D01*
X154915000Y-83595237D02*
X154819761Y-83690475D01*
X154819761Y-83690475D02*
X154724523Y-83738094D01*
X154724523Y-83738094D02*
X154534047Y-83785713D01*
X154534047Y-83785713D02*
X154391190Y-83785713D01*
X154391190Y-83785713D02*
X154200714Y-83738094D01*
X154200714Y-83738094D02*
X154105476Y-83690475D01*
X154105476Y-83690475D02*
X154010238Y-83595237D01*
X154010238Y-83595237D02*
X153962619Y-83452380D01*
X153962619Y-83452380D02*
X153962619Y-83357142D01*
X153962619Y-83357142D02*
X154010238Y-83214285D01*
X154010238Y-83214285D02*
X154057857Y-83166666D01*
X154057857Y-82785713D02*
X154010238Y-82738094D01*
X154010238Y-82738094D02*
X153962619Y-82642856D01*
X153962619Y-82642856D02*
X153962619Y-82404761D01*
X153962619Y-82404761D02*
X154010238Y-82309523D01*
X154010238Y-82309523D02*
X154057857Y-82261904D01*
X154057857Y-82261904D02*
X154153095Y-82214285D01*
X154153095Y-82214285D02*
X154248333Y-82214285D01*
X154248333Y-82214285D02*
X154391190Y-82261904D01*
X154391190Y-82261904D02*
X154962619Y-82833332D01*
X154962619Y-82833332D02*
X154962619Y-82214285D01*
%TO.C,R3*%
X152162619Y-104366666D02*
X151686428Y-104699999D01*
X152162619Y-104938094D02*
X151162619Y-104938094D01*
X151162619Y-104938094D02*
X151162619Y-104557142D01*
X151162619Y-104557142D02*
X151210238Y-104461904D01*
X151210238Y-104461904D02*
X151257857Y-104414285D01*
X151257857Y-104414285D02*
X151353095Y-104366666D01*
X151353095Y-104366666D02*
X151495952Y-104366666D01*
X151495952Y-104366666D02*
X151591190Y-104414285D01*
X151591190Y-104414285D02*
X151638809Y-104461904D01*
X151638809Y-104461904D02*
X151686428Y-104557142D01*
X151686428Y-104557142D02*
X151686428Y-104938094D01*
X151162619Y-104033332D02*
X151162619Y-103414285D01*
X151162619Y-103414285D02*
X151543571Y-103747618D01*
X151543571Y-103747618D02*
X151543571Y-103604761D01*
X151543571Y-103604761D02*
X151591190Y-103509523D01*
X151591190Y-103509523D02*
X151638809Y-103461904D01*
X151638809Y-103461904D02*
X151734047Y-103414285D01*
X151734047Y-103414285D02*
X151972142Y-103414285D01*
X151972142Y-103414285D02*
X152067380Y-103461904D01*
X152067380Y-103461904D02*
X152115000Y-103509523D01*
X152115000Y-103509523D02*
X152162619Y-103604761D01*
X152162619Y-103604761D02*
X152162619Y-103890475D01*
X152162619Y-103890475D02*
X152115000Y-103985713D01*
X152115000Y-103985713D02*
X152067380Y-104033332D01*
%TO.C,JP1*%
X163761666Y-103436819D02*
X163761666Y-104151104D01*
X163761666Y-104151104D02*
X163714047Y-104293961D01*
X163714047Y-104293961D02*
X163618809Y-104389200D01*
X163618809Y-104389200D02*
X163475952Y-104436819D01*
X163475952Y-104436819D02*
X163380714Y-104436819D01*
X164237857Y-104436819D02*
X164237857Y-103436819D01*
X164237857Y-103436819D02*
X164618809Y-103436819D01*
X164618809Y-103436819D02*
X164714047Y-103484438D01*
X164714047Y-103484438D02*
X164761666Y-103532057D01*
X164761666Y-103532057D02*
X164809285Y-103627295D01*
X164809285Y-103627295D02*
X164809285Y-103770152D01*
X164809285Y-103770152D02*
X164761666Y-103865390D01*
X164761666Y-103865390D02*
X164714047Y-103913009D01*
X164714047Y-103913009D02*
X164618809Y-103960628D01*
X164618809Y-103960628D02*
X164237857Y-103960628D01*
X165761666Y-104436819D02*
X165190238Y-104436819D01*
X165475952Y-104436819D02*
X165475952Y-103436819D01*
X165475952Y-103436819D02*
X165380714Y-103579676D01*
X165380714Y-103579676D02*
X165285476Y-103674914D01*
X165285476Y-103674914D02*
X165190238Y-103722533D01*
%TO.C,R1*%
X135073333Y-82642619D02*
X134740000Y-82166428D01*
X134501905Y-82642619D02*
X134501905Y-81642619D01*
X134501905Y-81642619D02*
X134882857Y-81642619D01*
X134882857Y-81642619D02*
X134978095Y-81690238D01*
X134978095Y-81690238D02*
X135025714Y-81737857D01*
X135025714Y-81737857D02*
X135073333Y-81833095D01*
X135073333Y-81833095D02*
X135073333Y-81975952D01*
X135073333Y-81975952D02*
X135025714Y-82071190D01*
X135025714Y-82071190D02*
X134978095Y-82118809D01*
X134978095Y-82118809D02*
X134882857Y-82166428D01*
X134882857Y-82166428D02*
X134501905Y-82166428D01*
X136025714Y-82642619D02*
X135454286Y-82642619D01*
X135740000Y-82642619D02*
X135740000Y-81642619D01*
X135740000Y-81642619D02*
X135644762Y-81785476D01*
X135644762Y-81785476D02*
X135549524Y-81880714D01*
X135549524Y-81880714D02*
X135454286Y-81928333D01*
%TO.C,R2*%
X165592619Y-81006666D02*
X165116428Y-81339999D01*
X165592619Y-81578094D02*
X164592619Y-81578094D01*
X164592619Y-81578094D02*
X164592619Y-81197142D01*
X164592619Y-81197142D02*
X164640238Y-81101904D01*
X164640238Y-81101904D02*
X164687857Y-81054285D01*
X164687857Y-81054285D02*
X164783095Y-81006666D01*
X164783095Y-81006666D02*
X164925952Y-81006666D01*
X164925952Y-81006666D02*
X165021190Y-81054285D01*
X165021190Y-81054285D02*
X165068809Y-81101904D01*
X165068809Y-81101904D02*
X165116428Y-81197142D01*
X165116428Y-81197142D02*
X165116428Y-81578094D01*
X164687857Y-80625713D02*
X164640238Y-80578094D01*
X164640238Y-80578094D02*
X164592619Y-80482856D01*
X164592619Y-80482856D02*
X164592619Y-80244761D01*
X164592619Y-80244761D02*
X164640238Y-80149523D01*
X164640238Y-80149523D02*
X164687857Y-80101904D01*
X164687857Y-80101904D02*
X164783095Y-80054285D01*
X164783095Y-80054285D02*
X164878333Y-80054285D01*
X164878333Y-80054285D02*
X165021190Y-80101904D01*
X165021190Y-80101904D02*
X165592619Y-80673332D01*
X165592619Y-80673332D02*
X165592619Y-80054285D01*
%TO.C,JP4*%
X131816666Y-91212619D02*
X131816666Y-91926904D01*
X131816666Y-91926904D02*
X131769047Y-92069761D01*
X131769047Y-92069761D02*
X131673809Y-92165000D01*
X131673809Y-92165000D02*
X131530952Y-92212619D01*
X131530952Y-92212619D02*
X131435714Y-92212619D01*
X132292857Y-92212619D02*
X132292857Y-91212619D01*
X132292857Y-91212619D02*
X132673809Y-91212619D01*
X132673809Y-91212619D02*
X132769047Y-91260238D01*
X132769047Y-91260238D02*
X132816666Y-91307857D01*
X132816666Y-91307857D02*
X132864285Y-91403095D01*
X132864285Y-91403095D02*
X132864285Y-91545952D01*
X132864285Y-91545952D02*
X132816666Y-91641190D01*
X132816666Y-91641190D02*
X132769047Y-91688809D01*
X132769047Y-91688809D02*
X132673809Y-91736428D01*
X132673809Y-91736428D02*
X132292857Y-91736428D01*
X133721428Y-91545952D02*
X133721428Y-92212619D01*
X133483333Y-91165000D02*
X133245238Y-91879285D01*
X133245238Y-91879285D02*
X133864285Y-91879285D01*
%TO.C,JP2*%
X163466666Y-99012619D02*
X163466666Y-99726904D01*
X163466666Y-99726904D02*
X163419047Y-99869761D01*
X163419047Y-99869761D02*
X163323809Y-99965000D01*
X163323809Y-99965000D02*
X163180952Y-100012619D01*
X163180952Y-100012619D02*
X163085714Y-100012619D01*
X163942857Y-100012619D02*
X163942857Y-99012619D01*
X163942857Y-99012619D02*
X164323809Y-99012619D01*
X164323809Y-99012619D02*
X164419047Y-99060238D01*
X164419047Y-99060238D02*
X164466666Y-99107857D01*
X164466666Y-99107857D02*
X164514285Y-99203095D01*
X164514285Y-99203095D02*
X164514285Y-99345952D01*
X164514285Y-99345952D02*
X164466666Y-99441190D01*
X164466666Y-99441190D02*
X164419047Y-99488809D01*
X164419047Y-99488809D02*
X164323809Y-99536428D01*
X164323809Y-99536428D02*
X163942857Y-99536428D01*
X164895238Y-99107857D02*
X164942857Y-99060238D01*
X164942857Y-99060238D02*
X165038095Y-99012619D01*
X165038095Y-99012619D02*
X165276190Y-99012619D01*
X165276190Y-99012619D02*
X165371428Y-99060238D01*
X165371428Y-99060238D02*
X165419047Y-99107857D01*
X165419047Y-99107857D02*
X165466666Y-99203095D01*
X165466666Y-99203095D02*
X165466666Y-99298333D01*
X165466666Y-99298333D02*
X165419047Y-99441190D01*
X165419047Y-99441190D02*
X164847619Y-100012619D01*
X164847619Y-100012619D02*
X165466666Y-100012619D01*
%TO.C,JP3*%
X136041666Y-96912619D02*
X136041666Y-97626904D01*
X136041666Y-97626904D02*
X135994047Y-97769761D01*
X135994047Y-97769761D02*
X135898809Y-97865000D01*
X135898809Y-97865000D02*
X135755952Y-97912619D01*
X135755952Y-97912619D02*
X135660714Y-97912619D01*
X136517857Y-97912619D02*
X136517857Y-96912619D01*
X136517857Y-96912619D02*
X136898809Y-96912619D01*
X136898809Y-96912619D02*
X136994047Y-96960238D01*
X136994047Y-96960238D02*
X137041666Y-97007857D01*
X137041666Y-97007857D02*
X137089285Y-97103095D01*
X137089285Y-97103095D02*
X137089285Y-97245952D01*
X137089285Y-97245952D02*
X137041666Y-97341190D01*
X137041666Y-97341190D02*
X136994047Y-97388809D01*
X136994047Y-97388809D02*
X136898809Y-97436428D01*
X136898809Y-97436428D02*
X136517857Y-97436428D01*
X137422619Y-96912619D02*
X138041666Y-96912619D01*
X138041666Y-96912619D02*
X137708333Y-97293571D01*
X137708333Y-97293571D02*
X137851190Y-97293571D01*
X137851190Y-97293571D02*
X137946428Y-97341190D01*
X137946428Y-97341190D02*
X137994047Y-97388809D01*
X137994047Y-97388809D02*
X138041666Y-97484047D01*
X138041666Y-97484047D02*
X138041666Y-97722142D01*
X138041666Y-97722142D02*
X137994047Y-97817380D01*
X137994047Y-97817380D02*
X137946428Y-97865000D01*
X137946428Y-97865000D02*
X137851190Y-97912619D01*
X137851190Y-97912619D02*
X137565476Y-97912619D01*
X137565476Y-97912619D02*
X137470238Y-97865000D01*
X137470238Y-97865000D02*
X137422619Y-97817380D01*
%TO.C,C1*%
X158667380Y-82966666D02*
X158715000Y-83014285D01*
X158715000Y-83014285D02*
X158762619Y-83157142D01*
X158762619Y-83157142D02*
X158762619Y-83252380D01*
X158762619Y-83252380D02*
X158715000Y-83395237D01*
X158715000Y-83395237D02*
X158619761Y-83490475D01*
X158619761Y-83490475D02*
X158524523Y-83538094D01*
X158524523Y-83538094D02*
X158334047Y-83585713D01*
X158334047Y-83585713D02*
X158191190Y-83585713D01*
X158191190Y-83585713D02*
X158000714Y-83538094D01*
X158000714Y-83538094D02*
X157905476Y-83490475D01*
X157905476Y-83490475D02*
X157810238Y-83395237D01*
X157810238Y-83395237D02*
X157762619Y-83252380D01*
X157762619Y-83252380D02*
X157762619Y-83157142D01*
X157762619Y-83157142D02*
X157810238Y-83014285D01*
X157810238Y-83014285D02*
X157857857Y-82966666D01*
X158762619Y-82014285D02*
X158762619Y-82585713D01*
X158762619Y-82299999D02*
X157762619Y-82299999D01*
X157762619Y-82299999D02*
X157905476Y-82395237D01*
X157905476Y-82395237D02*
X158000714Y-82490475D01*
X158000714Y-82490475D02*
X158048333Y-82585713D01*
D12*
%TO.C,U2*%
X150761500Y-88150000D02*
X147023500Y-88150000D01*
X150761500Y-94750000D02*
X147023500Y-94750000D01*
D13*
X153192500Y-94350000D02*
G75*
G03*
X153192500Y-94350000I-100000J0D01*
G01*
D14*
%TO.C,C2*%
X155565000Y-82738748D02*
X155565000Y-83261252D01*
X157035000Y-82738748D02*
X157035000Y-83261252D01*
%TO.C,R3*%
X150785000Y-103972936D02*
X150785000Y-104427064D01*
X149315000Y-103972936D02*
X149315000Y-104427064D01*
%TO.C,JP1*%
X161995000Y-104974200D02*
X163325000Y-104974200D01*
X161995000Y-107574200D02*
X161995000Y-104974200D01*
X161995000Y-107574200D02*
X161995000Y-112714200D01*
X161995000Y-107574200D02*
X167192574Y-107574200D01*
X161995000Y-110114200D02*
X167192574Y-110114200D01*
X161995000Y-112714200D02*
X167195000Y-112714200D01*
X163325000Y-104974200D02*
X167195000Y-104974200D01*
X167195000Y-104974200D02*
X167195000Y-112714200D01*
%TO.C,R1*%
X135467064Y-81265000D02*
X135012936Y-81265000D01*
X135467064Y-79795000D02*
X135012936Y-79795000D01*
%TO.C,R2*%
X162367500Y-80737936D02*
X162367500Y-81192064D01*
X163837500Y-80737936D02*
X163837500Y-81192064D01*
%TO.C,JP4*%
X134050000Y-93850000D02*
X134050000Y-94450000D01*
X133350000Y-95150000D02*
X131950000Y-95150000D01*
X131950000Y-93150000D02*
X133350000Y-93150000D01*
X131250000Y-94450000D02*
X131250000Y-93850000D01*
X133350000Y-95150000D02*
G75*
G03*
X134050000Y-94450000I1J699999D01*
G01*
X134050000Y-93850000D02*
G75*
G03*
X133350000Y-93150000I-699999J1D01*
G01*
X131250000Y-94450000D02*
G75*
G03*
X131950000Y-95150000I700000J0D01*
G01*
X131950000Y-93150000D02*
G75*
G03*
X131250000Y-93850000I0J-700000D01*
G01*
%TO.C,JP2*%
X162900000Y-101650000D02*
X162900000Y-101050000D01*
X163600000Y-100350000D02*
X165000000Y-100350000D01*
X165000000Y-102350000D02*
X163600000Y-102350000D01*
X165700000Y-101050000D02*
X165700000Y-101650000D01*
X163600000Y-100350000D02*
G75*
G03*
X162900000Y-101050000I-1J-699999D01*
G01*
X162900000Y-101650000D02*
G75*
G03*
X163600000Y-102350000I699999J-1D01*
G01*
X165700000Y-101050000D02*
G75*
G03*
X165000000Y-100350000I-700000J0D01*
G01*
X165000000Y-102350000D02*
G75*
G03*
X165700000Y-101650000I0J700000D01*
G01*
%TO.C,JP3*%
X134705000Y-96320000D02*
X134705000Y-97650000D01*
X133375000Y-96320000D02*
X134705000Y-96320000D01*
X132105000Y-96320000D02*
X129505000Y-96320000D01*
X132105000Y-96320000D02*
X132105000Y-98980000D01*
X129505000Y-96320000D02*
X129505000Y-98980000D01*
X132105000Y-98980000D02*
X129505000Y-98980000D01*
%TO.C,C1*%
X159265000Y-82738748D02*
X159265000Y-83261252D01*
X160735000Y-82738748D02*
X160735000Y-83261252D01*
D12*
%TO.C,J1*%
X122674500Y-74554200D02*
X126484500Y-74554200D01*
X122674500Y-77094200D02*
X122674500Y-74554200D01*
X122674500Y-77094200D02*
X126484500Y-77094200D01*
X122674500Y-131069200D02*
X122674500Y-77094200D01*
X123309500Y-127259200D02*
X123309500Y-131069200D01*
X123309500Y-131069200D02*
X122674500Y-131069200D01*
X125849500Y-127259200D02*
X123309500Y-127259200D01*
X125849500Y-127259200D02*
X126484500Y-127259200D01*
X125849500Y-131069200D02*
X123309500Y-131069200D01*
X125849500Y-131069200D02*
X125849500Y-127259200D01*
X126484500Y-74554200D02*
X126484500Y-77094200D01*
X126484500Y-77094200D02*
X126484500Y-127259200D01*
X126484500Y-127259200D02*
X170934500Y-127259200D01*
X170934500Y-74554200D02*
X174744500Y-74554200D01*
X170934500Y-77094200D02*
X170934500Y-74554200D01*
X170934500Y-77094200D02*
X174744500Y-77094200D01*
X170934500Y-127259200D02*
X170934500Y-77094200D01*
X174744500Y-74554200D02*
X174744500Y-77094200D01*
X174744500Y-77094200D02*
X174744500Y-131069200D01*
X174744500Y-131069200D02*
X125849500Y-131069200D01*
%TD*%
%LPC*%
D15*
%TO.C,U2*%
X151757500Y-94375000D03*
X151757500Y-93725000D03*
X151757500Y-93075000D03*
X151757500Y-92425000D03*
X151757500Y-91775000D03*
X151757500Y-91125000D03*
X151757500Y-90475000D03*
X151757500Y-89825000D03*
X151757500Y-89175000D03*
X151757500Y-88525000D03*
D16*
X146027500Y-88525000D03*
X146027500Y-89175000D03*
X146027500Y-89825000D03*
X146027500Y-90475000D03*
X146027500Y-91125000D03*
X146027500Y-91775000D03*
X146027500Y-92425000D03*
X146027500Y-93075000D03*
X146027500Y-93725000D03*
X146027500Y-94375000D03*
%TD*%
D17*
%TO.C,C2*%
X156300000Y-84037500D03*
X156300000Y-81962500D03*
%TD*%
D18*
%TO.C,R3*%
X150050000Y-103200000D03*
X150050000Y-105200000D03*
%TD*%
D19*
%TO.C,JP1*%
X163325000Y-106304200D03*
D20*
X165865000Y-106304200D03*
X163325000Y-108844200D03*
X165865000Y-108844200D03*
X163325000Y-111384200D03*
X165865000Y-111384200D03*
%TD*%
D21*
%TO.C,R1*%
X136240000Y-80530000D03*
X134240000Y-80530000D03*
%TD*%
D18*
%TO.C,R2*%
X163102500Y-81965000D03*
X163102500Y-79965000D03*
%TD*%
D22*
%TO.C,JP4*%
X133300000Y-94150000D03*
D23*
X132000000Y-94150000D03*
%TD*%
D24*
%TO.C,JP2*%
X163650000Y-101350000D03*
D25*
X164950000Y-101350000D03*
%TD*%
D26*
%TO.C,JP3*%
X133375000Y-97650000D03*
D20*
X130835000Y-97650000D03*
%TD*%
D17*
%TO.C,C1*%
X160000000Y-84037500D03*
X160000000Y-81962500D03*
%TD*%
D27*
%TO.C,J1*%
X124579500Y-75824200D03*
X124579500Y-78364200D03*
X124579500Y-80904200D03*
X124579500Y-83444200D03*
X124579500Y-85984200D03*
X124579500Y-88524200D03*
X124579500Y-91064200D03*
X124579500Y-93604200D03*
X124579500Y-96144200D03*
X124579500Y-98684200D03*
X124579500Y-101224200D03*
X124579500Y-103764200D03*
X124579500Y-106304200D03*
X124579500Y-108844200D03*
X124579500Y-111384200D03*
X124579500Y-113924200D03*
X124579500Y-116464200D03*
X124579500Y-119004200D03*
X124579500Y-121544200D03*
X124579500Y-124084200D03*
D28*
X124579500Y-129164200D03*
X127119500Y-129164200D03*
X129659500Y-129164200D03*
X132199500Y-129164200D03*
X134739500Y-129164200D03*
X137279500Y-129164200D03*
X139819500Y-129164200D03*
X142359500Y-129164200D03*
X144899500Y-129164200D03*
X147439500Y-129164200D03*
X149979500Y-129164200D03*
X152519500Y-129164200D03*
X155059500Y-129164200D03*
X157599500Y-129164200D03*
X160139500Y-129164200D03*
X162679500Y-129164200D03*
X165219500Y-129164200D03*
X167759500Y-129164200D03*
X170299500Y-129164200D03*
X172839500Y-129164200D03*
D27*
X172839500Y-75824200D03*
X172839500Y-78364200D03*
X172839500Y-80904200D03*
X172839500Y-83444200D03*
X172839500Y-85984200D03*
X172839500Y-88524200D03*
X172839500Y-91064200D03*
X172839500Y-93604200D03*
X172839500Y-96144200D03*
X172839500Y-98684200D03*
X172839500Y-101224200D03*
X172839500Y-103764200D03*
X172839500Y-106304200D03*
X172839500Y-108844200D03*
X172839500Y-111384200D03*
X172839500Y-113924200D03*
X172839500Y-116464200D03*
X172839500Y-119004200D03*
X172839500Y-121544200D03*
X172839500Y-124084200D03*
D29*
X129659500Y-70744200D03*
X167759500Y-70744200D03*
X147439500Y-121544200D03*
%TD*%
%LPD*%
M02*
