%TF.GenerationSoftware,KiCad,Pcbnew,7.0.2*%
%TF.CreationDate,2023-05-27T02:32:33-07:00*%
%TF.ProjectId,n76e003-ufo-target-board,6e373665-3030-4332-9d75-666f2d746172,rev?*%
%TF.SameCoordinates,Original*%
%TF.FileFunction,Soldermask,Top*%
%TF.FilePolarity,Negative*%
%FSLAX46Y46*%
G04 Gerber Fmt 4.6, Leading zero omitted, Abs format (unit mm)*
G04 Created by KiCad (PCBNEW 7.0.2) date 2023-05-27 02:32:33*
%MOMM*%
%LPD*%
G01*
G04 APERTURE LIST*
G04 Aperture macros list*
%AMRoundRect*
0 Rectangle with rounded corners*
0 $1 Rounding radius*
0 $2 $3 $4 $5 $6 $7 $8 $9 X,Y pos of 4 corners*
0 Add a 4 corners polygon primitive as box body*
4,1,4,$2,$3,$4,$5,$6,$7,$8,$9,$2,$3,0*
0 Add four circle primitives for the rounded corners*
1,1,$1+$1,$2,$3*
1,1,$1+$1,$4,$5*
1,1,$1+$1,$6,$7*
1,1,$1+$1,$8,$9*
0 Add four rect primitives between the rounded corners*
20,1,$1+$1,$2,$3,$4,$5,0*
20,1,$1+$1,$4,$5,$6,$7,0*
20,1,$1+$1,$6,$7,$8,$9,0*
20,1,$1+$1,$8,$9,$2,$3,0*%
%AMFreePoly0*
4,1,19,0.500000,-0.750000,0.000000,-0.750000,0.000000,-0.744911,-0.071157,-0.744911,-0.207708,-0.704816,-0.327430,-0.627875,-0.420627,-0.520320,-0.479746,-0.390866,-0.500000,-0.250000,-0.500000,0.250000,-0.479746,0.390866,-0.420627,0.520320,-0.327430,0.627875,-0.207708,0.704816,-0.071157,0.744911,0.000000,0.744911,0.000000,0.750000,0.500000,0.750000,0.500000,-0.750000,0.500000,-0.750000,
$1*%
%AMFreePoly1*
4,1,19,0.000000,0.744911,0.071157,0.744911,0.207708,0.704816,0.327430,0.627875,0.420627,0.520320,0.479746,0.390866,0.500000,0.250000,0.500000,-0.250000,0.479746,-0.390866,0.420627,-0.520320,0.327430,-0.627875,0.207708,-0.704816,0.071157,-0.744911,0.000000,-0.744911,0.000000,-0.750000,-0.500000,-0.750000,-0.500000,0.750000,0.000000,0.750000,0.000000,0.744911,0.000000,0.744911,
$1*%
G04 Aperture macros list end*
%ADD10RoundRect,0.008200X0.731800X0.196800X-0.731800X0.196800X-0.731800X-0.196800X0.731800X-0.196800X0*%
%ADD11RoundRect,0.008200X-0.731800X-0.196800X0.731800X-0.196800X0.731800X0.196800X-0.731800X0.196800X0*%
%ADD12RoundRect,0.250000X-0.475000X0.337500X-0.475000X-0.337500X0.475000X-0.337500X0.475000X0.337500X0*%
%ADD13RoundRect,0.250000X-0.450000X0.350000X-0.450000X-0.350000X0.450000X-0.350000X0.450000X0.350000X0*%
%ADD14C,1.700000*%
%ADD15O,1.700000X1.700000*%
%ADD16RoundRect,0.250000X0.350000X0.450000X-0.350000X0.450000X-0.350000X-0.450000X0.350000X-0.450000X0*%
%ADD17FreePoly0,180.000000*%
%ADD18FreePoly1,180.000000*%
%ADD19FreePoly0,0.000000*%
%ADD20FreePoly1,0.000000*%
%ADD21R,1.700000X1.700000*%
%ADD22O,2.997200X1.498600*%
%ADD23O,1.498600X2.997200*%
%ADD24C,6.350000*%
G04 APERTURE END LIST*
D10*
%TO.C,U2*%
X151757500Y-94375000D03*
X151757500Y-93725000D03*
X151757500Y-93075000D03*
X151757500Y-92425000D03*
X151757500Y-91775000D03*
X151757500Y-91125000D03*
X151757500Y-90475000D03*
X151757500Y-89825000D03*
X151757500Y-89175000D03*
X151757500Y-88525000D03*
D11*
X146027500Y-88525000D03*
X146027500Y-89175000D03*
X146027500Y-89825000D03*
X146027500Y-90475000D03*
X146027500Y-91125000D03*
X146027500Y-91775000D03*
X146027500Y-92425000D03*
X146027500Y-93075000D03*
X146027500Y-93725000D03*
X146027500Y-94375000D03*
%TD*%
D12*
%TO.C,C2*%
X156300000Y-84037500D03*
X156300000Y-81962500D03*
%TD*%
D13*
%TO.C,R3*%
X150050000Y-103200000D03*
X150050000Y-105200000D03*
%TD*%
D14*
%TO.C,JP1*%
X163325000Y-106304200D03*
D15*
X165865000Y-106304200D03*
X163325000Y-108844200D03*
X165865000Y-108844200D03*
X163325000Y-111384200D03*
X165865000Y-111384200D03*
%TD*%
D16*
%TO.C,R1*%
X136240000Y-80530000D03*
X134240000Y-80530000D03*
%TD*%
D13*
%TO.C,R2*%
X163102500Y-81965000D03*
X163102500Y-79965000D03*
%TD*%
D17*
%TO.C,JP4*%
X133300000Y-94150000D03*
D18*
X132000000Y-94150000D03*
%TD*%
D19*
%TO.C,JP2*%
X163650000Y-101350000D03*
D20*
X164950000Y-101350000D03*
%TD*%
D21*
%TO.C,JP3*%
X133375000Y-97650000D03*
D15*
X130835000Y-97650000D03*
%TD*%
D12*
%TO.C,C1*%
X160000000Y-84037500D03*
X160000000Y-81962500D03*
%TD*%
D22*
%TO.C,J1*%
X124579500Y-75824200D03*
X124579500Y-78364200D03*
X124579500Y-80904200D03*
X124579500Y-83444200D03*
X124579500Y-85984200D03*
X124579500Y-88524200D03*
X124579500Y-91064200D03*
X124579500Y-93604200D03*
X124579500Y-96144200D03*
X124579500Y-98684200D03*
X124579500Y-101224200D03*
X124579500Y-103764200D03*
X124579500Y-106304200D03*
X124579500Y-108844200D03*
X124579500Y-111384200D03*
X124579500Y-113924200D03*
X124579500Y-116464200D03*
X124579500Y-119004200D03*
X124579500Y-121544200D03*
X124579500Y-124084200D03*
D23*
X124579500Y-129164200D03*
X127119500Y-129164200D03*
X129659500Y-129164200D03*
X132199500Y-129164200D03*
X134739500Y-129164200D03*
X137279500Y-129164200D03*
X139819500Y-129164200D03*
X142359500Y-129164200D03*
X144899500Y-129164200D03*
X147439500Y-129164200D03*
X149979500Y-129164200D03*
X152519500Y-129164200D03*
X155059500Y-129164200D03*
X157599500Y-129164200D03*
X160139500Y-129164200D03*
X162679500Y-129164200D03*
X165219500Y-129164200D03*
X167759500Y-129164200D03*
X170299500Y-129164200D03*
X172839500Y-129164200D03*
D22*
X172839500Y-75824200D03*
X172839500Y-78364200D03*
X172839500Y-80904200D03*
X172839500Y-83444200D03*
X172839500Y-85984200D03*
X172839500Y-88524200D03*
X172839500Y-91064200D03*
X172839500Y-93604200D03*
X172839500Y-96144200D03*
X172839500Y-98684200D03*
X172839500Y-101224200D03*
X172839500Y-103764200D03*
X172839500Y-106304200D03*
X172839500Y-108844200D03*
X172839500Y-111384200D03*
X172839500Y-113924200D03*
X172839500Y-116464200D03*
X172839500Y-119004200D03*
X172839500Y-121544200D03*
X172839500Y-124084200D03*
D24*
X129659500Y-70744200D03*
X167759500Y-70744200D03*
X147439500Y-121544200D03*
%TD*%
M02*
