%TF.GenerationSoftware,KiCad,Pcbnew,7.0.9*%
%TF.CreationDate,2024-03-17T00:10:44-07:00*%
%TF.ProjectId,n76e003-ufo-target-board,6e373665-3030-4332-9d75-666f2d746172,rev?*%
%TF.SameCoordinates,Original*%
%TF.FileFunction,Legend,Top*%
%TF.FilePolarity,Positive*%
%FSLAX46Y46*%
G04 Gerber Fmt 4.6, Leading zero omitted, Abs format (unit mm)*
G04 Created by KiCad (PCBNEW 7.0.9) date 2024-03-17 00:10:44*
%MOMM*%
%LPD*%
G01*
G04 APERTURE LIST*
G04 Aperture macros list*
%AMRoundRect*
0 Rectangle with rounded corners*
0 $1 Rounding radius*
0 $2 $3 $4 $5 $6 $7 $8 $9 X,Y pos of 4 corners*
0 Add a 4 corners polygon primitive as box body*
4,1,4,$2,$3,$4,$5,$6,$7,$8,$9,$2,$3,0*
0 Add four circle primitives for the rounded corners*
1,1,$1+$1,$2,$3*
1,1,$1+$1,$4,$5*
1,1,$1+$1,$6,$7*
1,1,$1+$1,$8,$9*
0 Add four rect primitives between the rounded corners*
20,1,$1+$1,$2,$3,$4,$5,0*
20,1,$1+$1,$4,$5,$6,$7,0*
20,1,$1+$1,$6,$7,$8,$9,0*
20,1,$1+$1,$8,$9,$2,$3,0*%
%AMFreePoly0*
4,1,19,0.500000,-0.750000,0.000000,-0.750000,0.000000,-0.744911,-0.071157,-0.744911,-0.207708,-0.704816,-0.327430,-0.627875,-0.420627,-0.520320,-0.479746,-0.390866,-0.500000,-0.250000,-0.500000,0.250000,-0.479746,0.390866,-0.420627,0.520320,-0.327430,0.627875,-0.207708,0.704816,-0.071157,0.744911,0.000000,0.744911,0.000000,0.750000,0.500000,0.750000,0.500000,-0.750000,0.500000,-0.750000,
$1*%
%AMFreePoly1*
4,1,19,0.000000,0.744911,0.071157,0.744911,0.207708,0.704816,0.327430,0.627875,0.420627,0.520320,0.479746,0.390866,0.500000,0.250000,0.500000,-0.250000,0.479746,-0.390866,0.420627,-0.520320,0.327430,-0.627875,0.207708,-0.704816,0.071157,-0.744911,0.000000,-0.744911,0.000000,-0.750000,-0.500000,-0.750000,-0.500000,0.750000,0.000000,0.750000,0.000000,0.744911,0.000000,0.744911,
$1*%
G04 Aperture macros list end*
%ADD10C,0.254000*%
%ADD11C,0.150000*%
%ADD12C,0.200000*%
%ADD13C,0.300000*%
%ADD14C,0.120000*%
%ADD15C,0.127000*%
%ADD16RoundRect,0.250000X-0.450000X0.350000X-0.450000X-0.350000X0.450000X-0.350000X0.450000X0.350000X0*%
%ADD17C,1.700000*%
%ADD18O,1.700000X1.700000*%
%ADD19RoundRect,0.250000X0.350000X0.450000X-0.350000X0.450000X-0.350000X-0.450000X0.350000X-0.450000X0*%
%ADD20FreePoly0,180.000000*%
%ADD21FreePoly1,180.000000*%
%ADD22RoundRect,0.008200X0.731800X0.196800X-0.731800X0.196800X-0.731800X-0.196800X0.731800X-0.196800X0*%
%ADD23RoundRect,0.008200X-0.731800X-0.196800X0.731800X-0.196800X0.731800X0.196800X-0.731800X0.196800X0*%
%ADD24FreePoly0,0.000000*%
%ADD25FreePoly1,0.000000*%
%ADD26R,1.700000X1.700000*%
%ADD27RoundRect,0.250000X-0.475000X0.337500X-0.475000X-0.337500X0.475000X-0.337500X0.475000X0.337500X0*%
%ADD28O,2.997200X1.498600*%
%ADD29O,1.498600X2.997200*%
%ADD30C,6.350000*%
G04 APERTURE END LIST*
D10*
X173520840Y-72410210D02*
X173520840Y-72663950D01*
D11*
X132870000Y-118715000D02*
X132870000Y-122355000D01*
D10*
X124245090Y-73679700D02*
X124752840Y-73679700D01*
X123229350Y-72156210D02*
X123483350Y-72156210D01*
X128004000Y-125265255D02*
X127496000Y-125265255D01*
D11*
X136370000Y-118715000D02*
X136370000Y-122355000D01*
D10*
X171997350Y-72156210D02*
X171489350Y-72156210D01*
D11*
X134620000Y-118715000D02*
X134620000Y-122355000D01*
D10*
X172759090Y-73679700D02*
X172505090Y-73425700D01*
D11*
X130970000Y-118720000D02*
X140010000Y-118720000D01*
X140010000Y-122350000D01*
X130970000Y-122350000D01*
X130970000Y-118720000D01*
D10*
X173266840Y-73679700D02*
X172759090Y-73679700D01*
D11*
X130960000Y-120530000D02*
X140000000Y-120530000D01*
D10*
X171489350Y-72156210D02*
X171743350Y-72156210D01*
X171489350Y-73679700D02*
X171235600Y-73679700D01*
X127242250Y-126788745D02*
X126988250Y-126534745D01*
X123229350Y-73679700D02*
X122975600Y-73679700D01*
X127496000Y-125265255D02*
X127750000Y-125265255D01*
X129273490Y-125265255D02*
X128765740Y-125265255D01*
X173520840Y-73171950D02*
X173520840Y-73425700D01*
X127496000Y-126788745D02*
X127242250Y-126788745D01*
X171743350Y-72156210D02*
X171743350Y-73425700D01*
X123483350Y-73425700D02*
X123229350Y-73679700D01*
X124499090Y-73679700D02*
X124499090Y-72156210D01*
X128511740Y-126788745D02*
X129527490Y-125772995D01*
X128765740Y-125265255D02*
X128511740Y-125519255D01*
D11*
X138120000Y-118715000D02*
X138120000Y-122355000D01*
D10*
X171235600Y-73679700D02*
X170981600Y-73425700D01*
X123483350Y-72156210D02*
X123483350Y-73425700D01*
X173266840Y-72917950D02*
X173520840Y-73171950D01*
X129527490Y-125772995D02*
X129527490Y-125519255D01*
X173012840Y-72917950D02*
X173266840Y-72917950D01*
X123737350Y-72156210D02*
X123229350Y-72156210D01*
X122975600Y-73679700D02*
X122721600Y-73425700D01*
X129527490Y-126788745D02*
X128511740Y-126788745D01*
X172759090Y-72156210D02*
X173266840Y-72156210D01*
X173266840Y-72156210D02*
X173520840Y-72410210D01*
X127750000Y-125265255D02*
X127750000Y-126534745D01*
X124499090Y-72156210D02*
X124245090Y-72410210D01*
X173520840Y-73425700D02*
X173266840Y-73679700D01*
X173520840Y-72663950D02*
X173266840Y-72917950D01*
X171743350Y-73425700D02*
X171489350Y-73679700D01*
X172505090Y-72410210D02*
X172759090Y-72156210D01*
X127750000Y-126534745D02*
X127496000Y-126788745D01*
X129527490Y-125519255D02*
X129273490Y-125265255D01*
X173266840Y-72917950D02*
X173012840Y-72917950D01*
X124752840Y-73679700D02*
X124499090Y-73679700D01*
D11*
X131434295Y-118005125D02*
X132234295Y-117738458D01*
X132234295Y-117738458D02*
X131434295Y-117471792D01*
X132234295Y-117205125D02*
X131434295Y-117205125D01*
X131434295Y-117205125D02*
X131434295Y-117014649D01*
X131434295Y-117014649D02*
X131472390Y-116900363D01*
X131472390Y-116900363D02*
X131548580Y-116824173D01*
X131548580Y-116824173D02*
X131624771Y-116786078D01*
X131624771Y-116786078D02*
X131777152Y-116747982D01*
X131777152Y-116747982D02*
X131891438Y-116747982D01*
X131891438Y-116747982D02*
X132043819Y-116786078D01*
X132043819Y-116786078D02*
X132120009Y-116824173D01*
X132120009Y-116824173D02*
X132196200Y-116900363D01*
X132196200Y-116900363D02*
X132234295Y-117014649D01*
X132234295Y-117014649D02*
X132234295Y-117205125D01*
X132234295Y-116405125D02*
X131434295Y-116405125D01*
X131434295Y-116405125D02*
X131434295Y-116214649D01*
X131434295Y-116214649D02*
X131472390Y-116100363D01*
X131472390Y-116100363D02*
X131548580Y-116024173D01*
X131548580Y-116024173D02*
X131624771Y-115986078D01*
X131624771Y-115986078D02*
X131777152Y-115947982D01*
X131777152Y-115947982D02*
X131891438Y-115947982D01*
X131891438Y-115947982D02*
X132043819Y-115986078D01*
X132043819Y-115986078D02*
X132120009Y-116024173D01*
X132120009Y-116024173D02*
X132196200Y-116100363D01*
X132196200Y-116100363D02*
X132234295Y-116214649D01*
X132234295Y-116214649D02*
X132234295Y-116405125D01*
X129118207Y-100332390D02*
X129042017Y-100294295D01*
X129042017Y-100294295D02*
X128927731Y-100294295D01*
X128927731Y-100294295D02*
X128813445Y-100332390D01*
X128813445Y-100332390D02*
X128737255Y-100408580D01*
X128737255Y-100408580D02*
X128699160Y-100484771D01*
X128699160Y-100484771D02*
X128661064Y-100637152D01*
X128661064Y-100637152D02*
X128661064Y-100751438D01*
X128661064Y-100751438D02*
X128699160Y-100903819D01*
X128699160Y-100903819D02*
X128737255Y-100980009D01*
X128737255Y-100980009D02*
X128813445Y-101056200D01*
X128813445Y-101056200D02*
X128927731Y-101094295D01*
X128927731Y-101094295D02*
X129003922Y-101094295D01*
X129003922Y-101094295D02*
X129118207Y-101056200D01*
X129118207Y-101056200D02*
X129156303Y-101018104D01*
X129156303Y-101018104D02*
X129156303Y-100751438D01*
X129156303Y-100751438D02*
X129003922Y-100751438D01*
X129499160Y-101094295D02*
X129499160Y-100294295D01*
X129499160Y-100294295D02*
X129803922Y-100294295D01*
X129803922Y-100294295D02*
X129880112Y-100332390D01*
X129880112Y-100332390D02*
X129918207Y-100370485D01*
X129918207Y-100370485D02*
X129956303Y-100446676D01*
X129956303Y-100446676D02*
X129956303Y-100560961D01*
X129956303Y-100560961D02*
X129918207Y-100637152D01*
X129918207Y-100637152D02*
X129880112Y-100675247D01*
X129880112Y-100675247D02*
X129803922Y-100713342D01*
X129803922Y-100713342D02*
X129499160Y-100713342D01*
X130299160Y-101094295D02*
X130299160Y-100294295D01*
X130832493Y-100294295D02*
X130984874Y-100294295D01*
X130984874Y-100294295D02*
X131061064Y-100332390D01*
X131061064Y-100332390D02*
X131137255Y-100408580D01*
X131137255Y-100408580D02*
X131175350Y-100560961D01*
X131175350Y-100560961D02*
X131175350Y-100827628D01*
X131175350Y-100827628D02*
X131137255Y-100980009D01*
X131137255Y-100980009D02*
X131061064Y-101056200D01*
X131061064Y-101056200D02*
X130984874Y-101094295D01*
X130984874Y-101094295D02*
X130832493Y-101094295D01*
X130832493Y-101094295D02*
X130756302Y-101056200D01*
X130756302Y-101056200D02*
X130680112Y-100980009D01*
X130680112Y-100980009D02*
X130642016Y-100827628D01*
X130642016Y-100827628D02*
X130642016Y-100560961D01*
X130642016Y-100560961D02*
X130680112Y-100408580D01*
X130680112Y-100408580D02*
X130756302Y-100332390D01*
X130756302Y-100332390D02*
X130832493Y-100294295D01*
X131861064Y-100560961D02*
X131861064Y-101094295D01*
X131670588Y-100256200D02*
X131480111Y-100827628D01*
X131480111Y-100827628D02*
X131975350Y-100827628D01*
X133232493Y-101056200D02*
X133156302Y-101094295D01*
X133156302Y-101094295D02*
X133003921Y-101094295D01*
X133003921Y-101094295D02*
X132927731Y-101056200D01*
X132927731Y-101056200D02*
X132889636Y-101018104D01*
X132889636Y-101018104D02*
X132851540Y-100941914D01*
X132851540Y-100941914D02*
X132851540Y-100713342D01*
X132851540Y-100713342D02*
X132889636Y-100637152D01*
X132889636Y-100637152D02*
X132927731Y-100599057D01*
X132927731Y-100599057D02*
X133003921Y-100560961D01*
X133003921Y-100560961D02*
X133156302Y-100560961D01*
X133156302Y-100560961D02*
X133232493Y-100599057D01*
X133689635Y-101094295D02*
X133613445Y-101056200D01*
X133613445Y-101056200D02*
X133575350Y-101018104D01*
X133575350Y-101018104D02*
X133537254Y-100941914D01*
X133537254Y-100941914D02*
X133537254Y-100713342D01*
X133537254Y-100713342D02*
X133575350Y-100637152D01*
X133575350Y-100637152D02*
X133613445Y-100599057D01*
X133613445Y-100599057D02*
X133689635Y-100560961D01*
X133689635Y-100560961D02*
X133803921Y-100560961D01*
X133803921Y-100560961D02*
X133880112Y-100599057D01*
X133880112Y-100599057D02*
X133918207Y-100637152D01*
X133918207Y-100637152D02*
X133956302Y-100713342D01*
X133956302Y-100713342D02*
X133956302Y-100941914D01*
X133956302Y-100941914D02*
X133918207Y-101018104D01*
X133918207Y-101018104D02*
X133880112Y-101056200D01*
X133880112Y-101056200D02*
X133803921Y-101094295D01*
X133803921Y-101094295D02*
X133689635Y-101094295D01*
X134299160Y-100560961D02*
X134299160Y-101094295D01*
X134299160Y-100637152D02*
X134337255Y-100599057D01*
X134337255Y-100599057D02*
X134413445Y-100560961D01*
X134413445Y-100560961D02*
X134527731Y-100560961D01*
X134527731Y-100560961D02*
X134603922Y-100599057D01*
X134603922Y-100599057D02*
X134642017Y-100675247D01*
X134642017Y-100675247D02*
X134642017Y-101094295D01*
X135022970Y-100560961D02*
X135022970Y-101094295D01*
X135022970Y-100637152D02*
X135061065Y-100599057D01*
X135061065Y-100599057D02*
X135137255Y-100560961D01*
X135137255Y-100560961D02*
X135251541Y-100560961D01*
X135251541Y-100560961D02*
X135327732Y-100599057D01*
X135327732Y-100599057D02*
X135365827Y-100675247D01*
X135365827Y-100675247D02*
X135365827Y-101094295D01*
X136051542Y-101056200D02*
X135975351Y-101094295D01*
X135975351Y-101094295D02*
X135822970Y-101094295D01*
X135822970Y-101094295D02*
X135746780Y-101056200D01*
X135746780Y-101056200D02*
X135708684Y-100980009D01*
X135708684Y-100980009D02*
X135708684Y-100675247D01*
X135708684Y-100675247D02*
X135746780Y-100599057D01*
X135746780Y-100599057D02*
X135822970Y-100560961D01*
X135822970Y-100560961D02*
X135975351Y-100560961D01*
X135975351Y-100560961D02*
X136051542Y-100599057D01*
X136051542Y-100599057D02*
X136089637Y-100675247D01*
X136089637Y-100675247D02*
X136089637Y-100751438D01*
X136089637Y-100751438D02*
X135708684Y-100827628D01*
X136775351Y-101056200D02*
X136699160Y-101094295D01*
X136699160Y-101094295D02*
X136546779Y-101094295D01*
X136546779Y-101094295D02*
X136470589Y-101056200D01*
X136470589Y-101056200D02*
X136432494Y-101018104D01*
X136432494Y-101018104D02*
X136394398Y-100941914D01*
X136394398Y-100941914D02*
X136394398Y-100713342D01*
X136394398Y-100713342D02*
X136432494Y-100637152D01*
X136432494Y-100637152D02*
X136470589Y-100599057D01*
X136470589Y-100599057D02*
X136546779Y-100560961D01*
X136546779Y-100560961D02*
X136699160Y-100560961D01*
X136699160Y-100560961D02*
X136775351Y-100599057D01*
X137003922Y-100560961D02*
X137308684Y-100560961D01*
X137118208Y-100294295D02*
X137118208Y-100980009D01*
X137118208Y-100980009D02*
X137156303Y-101056200D01*
X137156303Y-101056200D02*
X137232493Y-101094295D01*
X137232493Y-101094295D02*
X137308684Y-101094295D01*
X157791541Y-108219819D02*
X158410588Y-108219819D01*
X158410588Y-108219819D02*
X158077255Y-108600771D01*
X158077255Y-108600771D02*
X158220112Y-108600771D01*
X158220112Y-108600771D02*
X158315350Y-108648390D01*
X158315350Y-108648390D02*
X158362969Y-108696009D01*
X158362969Y-108696009D02*
X158410588Y-108791247D01*
X158410588Y-108791247D02*
X158410588Y-109029342D01*
X158410588Y-109029342D02*
X158362969Y-109124580D01*
X158362969Y-109124580D02*
X158315350Y-109172200D01*
X158315350Y-109172200D02*
X158220112Y-109219819D01*
X158220112Y-109219819D02*
X157934398Y-109219819D01*
X157934398Y-109219819D02*
X157839160Y-109172200D01*
X157839160Y-109172200D02*
X157791541Y-109124580D01*
X158839160Y-109124580D02*
X158886779Y-109172200D01*
X158886779Y-109172200D02*
X158839160Y-109219819D01*
X158839160Y-109219819D02*
X158791541Y-109172200D01*
X158791541Y-109172200D02*
X158839160Y-109124580D01*
X158839160Y-109124580D02*
X158839160Y-109219819D01*
X159220112Y-108219819D02*
X159839159Y-108219819D01*
X159839159Y-108219819D02*
X159505826Y-108600771D01*
X159505826Y-108600771D02*
X159648683Y-108600771D01*
X159648683Y-108600771D02*
X159743921Y-108648390D01*
X159743921Y-108648390D02*
X159791540Y-108696009D01*
X159791540Y-108696009D02*
X159839159Y-108791247D01*
X159839159Y-108791247D02*
X159839159Y-109029342D01*
X159839159Y-109029342D02*
X159791540Y-109124580D01*
X159791540Y-109124580D02*
X159743921Y-109172200D01*
X159743921Y-109172200D02*
X159648683Y-109219819D01*
X159648683Y-109219819D02*
X159362969Y-109219819D01*
X159362969Y-109219819D02*
X159267731Y-109172200D01*
X159267731Y-109172200D02*
X159220112Y-109124580D01*
X160172493Y-108553152D02*
X160410588Y-109219819D01*
X160410588Y-109219819D02*
X160648683Y-108553152D01*
X138947255Y-121744295D02*
X139099636Y-121744295D01*
X139099636Y-121744295D02*
X139175826Y-121706200D01*
X139175826Y-121706200D02*
X139213922Y-121668104D01*
X139213922Y-121668104D02*
X139290112Y-121553819D01*
X139290112Y-121553819D02*
X139328207Y-121401438D01*
X139328207Y-121401438D02*
X139328207Y-121096676D01*
X139328207Y-121096676D02*
X139290112Y-121020485D01*
X139290112Y-121020485D02*
X139252017Y-120982390D01*
X139252017Y-120982390D02*
X139175826Y-120944295D01*
X139175826Y-120944295D02*
X139023445Y-120944295D01*
X139023445Y-120944295D02*
X138947255Y-120982390D01*
X138947255Y-120982390D02*
X138909160Y-121020485D01*
X138909160Y-121020485D02*
X138871064Y-121096676D01*
X138871064Y-121096676D02*
X138871064Y-121287152D01*
X138871064Y-121287152D02*
X138909160Y-121363342D01*
X138909160Y-121363342D02*
X138947255Y-121401438D01*
X138947255Y-121401438D02*
X139023445Y-121439533D01*
X139023445Y-121439533D02*
X139175826Y-121439533D01*
X139175826Y-121439533D02*
X139252017Y-121401438D01*
X139252017Y-121401438D02*
X139290112Y-121363342D01*
X139290112Y-121363342D02*
X139328207Y-121287152D01*
X164874295Y-126615125D02*
X164874295Y-126157982D01*
X165674295Y-126386554D02*
X164874295Y-126386554D01*
X164874295Y-125967506D02*
X165674295Y-125434172D01*
X164874295Y-125434172D02*
X165674295Y-125967506D01*
X138432390Y-117591792D02*
X138394295Y-117667982D01*
X138394295Y-117667982D02*
X138394295Y-117782268D01*
X138394295Y-117782268D02*
X138432390Y-117896554D01*
X138432390Y-117896554D02*
X138508580Y-117972744D01*
X138508580Y-117972744D02*
X138584771Y-118010839D01*
X138584771Y-118010839D02*
X138737152Y-118048935D01*
X138737152Y-118048935D02*
X138851438Y-118048935D01*
X138851438Y-118048935D02*
X139003819Y-118010839D01*
X139003819Y-118010839D02*
X139080009Y-117972744D01*
X139080009Y-117972744D02*
X139156200Y-117896554D01*
X139156200Y-117896554D02*
X139194295Y-117782268D01*
X139194295Y-117782268D02*
X139194295Y-117706077D01*
X139194295Y-117706077D02*
X139156200Y-117591792D01*
X139156200Y-117591792D02*
X139118104Y-117553696D01*
X139118104Y-117553696D02*
X138851438Y-117553696D01*
X138851438Y-117553696D02*
X138851438Y-117706077D01*
X139194295Y-117210839D02*
X138394295Y-117210839D01*
X138394295Y-117210839D02*
X139194295Y-116753696D01*
X139194295Y-116753696D02*
X138394295Y-116753696D01*
X139194295Y-116372744D02*
X138394295Y-116372744D01*
X138394295Y-116372744D02*
X138394295Y-116182268D01*
X138394295Y-116182268D02*
X138432390Y-116067982D01*
X138432390Y-116067982D02*
X138508580Y-115991792D01*
X138508580Y-115991792D02*
X138584771Y-115953697D01*
X138584771Y-115953697D02*
X138737152Y-115915601D01*
X138737152Y-115915601D02*
X138851438Y-115915601D01*
X138851438Y-115915601D02*
X139003819Y-115953697D01*
X139003819Y-115953697D02*
X139080009Y-115991792D01*
X139080009Y-115991792D02*
X139156200Y-116067982D01*
X139156200Y-116067982D02*
X139194295Y-116182268D01*
X139194295Y-116182268D02*
X139194295Y-116372744D01*
X163044295Y-126540839D02*
X162244295Y-126540839D01*
X162968104Y-125702744D02*
X163006200Y-125740840D01*
X163006200Y-125740840D02*
X163044295Y-125855125D01*
X163044295Y-125855125D02*
X163044295Y-125931316D01*
X163044295Y-125931316D02*
X163006200Y-126045602D01*
X163006200Y-126045602D02*
X162930009Y-126121792D01*
X162930009Y-126121792D02*
X162853819Y-126159887D01*
X162853819Y-126159887D02*
X162701438Y-126197983D01*
X162701438Y-126197983D02*
X162587152Y-126197983D01*
X162587152Y-126197983D02*
X162434771Y-126159887D01*
X162434771Y-126159887D02*
X162358580Y-126121792D01*
X162358580Y-126121792D02*
X162282390Y-126045602D01*
X162282390Y-126045602D02*
X162244295Y-125931316D01*
X162244295Y-125931316D02*
X162244295Y-125855125D01*
X162244295Y-125855125D02*
X162282390Y-125740840D01*
X162282390Y-125740840D02*
X162320485Y-125702744D01*
X162625247Y-125359887D02*
X162625247Y-125093221D01*
X163044295Y-124978935D02*
X163044295Y-125359887D01*
X163044295Y-125359887D02*
X162244295Y-125359887D01*
X162244295Y-125359887D02*
X162244295Y-124978935D01*
X163120485Y-124826554D02*
X163120485Y-124217030D01*
X162968104Y-123569410D02*
X163006200Y-123607506D01*
X163006200Y-123607506D02*
X163044295Y-123721791D01*
X163044295Y-123721791D02*
X163044295Y-123797982D01*
X163044295Y-123797982D02*
X163006200Y-123912268D01*
X163006200Y-123912268D02*
X162930009Y-123988458D01*
X162930009Y-123988458D02*
X162853819Y-124026553D01*
X162853819Y-124026553D02*
X162701438Y-124064649D01*
X162701438Y-124064649D02*
X162587152Y-124064649D01*
X162587152Y-124064649D02*
X162434771Y-124026553D01*
X162434771Y-124026553D02*
X162358580Y-123988458D01*
X162358580Y-123988458D02*
X162282390Y-123912268D01*
X162282390Y-123912268D02*
X162244295Y-123797982D01*
X162244295Y-123797982D02*
X162244295Y-123721791D01*
X162244295Y-123721791D02*
X162282390Y-123607506D01*
X162282390Y-123607506D02*
X162320485Y-123569410D01*
X163044295Y-122845601D02*
X163044295Y-123226553D01*
X163044295Y-123226553D02*
X162244295Y-123226553D01*
X163044295Y-122578934D02*
X162244295Y-122578934D01*
X163044295Y-122121791D02*
X162587152Y-122464649D01*
X162244295Y-122121791D02*
X162701438Y-122578934D01*
D10*
X135323713Y-66573003D02*
X135323713Y-65049003D01*
X135323713Y-65049003D02*
X136194570Y-66573003D01*
X136194570Y-66573003D02*
X136194570Y-65049003D01*
X136775141Y-65049003D02*
X137791141Y-65049003D01*
X137791141Y-65049003D02*
X137137998Y-66573003D01*
X139024856Y-65049003D02*
X138734570Y-65049003D01*
X138734570Y-65049003D02*
X138589427Y-65121574D01*
X138589427Y-65121574D02*
X138516856Y-65194146D01*
X138516856Y-65194146D02*
X138371713Y-65411860D01*
X138371713Y-65411860D02*
X138299141Y-65702146D01*
X138299141Y-65702146D02*
X138299141Y-66282717D01*
X138299141Y-66282717D02*
X138371713Y-66427860D01*
X138371713Y-66427860D02*
X138444284Y-66500432D01*
X138444284Y-66500432D02*
X138589427Y-66573003D01*
X138589427Y-66573003D02*
X138879713Y-66573003D01*
X138879713Y-66573003D02*
X139024856Y-66500432D01*
X139024856Y-66500432D02*
X139097427Y-66427860D01*
X139097427Y-66427860D02*
X139169998Y-66282717D01*
X139169998Y-66282717D02*
X139169998Y-65919860D01*
X139169998Y-65919860D02*
X139097427Y-65774717D01*
X139097427Y-65774717D02*
X139024856Y-65702146D01*
X139024856Y-65702146D02*
X138879713Y-65629574D01*
X138879713Y-65629574D02*
X138589427Y-65629574D01*
X138589427Y-65629574D02*
X138444284Y-65702146D01*
X138444284Y-65702146D02*
X138371713Y-65774717D01*
X138371713Y-65774717D02*
X138299141Y-65919860D01*
X139823142Y-65774717D02*
X140331142Y-65774717D01*
X140548856Y-66573003D02*
X139823142Y-66573003D01*
X139823142Y-66573003D02*
X139823142Y-65049003D01*
X139823142Y-65049003D02*
X140548856Y-65049003D01*
X141492284Y-65049003D02*
X141637427Y-65049003D01*
X141637427Y-65049003D02*
X141782570Y-65121574D01*
X141782570Y-65121574D02*
X141855142Y-65194146D01*
X141855142Y-65194146D02*
X141927713Y-65339289D01*
X141927713Y-65339289D02*
X142000284Y-65629574D01*
X142000284Y-65629574D02*
X142000284Y-65992432D01*
X142000284Y-65992432D02*
X141927713Y-66282717D01*
X141927713Y-66282717D02*
X141855142Y-66427860D01*
X141855142Y-66427860D02*
X141782570Y-66500432D01*
X141782570Y-66500432D02*
X141637427Y-66573003D01*
X141637427Y-66573003D02*
X141492284Y-66573003D01*
X141492284Y-66573003D02*
X141347142Y-66500432D01*
X141347142Y-66500432D02*
X141274570Y-66427860D01*
X141274570Y-66427860D02*
X141201999Y-66282717D01*
X141201999Y-66282717D02*
X141129427Y-65992432D01*
X141129427Y-65992432D02*
X141129427Y-65629574D01*
X141129427Y-65629574D02*
X141201999Y-65339289D01*
X141201999Y-65339289D02*
X141274570Y-65194146D01*
X141274570Y-65194146D02*
X141347142Y-65121574D01*
X141347142Y-65121574D02*
X141492284Y-65049003D01*
X142943713Y-65049003D02*
X143088856Y-65049003D01*
X143088856Y-65049003D02*
X143233999Y-65121574D01*
X143233999Y-65121574D02*
X143306571Y-65194146D01*
X143306571Y-65194146D02*
X143379142Y-65339289D01*
X143379142Y-65339289D02*
X143451713Y-65629574D01*
X143451713Y-65629574D02*
X143451713Y-65992432D01*
X143451713Y-65992432D02*
X143379142Y-66282717D01*
X143379142Y-66282717D02*
X143306571Y-66427860D01*
X143306571Y-66427860D02*
X143233999Y-66500432D01*
X143233999Y-66500432D02*
X143088856Y-66573003D01*
X143088856Y-66573003D02*
X142943713Y-66573003D01*
X142943713Y-66573003D02*
X142798571Y-66500432D01*
X142798571Y-66500432D02*
X142725999Y-66427860D01*
X142725999Y-66427860D02*
X142653428Y-66282717D01*
X142653428Y-66282717D02*
X142580856Y-65992432D01*
X142580856Y-65992432D02*
X142580856Y-65629574D01*
X142580856Y-65629574D02*
X142653428Y-65339289D01*
X142653428Y-65339289D02*
X142725999Y-65194146D01*
X142725999Y-65194146D02*
X142798571Y-65121574D01*
X142798571Y-65121574D02*
X142943713Y-65049003D01*
X143959714Y-65049003D02*
X144903142Y-65049003D01*
X144903142Y-65049003D02*
X144395142Y-65629574D01*
X144395142Y-65629574D02*
X144612857Y-65629574D01*
X144612857Y-65629574D02*
X144758000Y-65702146D01*
X144758000Y-65702146D02*
X144830571Y-65774717D01*
X144830571Y-65774717D02*
X144903142Y-65919860D01*
X144903142Y-65919860D02*
X144903142Y-66282717D01*
X144903142Y-66282717D02*
X144830571Y-66427860D01*
X144830571Y-66427860D02*
X144758000Y-66500432D01*
X144758000Y-66500432D02*
X144612857Y-66573003D01*
X144612857Y-66573003D02*
X144177428Y-66573003D01*
X144177428Y-66573003D02*
X144032285Y-66500432D01*
X144032285Y-66500432D02*
X143959714Y-66427860D01*
X146499714Y-65049003D02*
X147370572Y-65049003D01*
X146935143Y-66573003D02*
X146935143Y-65049003D01*
X148531715Y-66573003D02*
X148531715Y-65774717D01*
X148531715Y-65774717D02*
X148459143Y-65629574D01*
X148459143Y-65629574D02*
X148314000Y-65557003D01*
X148314000Y-65557003D02*
X148023715Y-65557003D01*
X148023715Y-65557003D02*
X147878572Y-65629574D01*
X148531715Y-66500432D02*
X148386572Y-66573003D01*
X148386572Y-66573003D02*
X148023715Y-66573003D01*
X148023715Y-66573003D02*
X147878572Y-66500432D01*
X147878572Y-66500432D02*
X147806000Y-66355289D01*
X147806000Y-66355289D02*
X147806000Y-66210146D01*
X147806000Y-66210146D02*
X147878572Y-66065003D01*
X147878572Y-66065003D02*
X148023715Y-65992432D01*
X148023715Y-65992432D02*
X148386572Y-65992432D01*
X148386572Y-65992432D02*
X148531715Y-65919860D01*
X149257429Y-66573003D02*
X149257429Y-65557003D01*
X149257429Y-65847289D02*
X149330000Y-65702146D01*
X149330000Y-65702146D02*
X149402572Y-65629574D01*
X149402572Y-65629574D02*
X149547714Y-65557003D01*
X149547714Y-65557003D02*
X149692857Y-65557003D01*
X150854001Y-65557003D02*
X150854001Y-66790717D01*
X150854001Y-66790717D02*
X150781429Y-66935860D01*
X150781429Y-66935860D02*
X150708858Y-67008432D01*
X150708858Y-67008432D02*
X150563715Y-67081003D01*
X150563715Y-67081003D02*
X150346001Y-67081003D01*
X150346001Y-67081003D02*
X150200858Y-67008432D01*
X150854001Y-66500432D02*
X150708858Y-66573003D01*
X150708858Y-66573003D02*
X150418572Y-66573003D01*
X150418572Y-66573003D02*
X150273429Y-66500432D01*
X150273429Y-66500432D02*
X150200858Y-66427860D01*
X150200858Y-66427860D02*
X150128286Y-66282717D01*
X150128286Y-66282717D02*
X150128286Y-65847289D01*
X150128286Y-65847289D02*
X150200858Y-65702146D01*
X150200858Y-65702146D02*
X150273429Y-65629574D01*
X150273429Y-65629574D02*
X150418572Y-65557003D01*
X150418572Y-65557003D02*
X150708858Y-65557003D01*
X150708858Y-65557003D02*
X150854001Y-65629574D01*
X152160286Y-66500432D02*
X152015143Y-66573003D01*
X152015143Y-66573003D02*
X151724858Y-66573003D01*
X151724858Y-66573003D02*
X151579715Y-66500432D01*
X151579715Y-66500432D02*
X151507143Y-66355289D01*
X151507143Y-66355289D02*
X151507143Y-65774717D01*
X151507143Y-65774717D02*
X151579715Y-65629574D01*
X151579715Y-65629574D02*
X151724858Y-65557003D01*
X151724858Y-65557003D02*
X152015143Y-65557003D01*
X152015143Y-65557003D02*
X152160286Y-65629574D01*
X152160286Y-65629574D02*
X152232858Y-65774717D01*
X152232858Y-65774717D02*
X152232858Y-65919860D01*
X152232858Y-65919860D02*
X151507143Y-66065003D01*
X152668286Y-65557003D02*
X153248858Y-65557003D01*
X152886001Y-65049003D02*
X152886001Y-66355289D01*
X152886001Y-66355289D02*
X152958572Y-66500432D01*
X152958572Y-66500432D02*
X153103715Y-66573003D01*
X153103715Y-66573003D02*
X153248858Y-66573003D01*
X155426001Y-65774717D02*
X155643715Y-65847289D01*
X155643715Y-65847289D02*
X155716286Y-65919860D01*
X155716286Y-65919860D02*
X155788858Y-66065003D01*
X155788858Y-66065003D02*
X155788858Y-66282717D01*
X155788858Y-66282717D02*
X155716286Y-66427860D01*
X155716286Y-66427860D02*
X155643715Y-66500432D01*
X155643715Y-66500432D02*
X155498572Y-66573003D01*
X155498572Y-66573003D02*
X154918001Y-66573003D01*
X154918001Y-66573003D02*
X154918001Y-65049003D01*
X154918001Y-65049003D02*
X155426001Y-65049003D01*
X155426001Y-65049003D02*
X155571144Y-65121574D01*
X155571144Y-65121574D02*
X155643715Y-65194146D01*
X155643715Y-65194146D02*
X155716286Y-65339289D01*
X155716286Y-65339289D02*
X155716286Y-65484432D01*
X155716286Y-65484432D02*
X155643715Y-65629574D01*
X155643715Y-65629574D02*
X155571144Y-65702146D01*
X155571144Y-65702146D02*
X155426001Y-65774717D01*
X155426001Y-65774717D02*
X154918001Y-65774717D01*
X156659715Y-66573003D02*
X156514572Y-66500432D01*
X156514572Y-66500432D02*
X156442001Y-66427860D01*
X156442001Y-66427860D02*
X156369429Y-66282717D01*
X156369429Y-66282717D02*
X156369429Y-65847289D01*
X156369429Y-65847289D02*
X156442001Y-65702146D01*
X156442001Y-65702146D02*
X156514572Y-65629574D01*
X156514572Y-65629574D02*
X156659715Y-65557003D01*
X156659715Y-65557003D02*
X156877429Y-65557003D01*
X156877429Y-65557003D02*
X157022572Y-65629574D01*
X157022572Y-65629574D02*
X157095144Y-65702146D01*
X157095144Y-65702146D02*
X157167715Y-65847289D01*
X157167715Y-65847289D02*
X157167715Y-66282717D01*
X157167715Y-66282717D02*
X157095144Y-66427860D01*
X157095144Y-66427860D02*
X157022572Y-66500432D01*
X157022572Y-66500432D02*
X156877429Y-66573003D01*
X156877429Y-66573003D02*
X156659715Y-66573003D01*
X158474001Y-66573003D02*
X158474001Y-65774717D01*
X158474001Y-65774717D02*
X158401429Y-65629574D01*
X158401429Y-65629574D02*
X158256286Y-65557003D01*
X158256286Y-65557003D02*
X157966001Y-65557003D01*
X157966001Y-65557003D02*
X157820858Y-65629574D01*
X158474001Y-66500432D02*
X158328858Y-66573003D01*
X158328858Y-66573003D02*
X157966001Y-66573003D01*
X157966001Y-66573003D02*
X157820858Y-66500432D01*
X157820858Y-66500432D02*
X157748286Y-66355289D01*
X157748286Y-66355289D02*
X157748286Y-66210146D01*
X157748286Y-66210146D02*
X157820858Y-66065003D01*
X157820858Y-66065003D02*
X157966001Y-65992432D01*
X157966001Y-65992432D02*
X158328858Y-65992432D01*
X158328858Y-65992432D02*
X158474001Y-65919860D01*
X159199715Y-66573003D02*
X159199715Y-65557003D01*
X159199715Y-65847289D02*
X159272286Y-65702146D01*
X159272286Y-65702146D02*
X159344858Y-65629574D01*
X159344858Y-65629574D02*
X159490000Y-65557003D01*
X159490000Y-65557003D02*
X159635143Y-65557003D01*
X160796287Y-66573003D02*
X160796287Y-65049003D01*
X160796287Y-66500432D02*
X160651144Y-66573003D01*
X160651144Y-66573003D02*
X160360858Y-66573003D01*
X160360858Y-66573003D02*
X160215715Y-66500432D01*
X160215715Y-66500432D02*
X160143144Y-66427860D01*
X160143144Y-66427860D02*
X160070572Y-66282717D01*
X160070572Y-66282717D02*
X160070572Y-65847289D01*
X160070572Y-65847289D02*
X160143144Y-65702146D01*
X160143144Y-65702146D02*
X160215715Y-65629574D01*
X160215715Y-65629574D02*
X160360858Y-65557003D01*
X160360858Y-65557003D02*
X160651144Y-65557003D01*
X160651144Y-65557003D02*
X160796287Y-65629574D01*
X138553143Y-68228357D02*
X138045143Y-68228357D01*
X138045143Y-69026643D02*
X138045143Y-67502643D01*
X138045143Y-67502643D02*
X138770857Y-67502643D01*
X139569143Y-69026643D02*
X139424000Y-68954072D01*
X139424000Y-68954072D02*
X139351429Y-68881500D01*
X139351429Y-68881500D02*
X139278857Y-68736357D01*
X139278857Y-68736357D02*
X139278857Y-68300929D01*
X139278857Y-68300929D02*
X139351429Y-68155786D01*
X139351429Y-68155786D02*
X139424000Y-68083214D01*
X139424000Y-68083214D02*
X139569143Y-68010643D01*
X139569143Y-68010643D02*
X139786857Y-68010643D01*
X139786857Y-68010643D02*
X139932000Y-68083214D01*
X139932000Y-68083214D02*
X140004572Y-68155786D01*
X140004572Y-68155786D02*
X140077143Y-68300929D01*
X140077143Y-68300929D02*
X140077143Y-68736357D01*
X140077143Y-68736357D02*
X140004572Y-68881500D01*
X140004572Y-68881500D02*
X139932000Y-68954072D01*
X139932000Y-68954072D02*
X139786857Y-69026643D01*
X139786857Y-69026643D02*
X139569143Y-69026643D01*
X140730286Y-69026643D02*
X140730286Y-68010643D01*
X140730286Y-68300929D02*
X140802857Y-68155786D01*
X140802857Y-68155786D02*
X140875429Y-68083214D01*
X140875429Y-68083214D02*
X141020571Y-68010643D01*
X141020571Y-68010643D02*
X141165714Y-68010643D01*
X143705715Y-68881500D02*
X143633143Y-68954072D01*
X143633143Y-68954072D02*
X143415429Y-69026643D01*
X143415429Y-69026643D02*
X143270286Y-69026643D01*
X143270286Y-69026643D02*
X143052572Y-68954072D01*
X143052572Y-68954072D02*
X142907429Y-68808929D01*
X142907429Y-68808929D02*
X142834858Y-68663786D01*
X142834858Y-68663786D02*
X142762286Y-68373500D01*
X142762286Y-68373500D02*
X142762286Y-68155786D01*
X142762286Y-68155786D02*
X142834858Y-67865500D01*
X142834858Y-67865500D02*
X142907429Y-67720357D01*
X142907429Y-67720357D02*
X143052572Y-67575214D01*
X143052572Y-67575214D02*
X143270286Y-67502643D01*
X143270286Y-67502643D02*
X143415429Y-67502643D01*
X143415429Y-67502643D02*
X143633143Y-67575214D01*
X143633143Y-67575214D02*
X143705715Y-67647786D01*
X144358858Y-69026643D02*
X144358858Y-67502643D01*
X145012001Y-69026643D02*
X145012001Y-68228357D01*
X145012001Y-68228357D02*
X144939429Y-68083214D01*
X144939429Y-68083214D02*
X144794286Y-68010643D01*
X144794286Y-68010643D02*
X144576572Y-68010643D01*
X144576572Y-68010643D02*
X144431429Y-68083214D01*
X144431429Y-68083214D02*
X144358858Y-68155786D01*
X145737715Y-69026643D02*
X145737715Y-68010643D01*
X145737715Y-67502643D02*
X145665143Y-67575214D01*
X145665143Y-67575214D02*
X145737715Y-67647786D01*
X145737715Y-67647786D02*
X145810286Y-67575214D01*
X145810286Y-67575214D02*
X145737715Y-67502643D01*
X145737715Y-67502643D02*
X145737715Y-67647786D01*
X146463429Y-68010643D02*
X146463429Y-69534643D01*
X146463429Y-68083214D02*
X146608572Y-68010643D01*
X146608572Y-68010643D02*
X146898857Y-68010643D01*
X146898857Y-68010643D02*
X147044000Y-68083214D01*
X147044000Y-68083214D02*
X147116572Y-68155786D01*
X147116572Y-68155786D02*
X147189143Y-68300929D01*
X147189143Y-68300929D02*
X147189143Y-68736357D01*
X147189143Y-68736357D02*
X147116572Y-68881500D01*
X147116572Y-68881500D02*
X147044000Y-68954072D01*
X147044000Y-68954072D02*
X146898857Y-69026643D01*
X146898857Y-69026643D02*
X146608572Y-69026643D01*
X146608572Y-69026643D02*
X146463429Y-68954072D01*
X147697143Y-67502643D02*
X148060000Y-69026643D01*
X148060000Y-69026643D02*
X148350286Y-67938072D01*
X148350286Y-67938072D02*
X148640571Y-69026643D01*
X148640571Y-69026643D02*
X149003429Y-67502643D01*
X149584000Y-69026643D02*
X149584000Y-67502643D01*
X150237143Y-69026643D02*
X150237143Y-68228357D01*
X150237143Y-68228357D02*
X150164571Y-68083214D01*
X150164571Y-68083214D02*
X150019428Y-68010643D01*
X150019428Y-68010643D02*
X149801714Y-68010643D01*
X149801714Y-68010643D02*
X149656571Y-68083214D01*
X149656571Y-68083214D02*
X149584000Y-68155786D01*
X150962857Y-69026643D02*
X150962857Y-68010643D01*
X150962857Y-67502643D02*
X150890285Y-67575214D01*
X150890285Y-67575214D02*
X150962857Y-67647786D01*
X150962857Y-67647786D02*
X151035428Y-67575214D01*
X151035428Y-67575214D02*
X150962857Y-67502643D01*
X150962857Y-67502643D02*
X150962857Y-67647786D01*
X151615999Y-68954072D02*
X151761142Y-69026643D01*
X151761142Y-69026643D02*
X152051428Y-69026643D01*
X152051428Y-69026643D02*
X152196571Y-68954072D01*
X152196571Y-68954072D02*
X152269142Y-68808929D01*
X152269142Y-68808929D02*
X152269142Y-68736357D01*
X152269142Y-68736357D02*
X152196571Y-68591214D01*
X152196571Y-68591214D02*
X152051428Y-68518643D01*
X152051428Y-68518643D02*
X151833714Y-68518643D01*
X151833714Y-68518643D02*
X151688571Y-68446072D01*
X151688571Y-68446072D02*
X151615999Y-68300929D01*
X151615999Y-68300929D02*
X151615999Y-68228357D01*
X151615999Y-68228357D02*
X151688571Y-68083214D01*
X151688571Y-68083214D02*
X151833714Y-68010643D01*
X151833714Y-68010643D02*
X152051428Y-68010643D01*
X152051428Y-68010643D02*
X152196571Y-68083214D01*
X152922285Y-68010643D02*
X152922285Y-69534643D01*
X152922285Y-68083214D02*
X153067428Y-68010643D01*
X153067428Y-68010643D02*
X153357713Y-68010643D01*
X153357713Y-68010643D02*
X153502856Y-68083214D01*
X153502856Y-68083214D02*
X153575428Y-68155786D01*
X153575428Y-68155786D02*
X153647999Y-68300929D01*
X153647999Y-68300929D02*
X153647999Y-68736357D01*
X153647999Y-68736357D02*
X153575428Y-68881500D01*
X153575428Y-68881500D02*
X153502856Y-68954072D01*
X153502856Y-68954072D02*
X153357713Y-69026643D01*
X153357713Y-69026643D02*
X153067428Y-69026643D01*
X153067428Y-69026643D02*
X152922285Y-68954072D01*
X154881713Y-68954072D02*
X154736570Y-69026643D01*
X154736570Y-69026643D02*
X154446285Y-69026643D01*
X154446285Y-69026643D02*
X154301142Y-68954072D01*
X154301142Y-68954072D02*
X154228570Y-68808929D01*
X154228570Y-68808929D02*
X154228570Y-68228357D01*
X154228570Y-68228357D02*
X154301142Y-68083214D01*
X154301142Y-68083214D02*
X154446285Y-68010643D01*
X154446285Y-68010643D02*
X154736570Y-68010643D01*
X154736570Y-68010643D02*
X154881713Y-68083214D01*
X154881713Y-68083214D02*
X154954285Y-68228357D01*
X154954285Y-68228357D02*
X154954285Y-68373500D01*
X154954285Y-68373500D02*
X154228570Y-68518643D01*
X155607428Y-69026643D02*
X155607428Y-68010643D01*
X155607428Y-68300929D02*
X155679999Y-68155786D01*
X155679999Y-68155786D02*
X155752571Y-68083214D01*
X155752571Y-68083214D02*
X155897713Y-68010643D01*
X155897713Y-68010643D02*
X156042856Y-68010643D01*
X157131428Y-68954072D02*
X156986285Y-69026643D01*
X156986285Y-69026643D02*
X156696000Y-69026643D01*
X156696000Y-69026643D02*
X156550857Y-68954072D01*
X156550857Y-68954072D02*
X156478285Y-68808929D01*
X156478285Y-68808929D02*
X156478285Y-68228357D01*
X156478285Y-68228357D02*
X156550857Y-68083214D01*
X156550857Y-68083214D02*
X156696000Y-68010643D01*
X156696000Y-68010643D02*
X156986285Y-68010643D01*
X156986285Y-68010643D02*
X157131428Y-68083214D01*
X157131428Y-68083214D02*
X157204000Y-68228357D01*
X157204000Y-68228357D02*
X157204000Y-68373500D01*
X157204000Y-68373500D02*
X156478285Y-68518643D01*
X157857143Y-69026643D02*
X157857143Y-68010643D01*
X157857143Y-68300929D02*
X157929714Y-68155786D01*
X157929714Y-68155786D02*
X158002286Y-68083214D01*
X158002286Y-68083214D02*
X158147428Y-68010643D01*
X158147428Y-68010643D02*
X158292571Y-68010643D01*
X138770857Y-71335140D02*
X138698285Y-71407712D01*
X138698285Y-71407712D02*
X138480571Y-71480283D01*
X138480571Y-71480283D02*
X138335428Y-71480283D01*
X138335428Y-71480283D02*
X138117714Y-71407712D01*
X138117714Y-71407712D02*
X137972571Y-71262569D01*
X137972571Y-71262569D02*
X137900000Y-71117426D01*
X137900000Y-71117426D02*
X137827428Y-70827140D01*
X137827428Y-70827140D02*
X137827428Y-70609426D01*
X137827428Y-70609426D02*
X137900000Y-70319140D01*
X137900000Y-70319140D02*
X137972571Y-70173997D01*
X137972571Y-70173997D02*
X138117714Y-70028854D01*
X138117714Y-70028854D02*
X138335428Y-69956283D01*
X138335428Y-69956283D02*
X138480571Y-69956283D01*
X138480571Y-69956283D02*
X138698285Y-70028854D01*
X138698285Y-70028854D02*
X138770857Y-70101426D01*
X139278857Y-69956283D02*
X139641714Y-71480283D01*
X139641714Y-71480283D02*
X139932000Y-70391712D01*
X139932000Y-70391712D02*
X140222285Y-71480283D01*
X140222285Y-71480283D02*
X140585143Y-69956283D01*
X141020571Y-69956283D02*
X141963999Y-69956283D01*
X141963999Y-69956283D02*
X141455999Y-70536854D01*
X141455999Y-70536854D02*
X141673714Y-70536854D01*
X141673714Y-70536854D02*
X141818857Y-70609426D01*
X141818857Y-70609426D02*
X141891428Y-70681997D01*
X141891428Y-70681997D02*
X141963999Y-70827140D01*
X141963999Y-70827140D02*
X141963999Y-71189997D01*
X141963999Y-71189997D02*
X141891428Y-71335140D01*
X141891428Y-71335140D02*
X141818857Y-71407712D01*
X141818857Y-71407712D02*
X141673714Y-71480283D01*
X141673714Y-71480283D02*
X141238285Y-71480283D01*
X141238285Y-71480283D02*
X141093142Y-71407712D01*
X141093142Y-71407712D02*
X141020571Y-71335140D01*
X142907428Y-69956283D02*
X143052571Y-69956283D01*
X143052571Y-69956283D02*
X143197714Y-70028854D01*
X143197714Y-70028854D02*
X143270286Y-70101426D01*
X143270286Y-70101426D02*
X143342857Y-70246569D01*
X143342857Y-70246569D02*
X143415428Y-70536854D01*
X143415428Y-70536854D02*
X143415428Y-70899712D01*
X143415428Y-70899712D02*
X143342857Y-71189997D01*
X143342857Y-71189997D02*
X143270286Y-71335140D01*
X143270286Y-71335140D02*
X143197714Y-71407712D01*
X143197714Y-71407712D02*
X143052571Y-71480283D01*
X143052571Y-71480283D02*
X142907428Y-71480283D01*
X142907428Y-71480283D02*
X142762286Y-71407712D01*
X142762286Y-71407712D02*
X142689714Y-71335140D01*
X142689714Y-71335140D02*
X142617143Y-71189997D01*
X142617143Y-71189997D02*
X142544571Y-70899712D01*
X142544571Y-70899712D02*
X142544571Y-70536854D01*
X142544571Y-70536854D02*
X142617143Y-70246569D01*
X142617143Y-70246569D02*
X142689714Y-70101426D01*
X142689714Y-70101426D02*
X142762286Y-70028854D01*
X142762286Y-70028854D02*
X142907428Y-69956283D01*
X144286286Y-70609426D02*
X144141143Y-70536854D01*
X144141143Y-70536854D02*
X144068572Y-70464283D01*
X144068572Y-70464283D02*
X143996000Y-70319140D01*
X143996000Y-70319140D02*
X143996000Y-70246569D01*
X143996000Y-70246569D02*
X144068572Y-70101426D01*
X144068572Y-70101426D02*
X144141143Y-70028854D01*
X144141143Y-70028854D02*
X144286286Y-69956283D01*
X144286286Y-69956283D02*
X144576572Y-69956283D01*
X144576572Y-69956283D02*
X144721715Y-70028854D01*
X144721715Y-70028854D02*
X144794286Y-70101426D01*
X144794286Y-70101426D02*
X144866857Y-70246569D01*
X144866857Y-70246569D02*
X144866857Y-70319140D01*
X144866857Y-70319140D02*
X144794286Y-70464283D01*
X144794286Y-70464283D02*
X144721715Y-70536854D01*
X144721715Y-70536854D02*
X144576572Y-70609426D01*
X144576572Y-70609426D02*
X144286286Y-70609426D01*
X144286286Y-70609426D02*
X144141143Y-70681997D01*
X144141143Y-70681997D02*
X144068572Y-70754569D01*
X144068572Y-70754569D02*
X143996000Y-70899712D01*
X143996000Y-70899712D02*
X143996000Y-71189997D01*
X143996000Y-71189997D02*
X144068572Y-71335140D01*
X144068572Y-71335140D02*
X144141143Y-71407712D01*
X144141143Y-71407712D02*
X144286286Y-71480283D01*
X144286286Y-71480283D02*
X144576572Y-71480283D01*
X144576572Y-71480283D02*
X144721715Y-71407712D01*
X144721715Y-71407712D02*
X144794286Y-71335140D01*
X144794286Y-71335140D02*
X144866857Y-71189997D01*
X144866857Y-71189997D02*
X144866857Y-70899712D01*
X144866857Y-70899712D02*
X144794286Y-70754569D01*
X144794286Y-70754569D02*
X144721715Y-70681997D01*
X144721715Y-70681997D02*
X144576572Y-70609426D01*
X146681144Y-69956283D02*
X146681144Y-71189997D01*
X146681144Y-71189997D02*
X146753715Y-71335140D01*
X146753715Y-71335140D02*
X146826287Y-71407712D01*
X146826287Y-71407712D02*
X146971429Y-71480283D01*
X146971429Y-71480283D02*
X147261715Y-71480283D01*
X147261715Y-71480283D02*
X147406858Y-71407712D01*
X147406858Y-71407712D02*
X147479429Y-71335140D01*
X147479429Y-71335140D02*
X147552001Y-71189997D01*
X147552001Y-71189997D02*
X147552001Y-69956283D01*
X148785715Y-70681997D02*
X148277715Y-70681997D01*
X148277715Y-71480283D02*
X148277715Y-69956283D01*
X148277715Y-69956283D02*
X149003429Y-69956283D01*
X149874286Y-69956283D02*
X150164572Y-69956283D01*
X150164572Y-69956283D02*
X150309715Y-70028854D01*
X150309715Y-70028854D02*
X150454858Y-70173997D01*
X150454858Y-70173997D02*
X150527429Y-70464283D01*
X150527429Y-70464283D02*
X150527429Y-70972283D01*
X150527429Y-70972283D02*
X150454858Y-71262569D01*
X150454858Y-71262569D02*
X150309715Y-71407712D01*
X150309715Y-71407712D02*
X150164572Y-71480283D01*
X150164572Y-71480283D02*
X149874286Y-71480283D01*
X149874286Y-71480283D02*
X149729144Y-71407712D01*
X149729144Y-71407712D02*
X149584001Y-71262569D01*
X149584001Y-71262569D02*
X149511429Y-70972283D01*
X149511429Y-70972283D02*
X149511429Y-70464283D01*
X149511429Y-70464283D02*
X149584001Y-70173997D01*
X149584001Y-70173997D02*
X149729144Y-70028854D01*
X149729144Y-70028854D02*
X149874286Y-69956283D01*
X152849715Y-70681997D02*
X153067429Y-70754569D01*
X153067429Y-70754569D02*
X153140000Y-70827140D01*
X153140000Y-70827140D02*
X153212572Y-70972283D01*
X153212572Y-70972283D02*
X153212572Y-71189997D01*
X153212572Y-71189997D02*
X153140000Y-71335140D01*
X153140000Y-71335140D02*
X153067429Y-71407712D01*
X153067429Y-71407712D02*
X152922286Y-71480283D01*
X152922286Y-71480283D02*
X152341715Y-71480283D01*
X152341715Y-71480283D02*
X152341715Y-69956283D01*
X152341715Y-69956283D02*
X152849715Y-69956283D01*
X152849715Y-69956283D02*
X152994858Y-70028854D01*
X152994858Y-70028854D02*
X153067429Y-70101426D01*
X153067429Y-70101426D02*
X153140000Y-70246569D01*
X153140000Y-70246569D02*
X153140000Y-70391712D01*
X153140000Y-70391712D02*
X153067429Y-70536854D01*
X153067429Y-70536854D02*
X152994858Y-70609426D01*
X152994858Y-70609426D02*
X152849715Y-70681997D01*
X152849715Y-70681997D02*
X152341715Y-70681997D01*
X154083429Y-71480283D02*
X153938286Y-71407712D01*
X153938286Y-71407712D02*
X153865715Y-71335140D01*
X153865715Y-71335140D02*
X153793143Y-71189997D01*
X153793143Y-71189997D02*
X153793143Y-70754569D01*
X153793143Y-70754569D02*
X153865715Y-70609426D01*
X153865715Y-70609426D02*
X153938286Y-70536854D01*
X153938286Y-70536854D02*
X154083429Y-70464283D01*
X154083429Y-70464283D02*
X154301143Y-70464283D01*
X154301143Y-70464283D02*
X154446286Y-70536854D01*
X154446286Y-70536854D02*
X154518858Y-70609426D01*
X154518858Y-70609426D02*
X154591429Y-70754569D01*
X154591429Y-70754569D02*
X154591429Y-71189997D01*
X154591429Y-71189997D02*
X154518858Y-71335140D01*
X154518858Y-71335140D02*
X154446286Y-71407712D01*
X154446286Y-71407712D02*
X154301143Y-71480283D01*
X154301143Y-71480283D02*
X154083429Y-71480283D01*
X155897715Y-71480283D02*
X155897715Y-70681997D01*
X155897715Y-70681997D02*
X155825143Y-70536854D01*
X155825143Y-70536854D02*
X155680000Y-70464283D01*
X155680000Y-70464283D02*
X155389715Y-70464283D01*
X155389715Y-70464283D02*
X155244572Y-70536854D01*
X155897715Y-71407712D02*
X155752572Y-71480283D01*
X155752572Y-71480283D02*
X155389715Y-71480283D01*
X155389715Y-71480283D02*
X155244572Y-71407712D01*
X155244572Y-71407712D02*
X155172000Y-71262569D01*
X155172000Y-71262569D02*
X155172000Y-71117426D01*
X155172000Y-71117426D02*
X155244572Y-70972283D01*
X155244572Y-70972283D02*
X155389715Y-70899712D01*
X155389715Y-70899712D02*
X155752572Y-70899712D01*
X155752572Y-70899712D02*
X155897715Y-70827140D01*
X156623429Y-71480283D02*
X156623429Y-70464283D01*
X156623429Y-70754569D02*
X156696000Y-70609426D01*
X156696000Y-70609426D02*
X156768572Y-70536854D01*
X156768572Y-70536854D02*
X156913714Y-70464283D01*
X156913714Y-70464283D02*
X157058857Y-70464283D01*
X158220001Y-71480283D02*
X158220001Y-69956283D01*
X158220001Y-71407712D02*
X158074858Y-71480283D01*
X158074858Y-71480283D02*
X157784572Y-71480283D01*
X157784572Y-71480283D02*
X157639429Y-71407712D01*
X157639429Y-71407712D02*
X157566858Y-71335140D01*
X157566858Y-71335140D02*
X157494286Y-71189997D01*
X157494286Y-71189997D02*
X157494286Y-70754569D01*
X157494286Y-70754569D02*
X157566858Y-70609426D01*
X157566858Y-70609426D02*
X157639429Y-70536854D01*
X157639429Y-70536854D02*
X157784572Y-70464283D01*
X157784572Y-70464283D02*
X158074858Y-70464283D01*
X158074858Y-70464283D02*
X158220001Y-70536854D01*
D12*
X128645863Y-76379457D02*
X128645863Y-75479457D01*
X129031578Y-76379457D02*
X129031578Y-75908028D01*
X129031578Y-75908028D02*
X128988720Y-75822314D01*
X128988720Y-75822314D02*
X128903006Y-75779457D01*
X128903006Y-75779457D02*
X128774435Y-75779457D01*
X128774435Y-75779457D02*
X128688720Y-75822314D01*
X128688720Y-75822314D02*
X128645863Y-75865171D01*
X129331578Y-75779457D02*
X129674435Y-75779457D01*
X129460149Y-75479457D02*
X129460149Y-76250885D01*
X129460149Y-76250885D02*
X129503006Y-76336600D01*
X129503006Y-76336600D02*
X129588721Y-76379457D01*
X129588721Y-76379457D02*
X129674435Y-76379457D01*
X129845864Y-75779457D02*
X130188721Y-75779457D01*
X129974435Y-75479457D02*
X129974435Y-76250885D01*
X129974435Y-76250885D02*
X130017292Y-76336600D01*
X130017292Y-76336600D02*
X130103007Y-76379457D01*
X130103007Y-76379457D02*
X130188721Y-76379457D01*
X130488721Y-75779457D02*
X130488721Y-76679457D01*
X130488721Y-75822314D02*
X130574436Y-75779457D01*
X130574436Y-75779457D02*
X130745864Y-75779457D01*
X130745864Y-75779457D02*
X130831578Y-75822314D01*
X130831578Y-75822314D02*
X130874436Y-75865171D01*
X130874436Y-75865171D02*
X130917293Y-75950885D01*
X130917293Y-75950885D02*
X130917293Y-76208028D01*
X130917293Y-76208028D02*
X130874436Y-76293742D01*
X130874436Y-76293742D02*
X130831578Y-76336600D01*
X130831578Y-76336600D02*
X130745864Y-76379457D01*
X130745864Y-76379457D02*
X130574436Y-76379457D01*
X130574436Y-76379457D02*
X130488721Y-76336600D01*
X131260150Y-76336600D02*
X131345864Y-76379457D01*
X131345864Y-76379457D02*
X131517293Y-76379457D01*
X131517293Y-76379457D02*
X131603007Y-76336600D01*
X131603007Y-76336600D02*
X131645864Y-76250885D01*
X131645864Y-76250885D02*
X131645864Y-76208028D01*
X131645864Y-76208028D02*
X131603007Y-76122314D01*
X131603007Y-76122314D02*
X131517293Y-76079457D01*
X131517293Y-76079457D02*
X131388722Y-76079457D01*
X131388722Y-76079457D02*
X131303007Y-76036600D01*
X131303007Y-76036600D02*
X131260150Y-75950885D01*
X131260150Y-75950885D02*
X131260150Y-75908028D01*
X131260150Y-75908028D02*
X131303007Y-75822314D01*
X131303007Y-75822314D02*
X131388722Y-75779457D01*
X131388722Y-75779457D02*
X131517293Y-75779457D01*
X131517293Y-75779457D02*
X131603007Y-75822314D01*
X132031578Y-76293742D02*
X132074435Y-76336600D01*
X132074435Y-76336600D02*
X132031578Y-76379457D01*
X132031578Y-76379457D02*
X131988721Y-76336600D01*
X131988721Y-76336600D02*
X132031578Y-76293742D01*
X132031578Y-76293742D02*
X132031578Y-76379457D01*
X132031578Y-75822314D02*
X132074435Y-75865171D01*
X132074435Y-75865171D02*
X132031578Y-75908028D01*
X132031578Y-75908028D02*
X131988721Y-75865171D01*
X131988721Y-75865171D02*
X132031578Y-75822314D01*
X132031578Y-75822314D02*
X132031578Y-75908028D01*
X133103006Y-75436600D02*
X132331578Y-76593742D01*
X134045863Y-75436600D02*
X133274435Y-76593742D01*
X134731578Y-75779457D02*
X134731578Y-76508028D01*
X134731578Y-76508028D02*
X134688720Y-76593742D01*
X134688720Y-76593742D02*
X134645863Y-76636600D01*
X134645863Y-76636600D02*
X134560149Y-76679457D01*
X134560149Y-76679457D02*
X134431578Y-76679457D01*
X134431578Y-76679457D02*
X134345863Y-76636600D01*
X134731578Y-76336600D02*
X134645863Y-76379457D01*
X134645863Y-76379457D02*
X134474435Y-76379457D01*
X134474435Y-76379457D02*
X134388720Y-76336600D01*
X134388720Y-76336600D02*
X134345863Y-76293742D01*
X134345863Y-76293742D02*
X134303006Y-76208028D01*
X134303006Y-76208028D02*
X134303006Y-75950885D01*
X134303006Y-75950885D02*
X134345863Y-75865171D01*
X134345863Y-75865171D02*
X134388720Y-75822314D01*
X134388720Y-75822314D02*
X134474435Y-75779457D01*
X134474435Y-75779457D02*
X134645863Y-75779457D01*
X134645863Y-75779457D02*
X134731578Y-75822314D01*
X135160149Y-76379457D02*
X135160149Y-75779457D01*
X135160149Y-75479457D02*
X135117292Y-75522314D01*
X135117292Y-75522314D02*
X135160149Y-75565171D01*
X135160149Y-75565171D02*
X135203006Y-75522314D01*
X135203006Y-75522314D02*
X135160149Y-75479457D01*
X135160149Y-75479457D02*
X135160149Y-75565171D01*
X135460149Y-75779457D02*
X135803006Y-75779457D01*
X135588720Y-75479457D02*
X135588720Y-76250885D01*
X135588720Y-76250885D02*
X135631577Y-76336600D01*
X135631577Y-76336600D02*
X135717292Y-76379457D01*
X135717292Y-76379457D02*
X135803006Y-76379457D01*
X136103006Y-76379457D02*
X136103006Y-75479457D01*
X136488721Y-76379457D02*
X136488721Y-75908028D01*
X136488721Y-75908028D02*
X136445863Y-75822314D01*
X136445863Y-75822314D02*
X136360149Y-75779457D01*
X136360149Y-75779457D02*
X136231578Y-75779457D01*
X136231578Y-75779457D02*
X136145863Y-75822314D01*
X136145863Y-75822314D02*
X136103006Y-75865171D01*
X137303007Y-75779457D02*
X137303007Y-76379457D01*
X136917292Y-75779457D02*
X136917292Y-76250885D01*
X136917292Y-76250885D02*
X136960149Y-76336600D01*
X136960149Y-76336600D02*
X137045864Y-76379457D01*
X137045864Y-76379457D02*
X137174435Y-76379457D01*
X137174435Y-76379457D02*
X137260149Y-76336600D01*
X137260149Y-76336600D02*
X137303007Y-76293742D01*
X137731578Y-76379457D02*
X137731578Y-75479457D01*
X137731578Y-75822314D02*
X137817293Y-75779457D01*
X137817293Y-75779457D02*
X137988721Y-75779457D01*
X137988721Y-75779457D02*
X138074435Y-75822314D01*
X138074435Y-75822314D02*
X138117293Y-75865171D01*
X138117293Y-75865171D02*
X138160150Y-75950885D01*
X138160150Y-75950885D02*
X138160150Y-76208028D01*
X138160150Y-76208028D02*
X138117293Y-76293742D01*
X138117293Y-76293742D02*
X138074435Y-76336600D01*
X138074435Y-76336600D02*
X137988721Y-76379457D01*
X137988721Y-76379457D02*
X137817293Y-76379457D01*
X137817293Y-76379457D02*
X137731578Y-76336600D01*
X138545864Y-76293742D02*
X138588721Y-76336600D01*
X138588721Y-76336600D02*
X138545864Y-76379457D01*
X138545864Y-76379457D02*
X138503007Y-76336600D01*
X138503007Y-76336600D02*
X138545864Y-76293742D01*
X138545864Y-76293742D02*
X138545864Y-76379457D01*
X139360150Y-76336600D02*
X139274435Y-76379457D01*
X139274435Y-76379457D02*
X139103007Y-76379457D01*
X139103007Y-76379457D02*
X139017292Y-76336600D01*
X139017292Y-76336600D02*
X138974435Y-76293742D01*
X138974435Y-76293742D02*
X138931578Y-76208028D01*
X138931578Y-76208028D02*
X138931578Y-75950885D01*
X138931578Y-75950885D02*
X138974435Y-75865171D01*
X138974435Y-75865171D02*
X139017292Y-75822314D01*
X139017292Y-75822314D02*
X139103007Y-75779457D01*
X139103007Y-75779457D02*
X139274435Y-75779457D01*
X139274435Y-75779457D02*
X139360150Y-75822314D01*
X139874436Y-76379457D02*
X139788721Y-76336600D01*
X139788721Y-76336600D02*
X139745864Y-76293742D01*
X139745864Y-76293742D02*
X139703007Y-76208028D01*
X139703007Y-76208028D02*
X139703007Y-75950885D01*
X139703007Y-75950885D02*
X139745864Y-75865171D01*
X139745864Y-75865171D02*
X139788721Y-75822314D01*
X139788721Y-75822314D02*
X139874436Y-75779457D01*
X139874436Y-75779457D02*
X140003007Y-75779457D01*
X140003007Y-75779457D02*
X140088721Y-75822314D01*
X140088721Y-75822314D02*
X140131579Y-75865171D01*
X140131579Y-75865171D02*
X140174436Y-75950885D01*
X140174436Y-75950885D02*
X140174436Y-76208028D01*
X140174436Y-76208028D02*
X140131579Y-76293742D01*
X140131579Y-76293742D02*
X140088721Y-76336600D01*
X140088721Y-76336600D02*
X140003007Y-76379457D01*
X140003007Y-76379457D02*
X139874436Y-76379457D01*
X140560150Y-76379457D02*
X140560150Y-75779457D01*
X140560150Y-75865171D02*
X140603007Y-75822314D01*
X140603007Y-75822314D02*
X140688722Y-75779457D01*
X140688722Y-75779457D02*
X140817293Y-75779457D01*
X140817293Y-75779457D02*
X140903007Y-75822314D01*
X140903007Y-75822314D02*
X140945865Y-75908028D01*
X140945865Y-75908028D02*
X140945865Y-76379457D01*
X140945865Y-75908028D02*
X140988722Y-75822314D01*
X140988722Y-75822314D02*
X141074436Y-75779457D01*
X141074436Y-75779457D02*
X141203007Y-75779457D01*
X141203007Y-75779457D02*
X141288722Y-75822314D01*
X141288722Y-75822314D02*
X141331579Y-75908028D01*
X141331579Y-75908028D02*
X141331579Y-76379457D01*
X142403007Y-75436600D02*
X141631579Y-76593742D01*
X142703007Y-75779457D02*
X142703007Y-76379457D01*
X142703007Y-75865171D02*
X142745864Y-75822314D01*
X142745864Y-75822314D02*
X142831579Y-75779457D01*
X142831579Y-75779457D02*
X142960150Y-75779457D01*
X142960150Y-75779457D02*
X143045864Y-75822314D01*
X143045864Y-75822314D02*
X143088722Y-75908028D01*
X143088722Y-75908028D02*
X143088722Y-76379457D01*
X143517293Y-76379457D02*
X143517293Y-75779457D01*
X143517293Y-75479457D02*
X143474436Y-75522314D01*
X143474436Y-75522314D02*
X143517293Y-75565171D01*
X143517293Y-75565171D02*
X143560150Y-75522314D01*
X143560150Y-75522314D02*
X143517293Y-75479457D01*
X143517293Y-75479457D02*
X143517293Y-75565171D01*
X143945864Y-76379457D02*
X143945864Y-75479457D01*
X144031579Y-76036600D02*
X144288721Y-76379457D01*
X144288721Y-75779457D02*
X143945864Y-76122314D01*
X144674435Y-76379457D02*
X144674435Y-75779457D01*
X144674435Y-75479457D02*
X144631578Y-75522314D01*
X144631578Y-75522314D02*
X144674435Y-75565171D01*
X144674435Y-75565171D02*
X144717292Y-75522314D01*
X144717292Y-75522314D02*
X144674435Y-75479457D01*
X144674435Y-75479457D02*
X144674435Y-75565171D01*
X144974435Y-75779457D02*
X145317292Y-75779457D01*
X145103006Y-75479457D02*
X145103006Y-76250885D01*
X145103006Y-76250885D02*
X145145863Y-76336600D01*
X145145863Y-76336600D02*
X145231578Y-76379457D01*
X145231578Y-76379457D02*
X145317292Y-76379457D01*
X146003007Y-76379457D02*
X146003007Y-75908028D01*
X146003007Y-75908028D02*
X145960149Y-75822314D01*
X145960149Y-75822314D02*
X145874435Y-75779457D01*
X145874435Y-75779457D02*
X145703007Y-75779457D01*
X145703007Y-75779457D02*
X145617292Y-75822314D01*
X146003007Y-76336600D02*
X145917292Y-76379457D01*
X145917292Y-76379457D02*
X145703007Y-76379457D01*
X145703007Y-76379457D02*
X145617292Y-76336600D01*
X145617292Y-76336600D02*
X145574435Y-76250885D01*
X145574435Y-76250885D02*
X145574435Y-76165171D01*
X145574435Y-76165171D02*
X145617292Y-76079457D01*
X145617292Y-76079457D02*
X145703007Y-76036600D01*
X145703007Y-76036600D02*
X145917292Y-76036600D01*
X145917292Y-76036600D02*
X146003007Y-75993742D01*
X146560150Y-76379457D02*
X146474435Y-76336600D01*
X146474435Y-76336600D02*
X146431578Y-76250885D01*
X146431578Y-76250885D02*
X146431578Y-75479457D01*
X146903007Y-76379457D02*
X146903007Y-75779457D01*
X146903007Y-75479457D02*
X146860150Y-75522314D01*
X146860150Y-75522314D02*
X146903007Y-75565171D01*
X146903007Y-75565171D02*
X146945864Y-75522314D01*
X146945864Y-75522314D02*
X146903007Y-75479457D01*
X146903007Y-75479457D02*
X146903007Y-75565171D01*
X147203007Y-75779457D02*
X147545864Y-75779457D01*
X147331578Y-75479457D02*
X147331578Y-76250885D01*
X147331578Y-76250885D02*
X147374435Y-76336600D01*
X147374435Y-76336600D02*
X147460150Y-76379457D01*
X147460150Y-76379457D02*
X147545864Y-76379457D01*
X148231579Y-76379457D02*
X148231579Y-75908028D01*
X148231579Y-75908028D02*
X148188721Y-75822314D01*
X148188721Y-75822314D02*
X148103007Y-75779457D01*
X148103007Y-75779457D02*
X147931579Y-75779457D01*
X147931579Y-75779457D02*
X147845864Y-75822314D01*
X148231579Y-76336600D02*
X148145864Y-76379457D01*
X148145864Y-76379457D02*
X147931579Y-76379457D01*
X147931579Y-76379457D02*
X147845864Y-76336600D01*
X147845864Y-76336600D02*
X147803007Y-76250885D01*
X147803007Y-76250885D02*
X147803007Y-76165171D01*
X147803007Y-76165171D02*
X147845864Y-76079457D01*
X147845864Y-76079457D02*
X147931579Y-76036600D01*
X147931579Y-76036600D02*
X148145864Y-76036600D01*
X148145864Y-76036600D02*
X148231579Y-75993742D01*
X149303007Y-75436600D02*
X148531579Y-76593742D01*
X149603007Y-75779457D02*
X149603007Y-76379457D01*
X149603007Y-75865171D02*
X149645864Y-75822314D01*
X149645864Y-75822314D02*
X149731579Y-75779457D01*
X149731579Y-75779457D02*
X149860150Y-75779457D01*
X149860150Y-75779457D02*
X149945864Y-75822314D01*
X149945864Y-75822314D02*
X149988722Y-75908028D01*
X149988722Y-75908028D02*
X149988722Y-76379457D01*
X150331579Y-75479457D02*
X150931579Y-75479457D01*
X150931579Y-75479457D02*
X150545865Y-76379457D01*
X151660151Y-75479457D02*
X151488722Y-75479457D01*
X151488722Y-75479457D02*
X151403008Y-75522314D01*
X151403008Y-75522314D02*
X151360151Y-75565171D01*
X151360151Y-75565171D02*
X151274436Y-75693742D01*
X151274436Y-75693742D02*
X151231579Y-75865171D01*
X151231579Y-75865171D02*
X151231579Y-76208028D01*
X151231579Y-76208028D02*
X151274436Y-76293742D01*
X151274436Y-76293742D02*
X151317293Y-76336600D01*
X151317293Y-76336600D02*
X151403008Y-76379457D01*
X151403008Y-76379457D02*
X151574436Y-76379457D01*
X151574436Y-76379457D02*
X151660151Y-76336600D01*
X151660151Y-76336600D02*
X151703008Y-76293742D01*
X151703008Y-76293742D02*
X151745865Y-76208028D01*
X151745865Y-76208028D02*
X151745865Y-75993742D01*
X151745865Y-75993742D02*
X151703008Y-75908028D01*
X151703008Y-75908028D02*
X151660151Y-75865171D01*
X151660151Y-75865171D02*
X151574436Y-75822314D01*
X151574436Y-75822314D02*
X151403008Y-75822314D01*
X151403008Y-75822314D02*
X151317293Y-75865171D01*
X151317293Y-75865171D02*
X151274436Y-75908028D01*
X151274436Y-75908028D02*
X151231579Y-75993742D01*
X152474436Y-76336600D02*
X152388722Y-76379457D01*
X152388722Y-76379457D02*
X152217294Y-76379457D01*
X152217294Y-76379457D02*
X152131579Y-76336600D01*
X152131579Y-76336600D02*
X152088722Y-76250885D01*
X152088722Y-76250885D02*
X152088722Y-75908028D01*
X152088722Y-75908028D02*
X152131579Y-75822314D01*
X152131579Y-75822314D02*
X152217294Y-75779457D01*
X152217294Y-75779457D02*
X152388722Y-75779457D01*
X152388722Y-75779457D02*
X152474436Y-75822314D01*
X152474436Y-75822314D02*
X152517294Y-75908028D01*
X152517294Y-75908028D02*
X152517294Y-75993742D01*
X152517294Y-75993742D02*
X152088722Y-76079457D01*
X153074437Y-75479457D02*
X153160151Y-75479457D01*
X153160151Y-75479457D02*
X153245865Y-75522314D01*
X153245865Y-75522314D02*
X153288723Y-75565171D01*
X153288723Y-75565171D02*
X153331580Y-75650885D01*
X153331580Y-75650885D02*
X153374437Y-75822314D01*
X153374437Y-75822314D02*
X153374437Y-76036600D01*
X153374437Y-76036600D02*
X153331580Y-76208028D01*
X153331580Y-76208028D02*
X153288723Y-76293742D01*
X153288723Y-76293742D02*
X153245865Y-76336600D01*
X153245865Y-76336600D02*
X153160151Y-76379457D01*
X153160151Y-76379457D02*
X153074437Y-76379457D01*
X153074437Y-76379457D02*
X152988723Y-76336600D01*
X152988723Y-76336600D02*
X152945865Y-76293742D01*
X152945865Y-76293742D02*
X152903008Y-76208028D01*
X152903008Y-76208028D02*
X152860151Y-76036600D01*
X152860151Y-76036600D02*
X152860151Y-75822314D01*
X152860151Y-75822314D02*
X152903008Y-75650885D01*
X152903008Y-75650885D02*
X152945865Y-75565171D01*
X152945865Y-75565171D02*
X152988723Y-75522314D01*
X152988723Y-75522314D02*
X153074437Y-75479457D01*
X153931580Y-75479457D02*
X154017294Y-75479457D01*
X154017294Y-75479457D02*
X154103008Y-75522314D01*
X154103008Y-75522314D02*
X154145866Y-75565171D01*
X154145866Y-75565171D02*
X154188723Y-75650885D01*
X154188723Y-75650885D02*
X154231580Y-75822314D01*
X154231580Y-75822314D02*
X154231580Y-76036600D01*
X154231580Y-76036600D02*
X154188723Y-76208028D01*
X154188723Y-76208028D02*
X154145866Y-76293742D01*
X154145866Y-76293742D02*
X154103008Y-76336600D01*
X154103008Y-76336600D02*
X154017294Y-76379457D01*
X154017294Y-76379457D02*
X153931580Y-76379457D01*
X153931580Y-76379457D02*
X153845866Y-76336600D01*
X153845866Y-76336600D02*
X153803008Y-76293742D01*
X153803008Y-76293742D02*
X153760151Y-76208028D01*
X153760151Y-76208028D02*
X153717294Y-76036600D01*
X153717294Y-76036600D02*
X153717294Y-75822314D01*
X153717294Y-75822314D02*
X153760151Y-75650885D01*
X153760151Y-75650885D02*
X153803008Y-75565171D01*
X153803008Y-75565171D02*
X153845866Y-75522314D01*
X153845866Y-75522314D02*
X153931580Y-75479457D01*
X154531580Y-75479457D02*
X155088723Y-75479457D01*
X155088723Y-75479457D02*
X154788723Y-75822314D01*
X154788723Y-75822314D02*
X154917294Y-75822314D01*
X154917294Y-75822314D02*
X155003009Y-75865171D01*
X155003009Y-75865171D02*
X155045866Y-75908028D01*
X155045866Y-75908028D02*
X155088723Y-75993742D01*
X155088723Y-75993742D02*
X155088723Y-76208028D01*
X155088723Y-76208028D02*
X155045866Y-76293742D01*
X155045866Y-76293742D02*
X155003009Y-76336600D01*
X155003009Y-76336600D02*
X154917294Y-76379457D01*
X154917294Y-76379457D02*
X154660151Y-76379457D01*
X154660151Y-76379457D02*
X154574437Y-76336600D01*
X154574437Y-76336600D02*
X154531580Y-76293742D01*
X155474437Y-76036600D02*
X156160152Y-76036600D01*
X156974438Y-75779457D02*
X156974438Y-76379457D01*
X156588723Y-75779457D02*
X156588723Y-76250885D01*
X156588723Y-76250885D02*
X156631580Y-76336600D01*
X156631580Y-76336600D02*
X156717295Y-76379457D01*
X156717295Y-76379457D02*
X156845866Y-76379457D01*
X156845866Y-76379457D02*
X156931580Y-76336600D01*
X156931580Y-76336600D02*
X156974438Y-76293742D01*
X157274438Y-75779457D02*
X157617295Y-75779457D01*
X157403009Y-76379457D02*
X157403009Y-75608028D01*
X157403009Y-75608028D02*
X157445866Y-75522314D01*
X157445866Y-75522314D02*
X157531581Y-75479457D01*
X157531581Y-75479457D02*
X157617295Y-75479457D01*
X158045867Y-76379457D02*
X157960152Y-76336600D01*
X157960152Y-76336600D02*
X157917295Y-76293742D01*
X157917295Y-76293742D02*
X157874438Y-76208028D01*
X157874438Y-76208028D02*
X157874438Y-75950885D01*
X157874438Y-75950885D02*
X157917295Y-75865171D01*
X157917295Y-75865171D02*
X157960152Y-75822314D01*
X157960152Y-75822314D02*
X158045867Y-75779457D01*
X158045867Y-75779457D02*
X158174438Y-75779457D01*
X158174438Y-75779457D02*
X158260152Y-75822314D01*
X158260152Y-75822314D02*
X158303010Y-75865171D01*
X158303010Y-75865171D02*
X158345867Y-75950885D01*
X158345867Y-75950885D02*
X158345867Y-76208028D01*
X158345867Y-76208028D02*
X158303010Y-76293742D01*
X158303010Y-76293742D02*
X158260152Y-76336600D01*
X158260152Y-76336600D02*
X158174438Y-76379457D01*
X158174438Y-76379457D02*
X158045867Y-76379457D01*
X158731581Y-76036600D02*
X159417296Y-76036600D01*
X159717296Y-75779457D02*
X160060153Y-75779457D01*
X159845867Y-75479457D02*
X159845867Y-76250885D01*
X159845867Y-76250885D02*
X159888724Y-76336600D01*
X159888724Y-76336600D02*
X159974439Y-76379457D01*
X159974439Y-76379457D02*
X160060153Y-76379457D01*
X160745868Y-76379457D02*
X160745868Y-75908028D01*
X160745868Y-75908028D02*
X160703010Y-75822314D01*
X160703010Y-75822314D02*
X160617296Y-75779457D01*
X160617296Y-75779457D02*
X160445868Y-75779457D01*
X160445868Y-75779457D02*
X160360153Y-75822314D01*
X160745868Y-76336600D02*
X160660153Y-76379457D01*
X160660153Y-76379457D02*
X160445868Y-76379457D01*
X160445868Y-76379457D02*
X160360153Y-76336600D01*
X160360153Y-76336600D02*
X160317296Y-76250885D01*
X160317296Y-76250885D02*
X160317296Y-76165171D01*
X160317296Y-76165171D02*
X160360153Y-76079457D01*
X160360153Y-76079457D02*
X160445868Y-76036600D01*
X160445868Y-76036600D02*
X160660153Y-76036600D01*
X160660153Y-76036600D02*
X160745868Y-75993742D01*
X161174439Y-76379457D02*
X161174439Y-75779457D01*
X161174439Y-75950885D02*
X161217296Y-75865171D01*
X161217296Y-75865171D02*
X161260154Y-75822314D01*
X161260154Y-75822314D02*
X161345868Y-75779457D01*
X161345868Y-75779457D02*
X161431582Y-75779457D01*
X162117297Y-75779457D02*
X162117297Y-76508028D01*
X162117297Y-76508028D02*
X162074439Y-76593742D01*
X162074439Y-76593742D02*
X162031582Y-76636600D01*
X162031582Y-76636600D02*
X161945868Y-76679457D01*
X161945868Y-76679457D02*
X161817297Y-76679457D01*
X161817297Y-76679457D02*
X161731582Y-76636600D01*
X162117297Y-76336600D02*
X162031582Y-76379457D01*
X162031582Y-76379457D02*
X161860154Y-76379457D01*
X161860154Y-76379457D02*
X161774439Y-76336600D01*
X161774439Y-76336600D02*
X161731582Y-76293742D01*
X161731582Y-76293742D02*
X161688725Y-76208028D01*
X161688725Y-76208028D02*
X161688725Y-75950885D01*
X161688725Y-75950885D02*
X161731582Y-75865171D01*
X161731582Y-75865171D02*
X161774439Y-75822314D01*
X161774439Y-75822314D02*
X161860154Y-75779457D01*
X161860154Y-75779457D02*
X162031582Y-75779457D01*
X162031582Y-75779457D02*
X162117297Y-75822314D01*
X162888725Y-76336600D02*
X162803011Y-76379457D01*
X162803011Y-76379457D02*
X162631583Y-76379457D01*
X162631583Y-76379457D02*
X162545868Y-76336600D01*
X162545868Y-76336600D02*
X162503011Y-76250885D01*
X162503011Y-76250885D02*
X162503011Y-75908028D01*
X162503011Y-75908028D02*
X162545868Y-75822314D01*
X162545868Y-75822314D02*
X162631583Y-75779457D01*
X162631583Y-75779457D02*
X162803011Y-75779457D01*
X162803011Y-75779457D02*
X162888725Y-75822314D01*
X162888725Y-75822314D02*
X162931583Y-75908028D01*
X162931583Y-75908028D02*
X162931583Y-75993742D01*
X162931583Y-75993742D02*
X162503011Y-76079457D01*
X163188726Y-75779457D02*
X163531583Y-75779457D01*
X163317297Y-75479457D02*
X163317297Y-76250885D01*
X163317297Y-76250885D02*
X163360154Y-76336600D01*
X163360154Y-76336600D02*
X163445869Y-76379457D01*
X163445869Y-76379457D02*
X163531583Y-76379457D01*
X163831583Y-76036600D02*
X164517298Y-76036600D01*
X164945869Y-76379457D02*
X164945869Y-75479457D01*
X164945869Y-75822314D02*
X165031584Y-75779457D01*
X165031584Y-75779457D02*
X165203012Y-75779457D01*
X165203012Y-75779457D02*
X165288726Y-75822314D01*
X165288726Y-75822314D02*
X165331584Y-75865171D01*
X165331584Y-75865171D02*
X165374441Y-75950885D01*
X165374441Y-75950885D02*
X165374441Y-76208028D01*
X165374441Y-76208028D02*
X165331584Y-76293742D01*
X165331584Y-76293742D02*
X165288726Y-76336600D01*
X165288726Y-76336600D02*
X165203012Y-76379457D01*
X165203012Y-76379457D02*
X165031584Y-76379457D01*
X165031584Y-76379457D02*
X164945869Y-76336600D01*
X165888727Y-76379457D02*
X165803012Y-76336600D01*
X165803012Y-76336600D02*
X165760155Y-76293742D01*
X165760155Y-76293742D02*
X165717298Y-76208028D01*
X165717298Y-76208028D02*
X165717298Y-75950885D01*
X165717298Y-75950885D02*
X165760155Y-75865171D01*
X165760155Y-75865171D02*
X165803012Y-75822314D01*
X165803012Y-75822314D02*
X165888727Y-75779457D01*
X165888727Y-75779457D02*
X166017298Y-75779457D01*
X166017298Y-75779457D02*
X166103012Y-75822314D01*
X166103012Y-75822314D02*
X166145870Y-75865171D01*
X166145870Y-75865171D02*
X166188727Y-75950885D01*
X166188727Y-75950885D02*
X166188727Y-76208028D01*
X166188727Y-76208028D02*
X166145870Y-76293742D01*
X166145870Y-76293742D02*
X166103012Y-76336600D01*
X166103012Y-76336600D02*
X166017298Y-76379457D01*
X166017298Y-76379457D02*
X165888727Y-76379457D01*
X166960156Y-76379457D02*
X166960156Y-75908028D01*
X166960156Y-75908028D02*
X166917298Y-75822314D01*
X166917298Y-75822314D02*
X166831584Y-75779457D01*
X166831584Y-75779457D02*
X166660156Y-75779457D01*
X166660156Y-75779457D02*
X166574441Y-75822314D01*
X166960156Y-76336600D02*
X166874441Y-76379457D01*
X166874441Y-76379457D02*
X166660156Y-76379457D01*
X166660156Y-76379457D02*
X166574441Y-76336600D01*
X166574441Y-76336600D02*
X166531584Y-76250885D01*
X166531584Y-76250885D02*
X166531584Y-76165171D01*
X166531584Y-76165171D02*
X166574441Y-76079457D01*
X166574441Y-76079457D02*
X166660156Y-76036600D01*
X166660156Y-76036600D02*
X166874441Y-76036600D01*
X166874441Y-76036600D02*
X166960156Y-75993742D01*
X167388727Y-76379457D02*
X167388727Y-75779457D01*
X167388727Y-75950885D02*
X167431584Y-75865171D01*
X167431584Y-75865171D02*
X167474442Y-75822314D01*
X167474442Y-75822314D02*
X167560156Y-75779457D01*
X167560156Y-75779457D02*
X167645870Y-75779457D01*
X168331585Y-76379457D02*
X168331585Y-75479457D01*
X168331585Y-76336600D02*
X168245870Y-76379457D01*
X168245870Y-76379457D02*
X168074442Y-76379457D01*
X168074442Y-76379457D02*
X167988727Y-76336600D01*
X167988727Y-76336600D02*
X167945870Y-76293742D01*
X167945870Y-76293742D02*
X167903013Y-76208028D01*
X167903013Y-76208028D02*
X167903013Y-75950885D01*
X167903013Y-75950885D02*
X167945870Y-75865171D01*
X167945870Y-75865171D02*
X167988727Y-75822314D01*
X167988727Y-75822314D02*
X168074442Y-75779457D01*
X168074442Y-75779457D02*
X168245870Y-75779457D01*
X168245870Y-75779457D02*
X168331585Y-75822314D01*
D11*
X131881064Y-119370485D02*
X131919160Y-119332390D01*
X131919160Y-119332390D02*
X131995350Y-119294295D01*
X131995350Y-119294295D02*
X132185826Y-119294295D01*
X132185826Y-119294295D02*
X132262017Y-119332390D01*
X132262017Y-119332390D02*
X132300112Y-119370485D01*
X132300112Y-119370485D02*
X132338207Y-119446676D01*
X132338207Y-119446676D02*
X132338207Y-119522866D01*
X132338207Y-119522866D02*
X132300112Y-119637152D01*
X132300112Y-119637152D02*
X131842969Y-120094295D01*
X131842969Y-120094295D02*
X132338207Y-120094295D01*
X151033332Y-115388295D02*
X151033332Y-114588295D01*
X151033332Y-114588295D02*
X151490475Y-115388295D01*
X151490475Y-115388295D02*
X151490475Y-114588295D01*
X152023808Y-114588295D02*
X152176189Y-114588295D01*
X152176189Y-114588295D02*
X152252379Y-114626390D01*
X152252379Y-114626390D02*
X152328570Y-114702580D01*
X152328570Y-114702580D02*
X152366665Y-114854961D01*
X152366665Y-114854961D02*
X152366665Y-115121628D01*
X152366665Y-115121628D02*
X152328570Y-115274009D01*
X152328570Y-115274009D02*
X152252379Y-115350200D01*
X152252379Y-115350200D02*
X152176189Y-115388295D01*
X152176189Y-115388295D02*
X152023808Y-115388295D01*
X152023808Y-115388295D02*
X151947617Y-115350200D01*
X151947617Y-115350200D02*
X151871427Y-115274009D01*
X151871427Y-115274009D02*
X151833331Y-115121628D01*
X151833331Y-115121628D02*
X151833331Y-114854961D01*
X151833331Y-114854961D02*
X151871427Y-114702580D01*
X151871427Y-114702580D02*
X151947617Y-114626390D01*
X151947617Y-114626390D02*
X152023808Y-114588295D01*
X152595236Y-114588295D02*
X153052379Y-114588295D01*
X152823807Y-115388295D02*
X152823807Y-114588295D01*
X153319046Y-114969247D02*
X153585712Y-114969247D01*
X153699998Y-115388295D02*
X153319046Y-115388295D01*
X153319046Y-115388295D02*
X153319046Y-114588295D01*
X153319046Y-114588295D02*
X153699998Y-114588295D01*
X154042856Y-115312104D02*
X154080951Y-115350200D01*
X154080951Y-115350200D02*
X154042856Y-115388295D01*
X154042856Y-115388295D02*
X154004760Y-115350200D01*
X154004760Y-115350200D02*
X154042856Y-115312104D01*
X154042856Y-115312104D02*
X154042856Y-115388295D01*
X154042856Y-114893057D02*
X154080951Y-114931152D01*
X154080951Y-114931152D02*
X154042856Y-114969247D01*
X154042856Y-114969247D02*
X154004760Y-114931152D01*
X154004760Y-114931152D02*
X154042856Y-114893057D01*
X154042856Y-114893057D02*
X154042856Y-114969247D01*
X155490475Y-115312104D02*
X155452379Y-115350200D01*
X155452379Y-115350200D02*
X155338094Y-115388295D01*
X155338094Y-115388295D02*
X155261903Y-115388295D01*
X155261903Y-115388295D02*
X155147617Y-115350200D01*
X155147617Y-115350200D02*
X155071427Y-115274009D01*
X155071427Y-115274009D02*
X155033332Y-115197819D01*
X155033332Y-115197819D02*
X154995236Y-115045438D01*
X154995236Y-115045438D02*
X154995236Y-114931152D01*
X154995236Y-114931152D02*
X155033332Y-114778771D01*
X155033332Y-114778771D02*
X155071427Y-114702580D01*
X155071427Y-114702580D02*
X155147617Y-114626390D01*
X155147617Y-114626390D02*
X155261903Y-114588295D01*
X155261903Y-114588295D02*
X155338094Y-114588295D01*
X155338094Y-114588295D02*
X155452379Y-114626390D01*
X155452379Y-114626390D02*
X155490475Y-114664485D01*
X155757141Y-114588295D02*
X155947617Y-115388295D01*
X155947617Y-115388295D02*
X156099998Y-114816866D01*
X156099998Y-114816866D02*
X156252379Y-115388295D01*
X156252379Y-115388295D02*
X156442856Y-114588295D01*
X157357142Y-114854961D02*
X157357142Y-115654961D01*
X157357142Y-114893057D02*
X157433332Y-114854961D01*
X157433332Y-114854961D02*
X157585713Y-114854961D01*
X157585713Y-114854961D02*
X157661904Y-114893057D01*
X157661904Y-114893057D02*
X157699999Y-114931152D01*
X157699999Y-114931152D02*
X157738094Y-115007342D01*
X157738094Y-115007342D02*
X157738094Y-115235914D01*
X157738094Y-115235914D02*
X157699999Y-115312104D01*
X157699999Y-115312104D02*
X157661904Y-115350200D01*
X157661904Y-115350200D02*
X157585713Y-115388295D01*
X157585713Y-115388295D02*
X157433332Y-115388295D01*
X157433332Y-115388295D02*
X157357142Y-115350200D01*
X158080952Y-115388295D02*
X158080952Y-114854961D01*
X158080952Y-114588295D02*
X158042856Y-114626390D01*
X158042856Y-114626390D02*
X158080952Y-114664485D01*
X158080952Y-114664485D02*
X158119047Y-114626390D01*
X158119047Y-114626390D02*
X158080952Y-114588295D01*
X158080952Y-114588295D02*
X158080952Y-114664485D01*
X158461904Y-114854961D02*
X158461904Y-115388295D01*
X158461904Y-114931152D02*
X158499999Y-114893057D01*
X158499999Y-114893057D02*
X158576189Y-114854961D01*
X158576189Y-114854961D02*
X158690475Y-114854961D01*
X158690475Y-114854961D02*
X158766666Y-114893057D01*
X158766666Y-114893057D02*
X158804761Y-114969247D01*
X158804761Y-114969247D02*
X158804761Y-115388295D01*
X159147618Y-115350200D02*
X159223809Y-115388295D01*
X159223809Y-115388295D02*
X159376190Y-115388295D01*
X159376190Y-115388295D02*
X159452380Y-115350200D01*
X159452380Y-115350200D02*
X159490476Y-115274009D01*
X159490476Y-115274009D02*
X159490476Y-115235914D01*
X159490476Y-115235914D02*
X159452380Y-115159723D01*
X159452380Y-115159723D02*
X159376190Y-115121628D01*
X159376190Y-115121628D02*
X159261904Y-115121628D01*
X159261904Y-115121628D02*
X159185714Y-115083533D01*
X159185714Y-115083533D02*
X159147618Y-115007342D01*
X159147618Y-115007342D02*
X159147618Y-114969247D01*
X159147618Y-114969247D02*
X159185714Y-114893057D01*
X159185714Y-114893057D02*
X159261904Y-114854961D01*
X159261904Y-114854961D02*
X159376190Y-114854961D01*
X159376190Y-114854961D02*
X159452380Y-114893057D01*
X160785714Y-115388295D02*
X160785714Y-114969247D01*
X160785714Y-114969247D02*
X160747619Y-114893057D01*
X160747619Y-114893057D02*
X160671428Y-114854961D01*
X160671428Y-114854961D02*
X160519047Y-114854961D01*
X160519047Y-114854961D02*
X160442857Y-114893057D01*
X160785714Y-115350200D02*
X160709523Y-115388295D01*
X160709523Y-115388295D02*
X160519047Y-115388295D01*
X160519047Y-115388295D02*
X160442857Y-115350200D01*
X160442857Y-115350200D02*
X160404761Y-115274009D01*
X160404761Y-115274009D02*
X160404761Y-115197819D01*
X160404761Y-115197819D02*
X160442857Y-115121628D01*
X160442857Y-115121628D02*
X160519047Y-115083533D01*
X160519047Y-115083533D02*
X160709523Y-115083533D01*
X160709523Y-115083533D02*
X160785714Y-115045438D01*
X161166667Y-115388295D02*
X161166667Y-114854961D01*
X161166667Y-115007342D02*
X161204762Y-114931152D01*
X161204762Y-114931152D02*
X161242857Y-114893057D01*
X161242857Y-114893057D02*
X161319048Y-114854961D01*
X161319048Y-114854961D02*
X161395238Y-114854961D01*
X161966667Y-115350200D02*
X161890476Y-115388295D01*
X161890476Y-115388295D02*
X161738095Y-115388295D01*
X161738095Y-115388295D02*
X161661905Y-115350200D01*
X161661905Y-115350200D02*
X161623809Y-115274009D01*
X161623809Y-115274009D02*
X161623809Y-114969247D01*
X161623809Y-114969247D02*
X161661905Y-114893057D01*
X161661905Y-114893057D02*
X161738095Y-114854961D01*
X161738095Y-114854961D02*
X161890476Y-114854961D01*
X161890476Y-114854961D02*
X161966667Y-114893057D01*
X161966667Y-114893057D02*
X162004762Y-114969247D01*
X162004762Y-114969247D02*
X162004762Y-115045438D01*
X162004762Y-115045438D02*
X161623809Y-115121628D01*
X162880952Y-114588295D02*
X163376190Y-114588295D01*
X163376190Y-114588295D02*
X163109524Y-114893057D01*
X163109524Y-114893057D02*
X163223809Y-114893057D01*
X163223809Y-114893057D02*
X163300000Y-114931152D01*
X163300000Y-114931152D02*
X163338095Y-114969247D01*
X163338095Y-114969247D02*
X163376190Y-115045438D01*
X163376190Y-115045438D02*
X163376190Y-115235914D01*
X163376190Y-115235914D02*
X163338095Y-115312104D01*
X163338095Y-115312104D02*
X163300000Y-115350200D01*
X163300000Y-115350200D02*
X163223809Y-115388295D01*
X163223809Y-115388295D02*
X162995238Y-115388295D01*
X162995238Y-115388295D02*
X162919047Y-115350200D01*
X162919047Y-115350200D02*
X162880952Y-115312104D01*
X163719048Y-115312104D02*
X163757143Y-115350200D01*
X163757143Y-115350200D02*
X163719048Y-115388295D01*
X163719048Y-115388295D02*
X163680952Y-115350200D01*
X163680952Y-115350200D02*
X163719048Y-115312104D01*
X163719048Y-115312104D02*
X163719048Y-115388295D01*
X164023809Y-114588295D02*
X164519047Y-114588295D01*
X164519047Y-114588295D02*
X164252381Y-114893057D01*
X164252381Y-114893057D02*
X164366666Y-114893057D01*
X164366666Y-114893057D02*
X164442857Y-114931152D01*
X164442857Y-114931152D02*
X164480952Y-114969247D01*
X164480952Y-114969247D02*
X164519047Y-115045438D01*
X164519047Y-115045438D02*
X164519047Y-115235914D01*
X164519047Y-115235914D02*
X164480952Y-115312104D01*
X164480952Y-115312104D02*
X164442857Y-115350200D01*
X164442857Y-115350200D02*
X164366666Y-115388295D01*
X164366666Y-115388295D02*
X164138095Y-115388295D01*
X164138095Y-115388295D02*
X164061904Y-115350200D01*
X164061904Y-115350200D02*
X164023809Y-115312104D01*
X164785714Y-114854961D02*
X164976190Y-115388295D01*
X164976190Y-115388295D02*
X165166667Y-114854961D01*
X166195238Y-115388295D02*
X166119048Y-115350200D01*
X166119048Y-115350200D02*
X166080953Y-115312104D01*
X166080953Y-115312104D02*
X166042857Y-115235914D01*
X166042857Y-115235914D02*
X166042857Y-115007342D01*
X166042857Y-115007342D02*
X166080953Y-114931152D01*
X166080953Y-114931152D02*
X166119048Y-114893057D01*
X166119048Y-114893057D02*
X166195238Y-114854961D01*
X166195238Y-114854961D02*
X166309524Y-114854961D01*
X166309524Y-114854961D02*
X166385715Y-114893057D01*
X166385715Y-114893057D02*
X166423810Y-114931152D01*
X166423810Y-114931152D02*
X166461905Y-115007342D01*
X166461905Y-115007342D02*
X166461905Y-115235914D01*
X166461905Y-115235914D02*
X166423810Y-115312104D01*
X166423810Y-115312104D02*
X166385715Y-115350200D01*
X166385715Y-115350200D02*
X166309524Y-115388295D01*
X166309524Y-115388295D02*
X166195238Y-115388295D01*
X166804763Y-114854961D02*
X166804763Y-115388295D01*
X166804763Y-114931152D02*
X166842858Y-114893057D01*
X166842858Y-114893057D02*
X166919048Y-114854961D01*
X166919048Y-114854961D02*
X167033334Y-114854961D01*
X167033334Y-114854961D02*
X167109525Y-114893057D01*
X167109525Y-114893057D02*
X167147620Y-114969247D01*
X167147620Y-114969247D02*
X167147620Y-115388295D01*
X167642858Y-115388295D02*
X167566668Y-115350200D01*
X167566668Y-115350200D02*
X167528573Y-115274009D01*
X167528573Y-115274009D02*
X167528573Y-114588295D01*
X167871430Y-114854961D02*
X168061906Y-115388295D01*
X168252383Y-114854961D02*
X168061906Y-115388295D01*
X168061906Y-115388295D02*
X167985716Y-115578771D01*
X167985716Y-115578771D02*
X167947621Y-115616866D01*
X167947621Y-115616866D02*
X167871430Y-115654961D01*
X168595240Y-115350200D02*
X168595240Y-115388295D01*
X168595240Y-115388295D02*
X168557145Y-115464485D01*
X168557145Y-115464485D02*
X168519049Y-115502580D01*
X152480950Y-116676295D02*
X152480950Y-116142961D01*
X152480950Y-116219152D02*
X152519045Y-116181057D01*
X152519045Y-116181057D02*
X152595235Y-116142961D01*
X152595235Y-116142961D02*
X152709521Y-116142961D01*
X152709521Y-116142961D02*
X152785712Y-116181057D01*
X152785712Y-116181057D02*
X152823807Y-116257247D01*
X152823807Y-116257247D02*
X152823807Y-116676295D01*
X152823807Y-116257247D02*
X152861902Y-116181057D01*
X152861902Y-116181057D02*
X152938093Y-116142961D01*
X152938093Y-116142961D02*
X153052378Y-116142961D01*
X153052378Y-116142961D02*
X153128569Y-116181057D01*
X153128569Y-116181057D02*
X153166664Y-116257247D01*
X153166664Y-116257247D02*
X153166664Y-116676295D01*
X153890474Y-116142961D02*
X153890474Y-116676295D01*
X153547617Y-116142961D02*
X153547617Y-116562009D01*
X153547617Y-116562009D02*
X153585712Y-116638200D01*
X153585712Y-116638200D02*
X153661902Y-116676295D01*
X153661902Y-116676295D02*
X153776188Y-116676295D01*
X153776188Y-116676295D02*
X153852379Y-116638200D01*
X153852379Y-116638200D02*
X153890474Y-116600104D01*
X154233331Y-116638200D02*
X154309522Y-116676295D01*
X154309522Y-116676295D02*
X154461903Y-116676295D01*
X154461903Y-116676295D02*
X154538093Y-116638200D01*
X154538093Y-116638200D02*
X154576189Y-116562009D01*
X154576189Y-116562009D02*
X154576189Y-116523914D01*
X154576189Y-116523914D02*
X154538093Y-116447723D01*
X154538093Y-116447723D02*
X154461903Y-116409628D01*
X154461903Y-116409628D02*
X154347617Y-116409628D01*
X154347617Y-116409628D02*
X154271427Y-116371533D01*
X154271427Y-116371533D02*
X154233331Y-116295342D01*
X154233331Y-116295342D02*
X154233331Y-116257247D01*
X154233331Y-116257247D02*
X154271427Y-116181057D01*
X154271427Y-116181057D02*
X154347617Y-116142961D01*
X154347617Y-116142961D02*
X154461903Y-116142961D01*
X154461903Y-116142961D02*
X154538093Y-116181057D01*
X154804760Y-116142961D02*
X155109522Y-116142961D01*
X154919046Y-115876295D02*
X154919046Y-116562009D01*
X154919046Y-116562009D02*
X154957141Y-116638200D01*
X154957141Y-116638200D02*
X155033331Y-116676295D01*
X155033331Y-116676295D02*
X155109522Y-116676295D01*
X156328570Y-116142961D02*
X156328570Y-116676295D01*
X155985713Y-116142961D02*
X155985713Y-116562009D01*
X155985713Y-116562009D02*
X156023808Y-116638200D01*
X156023808Y-116638200D02*
X156099998Y-116676295D01*
X156099998Y-116676295D02*
X156214284Y-116676295D01*
X156214284Y-116676295D02*
X156290475Y-116638200D01*
X156290475Y-116638200D02*
X156328570Y-116600104D01*
X156671427Y-116638200D02*
X156747618Y-116676295D01*
X156747618Y-116676295D02*
X156899999Y-116676295D01*
X156899999Y-116676295D02*
X156976189Y-116638200D01*
X156976189Y-116638200D02*
X157014285Y-116562009D01*
X157014285Y-116562009D02*
X157014285Y-116523914D01*
X157014285Y-116523914D02*
X156976189Y-116447723D01*
X156976189Y-116447723D02*
X156899999Y-116409628D01*
X156899999Y-116409628D02*
X156785713Y-116409628D01*
X156785713Y-116409628D02*
X156709523Y-116371533D01*
X156709523Y-116371533D02*
X156671427Y-116295342D01*
X156671427Y-116295342D02*
X156671427Y-116257247D01*
X156671427Y-116257247D02*
X156709523Y-116181057D01*
X156709523Y-116181057D02*
X156785713Y-116142961D01*
X156785713Y-116142961D02*
X156899999Y-116142961D01*
X156899999Y-116142961D02*
X156976189Y-116181057D01*
X157661904Y-116638200D02*
X157585713Y-116676295D01*
X157585713Y-116676295D02*
X157433332Y-116676295D01*
X157433332Y-116676295D02*
X157357142Y-116638200D01*
X157357142Y-116638200D02*
X157319046Y-116562009D01*
X157319046Y-116562009D02*
X157319046Y-116257247D01*
X157319046Y-116257247D02*
X157357142Y-116181057D01*
X157357142Y-116181057D02*
X157433332Y-116142961D01*
X157433332Y-116142961D02*
X157585713Y-116142961D01*
X157585713Y-116142961D02*
X157661904Y-116181057D01*
X157661904Y-116181057D02*
X157699999Y-116257247D01*
X157699999Y-116257247D02*
X157699999Y-116333438D01*
X157699999Y-116333438D02*
X157319046Y-116409628D01*
X159109523Y-116600104D02*
X159071427Y-116638200D01*
X159071427Y-116638200D02*
X158957142Y-116676295D01*
X158957142Y-116676295D02*
X158880951Y-116676295D01*
X158880951Y-116676295D02*
X158766665Y-116638200D01*
X158766665Y-116638200D02*
X158690475Y-116562009D01*
X158690475Y-116562009D02*
X158652380Y-116485819D01*
X158652380Y-116485819D02*
X158614284Y-116333438D01*
X158614284Y-116333438D02*
X158614284Y-116219152D01*
X158614284Y-116219152D02*
X158652380Y-116066771D01*
X158652380Y-116066771D02*
X158690475Y-115990580D01*
X158690475Y-115990580D02*
X158766665Y-115914390D01*
X158766665Y-115914390D02*
X158880951Y-115876295D01*
X158880951Y-115876295D02*
X158957142Y-115876295D01*
X158957142Y-115876295D02*
X159071427Y-115914390D01*
X159071427Y-115914390D02*
X159109523Y-115952485D01*
X159376189Y-115876295D02*
X159566665Y-116676295D01*
X159566665Y-116676295D02*
X159719046Y-116104866D01*
X159719046Y-116104866D02*
X159871427Y-116676295D01*
X159871427Y-116676295D02*
X160061904Y-115876295D01*
X160747618Y-115876295D02*
X160366666Y-115876295D01*
X160366666Y-115876295D02*
X160328570Y-116257247D01*
X160328570Y-116257247D02*
X160366666Y-116219152D01*
X160366666Y-116219152D02*
X160442856Y-116181057D01*
X160442856Y-116181057D02*
X160633332Y-116181057D01*
X160633332Y-116181057D02*
X160709523Y-116219152D01*
X160709523Y-116219152D02*
X160747618Y-116257247D01*
X160747618Y-116257247D02*
X160785713Y-116333438D01*
X160785713Y-116333438D02*
X160785713Y-116523914D01*
X160785713Y-116523914D02*
X160747618Y-116600104D01*
X160747618Y-116600104D02*
X160709523Y-116638200D01*
X160709523Y-116638200D02*
X160633332Y-116676295D01*
X160633332Y-116676295D02*
X160442856Y-116676295D01*
X160442856Y-116676295D02*
X160366666Y-116638200D01*
X160366666Y-116638200D02*
X160328570Y-116600104D01*
X161280952Y-115876295D02*
X161357142Y-115876295D01*
X161357142Y-115876295D02*
X161433333Y-115914390D01*
X161433333Y-115914390D02*
X161471428Y-115952485D01*
X161471428Y-115952485D02*
X161509523Y-116028676D01*
X161509523Y-116028676D02*
X161547618Y-116181057D01*
X161547618Y-116181057D02*
X161547618Y-116371533D01*
X161547618Y-116371533D02*
X161509523Y-116523914D01*
X161509523Y-116523914D02*
X161471428Y-116600104D01*
X161471428Y-116600104D02*
X161433333Y-116638200D01*
X161433333Y-116638200D02*
X161357142Y-116676295D01*
X161357142Y-116676295D02*
X161280952Y-116676295D01*
X161280952Y-116676295D02*
X161204761Y-116638200D01*
X161204761Y-116638200D02*
X161166666Y-116600104D01*
X161166666Y-116600104D02*
X161128571Y-116523914D01*
X161128571Y-116523914D02*
X161090475Y-116371533D01*
X161090475Y-116371533D02*
X161090475Y-116181057D01*
X161090475Y-116181057D02*
X161128571Y-116028676D01*
X161128571Y-116028676D02*
X161166666Y-115952485D01*
X161166666Y-115952485D02*
X161204761Y-115914390D01*
X161204761Y-115914390D02*
X161280952Y-115876295D01*
X162233333Y-115876295D02*
X162080952Y-115876295D01*
X162080952Y-115876295D02*
X162004761Y-115914390D01*
X162004761Y-115914390D02*
X161966666Y-115952485D01*
X161966666Y-115952485D02*
X161890476Y-116066771D01*
X161890476Y-116066771D02*
X161852380Y-116219152D01*
X161852380Y-116219152D02*
X161852380Y-116523914D01*
X161852380Y-116523914D02*
X161890476Y-116600104D01*
X161890476Y-116600104D02*
X161928571Y-116638200D01*
X161928571Y-116638200D02*
X162004761Y-116676295D01*
X162004761Y-116676295D02*
X162157142Y-116676295D01*
X162157142Y-116676295D02*
X162233333Y-116638200D01*
X162233333Y-116638200D02*
X162271428Y-116600104D01*
X162271428Y-116600104D02*
X162309523Y-116523914D01*
X162309523Y-116523914D02*
X162309523Y-116333438D01*
X162309523Y-116333438D02*
X162271428Y-116257247D01*
X162271428Y-116257247D02*
X162233333Y-116219152D01*
X162233333Y-116219152D02*
X162157142Y-116181057D01*
X162157142Y-116181057D02*
X162004761Y-116181057D01*
X162004761Y-116181057D02*
X161928571Y-116219152D01*
X161928571Y-116219152D02*
X161890476Y-116257247D01*
X161890476Y-116257247D02*
X161852380Y-116333438D01*
X163261905Y-116676295D02*
X163261905Y-115876295D01*
X163261905Y-116181057D02*
X163338095Y-116142961D01*
X163338095Y-116142961D02*
X163490476Y-116142961D01*
X163490476Y-116142961D02*
X163566667Y-116181057D01*
X163566667Y-116181057D02*
X163604762Y-116219152D01*
X163604762Y-116219152D02*
X163642857Y-116295342D01*
X163642857Y-116295342D02*
X163642857Y-116523914D01*
X163642857Y-116523914D02*
X163604762Y-116600104D01*
X163604762Y-116600104D02*
X163566667Y-116638200D01*
X163566667Y-116638200D02*
X163490476Y-116676295D01*
X163490476Y-116676295D02*
X163338095Y-116676295D01*
X163338095Y-116676295D02*
X163261905Y-116638200D01*
X164100000Y-116676295D02*
X164023810Y-116638200D01*
X164023810Y-116638200D02*
X163985715Y-116600104D01*
X163985715Y-116600104D02*
X163947619Y-116523914D01*
X163947619Y-116523914D02*
X163947619Y-116295342D01*
X163947619Y-116295342D02*
X163985715Y-116219152D01*
X163985715Y-116219152D02*
X164023810Y-116181057D01*
X164023810Y-116181057D02*
X164100000Y-116142961D01*
X164100000Y-116142961D02*
X164214286Y-116142961D01*
X164214286Y-116142961D02*
X164290477Y-116181057D01*
X164290477Y-116181057D02*
X164328572Y-116219152D01*
X164328572Y-116219152D02*
X164366667Y-116295342D01*
X164366667Y-116295342D02*
X164366667Y-116523914D01*
X164366667Y-116523914D02*
X164328572Y-116600104D01*
X164328572Y-116600104D02*
X164290477Y-116638200D01*
X164290477Y-116638200D02*
X164214286Y-116676295D01*
X164214286Y-116676295D02*
X164100000Y-116676295D01*
X165052382Y-116676295D02*
X165052382Y-116257247D01*
X165052382Y-116257247D02*
X165014287Y-116181057D01*
X165014287Y-116181057D02*
X164938096Y-116142961D01*
X164938096Y-116142961D02*
X164785715Y-116142961D01*
X164785715Y-116142961D02*
X164709525Y-116181057D01*
X165052382Y-116638200D02*
X164976191Y-116676295D01*
X164976191Y-116676295D02*
X164785715Y-116676295D01*
X164785715Y-116676295D02*
X164709525Y-116638200D01*
X164709525Y-116638200D02*
X164671429Y-116562009D01*
X164671429Y-116562009D02*
X164671429Y-116485819D01*
X164671429Y-116485819D02*
X164709525Y-116409628D01*
X164709525Y-116409628D02*
X164785715Y-116371533D01*
X164785715Y-116371533D02*
X164976191Y-116371533D01*
X164976191Y-116371533D02*
X165052382Y-116333438D01*
X165433335Y-116676295D02*
X165433335Y-116142961D01*
X165433335Y-116295342D02*
X165471430Y-116219152D01*
X165471430Y-116219152D02*
X165509525Y-116181057D01*
X165509525Y-116181057D02*
X165585716Y-116142961D01*
X165585716Y-116142961D02*
X165661906Y-116142961D01*
X166271430Y-116676295D02*
X166271430Y-115876295D01*
X166271430Y-116638200D02*
X166195239Y-116676295D01*
X166195239Y-116676295D02*
X166042858Y-116676295D01*
X166042858Y-116676295D02*
X165966668Y-116638200D01*
X165966668Y-116638200D02*
X165928573Y-116600104D01*
X165928573Y-116600104D02*
X165890477Y-116523914D01*
X165890477Y-116523914D02*
X165890477Y-116295342D01*
X165890477Y-116295342D02*
X165928573Y-116219152D01*
X165928573Y-116219152D02*
X165966668Y-116181057D01*
X165966668Y-116181057D02*
X166042858Y-116142961D01*
X166042858Y-116142961D02*
X166195239Y-116142961D01*
X166195239Y-116142961D02*
X166271430Y-116181057D01*
X167261907Y-116676295D02*
X167261907Y-116142961D01*
X167261907Y-115876295D02*
X167223811Y-115914390D01*
X167223811Y-115914390D02*
X167261907Y-115952485D01*
X167261907Y-115952485D02*
X167300002Y-115914390D01*
X167300002Y-115914390D02*
X167261907Y-115876295D01*
X167261907Y-115876295D02*
X167261907Y-115952485D01*
X167528573Y-116142961D02*
X167833335Y-116142961D01*
X167642859Y-116676295D02*
X167642859Y-115990580D01*
X167642859Y-115990580D02*
X167680954Y-115914390D01*
X167680954Y-115914390D02*
X167757144Y-115876295D01*
X167757144Y-115876295D02*
X167833335Y-115876295D01*
X155376189Y-117430961D02*
X155376189Y-117964295D01*
X155033332Y-117430961D02*
X155033332Y-117850009D01*
X155033332Y-117850009D02*
X155071427Y-117926200D01*
X155071427Y-117926200D02*
X155147617Y-117964295D01*
X155147617Y-117964295D02*
X155261903Y-117964295D01*
X155261903Y-117964295D02*
X155338094Y-117926200D01*
X155338094Y-117926200D02*
X155376189Y-117888104D01*
X155719046Y-117926200D02*
X155795237Y-117964295D01*
X155795237Y-117964295D02*
X155947618Y-117964295D01*
X155947618Y-117964295D02*
X156023808Y-117926200D01*
X156023808Y-117926200D02*
X156061904Y-117850009D01*
X156061904Y-117850009D02*
X156061904Y-117811914D01*
X156061904Y-117811914D02*
X156023808Y-117735723D01*
X156023808Y-117735723D02*
X155947618Y-117697628D01*
X155947618Y-117697628D02*
X155833332Y-117697628D01*
X155833332Y-117697628D02*
X155757142Y-117659533D01*
X155757142Y-117659533D02*
X155719046Y-117583342D01*
X155719046Y-117583342D02*
X155719046Y-117545247D01*
X155719046Y-117545247D02*
X155757142Y-117469057D01*
X155757142Y-117469057D02*
X155833332Y-117430961D01*
X155833332Y-117430961D02*
X155947618Y-117430961D01*
X155947618Y-117430961D02*
X156023808Y-117469057D01*
X156404761Y-117964295D02*
X156404761Y-117430961D01*
X156404761Y-117164295D02*
X156366665Y-117202390D01*
X156366665Y-117202390D02*
X156404761Y-117240485D01*
X156404761Y-117240485D02*
X156442856Y-117202390D01*
X156442856Y-117202390D02*
X156404761Y-117164295D01*
X156404761Y-117164295D02*
X156404761Y-117240485D01*
X156785713Y-117430961D02*
X156785713Y-117964295D01*
X156785713Y-117507152D02*
X156823808Y-117469057D01*
X156823808Y-117469057D02*
X156899998Y-117430961D01*
X156899998Y-117430961D02*
X157014284Y-117430961D01*
X157014284Y-117430961D02*
X157090475Y-117469057D01*
X157090475Y-117469057D02*
X157128570Y-117545247D01*
X157128570Y-117545247D02*
X157128570Y-117964295D01*
X157852380Y-117430961D02*
X157852380Y-118078580D01*
X157852380Y-118078580D02*
X157814285Y-118154771D01*
X157814285Y-118154771D02*
X157776189Y-118192866D01*
X157776189Y-118192866D02*
X157699999Y-118230961D01*
X157699999Y-118230961D02*
X157585713Y-118230961D01*
X157585713Y-118230961D02*
X157509523Y-118192866D01*
X157852380Y-117926200D02*
X157776189Y-117964295D01*
X157776189Y-117964295D02*
X157623808Y-117964295D01*
X157623808Y-117964295D02*
X157547618Y-117926200D01*
X157547618Y-117926200D02*
X157509523Y-117888104D01*
X157509523Y-117888104D02*
X157471427Y-117811914D01*
X157471427Y-117811914D02*
X157471427Y-117583342D01*
X157471427Y-117583342D02*
X157509523Y-117507152D01*
X157509523Y-117507152D02*
X157547618Y-117469057D01*
X157547618Y-117469057D02*
X157623808Y-117430961D01*
X157623808Y-117430961D02*
X157776189Y-117430961D01*
X157776189Y-117430961D02*
X157852380Y-117469057D01*
X159223809Y-117164295D02*
X158842857Y-117164295D01*
X158842857Y-117164295D02*
X158804761Y-117545247D01*
X158804761Y-117545247D02*
X158842857Y-117507152D01*
X158842857Y-117507152D02*
X158919047Y-117469057D01*
X158919047Y-117469057D02*
X159109523Y-117469057D01*
X159109523Y-117469057D02*
X159185714Y-117507152D01*
X159185714Y-117507152D02*
X159223809Y-117545247D01*
X159223809Y-117545247D02*
X159261904Y-117621438D01*
X159261904Y-117621438D02*
X159261904Y-117811914D01*
X159261904Y-117811914D02*
X159223809Y-117888104D01*
X159223809Y-117888104D02*
X159185714Y-117926200D01*
X159185714Y-117926200D02*
X159109523Y-117964295D01*
X159109523Y-117964295D02*
X158919047Y-117964295D01*
X158919047Y-117964295D02*
X158842857Y-117926200D01*
X158842857Y-117926200D02*
X158804761Y-117888104D01*
X159528571Y-117430961D02*
X159719047Y-117964295D01*
X159719047Y-117964295D02*
X159909524Y-117430961D01*
X160938095Y-117964295D02*
X160861905Y-117926200D01*
X160861905Y-117926200D02*
X160823810Y-117888104D01*
X160823810Y-117888104D02*
X160785714Y-117811914D01*
X160785714Y-117811914D02*
X160785714Y-117583342D01*
X160785714Y-117583342D02*
X160823810Y-117507152D01*
X160823810Y-117507152D02*
X160861905Y-117469057D01*
X160861905Y-117469057D02*
X160938095Y-117430961D01*
X160938095Y-117430961D02*
X161052381Y-117430961D01*
X161052381Y-117430961D02*
X161128572Y-117469057D01*
X161128572Y-117469057D02*
X161166667Y-117507152D01*
X161166667Y-117507152D02*
X161204762Y-117583342D01*
X161204762Y-117583342D02*
X161204762Y-117811914D01*
X161204762Y-117811914D02*
X161166667Y-117888104D01*
X161166667Y-117888104D02*
X161128572Y-117926200D01*
X161128572Y-117926200D02*
X161052381Y-117964295D01*
X161052381Y-117964295D02*
X160938095Y-117964295D01*
X161547620Y-117964295D02*
X161547620Y-117430961D01*
X161547620Y-117583342D02*
X161585715Y-117507152D01*
X161585715Y-117507152D02*
X161623810Y-117469057D01*
X161623810Y-117469057D02*
X161700001Y-117430961D01*
X161700001Y-117430961D02*
X161776191Y-117430961D01*
X162614286Y-117240485D02*
X162652382Y-117202390D01*
X162652382Y-117202390D02*
X162728572Y-117164295D01*
X162728572Y-117164295D02*
X162919048Y-117164295D01*
X162919048Y-117164295D02*
X162995239Y-117202390D01*
X162995239Y-117202390D02*
X163033334Y-117240485D01*
X163033334Y-117240485D02*
X163071429Y-117316676D01*
X163071429Y-117316676D02*
X163071429Y-117392866D01*
X163071429Y-117392866D02*
X163033334Y-117507152D01*
X163033334Y-117507152D02*
X162576191Y-117964295D01*
X162576191Y-117964295D02*
X163071429Y-117964295D01*
X163414287Y-117888104D02*
X163452382Y-117926200D01*
X163452382Y-117926200D02*
X163414287Y-117964295D01*
X163414287Y-117964295D02*
X163376191Y-117926200D01*
X163376191Y-117926200D02*
X163414287Y-117888104D01*
X163414287Y-117888104D02*
X163414287Y-117964295D01*
X164176191Y-117164295D02*
X163795239Y-117164295D01*
X163795239Y-117164295D02*
X163757143Y-117545247D01*
X163757143Y-117545247D02*
X163795239Y-117507152D01*
X163795239Y-117507152D02*
X163871429Y-117469057D01*
X163871429Y-117469057D02*
X164061905Y-117469057D01*
X164061905Y-117469057D02*
X164138096Y-117507152D01*
X164138096Y-117507152D02*
X164176191Y-117545247D01*
X164176191Y-117545247D02*
X164214286Y-117621438D01*
X164214286Y-117621438D02*
X164214286Y-117811914D01*
X164214286Y-117811914D02*
X164176191Y-117888104D01*
X164176191Y-117888104D02*
X164138096Y-117926200D01*
X164138096Y-117926200D02*
X164061905Y-117964295D01*
X164061905Y-117964295D02*
X163871429Y-117964295D01*
X163871429Y-117964295D02*
X163795239Y-117926200D01*
X163795239Y-117926200D02*
X163757143Y-117888104D01*
X164480953Y-117430961D02*
X164671429Y-117964295D01*
X164671429Y-117964295D02*
X164861906Y-117430961D01*
X165166668Y-117888104D02*
X165204763Y-117926200D01*
X165204763Y-117926200D02*
X165166668Y-117964295D01*
X165166668Y-117964295D02*
X165128572Y-117926200D01*
X165128572Y-117926200D02*
X165166668Y-117888104D01*
X165166668Y-117888104D02*
X165166668Y-117964295D01*
X165166668Y-117659533D02*
X165128572Y-117202390D01*
X165128572Y-117202390D02*
X165166668Y-117164295D01*
X165166668Y-117164295D02*
X165204763Y-117202390D01*
X165204763Y-117202390D02*
X165166668Y-117659533D01*
X165166668Y-117659533D02*
X165166668Y-117164295D01*
X133582969Y-120944295D02*
X134078207Y-120944295D01*
X134078207Y-120944295D02*
X133811541Y-121249057D01*
X133811541Y-121249057D02*
X133925826Y-121249057D01*
X133925826Y-121249057D02*
X134002017Y-121287152D01*
X134002017Y-121287152D02*
X134040112Y-121325247D01*
X134040112Y-121325247D02*
X134078207Y-121401438D01*
X134078207Y-121401438D02*
X134078207Y-121591914D01*
X134078207Y-121591914D02*
X134040112Y-121668104D01*
X134040112Y-121668104D02*
X134002017Y-121706200D01*
X134002017Y-121706200D02*
X133925826Y-121744295D01*
X133925826Y-121744295D02*
X133697255Y-121744295D01*
X133697255Y-121744295D02*
X133621064Y-121706200D01*
X133621064Y-121706200D02*
X133582969Y-121668104D01*
X134012017Y-119560961D02*
X134012017Y-120094295D01*
X133821541Y-119256200D02*
X133631064Y-119827628D01*
X133631064Y-119827628D02*
X134126303Y-119827628D01*
X137283445Y-119637152D02*
X137207255Y-119599057D01*
X137207255Y-119599057D02*
X137169160Y-119560961D01*
X137169160Y-119560961D02*
X137131064Y-119484771D01*
X137131064Y-119484771D02*
X137131064Y-119446676D01*
X137131064Y-119446676D02*
X137169160Y-119370485D01*
X137169160Y-119370485D02*
X137207255Y-119332390D01*
X137207255Y-119332390D02*
X137283445Y-119294295D01*
X137283445Y-119294295D02*
X137435826Y-119294295D01*
X137435826Y-119294295D02*
X137512017Y-119332390D01*
X137512017Y-119332390D02*
X137550112Y-119370485D01*
X137550112Y-119370485D02*
X137588207Y-119446676D01*
X137588207Y-119446676D02*
X137588207Y-119484771D01*
X137588207Y-119484771D02*
X137550112Y-119560961D01*
X137550112Y-119560961D02*
X137512017Y-119599057D01*
X137512017Y-119599057D02*
X137435826Y-119637152D01*
X137435826Y-119637152D02*
X137283445Y-119637152D01*
X137283445Y-119637152D02*
X137207255Y-119675247D01*
X137207255Y-119675247D02*
X137169160Y-119713342D01*
X137169160Y-119713342D02*
X137131064Y-119789533D01*
X137131064Y-119789533D02*
X137131064Y-119941914D01*
X137131064Y-119941914D02*
X137169160Y-120018104D01*
X137169160Y-120018104D02*
X137207255Y-120056200D01*
X137207255Y-120056200D02*
X137283445Y-120094295D01*
X137283445Y-120094295D02*
X137435826Y-120094295D01*
X137435826Y-120094295D02*
X137512017Y-120056200D01*
X137512017Y-120056200D02*
X137550112Y-120018104D01*
X137550112Y-120018104D02*
X137588207Y-119941914D01*
X137588207Y-119941914D02*
X137588207Y-119789533D01*
X137588207Y-119789533D02*
X137550112Y-119713342D01*
X137550112Y-119713342D02*
X137512017Y-119675247D01*
X137512017Y-119675247D02*
X137435826Y-119637152D01*
X132328207Y-121744295D02*
X131871064Y-121744295D01*
X132099636Y-121744295D02*
X132099636Y-120944295D01*
X132099636Y-120944295D02*
X132023445Y-121058580D01*
X132023445Y-121058580D02*
X131947255Y-121134771D01*
X131947255Y-121134771D02*
X131871064Y-121172866D01*
X137434295Y-117553696D02*
X137053342Y-117820363D01*
X137434295Y-118010839D02*
X136634295Y-118010839D01*
X136634295Y-118010839D02*
X136634295Y-117706077D01*
X136634295Y-117706077D02*
X136672390Y-117629887D01*
X136672390Y-117629887D02*
X136710485Y-117591792D01*
X136710485Y-117591792D02*
X136786676Y-117553696D01*
X136786676Y-117553696D02*
X136900961Y-117553696D01*
X136900961Y-117553696D02*
X136977152Y-117591792D01*
X136977152Y-117591792D02*
X137015247Y-117629887D01*
X137015247Y-117629887D02*
X137053342Y-117706077D01*
X137053342Y-117706077D02*
X137053342Y-118010839D01*
X137015247Y-117210839D02*
X137015247Y-116944173D01*
X137434295Y-116829887D02*
X137434295Y-117210839D01*
X137434295Y-117210839D02*
X136634295Y-117210839D01*
X136634295Y-117210839D02*
X136634295Y-116829887D01*
X137396200Y-116525125D02*
X137434295Y-116410839D01*
X137434295Y-116410839D02*
X137434295Y-116220363D01*
X137434295Y-116220363D02*
X137396200Y-116144172D01*
X137396200Y-116144172D02*
X137358104Y-116106077D01*
X137358104Y-116106077D02*
X137281914Y-116067982D01*
X137281914Y-116067982D02*
X137205723Y-116067982D01*
X137205723Y-116067982D02*
X137129533Y-116106077D01*
X137129533Y-116106077D02*
X137091438Y-116144172D01*
X137091438Y-116144172D02*
X137053342Y-116220363D01*
X137053342Y-116220363D02*
X137015247Y-116372744D01*
X137015247Y-116372744D02*
X136977152Y-116448934D01*
X136977152Y-116448934D02*
X136939057Y-116487029D01*
X136939057Y-116487029D02*
X136862866Y-116525125D01*
X136862866Y-116525125D02*
X136786676Y-116525125D01*
X136786676Y-116525125D02*
X136710485Y-116487029D01*
X136710485Y-116487029D02*
X136672390Y-116448934D01*
X136672390Y-116448934D02*
X136634295Y-116372744D01*
X136634295Y-116372744D02*
X136634295Y-116182267D01*
X136634295Y-116182267D02*
X136672390Y-116067982D01*
X137015247Y-115725124D02*
X137015247Y-115458458D01*
X137434295Y-115344172D02*
X137434295Y-115725124D01*
X137434295Y-115725124D02*
X136634295Y-115725124D01*
X136634295Y-115725124D02*
X136634295Y-115344172D01*
X136634295Y-115115600D02*
X136634295Y-114658457D01*
X137434295Y-114887029D02*
X136634295Y-114887029D01*
X172399076Y-126209924D02*
X172322886Y-126171829D01*
X172322886Y-126171829D02*
X172208600Y-126171829D01*
X172208600Y-126171829D02*
X172094314Y-126209924D01*
X172094314Y-126209924D02*
X172018124Y-126286114D01*
X172018124Y-126286114D02*
X171980029Y-126362305D01*
X171980029Y-126362305D02*
X171941933Y-126514686D01*
X171941933Y-126514686D02*
X171941933Y-126628972D01*
X171941933Y-126628972D02*
X171980029Y-126781353D01*
X171980029Y-126781353D02*
X172018124Y-126857543D01*
X172018124Y-126857543D02*
X172094314Y-126933734D01*
X172094314Y-126933734D02*
X172208600Y-126971829D01*
X172208600Y-126971829D02*
X172284791Y-126971829D01*
X172284791Y-126971829D02*
X172399076Y-126933734D01*
X172399076Y-126933734D02*
X172437172Y-126895638D01*
X172437172Y-126895638D02*
X172437172Y-126628972D01*
X172437172Y-126628972D02*
X172284791Y-126628972D01*
X172780029Y-126971829D02*
X172780029Y-126171829D01*
X172780029Y-126171829D02*
X173237172Y-126971829D01*
X173237172Y-126971829D02*
X173237172Y-126171829D01*
X173618124Y-126971829D02*
X173618124Y-126171829D01*
X173618124Y-126171829D02*
X173808600Y-126171829D01*
X173808600Y-126171829D02*
X173922886Y-126209924D01*
X173922886Y-126209924D02*
X173999076Y-126286114D01*
X173999076Y-126286114D02*
X174037171Y-126362305D01*
X174037171Y-126362305D02*
X174075267Y-126514686D01*
X174075267Y-126514686D02*
X174075267Y-126628972D01*
X174075267Y-126628972D02*
X174037171Y-126781353D01*
X174037171Y-126781353D02*
X173999076Y-126857543D01*
X173999076Y-126857543D02*
X173922886Y-126933734D01*
X173922886Y-126933734D02*
X173808600Y-126971829D01*
X173808600Y-126971829D02*
X173618124Y-126971829D01*
X152294295Y-126495125D02*
X153094295Y-126228458D01*
X153094295Y-126228458D02*
X152294295Y-125961792D01*
X153094295Y-125695125D02*
X152294295Y-125695125D01*
X152294295Y-125695125D02*
X152294295Y-125504649D01*
X152294295Y-125504649D02*
X152332390Y-125390363D01*
X152332390Y-125390363D02*
X152408580Y-125314173D01*
X152408580Y-125314173D02*
X152484771Y-125276078D01*
X152484771Y-125276078D02*
X152637152Y-125237982D01*
X152637152Y-125237982D02*
X152751438Y-125237982D01*
X152751438Y-125237982D02*
X152903819Y-125276078D01*
X152903819Y-125276078D02*
X152980009Y-125314173D01*
X152980009Y-125314173D02*
X153056200Y-125390363D01*
X153056200Y-125390363D02*
X153094295Y-125504649D01*
X153094295Y-125504649D02*
X153094295Y-125695125D01*
X153094295Y-124895125D02*
X152294295Y-124895125D01*
X152294295Y-124895125D02*
X152294295Y-124704649D01*
X152294295Y-124704649D02*
X152332390Y-124590363D01*
X152332390Y-124590363D02*
X152408580Y-124514173D01*
X152408580Y-124514173D02*
X152484771Y-124476078D01*
X152484771Y-124476078D02*
X152637152Y-124437982D01*
X152637152Y-124437982D02*
X152751438Y-124437982D01*
X152751438Y-124437982D02*
X152903819Y-124476078D01*
X152903819Y-124476078D02*
X152980009Y-124514173D01*
X152980009Y-124514173D02*
X153056200Y-124590363D01*
X153056200Y-124590363D02*
X153094295Y-124704649D01*
X153094295Y-124704649D02*
X153094295Y-124895125D01*
X135762017Y-119294295D02*
X135609636Y-119294295D01*
X135609636Y-119294295D02*
X135533445Y-119332390D01*
X135533445Y-119332390D02*
X135495350Y-119370485D01*
X135495350Y-119370485D02*
X135419160Y-119484771D01*
X135419160Y-119484771D02*
X135381064Y-119637152D01*
X135381064Y-119637152D02*
X135381064Y-119941914D01*
X135381064Y-119941914D02*
X135419160Y-120018104D01*
X135419160Y-120018104D02*
X135457255Y-120056200D01*
X135457255Y-120056200D02*
X135533445Y-120094295D01*
X135533445Y-120094295D02*
X135685826Y-120094295D01*
X135685826Y-120094295D02*
X135762017Y-120056200D01*
X135762017Y-120056200D02*
X135800112Y-120018104D01*
X135800112Y-120018104D02*
X135838207Y-119941914D01*
X135838207Y-119941914D02*
X135838207Y-119751438D01*
X135838207Y-119751438D02*
X135800112Y-119675247D01*
X135800112Y-119675247D02*
X135762017Y-119637152D01*
X135762017Y-119637152D02*
X135685826Y-119599057D01*
X135685826Y-119599057D02*
X135533445Y-119599057D01*
X135533445Y-119599057D02*
X135457255Y-119637152D01*
X135457255Y-119637152D02*
X135419160Y-119675247D01*
X135419160Y-119675247D02*
X135381064Y-119751438D01*
D13*
X168511653Y-65400828D02*
X168868796Y-66400828D01*
X168868796Y-66400828D02*
X169225939Y-65400828D01*
X170583082Y-66400828D02*
X169725939Y-66400828D01*
X170154510Y-66400828D02*
X170154510Y-64900828D01*
X170154510Y-64900828D02*
X170011653Y-65115114D01*
X170011653Y-65115114D02*
X169868796Y-65257971D01*
X169868796Y-65257971D02*
X169725939Y-65329400D01*
X171225938Y-66257971D02*
X171297367Y-66329400D01*
X171297367Y-66329400D02*
X171225938Y-66400828D01*
X171225938Y-66400828D02*
X171154510Y-66329400D01*
X171154510Y-66329400D02*
X171225938Y-66257971D01*
X171225938Y-66257971D02*
X171225938Y-66400828D01*
X171868796Y-65043685D02*
X171940224Y-64972257D01*
X171940224Y-64972257D02*
X172083082Y-64900828D01*
X172083082Y-64900828D02*
X172440224Y-64900828D01*
X172440224Y-64900828D02*
X172583082Y-64972257D01*
X172583082Y-64972257D02*
X172654510Y-65043685D01*
X172654510Y-65043685D02*
X172725939Y-65186542D01*
X172725939Y-65186542D02*
X172725939Y-65329400D01*
X172725939Y-65329400D02*
X172654510Y-65543685D01*
X172654510Y-65543685D02*
X171797367Y-66400828D01*
X171797367Y-66400828D02*
X172725939Y-66400828D01*
D11*
X170654507Y-125967059D02*
X170273554Y-126233726D01*
X170654507Y-126424202D02*
X169854507Y-126424202D01*
X169854507Y-126424202D02*
X169854507Y-126119440D01*
X169854507Y-126119440D02*
X169892602Y-126043250D01*
X169892602Y-126043250D02*
X169930697Y-126005155D01*
X169930697Y-126005155D02*
X170006888Y-125967059D01*
X170006888Y-125967059D02*
X170121173Y-125967059D01*
X170121173Y-125967059D02*
X170197364Y-126005155D01*
X170197364Y-126005155D02*
X170235459Y-126043250D01*
X170235459Y-126043250D02*
X170273554Y-126119440D01*
X170273554Y-126119440D02*
X170273554Y-126424202D01*
X169854507Y-125700393D02*
X170654507Y-125167059D01*
X169854507Y-125167059D02*
X170654507Y-125700393D01*
X159391541Y-100719819D02*
X160010588Y-100719819D01*
X160010588Y-100719819D02*
X159677255Y-101100771D01*
X159677255Y-101100771D02*
X159820112Y-101100771D01*
X159820112Y-101100771D02*
X159915350Y-101148390D01*
X159915350Y-101148390D02*
X159962969Y-101196009D01*
X159962969Y-101196009D02*
X160010588Y-101291247D01*
X160010588Y-101291247D02*
X160010588Y-101529342D01*
X160010588Y-101529342D02*
X159962969Y-101624580D01*
X159962969Y-101624580D02*
X159915350Y-101672200D01*
X159915350Y-101672200D02*
X159820112Y-101719819D01*
X159820112Y-101719819D02*
X159534398Y-101719819D01*
X159534398Y-101719819D02*
X159439160Y-101672200D01*
X159439160Y-101672200D02*
X159391541Y-101624580D01*
X160439160Y-101624580D02*
X160486779Y-101672200D01*
X160486779Y-101672200D02*
X160439160Y-101719819D01*
X160439160Y-101719819D02*
X160391541Y-101672200D01*
X160391541Y-101672200D02*
X160439160Y-101624580D01*
X160439160Y-101624580D02*
X160439160Y-101719819D01*
X160820112Y-100719819D02*
X161439159Y-100719819D01*
X161439159Y-100719819D02*
X161105826Y-101100771D01*
X161105826Y-101100771D02*
X161248683Y-101100771D01*
X161248683Y-101100771D02*
X161343921Y-101148390D01*
X161343921Y-101148390D02*
X161391540Y-101196009D01*
X161391540Y-101196009D02*
X161439159Y-101291247D01*
X161439159Y-101291247D02*
X161439159Y-101529342D01*
X161439159Y-101529342D02*
X161391540Y-101624580D01*
X161391540Y-101624580D02*
X161343921Y-101672200D01*
X161343921Y-101672200D02*
X161248683Y-101719819D01*
X161248683Y-101719819D02*
X160962969Y-101719819D01*
X160962969Y-101719819D02*
X160867731Y-101672200D01*
X160867731Y-101672200D02*
X160820112Y-101624580D01*
X161772493Y-101053152D02*
X162010588Y-101719819D01*
X162010588Y-101719819D02*
X162248683Y-101053152D01*
X157839160Y-105815057D02*
X157886779Y-105767438D01*
X157886779Y-105767438D02*
X157982017Y-105719819D01*
X157982017Y-105719819D02*
X158220112Y-105719819D01*
X158220112Y-105719819D02*
X158315350Y-105767438D01*
X158315350Y-105767438D02*
X158362969Y-105815057D01*
X158362969Y-105815057D02*
X158410588Y-105910295D01*
X158410588Y-105910295D02*
X158410588Y-106005533D01*
X158410588Y-106005533D02*
X158362969Y-106148390D01*
X158362969Y-106148390D02*
X157791541Y-106719819D01*
X157791541Y-106719819D02*
X158410588Y-106719819D01*
X158839160Y-106624580D02*
X158886779Y-106672200D01*
X158886779Y-106672200D02*
X158839160Y-106719819D01*
X158839160Y-106719819D02*
X158791541Y-106672200D01*
X158791541Y-106672200D02*
X158839160Y-106624580D01*
X158839160Y-106624580D02*
X158839160Y-106719819D01*
X159791540Y-105719819D02*
X159315350Y-105719819D01*
X159315350Y-105719819D02*
X159267731Y-106196009D01*
X159267731Y-106196009D02*
X159315350Y-106148390D01*
X159315350Y-106148390D02*
X159410588Y-106100771D01*
X159410588Y-106100771D02*
X159648683Y-106100771D01*
X159648683Y-106100771D02*
X159743921Y-106148390D01*
X159743921Y-106148390D02*
X159791540Y-106196009D01*
X159791540Y-106196009D02*
X159839159Y-106291247D01*
X159839159Y-106291247D02*
X159839159Y-106529342D01*
X159839159Y-106529342D02*
X159791540Y-106624580D01*
X159791540Y-106624580D02*
X159743921Y-106672200D01*
X159743921Y-106672200D02*
X159648683Y-106719819D01*
X159648683Y-106719819D02*
X159410588Y-106719819D01*
X159410588Y-106719819D02*
X159315350Y-106672200D01*
X159315350Y-106672200D02*
X159267731Y-106624580D01*
X160172493Y-106053152D02*
X160410588Y-106719819D01*
X160410588Y-106719819D02*
X160648683Y-106053152D01*
X139048207Y-120074295D02*
X138591064Y-120074295D01*
X138819636Y-120074295D02*
X138819636Y-119274295D01*
X138819636Y-119274295D02*
X138743445Y-119388580D01*
X138743445Y-119388580D02*
X138667255Y-119464771D01*
X138667255Y-119464771D02*
X138591064Y-119502866D01*
X139543446Y-119274295D02*
X139619636Y-119274295D01*
X139619636Y-119274295D02*
X139695827Y-119312390D01*
X139695827Y-119312390D02*
X139733922Y-119350485D01*
X139733922Y-119350485D02*
X139772017Y-119426676D01*
X139772017Y-119426676D02*
X139810112Y-119579057D01*
X139810112Y-119579057D02*
X139810112Y-119769533D01*
X139810112Y-119769533D02*
X139772017Y-119921914D01*
X139772017Y-119921914D02*
X139733922Y-119998104D01*
X139733922Y-119998104D02*
X139695827Y-120036200D01*
X139695827Y-120036200D02*
X139619636Y-120074295D01*
X139619636Y-120074295D02*
X139543446Y-120074295D01*
X139543446Y-120074295D02*
X139467255Y-120036200D01*
X139467255Y-120036200D02*
X139429160Y-119998104D01*
X139429160Y-119998104D02*
X139391065Y-119921914D01*
X139391065Y-119921914D02*
X139352969Y-119769533D01*
X139352969Y-119769533D02*
X139352969Y-119579057D01*
X139352969Y-119579057D02*
X139391065Y-119426676D01*
X139391065Y-119426676D02*
X139429160Y-119350485D01*
X139429160Y-119350485D02*
X139467255Y-119312390D01*
X139467255Y-119312390D02*
X139543446Y-119274295D01*
X139424295Y-123443696D02*
X139043342Y-123710363D01*
X139424295Y-123900839D02*
X138624295Y-123900839D01*
X138624295Y-123900839D02*
X138624295Y-123596077D01*
X138624295Y-123596077D02*
X138662390Y-123519887D01*
X138662390Y-123519887D02*
X138700485Y-123481792D01*
X138700485Y-123481792D02*
X138776676Y-123443696D01*
X138776676Y-123443696D02*
X138890961Y-123443696D01*
X138890961Y-123443696D02*
X138967152Y-123481792D01*
X138967152Y-123481792D02*
X139005247Y-123519887D01*
X139005247Y-123519887D02*
X139043342Y-123596077D01*
X139043342Y-123596077D02*
X139043342Y-123900839D01*
X138624295Y-123177030D02*
X139424295Y-122643696D01*
X138624295Y-122643696D02*
X139424295Y-123177030D01*
X158412969Y-110919819D02*
X157936779Y-110919819D01*
X157936779Y-110919819D02*
X157889160Y-111396009D01*
X157889160Y-111396009D02*
X157936779Y-111348390D01*
X157936779Y-111348390D02*
X158032017Y-111300771D01*
X158032017Y-111300771D02*
X158270112Y-111300771D01*
X158270112Y-111300771D02*
X158365350Y-111348390D01*
X158365350Y-111348390D02*
X158412969Y-111396009D01*
X158412969Y-111396009D02*
X158460588Y-111491247D01*
X158460588Y-111491247D02*
X158460588Y-111729342D01*
X158460588Y-111729342D02*
X158412969Y-111824580D01*
X158412969Y-111824580D02*
X158365350Y-111872200D01*
X158365350Y-111872200D02*
X158270112Y-111919819D01*
X158270112Y-111919819D02*
X158032017Y-111919819D01*
X158032017Y-111919819D02*
X157936779Y-111872200D01*
X157936779Y-111872200D02*
X157889160Y-111824580D01*
X158889160Y-111824580D02*
X158936779Y-111872200D01*
X158936779Y-111872200D02*
X158889160Y-111919819D01*
X158889160Y-111919819D02*
X158841541Y-111872200D01*
X158841541Y-111872200D02*
X158889160Y-111824580D01*
X158889160Y-111824580D02*
X158889160Y-111919819D01*
X159555826Y-110919819D02*
X159651064Y-110919819D01*
X159651064Y-110919819D02*
X159746302Y-110967438D01*
X159746302Y-110967438D02*
X159793921Y-111015057D01*
X159793921Y-111015057D02*
X159841540Y-111110295D01*
X159841540Y-111110295D02*
X159889159Y-111300771D01*
X159889159Y-111300771D02*
X159889159Y-111538866D01*
X159889159Y-111538866D02*
X159841540Y-111729342D01*
X159841540Y-111729342D02*
X159793921Y-111824580D01*
X159793921Y-111824580D02*
X159746302Y-111872200D01*
X159746302Y-111872200D02*
X159651064Y-111919819D01*
X159651064Y-111919819D02*
X159555826Y-111919819D01*
X159555826Y-111919819D02*
X159460588Y-111872200D01*
X159460588Y-111872200D02*
X159412969Y-111824580D01*
X159412969Y-111824580D02*
X159365350Y-111729342D01*
X159365350Y-111729342D02*
X159317731Y-111538866D01*
X159317731Y-111538866D02*
X159317731Y-111300771D01*
X159317731Y-111300771D02*
X159365350Y-111110295D01*
X159365350Y-111110295D02*
X159412969Y-111015057D01*
X159412969Y-111015057D02*
X159460588Y-110967438D01*
X159460588Y-110967438D02*
X159555826Y-110919819D01*
X160222493Y-111253152D02*
X160460588Y-111919819D01*
X160460588Y-111919819D02*
X160698683Y-111253152D01*
X133954295Y-118010839D02*
X133154295Y-118010839D01*
X133878104Y-117172744D02*
X133916200Y-117210840D01*
X133916200Y-117210840D02*
X133954295Y-117325125D01*
X133954295Y-117325125D02*
X133954295Y-117401316D01*
X133954295Y-117401316D02*
X133916200Y-117515602D01*
X133916200Y-117515602D02*
X133840009Y-117591792D01*
X133840009Y-117591792D02*
X133763819Y-117629887D01*
X133763819Y-117629887D02*
X133611438Y-117667983D01*
X133611438Y-117667983D02*
X133497152Y-117667983D01*
X133497152Y-117667983D02*
X133344771Y-117629887D01*
X133344771Y-117629887D02*
X133268580Y-117591792D01*
X133268580Y-117591792D02*
X133192390Y-117515602D01*
X133192390Y-117515602D02*
X133154295Y-117401316D01*
X133154295Y-117401316D02*
X133154295Y-117325125D01*
X133154295Y-117325125D02*
X133192390Y-117210840D01*
X133192390Y-117210840D02*
X133230485Y-117172744D01*
X133535247Y-116829887D02*
X133535247Y-116563221D01*
X133954295Y-116448935D02*
X133954295Y-116829887D01*
X133954295Y-116829887D02*
X133154295Y-116829887D01*
X133154295Y-116829887D02*
X133154295Y-116448935D01*
X134030485Y-116296554D02*
X134030485Y-115687030D01*
X133954295Y-115496553D02*
X133154295Y-115496553D01*
X133154295Y-115496553D02*
X133154295Y-115306077D01*
X133154295Y-115306077D02*
X133192390Y-115191791D01*
X133192390Y-115191791D02*
X133268580Y-115115601D01*
X133268580Y-115115601D02*
X133344771Y-115077506D01*
X133344771Y-115077506D02*
X133497152Y-115039410D01*
X133497152Y-115039410D02*
X133611438Y-115039410D01*
X133611438Y-115039410D02*
X133763819Y-115077506D01*
X133763819Y-115077506D02*
X133840009Y-115115601D01*
X133840009Y-115115601D02*
X133916200Y-115191791D01*
X133916200Y-115191791D02*
X133954295Y-115306077D01*
X133954295Y-115306077D02*
X133954295Y-115496553D01*
X133725723Y-114734649D02*
X133725723Y-114353696D01*
X133954295Y-114810839D02*
X133154295Y-114544172D01*
X133154295Y-114544172D02*
X133954295Y-114277506D01*
X133154295Y-114125125D02*
X133154295Y-113667982D01*
X133954295Y-113896554D02*
X133154295Y-113896554D01*
X135790112Y-120944295D02*
X135409160Y-120944295D01*
X135409160Y-120944295D02*
X135371064Y-121325247D01*
X135371064Y-121325247D02*
X135409160Y-121287152D01*
X135409160Y-121287152D02*
X135485350Y-121249057D01*
X135485350Y-121249057D02*
X135675826Y-121249057D01*
X135675826Y-121249057D02*
X135752017Y-121287152D01*
X135752017Y-121287152D02*
X135790112Y-121325247D01*
X135790112Y-121325247D02*
X135828207Y-121401438D01*
X135828207Y-121401438D02*
X135828207Y-121591914D01*
X135828207Y-121591914D02*
X135790112Y-121668104D01*
X135790112Y-121668104D02*
X135752017Y-121706200D01*
X135752017Y-121706200D02*
X135675826Y-121744295D01*
X135675826Y-121744295D02*
X135485350Y-121744295D01*
X135485350Y-121744295D02*
X135409160Y-121706200D01*
X135409160Y-121706200D02*
X135371064Y-121668104D01*
X129109819Y-121137506D02*
X129824104Y-121137506D01*
X129824104Y-121137506D02*
X129966961Y-121185125D01*
X129966961Y-121185125D02*
X130062200Y-121280363D01*
X130062200Y-121280363D02*
X130109819Y-121423220D01*
X130109819Y-121423220D02*
X130109819Y-121518458D01*
X130109819Y-120137506D02*
X130109819Y-120708934D01*
X130109819Y-120423220D02*
X129109819Y-120423220D01*
X129109819Y-120423220D02*
X129252676Y-120518458D01*
X129252676Y-120518458D02*
X129347914Y-120613696D01*
X129347914Y-120613696D02*
X129395533Y-120708934D01*
X129109819Y-119518458D02*
X129109819Y-119423220D01*
X129109819Y-119423220D02*
X129157438Y-119327982D01*
X129157438Y-119327982D02*
X129205057Y-119280363D01*
X129205057Y-119280363D02*
X129300295Y-119232744D01*
X129300295Y-119232744D02*
X129490771Y-119185125D01*
X129490771Y-119185125D02*
X129728866Y-119185125D01*
X129728866Y-119185125D02*
X129919342Y-119232744D01*
X129919342Y-119232744D02*
X130014580Y-119280363D01*
X130014580Y-119280363D02*
X130062200Y-119327982D01*
X130062200Y-119327982D02*
X130109819Y-119423220D01*
X130109819Y-119423220D02*
X130109819Y-119518458D01*
X130109819Y-119518458D02*
X130062200Y-119613696D01*
X130062200Y-119613696D02*
X130014580Y-119661315D01*
X130014580Y-119661315D02*
X129919342Y-119708934D01*
X129919342Y-119708934D02*
X129728866Y-119756553D01*
X129728866Y-119756553D02*
X129490771Y-119756553D01*
X129490771Y-119756553D02*
X129300295Y-119708934D01*
X129300295Y-119708934D02*
X129205057Y-119661315D01*
X129205057Y-119661315D02*
X129157438Y-119613696D01*
X129157438Y-119613696D02*
X129109819Y-119518458D01*
X135694295Y-118010839D02*
X134894295Y-118010839D01*
X135618104Y-117172744D02*
X135656200Y-117210840D01*
X135656200Y-117210840D02*
X135694295Y-117325125D01*
X135694295Y-117325125D02*
X135694295Y-117401316D01*
X135694295Y-117401316D02*
X135656200Y-117515602D01*
X135656200Y-117515602D02*
X135580009Y-117591792D01*
X135580009Y-117591792D02*
X135503819Y-117629887D01*
X135503819Y-117629887D02*
X135351438Y-117667983D01*
X135351438Y-117667983D02*
X135237152Y-117667983D01*
X135237152Y-117667983D02*
X135084771Y-117629887D01*
X135084771Y-117629887D02*
X135008580Y-117591792D01*
X135008580Y-117591792D02*
X134932390Y-117515602D01*
X134932390Y-117515602D02*
X134894295Y-117401316D01*
X134894295Y-117401316D02*
X134894295Y-117325125D01*
X134894295Y-117325125D02*
X134932390Y-117210840D01*
X134932390Y-117210840D02*
X134970485Y-117172744D01*
X135275247Y-116829887D02*
X135275247Y-116563221D01*
X135694295Y-116448935D02*
X135694295Y-116829887D01*
X135694295Y-116829887D02*
X134894295Y-116829887D01*
X134894295Y-116829887D02*
X134894295Y-116448935D01*
X135770485Y-116296554D02*
X135770485Y-115687030D01*
X135618104Y-115039410D02*
X135656200Y-115077506D01*
X135656200Y-115077506D02*
X135694295Y-115191791D01*
X135694295Y-115191791D02*
X135694295Y-115267982D01*
X135694295Y-115267982D02*
X135656200Y-115382268D01*
X135656200Y-115382268D02*
X135580009Y-115458458D01*
X135580009Y-115458458D02*
X135503819Y-115496553D01*
X135503819Y-115496553D02*
X135351438Y-115534649D01*
X135351438Y-115534649D02*
X135237152Y-115534649D01*
X135237152Y-115534649D02*
X135084771Y-115496553D01*
X135084771Y-115496553D02*
X135008580Y-115458458D01*
X135008580Y-115458458D02*
X134932390Y-115382268D01*
X134932390Y-115382268D02*
X134894295Y-115267982D01*
X134894295Y-115267982D02*
X134894295Y-115191791D01*
X134894295Y-115191791D02*
X134932390Y-115077506D01*
X134932390Y-115077506D02*
X134970485Y-115039410D01*
X135694295Y-114315601D02*
X135694295Y-114696553D01*
X135694295Y-114696553D02*
X134894295Y-114696553D01*
X135694295Y-114048934D02*
X134894295Y-114048934D01*
X135694295Y-113591791D02*
X135237152Y-113934649D01*
X134894295Y-113591791D02*
X135351438Y-114048934D01*
X136874295Y-124015125D02*
X136874295Y-123557982D01*
X137674295Y-123786554D02*
X136874295Y-123786554D01*
X136874295Y-123367506D02*
X137674295Y-122834172D01*
X136874295Y-122834172D02*
X137674295Y-123367506D01*
X157944295Y-126540839D02*
X157144295Y-126540839D01*
X157868104Y-125702744D02*
X157906200Y-125740840D01*
X157906200Y-125740840D02*
X157944295Y-125855125D01*
X157944295Y-125855125D02*
X157944295Y-125931316D01*
X157944295Y-125931316D02*
X157906200Y-126045602D01*
X157906200Y-126045602D02*
X157830009Y-126121792D01*
X157830009Y-126121792D02*
X157753819Y-126159887D01*
X157753819Y-126159887D02*
X157601438Y-126197983D01*
X157601438Y-126197983D02*
X157487152Y-126197983D01*
X157487152Y-126197983D02*
X157334771Y-126159887D01*
X157334771Y-126159887D02*
X157258580Y-126121792D01*
X157258580Y-126121792D02*
X157182390Y-126045602D01*
X157182390Y-126045602D02*
X157144295Y-125931316D01*
X157144295Y-125931316D02*
X157144295Y-125855125D01*
X157144295Y-125855125D02*
X157182390Y-125740840D01*
X157182390Y-125740840D02*
X157220485Y-125702744D01*
X157525247Y-125359887D02*
X157525247Y-125093221D01*
X157944295Y-124978935D02*
X157944295Y-125359887D01*
X157944295Y-125359887D02*
X157144295Y-125359887D01*
X157144295Y-125359887D02*
X157144295Y-124978935D01*
X158020485Y-124826554D02*
X158020485Y-124217030D01*
X157944295Y-124026553D02*
X157144295Y-124026553D01*
X157144295Y-124026553D02*
X157144295Y-123836077D01*
X157144295Y-123836077D02*
X157182390Y-123721791D01*
X157182390Y-123721791D02*
X157258580Y-123645601D01*
X157258580Y-123645601D02*
X157334771Y-123607506D01*
X157334771Y-123607506D02*
X157487152Y-123569410D01*
X157487152Y-123569410D02*
X157601438Y-123569410D01*
X157601438Y-123569410D02*
X157753819Y-123607506D01*
X157753819Y-123607506D02*
X157830009Y-123645601D01*
X157830009Y-123645601D02*
X157906200Y-123721791D01*
X157906200Y-123721791D02*
X157944295Y-123836077D01*
X157944295Y-123836077D02*
X157944295Y-124026553D01*
X157715723Y-123264649D02*
X157715723Y-122883696D01*
X157944295Y-123340839D02*
X157144295Y-123074172D01*
X157144295Y-123074172D02*
X157944295Y-122807506D01*
X157144295Y-122655125D02*
X157144295Y-122197982D01*
X157944295Y-122426554D02*
X157144295Y-122426554D01*
X168105313Y-126047986D02*
X167724360Y-126314653D01*
X168105313Y-126505129D02*
X167305313Y-126505129D01*
X167305313Y-126505129D02*
X167305313Y-126200367D01*
X167305313Y-126200367D02*
X167343408Y-126124177D01*
X167343408Y-126124177D02*
X167381503Y-126086082D01*
X167381503Y-126086082D02*
X167457694Y-126047986D01*
X167457694Y-126047986D02*
X167571979Y-126047986D01*
X167571979Y-126047986D02*
X167648170Y-126086082D01*
X167648170Y-126086082D02*
X167686265Y-126124177D01*
X167686265Y-126124177D02*
X167724360Y-126200367D01*
X167724360Y-126200367D02*
X167724360Y-126505129D01*
X167686265Y-125705129D02*
X167686265Y-125438463D01*
X168105313Y-125324177D02*
X168105313Y-125705129D01*
X168105313Y-125705129D02*
X167305313Y-125705129D01*
X167305313Y-125705129D02*
X167305313Y-125324177D01*
X168067218Y-125019415D02*
X168105313Y-124905129D01*
X168105313Y-124905129D02*
X168105313Y-124714653D01*
X168105313Y-124714653D02*
X168067218Y-124638462D01*
X168067218Y-124638462D02*
X168029122Y-124600367D01*
X168029122Y-124600367D02*
X167952932Y-124562272D01*
X167952932Y-124562272D02*
X167876741Y-124562272D01*
X167876741Y-124562272D02*
X167800551Y-124600367D01*
X167800551Y-124600367D02*
X167762456Y-124638462D01*
X167762456Y-124638462D02*
X167724360Y-124714653D01*
X167724360Y-124714653D02*
X167686265Y-124867034D01*
X167686265Y-124867034D02*
X167648170Y-124943224D01*
X167648170Y-124943224D02*
X167610075Y-124981319D01*
X167610075Y-124981319D02*
X167533884Y-125019415D01*
X167533884Y-125019415D02*
X167457694Y-125019415D01*
X167457694Y-125019415D02*
X167381503Y-124981319D01*
X167381503Y-124981319D02*
X167343408Y-124943224D01*
X167343408Y-124943224D02*
X167305313Y-124867034D01*
X167305313Y-124867034D02*
X167305313Y-124676557D01*
X167305313Y-124676557D02*
X167343408Y-124562272D01*
X167686265Y-124219414D02*
X167686265Y-123952748D01*
X168105313Y-123838462D02*
X168105313Y-124219414D01*
X168105313Y-124219414D02*
X167305313Y-124219414D01*
X167305313Y-124219414D02*
X167305313Y-123838462D01*
X167305313Y-123609890D02*
X167305313Y-123152747D01*
X168105313Y-123381319D02*
X167305313Y-123381319D01*
X137082969Y-120944295D02*
X137616303Y-120944295D01*
X137616303Y-120944295D02*
X137273445Y-121744295D01*
X152154819Y-104366666D02*
X151678628Y-104699999D01*
X152154819Y-104938094D02*
X151154819Y-104938094D01*
X151154819Y-104938094D02*
X151154819Y-104557142D01*
X151154819Y-104557142D02*
X151202438Y-104461904D01*
X151202438Y-104461904D02*
X151250057Y-104414285D01*
X151250057Y-104414285D02*
X151345295Y-104366666D01*
X151345295Y-104366666D02*
X151488152Y-104366666D01*
X151488152Y-104366666D02*
X151583390Y-104414285D01*
X151583390Y-104414285D02*
X151631009Y-104461904D01*
X151631009Y-104461904D02*
X151678628Y-104557142D01*
X151678628Y-104557142D02*
X151678628Y-104938094D01*
X151154819Y-104033332D02*
X151154819Y-103414285D01*
X151154819Y-103414285D02*
X151535771Y-103747618D01*
X151535771Y-103747618D02*
X151535771Y-103604761D01*
X151535771Y-103604761D02*
X151583390Y-103509523D01*
X151583390Y-103509523D02*
X151631009Y-103461904D01*
X151631009Y-103461904D02*
X151726247Y-103414285D01*
X151726247Y-103414285D02*
X151964342Y-103414285D01*
X151964342Y-103414285D02*
X152059580Y-103461904D01*
X152059580Y-103461904D02*
X152107200Y-103509523D01*
X152107200Y-103509523D02*
X152154819Y-103604761D01*
X152154819Y-103604761D02*
X152154819Y-103890475D01*
X152154819Y-103890475D02*
X152107200Y-103985713D01*
X152107200Y-103985713D02*
X152059580Y-104033332D01*
X163761666Y-103429019D02*
X163761666Y-104143304D01*
X163761666Y-104143304D02*
X163714047Y-104286161D01*
X163714047Y-104286161D02*
X163618809Y-104381400D01*
X163618809Y-104381400D02*
X163475952Y-104429019D01*
X163475952Y-104429019D02*
X163380714Y-104429019D01*
X164237857Y-104429019D02*
X164237857Y-103429019D01*
X164237857Y-103429019D02*
X164618809Y-103429019D01*
X164618809Y-103429019D02*
X164714047Y-103476638D01*
X164714047Y-103476638D02*
X164761666Y-103524257D01*
X164761666Y-103524257D02*
X164809285Y-103619495D01*
X164809285Y-103619495D02*
X164809285Y-103762352D01*
X164809285Y-103762352D02*
X164761666Y-103857590D01*
X164761666Y-103857590D02*
X164714047Y-103905209D01*
X164714047Y-103905209D02*
X164618809Y-103952828D01*
X164618809Y-103952828D02*
X164237857Y-103952828D01*
X165761666Y-104429019D02*
X165190238Y-104429019D01*
X165475952Y-104429019D02*
X165475952Y-103429019D01*
X165475952Y-103429019D02*
X165380714Y-103571876D01*
X165380714Y-103571876D02*
X165285476Y-103667114D01*
X165285476Y-103667114D02*
X165190238Y-103714733D01*
X135073333Y-82634819D02*
X134740000Y-82158628D01*
X134501905Y-82634819D02*
X134501905Y-81634819D01*
X134501905Y-81634819D02*
X134882857Y-81634819D01*
X134882857Y-81634819D02*
X134978095Y-81682438D01*
X134978095Y-81682438D02*
X135025714Y-81730057D01*
X135025714Y-81730057D02*
X135073333Y-81825295D01*
X135073333Y-81825295D02*
X135073333Y-81968152D01*
X135073333Y-81968152D02*
X135025714Y-82063390D01*
X135025714Y-82063390D02*
X134978095Y-82111009D01*
X134978095Y-82111009D02*
X134882857Y-82158628D01*
X134882857Y-82158628D02*
X134501905Y-82158628D01*
X136025714Y-82634819D02*
X135454286Y-82634819D01*
X135740000Y-82634819D02*
X135740000Y-81634819D01*
X135740000Y-81634819D02*
X135644762Y-81777676D01*
X135644762Y-81777676D02*
X135549524Y-81872914D01*
X135549524Y-81872914D02*
X135454286Y-81920533D01*
X165584819Y-81006666D02*
X165108628Y-81339999D01*
X165584819Y-81578094D02*
X164584819Y-81578094D01*
X164584819Y-81578094D02*
X164584819Y-81197142D01*
X164584819Y-81197142D02*
X164632438Y-81101904D01*
X164632438Y-81101904D02*
X164680057Y-81054285D01*
X164680057Y-81054285D02*
X164775295Y-81006666D01*
X164775295Y-81006666D02*
X164918152Y-81006666D01*
X164918152Y-81006666D02*
X165013390Y-81054285D01*
X165013390Y-81054285D02*
X165061009Y-81101904D01*
X165061009Y-81101904D02*
X165108628Y-81197142D01*
X165108628Y-81197142D02*
X165108628Y-81578094D01*
X164680057Y-80625713D02*
X164632438Y-80578094D01*
X164632438Y-80578094D02*
X164584819Y-80482856D01*
X164584819Y-80482856D02*
X164584819Y-80244761D01*
X164584819Y-80244761D02*
X164632438Y-80149523D01*
X164632438Y-80149523D02*
X164680057Y-80101904D01*
X164680057Y-80101904D02*
X164775295Y-80054285D01*
X164775295Y-80054285D02*
X164870533Y-80054285D01*
X164870533Y-80054285D02*
X165013390Y-80101904D01*
X165013390Y-80101904D02*
X165584819Y-80673332D01*
X165584819Y-80673332D02*
X165584819Y-80054285D01*
X131816666Y-91204819D02*
X131816666Y-91919104D01*
X131816666Y-91919104D02*
X131769047Y-92061961D01*
X131769047Y-92061961D02*
X131673809Y-92157200D01*
X131673809Y-92157200D02*
X131530952Y-92204819D01*
X131530952Y-92204819D02*
X131435714Y-92204819D01*
X132292857Y-92204819D02*
X132292857Y-91204819D01*
X132292857Y-91204819D02*
X132673809Y-91204819D01*
X132673809Y-91204819D02*
X132769047Y-91252438D01*
X132769047Y-91252438D02*
X132816666Y-91300057D01*
X132816666Y-91300057D02*
X132864285Y-91395295D01*
X132864285Y-91395295D02*
X132864285Y-91538152D01*
X132864285Y-91538152D02*
X132816666Y-91633390D01*
X132816666Y-91633390D02*
X132769047Y-91681009D01*
X132769047Y-91681009D02*
X132673809Y-91728628D01*
X132673809Y-91728628D02*
X132292857Y-91728628D01*
X133721428Y-91538152D02*
X133721428Y-92204819D01*
X133483333Y-91157200D02*
X133245238Y-91871485D01*
X133245238Y-91871485D02*
X133864285Y-91871485D01*
X148742878Y-95222787D02*
X148742878Y-95870833D01*
X148742878Y-95870833D02*
X148780999Y-95947074D01*
X148780999Y-95947074D02*
X148819119Y-95985195D01*
X148819119Y-95985195D02*
X148895360Y-96023315D01*
X148895360Y-96023315D02*
X149047841Y-96023315D01*
X149047841Y-96023315D02*
X149124082Y-95985195D01*
X149124082Y-95985195D02*
X149162203Y-95947074D01*
X149162203Y-95947074D02*
X149200323Y-95870833D01*
X149200323Y-95870833D02*
X149200323Y-95222787D01*
X149543406Y-95299028D02*
X149581526Y-95260907D01*
X149581526Y-95260907D02*
X149657767Y-95222787D01*
X149657767Y-95222787D02*
X149848369Y-95222787D01*
X149848369Y-95222787D02*
X149924610Y-95260907D01*
X149924610Y-95260907D02*
X149962730Y-95299028D01*
X149962730Y-95299028D02*
X150000851Y-95375268D01*
X150000851Y-95375268D02*
X150000851Y-95451509D01*
X150000851Y-95451509D02*
X149962730Y-95565870D01*
X149962730Y-95565870D02*
X149505286Y-96023315D01*
X149505286Y-96023315D02*
X150000851Y-96023315D01*
X163466666Y-99004819D02*
X163466666Y-99719104D01*
X163466666Y-99719104D02*
X163419047Y-99861961D01*
X163419047Y-99861961D02*
X163323809Y-99957200D01*
X163323809Y-99957200D02*
X163180952Y-100004819D01*
X163180952Y-100004819D02*
X163085714Y-100004819D01*
X163942857Y-100004819D02*
X163942857Y-99004819D01*
X163942857Y-99004819D02*
X164323809Y-99004819D01*
X164323809Y-99004819D02*
X164419047Y-99052438D01*
X164419047Y-99052438D02*
X164466666Y-99100057D01*
X164466666Y-99100057D02*
X164514285Y-99195295D01*
X164514285Y-99195295D02*
X164514285Y-99338152D01*
X164514285Y-99338152D02*
X164466666Y-99433390D01*
X164466666Y-99433390D02*
X164419047Y-99481009D01*
X164419047Y-99481009D02*
X164323809Y-99528628D01*
X164323809Y-99528628D02*
X163942857Y-99528628D01*
X164895238Y-99100057D02*
X164942857Y-99052438D01*
X164942857Y-99052438D02*
X165038095Y-99004819D01*
X165038095Y-99004819D02*
X165276190Y-99004819D01*
X165276190Y-99004819D02*
X165371428Y-99052438D01*
X165371428Y-99052438D02*
X165419047Y-99100057D01*
X165419047Y-99100057D02*
X165466666Y-99195295D01*
X165466666Y-99195295D02*
X165466666Y-99290533D01*
X165466666Y-99290533D02*
X165419047Y-99433390D01*
X165419047Y-99433390D02*
X164847619Y-100004819D01*
X164847619Y-100004819D02*
X165466666Y-100004819D01*
X136041666Y-96904819D02*
X136041666Y-97619104D01*
X136041666Y-97619104D02*
X135994047Y-97761961D01*
X135994047Y-97761961D02*
X135898809Y-97857200D01*
X135898809Y-97857200D02*
X135755952Y-97904819D01*
X135755952Y-97904819D02*
X135660714Y-97904819D01*
X136517857Y-97904819D02*
X136517857Y-96904819D01*
X136517857Y-96904819D02*
X136898809Y-96904819D01*
X136898809Y-96904819D02*
X136994047Y-96952438D01*
X136994047Y-96952438D02*
X137041666Y-97000057D01*
X137041666Y-97000057D02*
X137089285Y-97095295D01*
X137089285Y-97095295D02*
X137089285Y-97238152D01*
X137089285Y-97238152D02*
X137041666Y-97333390D01*
X137041666Y-97333390D02*
X136994047Y-97381009D01*
X136994047Y-97381009D02*
X136898809Y-97428628D01*
X136898809Y-97428628D02*
X136517857Y-97428628D01*
X137422619Y-96904819D02*
X138041666Y-96904819D01*
X138041666Y-96904819D02*
X137708333Y-97285771D01*
X137708333Y-97285771D02*
X137851190Y-97285771D01*
X137851190Y-97285771D02*
X137946428Y-97333390D01*
X137946428Y-97333390D02*
X137994047Y-97381009D01*
X137994047Y-97381009D02*
X138041666Y-97476247D01*
X138041666Y-97476247D02*
X138041666Y-97714342D01*
X138041666Y-97714342D02*
X137994047Y-97809580D01*
X137994047Y-97809580D02*
X137946428Y-97857200D01*
X137946428Y-97857200D02*
X137851190Y-97904819D01*
X137851190Y-97904819D02*
X137565476Y-97904819D01*
X137565476Y-97904819D02*
X137470238Y-97857200D01*
X137470238Y-97857200D02*
X137422619Y-97809580D01*
X158659580Y-82966666D02*
X158707200Y-83014285D01*
X158707200Y-83014285D02*
X158754819Y-83157142D01*
X158754819Y-83157142D02*
X158754819Y-83252380D01*
X158754819Y-83252380D02*
X158707200Y-83395237D01*
X158707200Y-83395237D02*
X158611961Y-83490475D01*
X158611961Y-83490475D02*
X158516723Y-83538094D01*
X158516723Y-83538094D02*
X158326247Y-83585713D01*
X158326247Y-83585713D02*
X158183390Y-83585713D01*
X158183390Y-83585713D02*
X157992914Y-83538094D01*
X157992914Y-83538094D02*
X157897676Y-83490475D01*
X157897676Y-83490475D02*
X157802438Y-83395237D01*
X157802438Y-83395237D02*
X157754819Y-83252380D01*
X157754819Y-83252380D02*
X157754819Y-83157142D01*
X157754819Y-83157142D02*
X157802438Y-83014285D01*
X157802438Y-83014285D02*
X157850057Y-82966666D01*
X158754819Y-82014285D02*
X158754819Y-82585713D01*
X158754819Y-82299999D02*
X157754819Y-82299999D01*
X157754819Y-82299999D02*
X157897676Y-82395237D01*
X157897676Y-82395237D02*
X157992914Y-82490475D01*
X157992914Y-82490475D02*
X158040533Y-82585713D01*
D14*
%TO.C,R3*%
X150785000Y-103972936D02*
X150785000Y-104427064D01*
X149315000Y-103972936D02*
X149315000Y-104427064D01*
%TO.C,JP1*%
X161995000Y-104974200D02*
X163325000Y-104974200D01*
X161995000Y-107574200D02*
X161995000Y-104974200D01*
X161995000Y-107574200D02*
X161995000Y-112714200D01*
X161995000Y-107574200D02*
X167192574Y-107574200D01*
X161995000Y-110114200D02*
X167192574Y-110114200D01*
X161995000Y-112714200D02*
X167195000Y-112714200D01*
X163325000Y-104974200D02*
X167195000Y-104974200D01*
X167195000Y-104974200D02*
X167195000Y-112714200D01*
%TO.C,R1*%
X135467064Y-81265000D02*
X135012936Y-81265000D01*
X135467064Y-79795000D02*
X135012936Y-79795000D01*
%TO.C,R2*%
X163837500Y-80737936D02*
X163837500Y-81192064D01*
X162367500Y-80737936D02*
X162367500Y-81192064D01*
%TO.C,JP4*%
X134050000Y-93850000D02*
X134050000Y-94450000D01*
X133350000Y-95150000D02*
X131950000Y-95150000D01*
X131950000Y-93150000D02*
X133350000Y-93150000D01*
X131250000Y-94450000D02*
X131250000Y-93850000D01*
X133350000Y-95150000D02*
G75*
G03*
X134050000Y-94450000I1J699999D01*
G01*
X134050000Y-93850000D02*
G75*
G03*
X133350000Y-93150000I-699999J1D01*
G01*
X131250000Y-94450000D02*
G75*
G03*
X131950000Y-95150000I700000J0D01*
G01*
X131950000Y-93150000D02*
G75*
G03*
X131250000Y-93850000I0J-700000D01*
G01*
D15*
%TO.C,U2*%
X150761500Y-94750000D02*
X147023500Y-94750000D01*
X150761500Y-88150000D02*
X147023500Y-88150000D01*
D12*
X153192500Y-94350000D02*
G75*
G03*
X153192500Y-94350000I-100000J0D01*
G01*
D14*
%TO.C,JP2*%
X162900000Y-101650000D02*
X162900000Y-101050000D01*
X163600000Y-100350000D02*
X165000000Y-100350000D01*
X165000000Y-102350000D02*
X163600000Y-102350000D01*
X165700000Y-101050000D02*
X165700000Y-101650000D01*
X163600000Y-100350000D02*
G75*
G03*
X162900000Y-101050000I-1J-699999D01*
G01*
X162900000Y-101650000D02*
G75*
G03*
X163600000Y-102350000I699999J-1D01*
G01*
X165700000Y-101050000D02*
G75*
G03*
X165000000Y-100350000I-700000J0D01*
G01*
X165000000Y-102350000D02*
G75*
G03*
X165700000Y-101650000I0J700000D01*
G01*
%TO.C,JP3*%
X134705000Y-96320000D02*
X134705000Y-97650000D01*
X133375000Y-96320000D02*
X134705000Y-96320000D01*
X132105000Y-96320000D02*
X129505000Y-96320000D01*
X132105000Y-96320000D02*
X132105000Y-98980000D01*
X129505000Y-96320000D02*
X129505000Y-98980000D01*
X132105000Y-98980000D02*
X129505000Y-98980000D01*
%TO.C,C1*%
X160735000Y-82738748D02*
X160735000Y-83261252D01*
X159265000Y-82738748D02*
X159265000Y-83261252D01*
D15*
%TO.C,J1*%
X122674500Y-74554200D02*
X126484500Y-74554200D01*
X122674500Y-77094200D02*
X122674500Y-74554200D01*
X122674500Y-77094200D02*
X126484500Y-77094200D01*
X122674500Y-131069200D02*
X122674500Y-77094200D01*
X123309500Y-127259200D02*
X123309500Y-131069200D01*
X123309500Y-131069200D02*
X122674500Y-131069200D01*
X125849500Y-127259200D02*
X123309500Y-127259200D01*
X125849500Y-127259200D02*
X126484500Y-127259200D01*
X125849500Y-131069200D02*
X123309500Y-131069200D01*
X125849500Y-131069200D02*
X125849500Y-127259200D01*
X126484500Y-74554200D02*
X126484500Y-77094200D01*
X126484500Y-77094200D02*
X126484500Y-127259200D01*
X126484500Y-127259200D02*
X170934500Y-127259200D01*
X170934500Y-74554200D02*
X174744500Y-74554200D01*
X170934500Y-77094200D02*
X170934500Y-74554200D01*
X170934500Y-77094200D02*
X174744500Y-77094200D01*
X170934500Y-127259200D02*
X170934500Y-77094200D01*
X174744500Y-74554200D02*
X174744500Y-77094200D01*
X174744500Y-77094200D02*
X174744500Y-131069200D01*
X174744500Y-131069200D02*
X125849500Y-131069200D01*
%TD*%
%LPC*%
D16*
%TO.C,R3*%
X150050000Y-103200000D03*
X150050000Y-105200000D03*
%TD*%
D17*
%TO.C,JP1*%
X163325000Y-106304200D03*
D18*
X165865000Y-106304200D03*
X163325000Y-108844200D03*
X165865000Y-108844200D03*
X163325000Y-111384200D03*
X165865000Y-111384200D03*
%TD*%
D19*
%TO.C,R1*%
X136240000Y-80530000D03*
X134240000Y-80530000D03*
%TD*%
D16*
%TO.C,R2*%
X163102500Y-79965000D03*
X163102500Y-81965000D03*
%TD*%
D20*
%TO.C,JP4*%
X133300000Y-94150000D03*
D21*
X132000000Y-94150000D03*
%TD*%
D22*
%TO.C,U2*%
X151757500Y-94375000D03*
X151757500Y-93725000D03*
X151757500Y-93075000D03*
X151757500Y-92425000D03*
X151757500Y-91775000D03*
X151757500Y-91125000D03*
X151757500Y-90475000D03*
X151757500Y-89825000D03*
X151757500Y-89175000D03*
X151757500Y-88525000D03*
D23*
X146027500Y-88525000D03*
X146027500Y-89175000D03*
X146027500Y-89825000D03*
X146027500Y-90475000D03*
X146027500Y-91125000D03*
X146027500Y-91775000D03*
X146027500Y-92425000D03*
X146027500Y-93075000D03*
X146027500Y-93725000D03*
X146027500Y-94375000D03*
%TD*%
D24*
%TO.C,JP2*%
X163650000Y-101350000D03*
D25*
X164950000Y-101350000D03*
%TD*%
D26*
%TO.C,JP3*%
X133375000Y-97650000D03*
D18*
X130835000Y-97650000D03*
%TD*%
D27*
%TO.C,C1*%
X160000000Y-81962500D03*
X160000000Y-84037500D03*
%TD*%
D28*
%TO.C,J1*%
X124579500Y-75824200D03*
X124579500Y-78364200D03*
X124579500Y-80904200D03*
X124579500Y-83444200D03*
X124579500Y-85984200D03*
X124579500Y-88524200D03*
X124579500Y-91064200D03*
X124579500Y-93604200D03*
X124579500Y-96144200D03*
X124579500Y-98684200D03*
X124579500Y-101224200D03*
X124579500Y-103764200D03*
X124579500Y-106304200D03*
X124579500Y-108844200D03*
X124579500Y-111384200D03*
X124579500Y-113924200D03*
X124579500Y-116464200D03*
X124579500Y-119004200D03*
X124579500Y-121544200D03*
X124579500Y-124084200D03*
D29*
X124579500Y-129164200D03*
X127119500Y-129164200D03*
X129659500Y-129164200D03*
X132199500Y-129164200D03*
X134739500Y-129164200D03*
X137279500Y-129164200D03*
X139819500Y-129164200D03*
X142359500Y-129164200D03*
X144899500Y-129164200D03*
X147439500Y-129164200D03*
X149979500Y-129164200D03*
X152519500Y-129164200D03*
X155059500Y-129164200D03*
X157599500Y-129164200D03*
X160139500Y-129164200D03*
X162679500Y-129164200D03*
X165219500Y-129164200D03*
X167759500Y-129164200D03*
X170299500Y-129164200D03*
X172839500Y-129164200D03*
D28*
X172839500Y-75824200D03*
X172839500Y-78364200D03*
X172839500Y-80904200D03*
X172839500Y-83444200D03*
X172839500Y-85984200D03*
X172839500Y-88524200D03*
X172839500Y-91064200D03*
X172839500Y-93604200D03*
X172839500Y-96144200D03*
X172839500Y-98684200D03*
X172839500Y-101224200D03*
X172839500Y-103764200D03*
X172839500Y-106304200D03*
X172839500Y-108844200D03*
X172839500Y-111384200D03*
X172839500Y-113924200D03*
X172839500Y-116464200D03*
X172839500Y-119004200D03*
X172839500Y-121544200D03*
X172839500Y-124084200D03*
D30*
X129659500Y-70744200D03*
X167759500Y-70744200D03*
X147439500Y-121544200D03*
%TD*%
%LPD*%
M02*
